<svg width="138" height="277" viewBox="0 0 138 277" fill="none" xmlns="http://www.w3.org/2000/svg">
<path d="M96.7382 123.13C98.5936 121.229 99.2802 118.891 98.2718 117.906C97.2635 116.922 94.9419 117.664 93.0865 119.564C91.2311 121.465 90.5445 123.804 91.5529 124.788C92.5613 125.773 94.8828 125.03 96.7382 123.13Z" fill="#0A187C"/>
<path d="M96.8879 129.352C99.7481 127.859 101.424 125.418 100.632 123.9C99.8398 122.383 96.8789 122.363 94.0187 123.856C91.1585 125.349 89.4821 127.79 90.2745 129.308C91.0668 130.825 94.0277 130.845 96.8879 129.352Z" fill="#0A187C"/>
<path d="M45.6107 124.788C46.6191 123.804 45.9324 121.465 44.0771 119.564C42.2217 117.664 39.9001 116.922 38.8917 117.906C37.8834 118.891 38.57 121.229 40.4254 123.13C42.2808 125.03 44.6023 125.773 45.6107 124.788Z" fill="#0A187C"/>
<path d="M46.8889 129.308C47.6812 127.79 46.0049 125.349 43.1447 123.856C40.2846 122.363 37.3236 122.383 36.5313 123.9C35.739 125.418 37.4153 127.859 40.2755 129.352C43.1357 130.845 46.0966 130.825 46.8889 129.308Z" fill="#0A187C"/>
<path d="M98.7335 246.076C87.1133 219.512 99.8667 161.494 68.2887 161.542C36.7106 161.494 49.4633 219.512 37.8433 246.076C46.9175 256.936 89.6576 257.145 98.7335 246.076Z" fill="#B36FEF"/>
<path d="M68.2888 149.61C65.3185 149.61 62.9106 152.018 62.9106 154.988V165.064C62.9106 168.034 65.3185 170.442 68.2888 170.442C71.2591 170.442 73.6669 168.034 73.6669 165.064V154.988C73.6669 152.018 71.2591 149.61 68.2888 149.61Z" fill="#1E2B87"/>
<path d="M68.2888 149.61C65.3185 149.61 62.9106 152.018 62.9106 154.988V159.98C64.6491 160.295 66.4474 160.461 68.2888 160.461C70.1302 160.461 71.9283 160.295 73.6669 159.98V154.988C73.6669 152.018 71.2591 149.61 68.2888 149.61Z" fill="#0A187C"/>
<path d="M130.067 196.853L126.434 196.109" stroke="#071454" stroke-width="1.22489" stroke-miterlimit="10" stroke-linecap="round"/>
<path d="M128.871 187.898L125.507 189.459" stroke="#071454" stroke-width="1.22489" stroke-miterlimit="10" stroke-linecap="round"/>
<path d="M130.406 192.411L126.701 192.581" stroke="#071454" stroke-width="1.22489" stroke-miterlimit="10" stroke-linecap="round"/>
<path d="M60.6893 170.619C49.4634 181.175 48.7445 217.141 28.8857 223.656" stroke="#0A187C" stroke-width="9.18669" stroke-miterlimit="10" stroke-linecap="round"/>
<path d="M67.294 214.486C67.294 232.556 50.2633 273.962 18.6 258.651C1.03492 250.158 13.0707 228.831 11.8084 221.029C10.546 213.226 4.59473 211.422 4.59473 211.422" stroke="#0A187C" stroke-width="9.18669" stroke-miterlimit="10" stroke-linecap="round"/>
<path d="M75.7534 170.594C94.8674 197.137 112.491 199.514 123.898 193.176" stroke="#0A187C" stroke-width="9.18669" stroke-miterlimit="10" stroke-linecap="round"/>
<path d="M70.5656 221.029H66.0123C56.8563 221.029 49.6572 213.201 50.422 204.077L52.6987 176.917C53.3781 168.812 60.1551 162.579 68.2889 162.579C76.4227 162.579 83.1998 168.812 83.8792 176.917L86.1559 204.077C86.9207 213.201 79.7216 221.029 70.5656 221.029Z" fill="#1E2B87"/>
<path d="M51.6558 275.947H42.5969C39.3725 275.947 37.085 272.803 38.0772 269.735C38.9013 267.187 41.6675 265.824 44.1902 266.722L52.7243 269.76C53.9937 270.212 54.8414 271.414 54.8414 272.762C54.8414 274.521 53.4152 275.947 51.6558 275.947Z" fill="#1E2B87"/>
<path d="M56.9179 208.47C56.9179 230.065 55.5698 253.681 50.3662 270.664L56.9179 208.47Z" fill="white"/>
<path d="M56.9179 208.47C56.9179 230.065 55.5698 253.681 50.3662 270.664" stroke="#1E2B87" stroke-width="10.7178" stroke-miterlimit="10" stroke-linecap="round"/>
<path d="M85.0015 275.947H94.0604C97.2848 275.947 99.5723 272.803 98.5801 269.735C97.7561 267.187 94.9899 265.824 92.4671 266.722L83.933 269.76C82.6636 270.212 81.8159 271.414 81.8159 272.762C81.8159 274.521 83.2422 275.947 85.0015 275.947Z" fill="#1E2B87"/>
<path d="M79.7397 208.47C79.7397 230.065 81.0879 253.681 86.2915 270.664L79.7397 208.47Z" fill="white"/>
<path d="M79.7397 208.47C79.7397 230.065 81.0879 253.681 86.2915 270.664" stroke="#1E2B87" stroke-width="10.7178" stroke-miterlimit="10" stroke-linecap="round"/>
<path d="M135.819 269.375C134.131 267.948 133.118 265.877 132.824 263.687L129.883 241.79C129.702 240.441 129.399 239.111 128.98 237.816C128.408 236.053 128.055 234.227 127.928 232.378L120.339 121.925C120.183 119.648 119.713 117.403 118.943 115.254L118.277 113.397C116.205 107.615 116.351 101.269 118.687 95.5885C120.101 92.1495 120.724 88.4367 120.51 84.7246L118.274 45.9C118.181 44.2911 118.979 42.7612 120.352 41.9165L129.81 36.096C133.948 33.5492 135.434 28.2488 133.222 23.9221L123.015 3.95884C121.558 1.10856 118.407 -0.452197 115.256 0.115803L100.565 2.76445C97.2668 3.35903 94.8677 6.22949 94.8677 9.58068V12.806C94.8677 15.3289 97.3382 17.1112 99.7323 16.3155L110.397 12.771C112.465 12.0837 114.733 12.9313 115.842 14.8065L121.467 24.3088C122.831 26.6131 122.158 29.5817 119.933 31.0719L113.932 35.0919C110.192 37.5971 108.081 41.9144 108.401 46.4046L110.832 80.5307C111.136 84.8097 110.326 89.0946 108.481 92.967L108.214 93.528C105.495 99.2315 105.055 105.757 106.983 111.774L110.208 121.836C110.769 123.59 111.134 125.4 111.296 127.234L119.231 217.447C119.366 218.981 119.2 220.527 118.743 221.999C118.291 223.454 118.175 224.994 118.32 226.511L121.83 263.47C122.049 265.772 121.384 268.082 119.927 269.879C119.358 270.58 119.04 271.492 119.107 272.48C119.241 274.452 120.955 275.947 122.931 275.947H133.291C135.335 275.947 137.091 274.353 137.139 272.309C137.166 271.132 136.648 270.076 135.819 269.375Z" fill="#99316D"/>
<path d="M112.492 70.0954C113.193 77.0673 115.881 84.2282 120.142 90.626C120.497 88.6863 120.624 86.7056 120.51 84.7245L120.506 84.6665C117.962 79.8528 116.345 74.747 115.844 69.7586C115.245 63.8043 116.234 58.2523 118.706 53.4088L118.37 47.5715C113.673 53.8984 111.643 61.6471 112.492 70.0954Z" fill="#752858"/>
<path d="M110.243 1.13684L112.239 12.6707L123.269 4.57337" stroke="#F9A121" stroke-width="1.22489" stroke-linecap="round" stroke-linejoin="round"/>
<path d="M102.401 24.0274V2.5506" stroke="#F9A121" stroke-width="1.22489" stroke-linecap="round" stroke-linejoin="round"/>
<path d="M115.842 14.9238L125.614 9.16058" stroke="#F9A121" stroke-width="1.22489" stroke-linecap="round" stroke-linejoin="round"/>
<path d="M68.2888 171.335V161.542C53.768 161.52 48.6207 173.776 46.1675 189.606L46.1684 189.609L68.2888 171.335Z" fill="#B36FEF"/>
<path d="M68.1714 171.335V161.542C82.6922 161.52 85.3007 168.094 92.0733 182.163L68.1714 171.335Z" fill="#B36FEF"/>
<path d="M68.1713 170.619L63.0742 191.804" stroke="#F9A121" stroke-width="1.22489" stroke-miterlimit="10"/>
<path d="M68.2886 170.619L73.3857 191.804" stroke="#F9A121" stroke-width="1.22489" stroke-miterlimit="10"/>
<path d="M74.1734 191.205L75.0458 192.972L76.9965 193.256C77.717 193.36 78.0046 194.246 77.4833 194.754L76.0717 196.13L76.405 198.073C76.528 198.79 75.7749 199.337 75.1305 198.999L73.3858 198.081L71.6409 198.999C70.9966 199.337 70.2435 198.79 70.3665 198.073L70.6998 196.13L69.2882 194.754C68.7669 194.246 69.0546 193.36 69.775 193.256L71.7257 192.972L72.5981 191.205C72.9203 190.552 73.8512 190.552 74.1734 191.205Z" fill="#FFCB39"/>
<path d="M62.0602 190.763C61.7113 190.713 61.3697 190.705 61.0386 190.735C60.6658 190.769 60.5101 191.218 60.7721 191.485C61.6905 192.422 62.2509 193.71 62.2343 195.125C62.2177 196.541 61.6272 197.815 60.687 198.73C60.4188 198.991 60.5641 199.444 60.9361 199.486C61.0808 199.503 61.2278 199.512 61.3767 199.514C63.8488 199.543 65.8685 197.527 65.8259 195.037C65.7895 192.906 64.1696 191.068 62.0602 190.763Z" fill="#FFCB39"/>
<path d="M68.1714 174.185C70.1408 174.185 71.7374 172.589 71.7374 170.619C71.7374 168.65 70.1408 167.053 68.1714 167.053C66.202 167.053 64.6055 168.65 64.6055 170.619C64.6055 172.589 66.202 174.185 68.1714 174.185Z" fill="#FFCB39"/>
<path d="M68.2889 158.521C83.2914 158.521 95.4533 147.552 95.4533 134.022C95.4533 120.492 83.2914 109.524 68.2889 109.524C53.2864 109.524 41.1245 120.492 41.1245 134.022C41.1245 147.552 53.2864 158.521 68.2889 158.521Z" fill="#1E2B87"/>
<path d="M63.3183 125.043C64.6958 125.043 65.8125 123.926 65.8125 122.549C65.8125 121.171 64.6958 120.054 63.3183 120.054C61.9409 120.054 60.8242 121.171 60.8242 122.549C60.8242 123.926 61.9409 125.043 63.3183 125.043Z" fill="#3147B5"/>
<path d="M73.2593 125.043C74.6367 125.043 75.7534 123.926 75.7534 122.549C75.7534 121.171 74.6367 120.054 73.2593 120.054C71.8818 120.054 70.7651 121.171 70.7651 122.549C70.7651 123.926 71.8818 125.043 73.2593 125.043Z" fill="#3147B5"/>
<path d="M64.8465 111.527L57.6973 89.9026C57.1737 88.3189 55.6936 87.2493 54.0256 87.2493C52.699 87.2493 51.4719 87.9335 50.7559 89.0503C47.253 94.5143 44.3525 100.809 41.8879 107.705C40.0749 112.778 40.8339 118.415 43.9525 122.808C46.136 125.883 50.3137 126.769 53.5571 124.843L61.6659 120.03C64.5911 118.294 65.9143 114.757 64.8465 111.527Z" fill="#1E2B87"/>
<path d="M54.6137 95.6442L56.567 110.251C56.8086 112.057 55.927 113.829 54.3404 114.726C51.6212 116.263 48.1744 114.606 47.7327 111.513C46.9855 106.282 49.5205 100.988 54.6137 95.6442Z" fill="#F47AB2"/>
<path d="M71.7312 111.527L78.8804 89.9025C79.404 88.3188 80.8841 87.2493 82.5521 87.2493C83.8788 87.2493 85.1058 87.9334 85.8218 89.0503C89.3247 94.5143 92.2253 100.809 94.6898 107.705C96.5028 112.777 95.7439 118.415 92.6253 122.808C90.4418 125.883 86.264 126.768 83.0207 124.843L74.9118 120.03C71.9866 118.294 70.6634 114.756 71.7312 111.527Z" fill="#1E2B87"/>
<path d="M81.9639 95.6441L80.0107 110.251C79.7691 112.057 80.6507 113.829 82.2373 114.726C84.9565 116.263 88.4033 114.605 88.845 111.513C89.5922 106.282 87.0572 100.988 81.9639 95.6441Z" fill="#F47AB2"/>
<path d="M79.232 138.012C82.5705 138.012 85.277 135.305 85.277 131.967C85.277 128.628 82.5705 125.922 79.232 125.922C75.8934 125.922 73.187 128.628 73.187 131.967C73.187 135.305 75.8934 138.012 79.232 138.012Z" fill="#FFE73B"/>
<path d="M57.3458 138.012C60.6843 138.012 63.3908 135.305 63.3908 131.967C63.3908 128.628 60.6843 125.922 57.3458 125.922C54.0072 125.922 51.3008 128.628 51.3008 131.967C51.3008 135.305 54.0072 138.012 57.3458 138.012Z" fill="#FFE73B"/>
<mask id="mask0_3_10923" style="mask-type:luminance" maskUnits="userSpaceOnUse" x="51" y="125" width="13" height="14">
<path d="M57.3458 138.012C60.6843 138.012 63.3908 135.305 63.3908 131.967C63.3908 128.628 60.6843 125.922 57.3458 125.922C54.0072 125.922 51.3008 128.628 51.3008 131.967C51.3008 135.305 54.0072 138.012 57.3458 138.012Z" fill="white"/>
</mask>
<g mask="url(#mask0_3_10923)">
<path d="M63.4325 138.053C66.7942 138.053 69.5193 135.328 69.5193 131.967C69.5193 128.605 66.7942 125.88 63.4325 125.88C60.0709 125.88 57.3457 128.605 57.3457 131.967C57.3457 135.328 60.0709 138.053 63.4325 138.053Z" fill="black"/>
</g>
<mask id="mask1_3_10923" style="mask-type:luminance" maskUnits="userSpaceOnUse" x="73" y="125" width="13" height="14">
<path d="M79.232 138.012C82.5705 138.012 85.277 135.305 85.277 131.967C85.277 128.628 82.5705 125.922 79.232 125.922C75.8934 125.922 73.187 128.628 73.187 131.967C73.187 135.305 75.8934 138.012 79.232 138.012Z" fill="white"/>
</mask>
<g mask="url(#mask1_3_10923)">
<path d="M85.3187 138.053C88.6804 138.053 91.4055 135.328 91.4055 131.967C91.4055 128.605 88.6804 125.88 85.3187 125.88C81.9571 125.88 79.2319 128.605 79.2319 131.967C79.2319 135.328 81.9571 138.053 85.3187 138.053Z" fill="black"/>
</g>
<path d="M37.8315 145.055L45.589 141.929" stroke="black" stroke-width="1.22489" stroke-miterlimit="10" stroke-linecap="round"/>
<path d="M49.4639 158.544L53.0907 151.007" stroke="black" stroke-width="1.22489" stroke-miterlimit="10" stroke-linecap="round"/>
<path d="M42.4331 152.991L48.7445 147.503" stroke="black" stroke-width="1.22489" stroke-miterlimit="10" stroke-linecap="round"/>
<path d="M98.7463 145.055L90.9888 141.929" stroke="black" stroke-width="1.22489" stroke-miterlimit="10" stroke-linecap="round"/>
<path d="M87.1142 158.544L83.4873 151.007" stroke="black" stroke-width="1.22489" stroke-miterlimit="10" stroke-linecap="round"/>
<path d="M94.1444 152.991L87.833 147.503" stroke="black" stroke-width="1.22489" stroke-miterlimit="10" stroke-linecap="round"/>
<path d="M74.5111 212.034C75.1 210.208 74.5572 208.398 73.2989 207.993C72.0406 207.587 70.5432 208.739 69.9544 210.565C69.3655 212.392 69.9082 214.202 71.1665 214.607C72.4249 215.013 73.9223 213.861 74.5111 212.034Z" fill="#0A187C"/>
<path d="M78.2828 210.629C79.2987 210.629 80.1222 209.434 80.1222 207.959C80.1222 206.484 79.2987 205.289 78.2828 205.289C77.2669 205.289 76.4434 206.484 76.4434 207.959C76.4434 209.434 77.2669 210.629 78.2828 210.629Z" fill="#0A187C"/>
<path d="M59.5121 187.539C59.9646 186.135 59.5475 184.745 58.5807 184.433C57.6138 184.122 56.4631 185.007 56.0107 186.41C55.5582 187.814 55.9752 189.204 56.9421 189.516C57.909 189.828 59.0596 188.942 59.5121 187.539Z" fill="#0A187C"/>
<path d="M102.401 2.5506L110.397 12.7709" stroke="#F9A121" stroke-width="1.22489" stroke-linecap="round" stroke-linejoin="round"/>
<path d="M22.7466 222.705L26.3053 221.661" stroke="#071454" stroke-width="1.22489" stroke-miterlimit="10" stroke-linecap="round"/>
<path d="M27.9951 230.058L30.2371 227.104" stroke="#071454" stroke-width="1.22489" stroke-miterlimit="10" stroke-linecap="round"/>
<path d="M24.5259 226.789L27.7203 224.904" stroke="#071454" stroke-width="1.22489" stroke-miterlimit="10" stroke-linecap="round"/>
<path d="M92.1626 269.572C93.6813 270.556 94.7281 271.875 95.3158 273.522" stroke="#071454" stroke-width="1.22489" stroke-miterlimit="10" stroke-linecap="round"/>
<path d="M44.7875 269.572C43.2688 270.556 42.222 271.875 41.6343 273.522" stroke="#071454" stroke-width="1.22489" stroke-miterlimit="10" stroke-linecap="round"/>
<path d="M133.111 274.949C130.842 272.055 129.404 268.596 128.951 264.947L127.758 255.328C127.703 254.887 127.635 254.448 127.557 254.01C127.165 251.809 126.842 249.596 126.674 247.366L118.5 138.788C118.05 132.815 118.659 126.772 120.257 121.002C120.049 119.042 119.609 117.112 118.943 115.254L118.775 114.784C118.261 116.101 117.802 117.439 117.391 118.792C114.743 110.935 111.395 103.343 107.263 95.8149C106.692 97.4058 106.291 99.0439 106.055 100.703C109.266 106.919 111.94 113.198 114.128 119.658C115.198 122.814 115.586 126.164 115.257 129.48C114.943 132.655 114.901 135.858 115.141 139.041L123.005 243.505L119.365 237.514L120.095 245.202L121.623 247.717C123.12 250.18 124.06 252.881 124.415 255.742L125.608 265.362C126.081 269.173 127.478 272.805 129.665 275.947H133.29C133.483 275.947 133.671 275.929 133.857 275.901L133.111 274.949Z" fill="#752858"/>
<g opacity="0.3">
<path d="M119.628 29.0707C119.628 30.7969 116.965 32.081 116.459 33.6386C115.935 35.2529 117.316 37.8537 116.338 39.1974C115.351 40.5545 112.444 40.0392 111.087 41.0269C109.743 42.0048 109.34 44.9339 107.726 45.4581C106.168 45.9638 104.128 43.8473 102.402 43.8473C100.675 43.8473 98.6348 45.9638 97.0772 45.4581C95.4629 44.9339 95.0601 42.0047 93.7164 41.0268C92.3593 40.0391 89.4524 40.5544 88.4647 39.1973C87.4868 37.8536 88.8684 35.2528 88.3442 33.6385C87.8385 32.081 85.1753 30.7969 85.1753 29.0707C85.1753 27.3445 87.8385 26.0604 88.3443 24.5028C88.8685 22.8885 87.4869 20.2877 88.4648 18.944C89.4524 17.5869 92.3594 18.1022 93.7166 17.1146C95.0602 16.1367 95.463 13.2075 97.0772 12.6834C98.6348 12.1776 100.675 14.2942 102.402 14.2942C104.128 14.2942 106.168 12.1776 107.726 12.6834C109.34 13.2076 109.743 16.1368 111.087 17.1147C112.444 18.1023 115.351 17.5871 116.339 18.9442C117.316 20.2879 115.935 22.8886 116.459 24.5029C116.965 26.0605 119.628 27.3446 119.628 29.0707Z" fill="#FFE73B"/>
</g>
<path opacity="0.4" d="M102.402 39.0716C107.925 39.0716 112.403 34.594 112.403 29.0707C112.403 23.5474 107.925 19.0698 102.402 19.0698C96.8784 19.0698 92.4009 23.5474 92.4009 29.0707C92.4009 34.594 96.8784 39.0716 102.402 39.0716Z" fill="#FFEC3B"/>
<path d="M92.7225 32.3774C93.4365 32.3774 94.0154 31.7986 94.0154 31.0846C94.0154 30.3706 93.4365 29.7918 92.7225 29.7918C92.0085 29.7918 91.4297 30.3706 91.4297 31.0846C91.4297 31.7986 92.0085 32.3774 92.7225 32.3774Z" fill="#FFCB39"/>
<path d="M112.304 21.0021C113.018 21.0021 113.596 20.4233 113.596 19.7093C113.596 18.9953 113.018 18.4165 112.304 18.4165C111.59 18.4165 111.011 18.9953 111.011 19.7093C111.011 20.4233 111.59 21.0021 112.304 21.0021Z" fill="#FFCB39"/>
<path d="M118.403 39.2526C119.117 39.2526 119.696 38.6738 119.696 37.9598C119.696 37.2458 119.117 36.667 118.403 36.667C117.689 36.667 117.11 37.2458 117.11 37.9598C117.11 38.6738 117.689 39.2526 118.403 39.2526Z" fill="#FFCB39"/>
<path d="M103.546 23.6873L104.815 26.2567L107.65 26.6687C108.697 26.8209 109.115 28.1078 108.358 28.8464L106.306 30.8464L106.79 33.6705C106.969 34.7134 105.874 35.5088 104.938 35.0163L102.402 33.683L99.8654 35.0163C98.9288 35.5088 97.8341 34.7134 98.013 33.6705L98.4974 30.8464L96.4455 28.8464C95.6878 28.1078 96.1059 26.8209 97.1531 26.6687L99.9886 26.2567L101.257 23.6873C101.725 22.7384 103.078 22.7384 103.546 23.6873Z" fill="#FFCB39"/>
<path d="M68.4365 139.005V142.599L65.9415 145.094C65.2288 145.807 64.0731 145.807 63.3603 145.094C62.6475 144.381 62.6475 143.226 63.3603 142.513" stroke="#071454" stroke-width="1.22489" stroke-miterlimit="10" stroke-linecap="round"/>
<path d="M68.4365 139.005V142.599L70.9315 145.094C71.6443 145.807 72.8 145.807 73.5127 145.094C74.2255 144.381 74.2256 143.226 73.5128 142.513" stroke="#071454" stroke-width="1.22489" stroke-miterlimit="10" stroke-linecap="round"/>
<path d="M67.6739 140.136L65.123 137.585C64.752 137.214 64.752 136.613 65.123 136.242C65.4796 135.885 66.0526 135.869 66.4285 136.205L69.1212 138.614C69.5277 138.978 69.5452 139.609 69.1595 139.994L69.0176 140.136C68.6466 140.507 68.045 140.507 67.6739 140.136Z" fill="#F47AB2"/>
<path d="M69.2102 140.136L71.761 137.585C72.1321 137.214 72.1321 136.613 71.761 136.242C71.4045 135.885 70.8314 135.869 70.4556 136.205L67.7629 138.614C67.3564 138.978 67.3389 139.609 67.7246 139.994L67.8664 140.136C68.2375 140.507 68.8391 140.507 69.2102 140.136Z" fill="#F47AB2"/>
</svg>
