<svg width="258" height="297" viewBox="0 0 258 297" fill="none" xmlns="http://www.w3.org/2000/svg">
<path fill-rule="evenodd" clip-rule="evenodd" d="M188.871 280.051L210.371 296.552H143.763V254.78C143.763 233.355 149.868 216.058 162.128 206.344C173.374 197.433 180.576 206.194 182.579 220.095C185.043 237.196 188.871 280.051 188.871 280.051Z" fill="#183889"/>
<path fill-rule="evenodd" clip-rule="evenodd" d="M188.131 271.967C188.589 276.891 188.871 280.051 188.871 280.051L210.371 296.552H143.763V271.967H188.131Z" fill="#6B3B30"/>
<path d="M143.763 271.967H196.498L192.465 254.712L143.763 254.78V271.967Z" fill="#965741"/>
<path fill-rule="evenodd" clip-rule="evenodd" d="M257.168 184.532C253.546 175.861 242.442 171.73 242.442 171.73C241.053 167.642 234.734 150.526 217.217 141.75C207.024 136.643 190.416 133.446 176.373 139.645C146.86 152.674 166.982 186.84 187.133 174.955C200.316 167.179 213.714 164.604 222.16 170.67C223.868 171.897 225.885 173.829 227.59 176.953C226.503 181.826 225.226 190.558 227.76 196.881C230.429 195.951 236.761 188.671 236.761 188.671C236.761 188.671 240.098 195.504 245.892 196.988C247.825 192.559 245.399 184.411 245.399 184.411C245.399 184.411 251.784 186.119 257.168 184.532Z" fill="#183889"/>
<path fill-rule="evenodd" clip-rule="evenodd" d="M176.323 139.815V74.6811L76.4865 71.3683V153.399C76.4865 217.392 16.7373 216.009 16.7373 221.783C16.7373 228.493 32.932 241.701 138.715 241.701C180.423 241.701 210.201 217.145 210.201 186.854C210.201 166.848 197.16 149.396 176.323 139.815Z" fill="#0B6CD1"/>
<path fill-rule="evenodd" clip-rule="evenodd" d="M176.325 139.815V122.042C148.006 125.276 113.09 117.378 96.1788 101.439C96.1788 101.439 87.8571 125.552 123.907 162.724C151.239 190.906 149.017 233.842 120.055 241.701C120.055 241.701 133.299 241.701 138.717 241.701C180.425 241.701 210.203 217.145 210.203 186.854C210.203 166.848 197.162 149.396 176.325 139.815Z" fill="#078DF2"/>
<path fill-rule="evenodd" clip-rule="evenodd" d="M80.6055 220.095C82.6085 206.194 89.8104 197.433 101.056 206.344C113.316 216.057 119.421 233.355 119.421 254.78V296.552H52.8135L74.3129 280.051C74.3129 280.051 78.1417 237.196 80.6055 220.095Z" fill="#183889"/>
<path fill-rule="evenodd" clip-rule="evenodd" d="M75.0536 271.967C74.5951 276.891 74.3129 280.051 74.3129 280.051L52.8135 296.552H119.421V271.967H75.0536Z" fill="#6B3B30"/>
<path d="M119.422 271.967H66.6865L70.7199 254.712L119.422 254.78V271.967Z" fill="#965741"/>
<path fill-rule="evenodd" clip-rule="evenodd" d="M87.2071 139.42C73.1623 133.224 56.5548 136.425 46.3631 141.533C34.5345 147.462 27.8267 157.183 24.2822 164.136L36.3329 176.2C37.9641 173.413 39.8256 171.605 41.4256 170.455C49.8702 164.387 63.2691 166.96 76.454 174.733C96.6068 186.614 116.722 152.443 87.2071 139.42Z" fill="#183889"/>
<path d="M2.90739 197.409C1.1778 195.677 0.151791 193.461 0.0154547 191.166C-0.0933052 189.332 0.320861 186.607 2.911 184.034C6.36812 180.6 9.55102 180.94 12.1082 181.213C14.5532 181.472 16.322 181.661 18.9801 179.02C19.8402 178.166 21.2329 178.169 22.0896 179.026C22.9463 179.884 22.9437 181.273 22.0837 182.127C17.94 186.243 14.2988 185.855 11.6394 185.571C9.3603 185.329 7.98611 185.183 6.01452 187.141C3.53288 189.606 4.2308 192.519 6.02277 194.313C7.81473 196.107 10.7337 196.815 13.2153 194.35C14.0754 193.496 15.4681 193.498 16.3248 194.356C17.1815 195.213 17.1789 196.602 16.3189 197.456C11.9154 201.831 6.23926 200.744 2.90739 197.409Z" fill="#403E6B"/>
<path d="M43.3225 182.462C36.5428 189.197 25.4333 189.176 18.6799 182.415C11.9265 175.654 11.8466 164.676 18.7276 157.84L43.3225 182.462Z" fill="#7D7DB2"/>
<path d="M188.979 92.4488L75.0872 57.0367C52.8169 101.439 69.5943 171.57 150.95 171.57C225.651 171.57 228.175 97.1105 188.979 92.4488Z" fill="#FF812C"/>
<path d="M133.381 0.027624C126.698 0.579929 134.26 24.7441 114.386 26.3865C94.5121 28.029 97.2381 3.01463 90.5545 3.56694C76.7291 4.70969 57.0621 43.152 30.3389 45.3604C30.3389 45.3604 41.4429 76.5211 77.5615 73.5359L117.655 70.2218L157.964 66.8908C193.866 63.9236 199.674 31.3649 199.674 31.3649C172.951 33.5736 147.207 -1.11487 133.381 0.027624Z" fill="#150D26"/>
<path fill-rule="evenodd" clip-rule="evenodd" d="M228.06 72.1233C224.678 69.8442 219.571 70.6014 215.206 73.6258C216.028 67.0198 213.13 61.2094 207.966 59.9499C202.341 58.5778 196.102 63.1267 193.483 70.2054C174.921 66.4988 149.381 66.6991 127.623 67.8478C112.522 68.6452 84.3154 73.3326 84.3154 73.3326C89.8748 104.799 115.587 115.022 135.904 119.851C171.134 128.224 213.435 120.863 218.583 94.2476C221.754 93.3736 224.997 91.3078 227.5 88.2411C232.298 82.3637 232.549 75.1477 228.06 72.1233Z" fill="#0B6CD1"/>
<path fill-rule="evenodd" clip-rule="evenodd" d="M207.872 67.0851C209.957 68.0822 210.487 71.6136 209.056 74.9722C207.624 78.3309 204.773 80.2451 202.688 79.2477C200.602 78.2506 200.072 74.7192 201.504 71.3606C202.935 68.0019 205.786 66.0877 207.872 67.0851Z" fill="black"/>
<path fill-rule="evenodd" clip-rule="evenodd" d="M224.685 77.1594C226.287 78.513 225.847 81.4674 223.703 83.7586C221.559 86.0498 218.522 86.8098 216.92 85.4562C215.318 84.1026 215.758 81.1482 217.902 78.857C220.046 76.5659 223.083 75.8058 224.685 77.1594Z" fill="black"/>
<path fill-rule="evenodd" clip-rule="evenodd" d="M102.55 39.4515C114.645 39.4515 124.45 49.2143 124.45 61.2575C124.45 73.3007 114.645 83.0634 102.55 83.0634C90.4553 83.0634 80.6504 73.3007 80.6504 61.2575C80.6504 49.2143 90.4553 39.4515 102.55 39.4515Z" fill="#183889"/>
<path fill-rule="evenodd" clip-rule="evenodd" d="M135.395 37.4941C147.49 37.4941 157.295 47.2594 157.295 59.3057C157.295 71.352 147.49 81.1179 135.395 81.1179C123.3 81.1179 113.495 71.352 113.495 59.3057C113.495 47.2594 123.3 37.4941 135.395 37.4941Z" fill="#183889"/>
<path fill-rule="evenodd" clip-rule="evenodd" d="M102.545 47.2361C110.319 47.2361 116.622 53.5136 116.622 61.2575C116.622 69.0014 110.319 75.2795 102.545 75.2795C94.7702 75.2795 88.4678 69.0014 88.4678 61.2575C88.4678 53.5136 94.7702 47.2361 102.545 47.2361Z" fill="white"/>
<path fill-rule="evenodd" clip-rule="evenodd" d="M102.545 54.6337C106.217 54.6337 109.193 57.5967 109.193 61.2518C109.193 64.9068 106.217 67.8698 102.545 67.8698C98.8737 67.8698 95.8975 64.9068 95.8975 61.2518C95.8975 57.5967 98.8737 54.6337 102.545 54.6337Z" fill="black"/>
<path fill-rule="evenodd" clip-rule="evenodd" d="M135.399 45.29C143.174 45.29 149.476 51.5675 149.476 59.3114C149.476 67.0552 143.174 73.3327 135.399 73.3327C127.625 73.3327 121.322 67.0552 121.322 59.3114C121.322 51.5675 127.625 45.29 135.399 45.29Z" fill="white"/>
<path fill-rule="evenodd" clip-rule="evenodd" d="M135.4 52.6876C139.071 52.6876 142.047 55.6506 142.047 59.3057C142.047 62.9607 139.071 65.9237 135.4 65.9237C131.728 65.9237 128.752 62.9607 128.752 59.3057C128.752 55.6506 131.728 52.6876 135.4 52.6876Z" fill="black"/>
<path fill-rule="evenodd" clip-rule="evenodd" d="M139.73 110.257C141.139 113.486 142.885 116.758 145.06 119.672C148.845 124.746 153.882 128.738 160.532 129.484C166.406 130.15 170.305 126.76 172.866 121.553C174.46 118.313 175.525 114.364 176.244 110.257H139.73Z" fill="#150D26"/>
<path d="M183.808 102.261C172.527 97.5983 161.718 104.08 161.718 104.08C161.718 104.08 151.185 97.1623 139.721 101.36C128.375 105.516 115.16 124.792 102.441 114.509C102.441 114.509 123.759 151.057 162.728 120.462C200.045 151.421 220.517 116.922 220.517 116.922C207.386 126.677 194.974 106.876 183.808 102.261Z" fill="#DB501F"/>
</svg>
