<svg width="198" height="198" viewBox="0 0 198 198" fill="none" xmlns="http://www.w3.org/2000/svg">
<path d="M49.0587 114.356H86.1445V90.8681H49.0587V114.356Z" fill="#FF8F0D"/>
<path d="M15.7744 137.813V163.958C15.7744 172.488 22.6971 179.41 31.2268 179.41H114.129C122.659 179.41 129.582 172.488 129.582 163.958V137.735C129.582 120.645 115.721 106.815 98.6303 106.83L46.6329 106.908C29.5734 106.923 15.7744 120.753 15.7744 137.813Z" fill="#E03C50"/>
<path d="M105.954 65.4179C116.426 65.4179 124.914 56.9292 124.914 46.4578C124.914 35.9864 116.426 27.4976 105.954 27.4976C95.4829 27.4976 86.9941 35.9864 86.9941 46.4578C86.9941 56.9292 95.4829 65.4179 105.954 65.4179Z" fill="#A3273D"/>
<path d="M30.5314 65.4179C41.0028 65.4179 49.4916 56.9292 49.4916 46.4578C49.4916 35.9864 41.0028 27.4976 30.5314 27.4976C20.06 27.4976 11.5713 35.9864 11.5713 46.4578C11.5713 56.9292 20.06 65.4179 30.5314 65.4179Z" fill="#A3273D"/>
<path d="M115.304 67.4885C115.304 61.4621 110.436 56.5945 104.41 56.5945H99.7432V78.3825H104.41C110.436 78.3825 115.304 73.515 115.304 67.4885Z" fill="#FF8F0D"/>
<path d="M20.9199 67.9212C20.9199 61.7557 25.9265 56.7645 32.092 56.7645H35.8161V79.0933H32.092C25.9265 79.0933 20.9199 74.1022 20.9199 67.9212Z" fill="#FF8F0D"/>
<path d="M73.2569 102.689H63.2283C46.0297 102.689 32.0762 88.7356 32.0762 71.537V54.6784C32.0762 34.7139 48.2858 18.5198 68.2349 18.5198C88.1994 18.5198 104.394 34.7293 104.394 54.6784V71.537C104.394 88.7356 90.44 102.689 73.2415 102.689H73.2569Z" fill="#FF8F0D"/>
<path d="M86.438 70.6562C82.5131 70.6562 79.3145 67.473 79.3145 63.5327C79.3145 59.5923 82.4977 56.4091 86.438 56.4091C90.3784 56.4091 93.5616 59.5923 93.5616 63.5327C93.5616 67.473 90.3784 70.6562 86.438 70.6562Z" fill="#A3273D"/>
<path d="M50.7124 70.6562C46.7875 70.6562 43.5889 67.473 43.5889 63.5327C43.5889 59.5923 46.7721 56.4091 50.7124 56.4091C54.6528 56.4091 57.836 59.5923 57.836 63.5327C57.836 67.473 54.6528 70.6562 50.7124 70.6562Z" fill="#A3273D"/>
<path d="M57.2178 76.0182C57.2178 81.8284 61.9308 86.5414 67.7409 86.5414H69.4252C75.2353 86.5414 79.9483 81.8284 79.9483 76.0182H57.2178Z" fill="#E03C50"/>
<path d="M104.409 39.9214C104.409 28.0075 94.7514 18.3652 82.853 18.3652H53.6479C41.7341 18.3652 32.0918 28.023 32.0918 39.9214V56.5946C45.9526 56.4246 62.5022 46.3187 68.0342 35.2393C74.4469 45.5152 90.1466 56.5946 104.425 56.5946V39.9214H104.409Z" fill="#A3273D"/>
<path d="M118.036 82.2372H154.31C165.35 82.2372 174.324 91.1967 174.324 102.251V173.927H98.0225V102.251C98.0225 91.2113 106.982 82.2372 118.036 82.2372Z" fill="#A3273D"/>
<path d="M122.356 170.524H150.718V152.561H122.356V170.524Z" fill="#FF8F0D"/>
<path d="M179.574 127.341C179.574 121.799 175.08 117.305 169.539 117.305H165.233V137.377H169.539C175.08 137.377 179.574 132.882 179.574 127.341Z" fill="#FF8F0D"/>
<path d="M92.6553 127.588C92.6553 121.916 97.2659 117.305 102.953 117.305H106.385V137.871H102.953C97.2805 137.871 92.6553 133.275 92.6553 127.574V127.588Z" fill="#FF8F0D"/>
<path d="M140.842 159.761H131.606C115.767 159.761 102.91 146.904 102.91 131.064V115.531C102.91 97.1462 117.833 82.2233 136.217 82.2233C154.602 82.2233 169.524 97.1462 169.524 115.531V131.064C169.524 146.904 156.667 159.761 140.828 159.761H140.842Z" fill="#FF8F0D"/>
<path d="M153.001 130.264C149.379 130.264 146.441 127.326 146.441 123.704C146.441 120.083 149.379 117.145 153.001 117.145C156.623 117.145 159.561 120.083 159.561 123.704C159.561 127.326 156.623 130.264 153.001 130.264Z" fill="#A3273D"/>
<path d="M120.087 130.264C116.465 130.264 113.527 127.326 113.527 123.704C113.527 120.083 116.465 117.145 120.087 117.145C123.709 117.145 126.647 120.083 126.647 123.704C126.647 127.326 123.709 130.264 120.087 130.264Z" fill="#A3273D"/>
<path d="M126.079 135.21C126.079 140.562 130.413 144.897 135.766 144.897H137.322C142.675 144.897 147.009 140.562 147.009 135.21H126.079Z" fill="#E03C50"/>
<path d="M169.539 101.96C169.539 90.9933 160.652 82.1065 149.685 82.1065H122.792C111.825 82.1065 102.938 90.9933 102.938 101.96C100.189 106.687 101.208 111.952 102.938 117.319C115.709 117.159 130.937 107.851 136.042 97.6402C141.947 107.109 156.419 117.319 169.553 117.319C171.691 112.141 171.749 107.022 169.553 101.96H169.539Z" fill="#A3273D"/>
<path d="M98.168 179.614C96.2481 179.614 94.7936 177.884 95.1136 175.993C96.8299 165.753 105.76 157.957 116.48 157.972L155.721 158.016C166.426 158.03 175.299 165.826 177.015 176.036C177.335 177.927 175.866 179.658 173.946 179.658L98.168 179.614Z" fill="#FF6363"/>
</svg>
