<svg width="262" height="262" viewBox="0 0 262 262" fill="none" xmlns="http://www.w3.org/2000/svg">
<path d="M261.873 0H0V261.873H261.873V0Z" fill="#B5F1F7"/>
<path d="M261.873 0H0V261.873H261.873V0Z" fill="#B5F1F7"/>
<path d="M261.873 167.413H0V261.868H261.873V167.413Z" fill="#68C159"/>
<path d="M215.346 83.456L183.444 58.4547L155.904 88.7101V169.669H218.48L215.346 83.456Z" fill="#8ACDF7"/>
<path d="M145.532 87.5592L183.439 52.6091V52.6182L183.444 52.6091H183.453V52.6182L183.462 52.6091L222.488 86.1398L217.88 92.4129L183.448 63.7724L151.087 94.5418L145.532 87.5592Z" fill="#60AFF9"/>
<path d="M261.868 85.6442H244.868V161.767H261.868V85.6442Z" fill="#8ACDF7"/>
<path d="M261.872 72.5793H246.269L245.527 82.5826H261.872V72.5793Z" fill="#60AFF9"/>
<path d="M261.872 81.5818H245.113L245.282 85.6442H261.872V81.5818Z" fill="#60AFF9"/>
<path d="M261.872 70.9281L255.449 64.6322L247.343 72.5793H261.872V70.9281Z" fill="#8ACDF7"/>
<path d="M242.685 33.7081H211.479V45.7267H242.685V33.7081Z" fill="#60AFF9"/>
<path d="M227.236 13.8335L207.38 33.7081H227.236H247.093L227.236 13.8335Z" fill="#8ACDF7"/>
<path d="M227.236 16.4993C228.864 16.4993 230.184 15.1794 230.184 13.5514C230.184 11.9234 228.864 10.6037 227.236 10.6037C225.608 10.6037 224.288 11.9234 224.288 13.5514C224.288 15.1794 225.608 16.4993 227.236 16.4993Z" fill="#60AFF9"/>
<path d="M246.719 30.6467H207.443C207.02 30.6467 206.638 30.8195 206.361 31.097C206.083 31.3745 205.91 31.7567 205.91 32.1797C205.91 32.6028 206.083 32.9849 206.361 33.2623C206.638 33.5398 207.02 33.7127 207.443 33.7127H246.719C247.142 33.7127 247.525 33.5398 247.802 33.2623C248.08 32.9849 248.252 32.6028 248.252 32.1797C248.252 31.7567 248.08 31.3745 247.802 31.097C247.525 30.8195 247.142 30.6467 246.719 30.6467Z" fill="#7BC4F7"/>
<path d="M207.926 45.7266H246.069L252.665 165.743H201.498L207.926 45.7266Z" fill="#A6D8FB"/>
<path d="M227.236 86.5356C234.851 86.5356 241.024 80.3625 241.024 72.7475C241.024 65.1326 234.851 58.9595 227.236 58.9595C219.621 58.9595 213.448 65.1326 213.448 72.7475C213.448 80.3625 219.621 86.5356 227.236 86.5356Z" fill="#7BC4F7"/>
<path d="M227.236 83.5879C233.223 83.5879 238.076 78.7345 238.076 72.7475C238.076 66.7606 233.223 61.9072 227.236 61.9072C221.249 61.9072 216.396 66.7606 216.396 72.7475C216.396 78.7345 221.249 83.5879 227.236 83.5879Z" fill="#C7EBFD"/>
<path d="M225.607 71.8104V67.407C225.607 66.5655 226.29 65.8831 227.131 65.8831C227.973 65.8831 228.655 66.5655 228.655 67.407V71.8104H225.607Z" fill="#60AFF9"/>
<path d="M229.405 72.197H234.682C235.269 72.197 235.742 72.67 235.742 73.2569C235.742 73.8437 235.269 74.3168 234.682 74.3168H229.405V72.197Z" fill="#60AFF9"/>
<path d="M227.127 76.2048C228.747 76.2048 230.061 74.8911 230.061 73.2706C230.061 71.6502 228.747 70.3365 227.127 70.3365C225.506 70.3365 224.192 71.6502 224.192 73.2706C224.192 74.8911 225.506 76.2048 227.127 76.2048Z" fill="#60AFF9"/>
<path d="M240.211 100.934H234.825C234.222 100.934 233.733 101.422 233.733 102.025V104.45C233.733 105.053 234.222 105.542 234.825 105.542H240.211C240.814 105.542 241.303 105.053 241.303 104.45V102.025C241.303 101.422 240.814 100.934 240.211 100.934Z" fill="#7BC4F7"/>
<path d="M235.27 107.757H229.884C229.281 107.757 228.792 108.246 228.792 108.849V111.273C228.792 111.876 229.281 112.365 229.884 112.365H235.27C235.873 112.365 236.361 111.876 236.361 111.273V108.849C236.361 108.246 235.873 107.757 235.27 107.757Z" fill="#7BC4F7"/>
<path d="M230.262 100.934H225.003C224.365 100.934 223.848 101.451 223.848 102.089V104.386C223.848 105.024 224.365 105.542 225.003 105.542H230.262C230.9 105.542 231.417 105.024 231.417 104.386V102.089C231.417 101.451 230.9 100.934 230.262 100.934Z" fill="#7BC4F7"/>
<path d="M55.6571 53.2778L2.74295 41.5641C1.82405 41.6824 0.909801 42.1145 0 42.7787V86.8541C1.3556 87.2953 2.90235 87.5865 4.63097 87.5638C9.02531 87.5001 12.1323 85.4394 13.2832 84.5841C13.6198 84.9162 16.1671 87.3318 20.0474 87.0088C24.1369 86.6722 26.2478 83.5879 26.4798 83.2331C26.7072 84.0656 27.4806 86.24 29.7369 87.4136C32.1934 88.6873 35.3958 88.2597 37.7112 86.2991C38.3481 86.7722 40.5407 88.2733 43.5476 88.0686C46.277 87.8821 47.7828 85.5576 49.325 83.224C50.4349 83.5197 52.4956 83.7153 53.9786 83.5652C66.1108 82.3324 70.4004 72.8294 70.4732 66.8975C70.5187 63.0309 56.1256 54.3514 55.6525 53.2824L55.6571 53.2778Z" fill="#2F9148"/>
<path d="M27.0713 70.3275C25.8567 69.5587 25.0286 59.742 32.0523 50.9033L30.4739 49.898C25.47 57.3902 23.6958 64.0635 24.5464 71.2282C18.1824 74.7218 10.8494 72.6611 7.42856 71.3374C19.3015 48.3831 25.57 27.353 29.0455 11.6408L21.4532 6.81888C18.0824 20.7206 12.8646 36.4102 4.67184 52.6501C3.98949 52.2043 1.52392 50.421 0 47.0002V52.773C1.14635 54.3105 2.25628 55.4068 2.92953 56.0255C1.99244 57.8041 1.01443 59.5873 0 61.3796V84.6705C1.68313 81.8638 3.34361 78.957 4.98125 75.9547C21.9445 82.6099 35.2685 70.4776 44.3619 58.7184L42.8335 57.7495C35.4505 67.1432 28.2449 69.8089 27.0713 70.3321V70.3275Z" fill="#6D305B"/>
<path d="M0 3.05176e-05V47.5826C3.35717 46.9639 5.31314 44.7485 5.81353 44.1481C8.60207 51.4811 13.5651 56.5123 18.2824 57.6177C22.0991 58.5139 25.247 57.5631 25.247 57.5631C26.7118 57.1264 27.9718 56.4349 29.0499 55.6343C29.7595 57.3038 30.9015 58.4275 32.2844 58.5639C33.4353 58.6777 34.5588 58.0817 35.4914 57.0127C35.6278 58.2454 35.9964 60.0606 37.0609 61.9666C39.2808 65.9379 42.9609 67.5118 44.1982 67.9804C45.2991 66.2517 46.3954 64.5185 47.4963 62.7899C47.4963 62.7899 53.2007 73.1708 64.282 70.3777L60.4974 76.3824C62.7582 77.2012 70.1002 74.4127 73.4209 70.3777C79.8032 62.6307 80.3492 54.1196 80.4492 52.2044C80.8086 45.34 78.4658 39.822 76.1412 36.1054C77.5787 35.9144 79.139 35.3367 80.5856 34.2176C80.5856 34.2176 77.9882 31.9749 75.2861 31.4291C76.4233 30.2782 77.4605 28.6632 78.1474 26.648C78.1474 26.648 75.8683 26.2614 73.562 26.4752C73.8486 24.9331 73.9713 23.1226 73.7075 21.1256C72.784 14.1565 67.8438 10.2171 66.7884 9.4119C67.6027 7.83794 69.1722 4.44897 69.7226 0.00913742H0.00466451L0 3.05176e-05Z" fill="#59C159"/>
<path d="M64.7824 17.2318C64.605 17.018 61.4752 13.3697 56.5986 14.052C51.7267 14.7298 49.7114 19.0742 49.5977 19.3335C49.7796 19.5518 52.8958 23.1865 57.7723 22.5178C62.6534 21.8445 64.6731 17.4911 64.7869 17.2363L64.7824 17.2318Z" fill="#43AA43"/>
<path d="M25.2836 31.4608C25.2609 31.2334 24.765 27.3622 21.144 25.6426C17.5321 23.9277 14.2204 25.9747 14.0293 26.1021C14.0566 26.3295 14.5479 30.1917 18.1598 31.9157C21.7763 33.6398 25.0926 31.5837 25.2836 31.4608Z" fill="#43AA43"/>
<path d="M25.474 33.0713C25.5149 33.2533 26.1836 36.3511 23.8727 38.6484C21.5709 40.9411 18.4777 40.2633 18.2957 40.2178C18.2548 40.0358 17.5906 36.9425 19.8879 34.6452C22.1942 32.348 25.2921 33.0258 25.4695 33.0667L25.474 33.0713Z" fill="#43AA43"/>
<path d="M51.4853 5.39066C51.6399 5.55897 54.2464 8.46123 53.1865 12.3188C52.1266 16.1718 48.4147 17.341 48.1963 17.4047C48.0417 17.2363 45.4396 14.3385 46.4905 10.4855C47.5458 6.62341 51.2669 5.45434 51.4853 5.39066Z" fill="#43AA43"/>
<path d="M231.067 217.01C231.067 221.941 216.269 227.082 191.131 227.291C186.177 227.332 184.135 229.374 184.167 231.453C184.167 231.467 184.167 231.481 184.167 231.494C184.167 237.044 165.443 241.548 142.352 241.548C129.838 241.548 118.611 240.228 110.946 238.131C104.782 236.448 98.3998 235.711 92.0085 235.893C90.1479 235.943 88.251 235.971 86.3222 235.971C62.9221 235.971 43.948 232.017 43.948 227.141C43.948 227.132 43.948 227.118 43.948 227.109C43.9753 225.362 38.6212 223.356 36.8835 223.16C19.288 221.204 11.9277 218.484 11.9277 214.849C11.9277 213.039 14.7844 211.329 19.8247 209.832C21.2668 209.404 21.899 207.653 20.9938 206.452C20.5935 205.92 20.3843 205.374 20.3843 204.814C20.3843 200.224 34.4815 196.367 53.5782 195.266C51.8041 194.202 50.8353 193.046 50.8353 191.845C50.8353 186.4 70.6964 181.983 95.1928 181.983C103.804 181.983 111.838 182.529 118.643 183.475C126.03 180.313 140.896 178.148 158.033 178.148C182.529 178.148 202.39 182.565 202.39 188.01C202.39 191.34 194.966 194.288 183.598 196.071C203.987 196.963 219.367 200.957 219.367 205.747C219.367 205.806 219.367 205.865 219.358 205.924C219.158 208.463 220.609 210.824 223.038 211.588C228.151 213.189 231.071 215.04 231.071 217.01H231.067ZM204.437 230.189C197.09 230.189 191.136 231.622 191.136 233.387C191.136 235.152 197.09 236.585 204.437 236.585C211.784 236.585 217.738 235.152 217.738 233.387C217.738 231.622 211.784 230.189 204.437 230.189Z" fill="#9AE07C"/>
<path d="M167.339 145.149L162.44 176.269L132.608 170.565C132.608 170.565 132.144 169.869 131.416 168.668L104.254 168.113L86.3353 168.85C86.3353 168.932 86.3353 169.014 86.3262 169.1H0.00878906V105.164C0.00878906 105.164 8.01507 104.299 13.4557 107.616C15.6483 108.953 17.1312 111.141 18.1229 113.279C19.3147 110.586 21.0388 108.193 21.0388 108.193C22.0214 109.986 22.7766 112.724 22.9222 115.181C25.1239 114.289 27.2755 113.866 27.2755 113.866C27.1709 115.426 26.4522 117.255 25.4515 118.829C28.24 118.829 31.7018 119.366 34.8724 121.349C39.4624 124.22 42.2464 131.134 42.2464 131.134C42.2464 131.134 53.164 128.864 62.0619 135.451C63.0854 136.206 63.9815 137.061 64.7639 137.98C67.9892 136.374 71.9831 134.978 76.15 134.978C84.5384 134.978 88.7644 141.078 88.7644 141.078C88.7644 141.078 94.6782 129.31 102.571 128.668C107.297 128.286 110.886 128.973 113.602 130.306C117.96 123.947 126.512 115.185 137.448 122.459C138.394 123.087 139.258 123.81 140.054 124.602C141.774 124.01 143.648 123.537 145.682 123.246C165.907 120.348 167.348 145.163 167.348 145.163L167.339 145.149ZM249.385 117.068C247.73 115.667 245.719 114.476 244.054 113.916C244.054 113.916 244.463 117.264 245.56 120.212C242.853 119.848 239.005 119.771 236.184 121.517C229.556 125.63 230.129 131.261 230.129 131.261C230.129 131.261 220.836 128.914 213.562 135.21C206.288 141.51 206.625 154.889 206.625 154.889L184.562 168.395L261.872 167.412V105.132C253.407 106.924 250.432 113.011 249.385 117.064V117.068Z" fill="#44AA49"/>
<path d="M22.5625 142.074C22.7672 142.17 26.5338 143.057 29.4225 141.169C32.3065 139.281 33.0025 135.487 32.9979 135.26C32.7887 135.164 29.0312 134.277 26.1471 136.161C23.2585 138.044 22.558 141.851 22.5625 142.079V142.074Z" fill="#2F9148"/>
<path d="M21.0888 141.397C20.9114 141.337 18.1457 140.291 17.4725 137.125C16.8038 133.964 18.5915 131.68 18.7234 131.548C18.9009 131.607 21.6621 132.649 22.3353 135.81C23.0086 138.976 21.2162 141.265 21.0888 141.397Z" fill="#2F9148"/>
<path d="M209.854 151.573C209.854 151.573 203.122 150.863 196.039 155.772C190.985 159.279 188.783 167.722 188.783 167.722L211.096 162.982L209.854 151.568V151.573Z" fill="#44AA49"/>
<path d="M252.16 147.683C252.173 147.456 251.637 143.626 248.83 141.62C246.028 139.618 242.238 140.337 242.025 140.428C242.011 140.66 242.548 144.481 245.345 146.487C248.148 148.498 251.951 147.774 252.16 147.683Z" fill="#2F9148"/>
<path d="M17.0584 165.884C16.5854 165.466 15.9166 165.461 15.0978 166.244C15.1205 166.166 15.1432 166.089 15.166 166.012C15.721 163.955 15.2479 162.986 14.4154 162.727C13.583 162.468 12.705 163.014 12.1501 165.07C12.1319 165.147 12.1092 165.229 12.091 165.302C11.7725 164.169 11.3039 163.441 10.5988 163.528C9.89822 163.614 9.48895 164.397 9.4935 165.72C9.43891 165.57 9.38883 165.402 9.33424 165.279C8.88389 164.187 7.75127 163.355 7.02798 163.687C6.30468 164.019 6.19532 165.229 6.72301 166.485L6.80497 166.685C5.98615 166.066 5.21733 166.08 4.83521 166.526C4.36666 167.058 4.56679 167.995 5.70859 169.15C5.92694 169.373 6.15906 169.583 6.40471 169.774L15.9121 169.573C16.1532 169.328 16.3806 169.064 16.5944 168.786C17.7089 167.358 17.6317 166.403 17.0631 165.884H17.0584Z" fill="#68C159"/>
<path d="M156.117 225.549C159.245 225.549 161.781 224.905 161.781 224.111C161.781 223.317 159.245 222.674 156.117 222.674C152.99 222.674 150.454 223.317 150.454 224.111C150.454 224.905 152.99 225.549 156.117 225.549Z" fill="#68C159"/>
<path d="M146.61 229.143C149.082 229.143 151.086 228.634 151.086 228.005C151.086 227.377 149.082 226.868 146.61 226.868C144.138 226.868 142.134 227.377 142.134 228.005C142.134 228.634 144.138 229.143 146.61 229.143Z" fill="#68C159"/>
<path d="M116.313 118.506C116.313 118.506 123.328 109.326 133.813 112.32L132.799 116.077C123.996 113.298 116.309 118.506 116.309 118.506H116.313Z" fill="#080A0C"/>
<path d="M118.793 124.315C118.793 124.315 123.328 115.677 132.563 116.568L131.867 120.035C124.384 119.016 118.793 124.315 118.793 124.315Z" fill="#080A0C"/>
<path d="M122.208 130.111C122.208 130.111 125.311 122.514 133.312 122.655L132.935 125.616C126.584 125.275 122.208 130.111 122.208 130.111Z" fill="#080A0C"/>
<path d="M158.924 191.049L147.515 192.204C147.515 192.204 146.633 187.76 147.766 183.015C147.766 183.015 130.961 174.277 133.077 169.032C134.978 164.319 152.86 173.508 154.462 180.022C155.362 183.689 153.388 188.342 153.388 188.342L158.929 191.044L158.924 191.049Z" fill="#7D28A0"/>
<path fill-rule="evenodd" clip-rule="evenodd" d="M121.926 165.921C130.146 155.986 129.878 131.503 128.5 111.665L152.646 128.546C147.578 147.979 158.596 166.849 147.369 177.989C134.927 190.331 103.266 178.353 101.138 173.904C100.196 171.939 113.715 175.847 121.926 165.921Z" fill="#C159C6"/>
<path fill-rule="evenodd" clip-rule="evenodd" d="M117.387 181.546C123.96 181.856 131.985 179.586 136.993 172.421C144.84 161.194 137.184 141.26 138.867 126.44C141.537 125.976 152.646 128.546 152.646 128.546C147.579 147.979 158.596 166.848 147.369 177.989C140.5 184.803 127.768 184.203 117.387 181.546Z" fill="#E27AED"/>
<path fill-rule="evenodd" clip-rule="evenodd" d="M166.161 112.065C165.324 111.373 163.955 111.442 162.718 112.128C163.109 110.4 162.49 108.785 161.158 108.316C159.702 107.807 157.932 108.849 157.054 110.655C150.472 108.676 145.591 110.081 141.556 110.682C137.576 111.273 130.711 112.711 130.711 112.711C129.897 120.999 135.674 126.749 144.772 128.432C147.483 128.932 149.539 129.073 152.551 128.932C164.037 128.391 163.614 119.884 163.073 117.674C163.937 117.524 164.847 117.064 165.588 116.313C167.012 114.881 167.267 112.979 166.157 112.06L166.161 112.065Z" fill="#C159C6"/>
<path fill-rule="evenodd" clip-rule="evenodd" d="M160.943 110.204C161.471 110.523 161.517 111.473 161.053 112.324C160.584 113.175 159.783 113.607 159.256 113.288C158.728 112.97 158.683 112.019 159.147 111.169C159.615 110.318 160.416 109.886 160.943 110.204Z" fill="#080A0C"/>
<path fill-rule="evenodd" clip-rule="evenodd" d="M165.134 113.311C165.525 113.712 165.329 114.48 164.701 115.035C164.074 115.586 163.25 115.709 162.859 115.308C162.468 114.908 162.663 114.139 163.291 113.584C163.919 113.034 164.742 112.911 165.134 113.311Z" fill="#080A0C"/>
<path fill-rule="evenodd" clip-rule="evenodd" d="M147.414 99.3366C148.115 98.8226 147.751 96.7528 144.78 95.4381C142.378 94.3782 140.732 94.9878 140.65 96.2752C140.545 97.9901 142.947 97.6399 144.489 98.3677C146.213 99.182 146.791 99.7915 147.414 99.3321V99.3366Z" fill="#080A0C"/>
<path d="M144.159 113.835C146.711 113.729 148.695 111.576 148.589 109.025C148.483 106.475 146.328 104.494 143.775 104.6C141.222 104.706 139.238 106.859 139.344 109.41C139.45 111.96 141.606 113.941 144.159 113.835Z" fill="white"/>
<path d="M144.911 109.47C145.995 109.425 146.838 108.511 146.793 107.429C146.748 106.348 145.833 105.507 144.749 105.552C143.664 105.597 142.821 106.51 142.866 107.592C142.911 108.674 143.827 109.515 144.911 109.47Z" fill="#080A0C"/>
<path d="M134.223 114.275C136.776 114.169 138.76 112.015 138.654 109.465C138.548 106.915 136.392 104.933 133.839 105.039C131.286 105.145 129.303 107.299 129.409 109.849C129.515 112.399 131.67 114.381 134.223 114.275Z" fill="white"/>
<path d="M134.975 109.907C136.06 109.862 136.903 108.949 136.858 107.867C136.813 106.785 135.897 105.945 134.813 105.989C133.729 106.034 132.886 106.948 132.931 108.03C132.975 109.112 133.891 109.952 134.975 109.907Z" fill="#080A0C"/>
<path fill-rule="evenodd" clip-rule="evenodd" d="M134.222 116.241C136.233 116.159 137.975 115.154 139.103 113.666C140.35 115.044 142.16 115.891 144.157 115.809C147.733 115.663 150.508 112.647 150.362 109.081C150.216 105.514 147.2 102.739 143.625 102.89C141.614 102.971 139.872 103.977 138.744 105.464C137.497 104.086 135.687 103.24 133.69 103.322C130.114 103.467 127.339 106.483 127.485 110.05C127.631 113.616 130.647 116.391 134.222 116.241ZM142.906 105.305C145.14 104.759 147.391 106.124 147.937 108.353C148.483 110.582 147.118 112.834 144.885 113.38C142.651 113.925 140.4 112.561 139.854 110.332C139.308 108.103 140.672 105.851 142.906 105.305ZM132.962 105.742C135.196 105.196 137.447 106.561 137.993 108.79C138.539 111.019 137.174 113.27 134.941 113.816C132.707 114.362 130.456 112.997 129.91 110.768C129.364 108.539 130.728 106.288 132.962 105.742Z" fill="#7D28A0"/>
<path fill-rule="evenodd" clip-rule="evenodd" d="M128.017 102.753C127.321 102.239 127.69 100.169 130.665 98.8635C133.072 97.8127 134.718 98.4268 134.791 99.7187C134.891 101.434 132.489 101.074 130.947 101.798C129.223 102.603 128.641 103.212 128.017 102.753Z" fill="#080A0C"/>
<path fill-rule="evenodd" clip-rule="evenodd" d="M152.295 130.02C151.254 129.992 150.221 129.938 149.238 129.842C148.633 129.783 148.047 129.71 147.478 129.633C141.997 128.86 137.488 126.858 135.105 124.147C134.914 123.929 134.936 123.596 135.15 123.405C135.369 123.214 135.701 123.237 135.892 123.455C138.112 125.98 142.388 127.854 147.624 128.591C149.284 128.828 150.872 128.937 152.55 128.937C152.459 129.301 152.373 129.66 152.295 130.024V130.02Z" fill="white"/>
<path d="M115.267 158.492L116.499 160.707C118.205 158.774 117.032 156.368 117.032 156.368C119.966 152.132 124.169 148.329 130.11 148.93C136.056 149.53 136.597 145.987 136.328 144.399C135.614 140.164 130.356 140.723 130.369 140.714C118.123 140.987 114.188 154.393 114.188 154.393C111.022 154.816 110.317 157.286 110.317 157.286L112.56 157.168C111.978 159.129 112.728 160.539 112.728 160.539C114.343 159.843 115.262 158.492 115.262 158.492H115.267Z" fill="#7D28A0"/>
<path fill-rule="evenodd" clip-rule="evenodd" d="M129.237 131.566L141.465 137.662L151.687 133.436L153.92 144.581L140.892 153.338L126.931 142.989L129.237 131.566Z" fill="#F8FCFF"/>
<path fill-rule="evenodd" clip-rule="evenodd" d="M128.819 133.659L136.343 143.289L141.606 138.435L145.654 144.026L152.178 135.879L155.471 151.91L126.931 142.989L128.819 133.659Z" fill="#7FC4F7"/>
<path d="M43.5578 146.319C41.8428 145.586 40.7511 144.704 40.2871 143.667C41.4153 143.398 42.5343 143.48 43.6351 143.912C43.9444 142.489 44.3948 141.338 44.9816 140.455C45.4956 141.019 45.9324 142.284 46.2872 144.244C46.6602 144.185 47.0378 144.622 47.4245 145.55C48.4753 148.193 49.6944 150.199 51.0819 151.564C51.555 152.051 52.06 152.46 52.5967 152.788C53.6112 153.411 54.7303 153.752 55.9585 153.816C57.2959 153.888 58.7607 153.625 60.3483 153.015C61.5447 153.124 62.3954 153.529 62.8958 154.23C63.337 154.871 63.5598 155.649 63.5735 156.559C63.5644 157.478 63.1594 158.324 62.3542 159.088C61.5536 159.866 60.3346 160.416 58.7015 160.73C56.9456 160.98 55.349 161.003 53.9115 160.803C50.2677 160.271 47.6156 158.278 45.9507 154.825C45.0273 152.906 44.2312 150.067 43.5625 146.314L43.5578 146.319Z" fill="#5F319B"/>
<path d="M47.3151 144.222C47.6835 144.59 47.8337 144.922 47.77 145.227C47.7108 145.518 47.5105 145.718 47.1603 145.823C46.2686 146.091 45.2224 145.768 44.0215 144.85C44.7084 144.235 45.3362 143.885 45.9048 143.803C46.4871 143.717 46.9557 143.858 47.3151 144.226V144.222Z" fill="#48257F"/>
<path d="M43.1565 145.791C42.8063 145.991 42.6151 146.223 42.5832 146.487C42.5423 146.755 42.7472 147.092 43.193 147.506C43.6342 147.906 44.5713 147.865 45.9997 147.383C45.5038 146.605 44.9944 146.096 44.4713 145.864C43.9345 145.618 43.4977 145.595 43.1565 145.791Z" fill="#48257F"/>
<path d="M60.8124 191.095C63.2461 185.313 56.2678 180.227 52.201 187.032C46.4966 196.572 52.7879 209.541 52.7879 209.541C52.7879 209.541 47.7976 212.571 46.7695 213.462H58.688C57.0185 204.833 57.114 199.883 60.8124 191.095Z" fill="#5F319B"/>
<path d="M51.0865 210.574C49.7173 211.324 47.2927 213.089 46.7832 213.462H52.4968L51.0865 210.574Z" fill="#080A0C"/>
<path d="M60.4941 102.607L60.6943 102.626C60.626 102.621 60.5578 102.612 60.4941 102.607Z" fill="#1649A3"/>
<path d="M73.5852 124.124C75.705 121.886 78.0249 118.242 71.4471 117.615C74.2447 109.658 65.2148 113.339 65.2148 113.339L71.0695 131.262C71.0695 131.262 80.5679 128.923 73.5852 124.124Z" fill="#1F1F84"/>
<path d="M94.1459 185.854C94.1368 185.608 94.1322 185.363 94.1368 185.122C93.4089 184.703 92.6766 184.203 91.9624 183.602C85.1344 177.848 86.622 172.125 80.5217 161.672C74.9128 152.055 71.1599 149.899 72.1061 136.798C72.9567 125.02 72.5928 116.4 66.5244 115.294L56.6621 161.967L61.9617 188.038C61.9617 188.038 82.4685 193.951 88.8326 192.832C91.098 192.432 93.177 191.973 94.9966 191.495C94.5099 189.648 94.237 187.742 94.1505 185.859L94.1459 185.854Z" fill="#B069D1"/>
<path d="M84.868 188.183C85.8099 188.111 86.5284 187.461 86.4727 186.732C86.417 186.003 85.6082 185.471 84.6663 185.543C83.7244 185.615 83.0061 186.264 83.0618 186.993C83.1175 187.722 83.9261 188.255 84.868 188.183Z" fill="#A25DC6"/>
<path d="M82.5502 184.487C83.1615 184.44 83.6276 184.019 83.5914 183.545C83.5552 183.072 83.0304 182.726 82.4192 182.773C81.808 182.819 81.3418 183.241 81.378 183.715C81.4142 184.188 81.939 184.534 82.5502 184.487Z" fill="#A25DC6"/>
<path d="M86.4854 184.752C87.2319 184.695 87.8012 184.179 87.757 183.601C87.7128 183.022 87.0718 182.599 86.3253 182.656C85.5788 182.713 85.0095 183.229 85.0537 183.807C85.0979 184.386 85.7389 184.809 86.4854 184.752Z" fill="#A25DC6"/>
<path d="M60.825 132.731L66.1883 129.815C66.1883 129.815 69.3682 143.407 66.6115 150.954C59.979 169.109 60.2109 172.193 68.5401 182.743C72.6024 187.888 79.9354 191.24 88.8287 192.828C83.4336 193.774 74.1445 194.797 67.7623 193.697C55.6437 191.604 46.946 185.035 46.9141 173.545C46.8777 159.265 60.7295 153.533 60.825 132.735V132.731Z" fill="#C885E8"/>
<path d="M78.7948 191.095C81.2285 185.313 74.2503 180.227 70.1834 187.032C64.479 196.572 70.7703 209.541 70.7703 209.541C70.7703 209.541 65.78 212.571 64.752 213.462H76.6704C75.001 204.833 75.0964 199.883 78.7948 191.095Z" fill="#5F319B"/>
<path d="M69.0641 210.574C67.6948 211.324 65.2702 213.089 64.7607 213.462H70.4743L69.0641 210.574Z" fill="#080A0C"/>
<path d="M40.11 132.795C42.2253 137.908 50.4681 139.359 58.5244 136.029C66.5807 132.699 71.0661 125.98 69.2783 120.745C66.1168 111.492 58.6655 113.143 50.6092 116.468C42.5529 119.798 37.9947 127.677 40.11 132.795Z" fill="#B069D1"/>
<path d="M44.8875 129.832C44.9798 129.102 44.7071 128.466 44.2783 128.412C43.8496 128.357 43.4273 128.906 43.335 129.636C43.2428 130.366 43.5155 131.002 43.9442 131.056C44.3729 131.111 44.7953 130.562 44.8875 129.832Z" fill="#080A0C"/>
<path d="M42.2099 131.168C42.6402 131.066 42.8497 130.395 42.6779 129.669C42.5061 128.943 42.0181 128.437 41.5878 128.539C41.1575 128.64 40.9478 129.312 41.1196 130.038C41.2914 130.764 41.7796 131.27 42.2099 131.168Z" fill="#080A0C"/>
<path d="M56.86 115.146C56.8806 112.632 54.8587 110.576 52.3439 110.556C49.8292 110.535 47.7738 112.557 47.7532 115.072C47.7325 117.586 49.7545 119.642 52.2692 119.662C54.784 119.683 56.8394 117.661 56.86 115.146Z" fill="white"/>
<path d="M52.9656 113.462C54.3576 113.202 55.5494 114.408 55.281 115.795C55.1309 116.573 54.4985 117.196 53.7206 117.342C52.3286 117.601 51.1368 116.396 51.4052 115.008C51.5553 114.23 52.1877 113.607 52.9656 113.462Z" fill="#0D1013"/>
<path d="M66.7927 117.125C67.2911 114.66 65.6969 112.257 63.2319 111.759C60.7669 111.261 58.3646 112.855 57.8662 115.32C57.3679 117.785 58.9621 120.187 61.4271 120.686C63.8921 121.184 66.2944 119.59 66.7927 117.125Z" fill="white"/>
<path d="M61.3811 116.528C61.3993 115.118 62.8003 114.185 64.1059 114.717C64.8337 115.013 65.325 115.75 65.3113 116.537C65.2931 117.947 63.8921 118.88 62.5866 118.347C61.8587 118.052 61.3675 117.315 61.3811 116.528Z" fill="#0D1013"/>
<path d="M62.9915 110.141C61.0081 109.936 59.052 110.7 57.7328 112.197C56.0633 109.24 52.3149 108.198 49.358 109.872C46.4011 111.542 45.3595 115.29 47.0335 118.247C48.703 121.204 52.4512 122.246 55.4081 120.572C56.004 120.235 56.5409 119.798 56.9958 119.284C58.6562 122.259 62.4092 123.324 65.3797 121.664C68.3547 120.003 69.4192 116.25 67.7588 113.28C66.7762 111.519 64.9976 110.35 62.9915 110.15V110.141ZM52.3375 119.216C50.1403 119.207 48.3662 117.419 48.3753 115.222C48.3844 113.025 50.1723 111.251 52.3695 111.26C54.5667 111.269 56.3408 113.057 56.3317 115.254C56.3317 115.258 56.3317 115.263 56.3317 115.268C56.3135 117.456 54.5348 119.221 52.3422 119.216H52.3375ZM66.2531 117.083C65.8164 119.234 63.7147 120.626 61.563 120.19C59.4113 119.753 58.0193 117.651 58.456 115.5C58.8927 113.348 60.9944 111.956 63.1461 112.393C63.1506 112.393 63.1551 112.393 63.1596 112.393C65.3022 112.834 66.6852 114.917 66.2622 117.064L66.2531 117.083Z" fill="#6C38A3"/>
<path d="M65.3658 107.748C65.7616 107.348 65.3066 106.065 63.2732 105.542C61.6265 105.119 60.6395 105.683 60.726 106.52C60.8397 107.625 62.3362 107.148 63.4007 107.448C64.5607 107.771 64.9975 108.103 65.3705 107.748H65.3658Z" fill="#0D1013"/>
<path d="M51.1915 106.27C50.8867 105.796 51.5963 104.632 53.6934 104.541C55.3902 104.468 56.2455 105.223 55.9862 106.024C55.6495 107.079 54.2803 106.306 53.1795 106.383C51.9694 106.461 51.4826 106.697 51.1915 106.27Z" fill="#0D1013"/>
<path d="M60.2442 127.559C59.9303 127.482 59.6119 127.673 59.5345 127.987C57.9651 134.287 50.8732 136.966 48.2939 137.744C49.3539 137.844 50.4775 137.849 51.6375 137.749C52.1743 137.508 52.7338 137.235 53.307 136.921C57.2509 134.76 59.7984 131.767 60.6718 128.269C60.7491 127.955 60.5581 127.636 60.2442 127.559Z" fill="white"/>
<path d="M62.7505 100.729C63.5922 100.729 64.2745 100.046 64.2745 99.2047C64.2745 98.3631 63.5922 97.6808 62.7505 97.6808C61.9089 97.6808 61.2266 98.3631 61.2266 99.2047C61.2266 100.046 61.9089 100.729 62.7505 100.729Z" fill="#B53C54"/>
<path d="M49.2812 108.808C49.2812 108.808 50.705 109.09 51.0553 106.483C51.4056 103.876 52.2426 101.088 53.207 100.283C54.1668 99.4775 60.6219 98.4539 63.0238 98.9543C65.4257 99.4547 70.6115 101.797 71.9443 102.948C73.2772 104.099 71.6442 113.015 71.5805 113.393C71.5668 113.479 70.4068 112.974 68.6554 112.661C62.6598 111.587 49.2812 108.812 49.2812 108.812V108.808Z" fill="#DB4D62"/>
<path d="M71.9485 102.948C70.7749 101.934 66.6124 99.9733 63.9922 99.2045C65.4342 99.6367 68.7915 100.897 69.1509 103.303C69.6058 106.328 68.6823 112.465 68.6505 112.661C68.7005 112.67 71.5753 113.475 71.5753 113.475C72.2031 112.347 73.2767 104.099 71.9438 102.948H71.9485Z" fill="#B53C54"/>
<path d="M50.3866 108.539C50.3866 108.539 60.0212 106.069 68.6553 112.661C68.6553 112.661 62.8644 114.448 60.2487 113.648C54.4578 111.873 46.3925 111.259 42.494 111.168C41.9709 111.155 42.0026 110.322 42.5258 110.254" fill="#EF6A7E"/>
<path fill-rule="evenodd" clip-rule="evenodd" d="M58.5873 101.966L57.391 103.717L55.5167 102.803C55.4531 104.473 56.3765 106.31 58.419 106.388C60.5615 106.469 61.526 104.705 61.5897 103.035L59.5518 103.799L58.5873 101.966Z" fill="#B53C54"/>
<path d="M88.1695 169.473L86.8186 171.379C85.4493 169.437 86.7639 167.354 86.7639 167.354C84.5031 163.187 81.0322 159.288 75.5325 159.243C70.0327 159.202 69.8917 155.904 70.292 154.475C71.3701 150.672 76.1237 151.705 76.1146 151.696C87.2961 153.165 89.5615 165.83 89.5615 165.83C92.4183 166.53 92.814 168.864 92.814 168.864L90.7761 168.532C91.1127 170.383 90.285 171.598 90.285 171.598C88.8793 170.802 88.1695 169.473 88.1695 169.473Z" fill="#6C38A3"/>
<path d="M109.824 195.089C109.824 188.406 112.349 182.315 116.489 177.711C118.013 176.015 117.926 173.422 116.252 171.87C114.469 170.215 111.635 170.428 110.152 172.362C106.003 177.766 103.538 184.53 103.538 191.872C103.538 196.417 104.488 200.743 106.194 204.66C101.245 204.76 97.0825 207.162 94.4941 210.783H115.06C115.06 210.783 114.664 210.269 114.096 209.373C114.023 209.263 113.955 209.154 113.887 209.045C113.081 207.744 112.022 205.797 111.216 203.509C110.316 200.87 109.824 198.041 109.824 195.098V195.089Z" fill="#007184"/>
<path d="M94.49 210.773C95.5909 209.24 96.9373 207.917 98.5795 206.902L102.464 210.773H94.4854H94.49Z" fill="#271E4C"/>
<path d="M109.607 96.7028C110.054 96.7028 110.416 96.3403 110.416 95.8931C110.416 95.4459 110.054 95.0834 109.607 95.0834C109.16 95.0834 108.797 95.4459 108.797 95.8931C108.797 96.3403 109.16 96.7028 109.607 96.7028Z" fill="#008E87"/>
<path d="M106.795 115.995C109.119 115.995 111.003 114.111 111.003 111.787C111.003 109.463 109.119 107.579 106.795 107.579C104.471 107.579 102.587 109.463 102.587 111.787C102.587 114.111 104.471 115.995 106.795 115.995Z" fill="#007184"/>
<path d="M109.052 125.726C111.376 125.726 113.259 123.842 113.259 121.518C113.259 119.194 111.376 117.31 109.052 117.31C106.728 117.31 104.844 119.194 104.844 121.518C104.844 123.842 106.728 125.726 109.052 125.726Z" fill="#007184"/>
<path d="M114.584 134.109C116.908 134.109 118.792 132.225 118.792 129.902C118.792 127.578 116.908 125.694 114.584 125.694C112.26 125.694 110.376 127.578 110.376 129.902C110.376 132.225 112.26 134.109 114.584 134.109Z" fill="#007184"/>
<path d="M116.566 141.843C119.987 140.592 123.153 138.595 125.796 135.933C116.025 131.489 109.993 125.685 108.205 117.919C106.181 109.113 109.67 99.2457 113.791 92.8134L101.873 85.9217C99.8579 89.1515 98.0975 92.7634 96.7646 96.4663C93.7304 104.905 93.0526 113.389 94.804 120.999C96.2733 127.39 99.4074 133.131 104.116 138.062C107.91 142.034 112.741 145.468 118.527 148.316C118.886 148.493 119.259 148.666 119.628 148.839C118.955 146.378 117.926 144.017 116.566 141.833V141.843Z" fill="#2BC1AB"/>
<path d="M130.714 83.2242C130.532 79.9034 128.334 77.1694 125.373 76.1413C126.119 74.6311 126.496 72.9115 126.396 71.1101C126.087 65.5194 121.302 61.2342 115.711 61.5435C114.692 61.5981 113.723 61.8074 112.813 62.1349C112.381 60.7839 111.085 59.8423 109.606 59.9242C108.437 59.9878 107.454 60.6793 106.954 61.6482C105.371 60.1744 103.215 59.3237 100.886 59.4556C96.3957 59.7058 92.9477 63.4996 93.0978 67.9713C92.7748 67.9349 92.4428 67.9258 92.1107 67.944C88.7808 68.1305 86.2333 70.9782 86.4198 74.3035C86.6063 77.6334 89.454 80.1808 92.7793 79.9943C93.6436 79.9443 94.4579 79.7169 95.1857 79.3484L111.28 91.5761C110.616 92.6087 110.261 93.8552 110.334 95.1744C110.52 98.5088 113.373 101.065 116.707 100.879C119.582 100.72 121.875 98.5725 122.334 95.8476C122.757 96.0205 123.221 96.1069 123.703 96.0797C125.459 95.9841 126.806 94.4783 126.706 92.7224C126.669 92.0446 126.419 91.4305 126.028 90.9347C128.944 89.62 130.905 86.6132 130.714 83.2287V83.2242Z" fill="#4941B7"/>
<path d="M93.5292 80.6039C94.5618 80.4583 95.4989 81.4682 95.6127 82.8693C95.7309 84.2659 94.9895 85.5213 93.9523 85.6669C92.9197 85.8125 91.9826 84.8026 91.8688 83.4015C91.7506 82.005 92.492 80.7495 93.5292 80.6039Z" fill="#231C1C"/>
<path d="M101.672 105.937C110.247 105.937 117.198 98.9862 117.198 90.4115C117.198 81.8369 110.247 74.8857 101.672 74.8857C93.0978 74.8857 86.1465 81.8369 86.1465 90.4115C86.1465 98.9862 93.0978 105.937 101.672 105.937Z" fill="#2BC1AB"/>
<path d="M85.7327 83.1741C80.1056 83.2469 75.6019 87.8686 75.6747 93.5003C75.7475 99.1274 80.3694 103.631 86.001 103.558C91.6327 103.485 99.2251 98.8227 99.1523 93.191C99.0795 87.5639 91.3643 83.1013 85.7372 83.1741H85.7327Z" fill="#2BC1AB"/>
<path d="M84.5052 98.7716C86.2631 98.2146 87.3246 96.6157 86.8762 95.2003C86.4277 93.7848 84.6391 93.0889 82.8812 93.6459C81.1233 94.2029 80.0618 95.8018 80.5102 97.2172C80.9587 98.6327 82.7473 99.3286 84.5052 98.7716Z" fill="#C13880"/>
<path d="M89.9684 91.7446C87.9623 94.1828 84.0047 96.0706 79.1146 96.9213C78.2139 97.076 77.3405 97.1942 76.458 97.2761C76.5945 97.6036 76.7446 97.9221 76.9129 98.2315C77.1586 98.2042 77.3996 98.1769 77.6361 98.1451C78.2002 98.0723 78.7507 97.9858 79.2829 97.8948C84.4051 97.0032 88.5766 94.9925 90.7283 92.3723C90.9012 92.163 90.8737 91.8491 90.6599 91.6763C90.4506 91.5034 90.1368 91.5353 89.964 91.7446H89.9684Z" fill="white"/>
<path fill-rule="evenodd" clip-rule="evenodd" d="M79.6913 80.8722C78.6768 81.268 78.2492 82.5281 78.5949 83.8473C77.626 83.3515 76.5662 83.3379 75.943 83.8928C75.1151 84.6298 75.3606 86.09 76.4979 87.1499C77.0892 87.7049 77.8036 88.037 78.4723 88.128L82.9302 83.6927C82.5708 81.582 80.7967 80.4401 79.6913 80.8722Z" fill="#2BC1AB"/>
<path fill-rule="evenodd" clip-rule="evenodd" d="M81.3151 83.0104C81.6972 83.6518 81.688 84.3841 81.2922 84.6434C80.8964 84.9027 80.2641 84.5933 79.882 83.9474C79.4998 83.306 79.5091 82.5736 79.9048 82.3144C80.3006 82.0551 80.933 82.3644 81.3151 83.0104Z" fill="#080A0C"/>
<path fill-rule="evenodd" clip-rule="evenodd" d="M78.1903 84.98C78.6907 85.3849 78.8589 85.9763 78.5723 86.2948C78.2857 86.6132 77.6444 86.5404 77.1485 86.1355C76.6481 85.7306 76.4799 85.1393 76.7665 84.8209C77.0531 84.5025 77.6944 84.5752 78.1903 84.98Z" fill="#080A0C"/>
<path d="M115.574 68.0079C116.069 67.6303 115.774 66.1473 113.618 65.2603C111.875 64.5415 110.697 65.0055 110.665 65.9381C110.615 67.1708 112.339 66.8797 113.458 67.3755C114.718 67.9396 115.141 68.3536 115.574 68.0124V68.0079Z" fill="#271E4C"/>
<path d="M100.194 65.979C99.9344 65.4103 100.89 64.2459 103.21 64.4688C105.084 64.6507 105.903 65.6151 105.498 66.4521C104.961 67.562 103.578 66.4976 102.359 66.4067C100.994 66.3157 100.421 66.4794 100.194 65.9744V65.979Z" fill="#271E4C"/>
<path d="M135.407 90.2251L133.215 86.1036C133.087 85.8626 132.86 85.6852 132.596 85.6215L124.658 83.6381L124.203 85.5124L131.713 87.3865L133.701 91.1303C133.865 91.4397 134.179 91.6262 134.507 91.6399C134.675 91.649 134.848 91.6126 135.007 91.5261C135.48 91.2759 135.657 90.6891 135.407 90.2205V90.2251Z" fill="#271E4C"/>
<path d="M116.027 82.3018C116.796 79.2906 114.974 76.2254 111.958 75.4555C108.942 74.6855 105.873 76.5025 105.105 79.5137C104.336 82.5249 106.158 85.5902 109.174 86.3601C112.19 87.13 115.258 85.313 116.027 82.3018Z" fill="white"/>
<path d="M112.897 81.5031C113.225 80.2177 112.447 78.9094 111.159 78.5807C109.872 78.252 108.562 79.0273 108.234 80.3126C107.906 81.5979 108.684 82.9065 109.971 83.2352C111.259 83.5639 112.569 82.7884 112.897 81.5031Z" fill="#271E4C"/>
<path d="M103.987 79.2261C104.755 76.2149 102.934 73.1497 99.9176 72.3797C96.9015 71.6098 93.8333 73.4268 93.0646 76.438C92.2959 79.4492 94.1179 82.5143 97.134 83.2842C100.15 84.0541 103.218 82.2373 103.987 79.2261Z" fill="white"/>
<path d="M100.337 79.5691C101.274 78.631 101.274 77.1101 100.336 76.1723C99.3979 75.2344 97.8771 75.2348 96.9392 76.1729C96.0014 77.1111 96.0017 78.6318 96.9399 79.5696C97.8781 80.5075 99.3988 80.5073 100.337 79.5691Z" fill="#271E4C"/>
<path d="M118.345 80.7269L120.86 78.5114L117.526 77.7063C116.575 75.7775 114.819 74.2582 112.577 73.685C112.081 73.5576 111.576 73.4803 111.071 73.4576C109.083 73.3575 107.182 74.1854 105.74 75.4045C105.585 75.0088 105.426 74.481 105.203 74.108C104.161 72.3567 102.505 71.1194 100.531 70.6144C100.035 70.487 99.5302 70.4097 99.0253 70.387C97.2102 70.2914 95.4815 70.86 94.0986 71.8881L90.7733 71.083L91.9972 74.2035L89.4814 74.3173L91.1873 76.4689C90.3821 80.4175 92.816 84.3569 96.7645 85.3623C97.2604 85.4896 97.7651 85.567 98.27 85.5897C100.258 85.6898 102.137 85.0029 103.579 83.7838C104.439 86.0082 106.322 87.8005 108.806 88.4328C109.301 88.5602 109.806 88.6376 110.311 88.6603C113.86 88.8423 117.071 86.5177 118.026 83.1105L120.524 81.9733L118.34 80.7223L118.345 80.7269ZM103.693 79.2712C102.983 82.0506 100.153 83.7247 97.3694 83.015C94.5854 82.3054 92.9068 79.4758 93.6164 76.6964C94.3261 73.9169 97.1557 72.2429 99.9397 72.9526C102.724 73.6622 104.402 76.4918 103.693 79.2712ZM115.734 82.3463C115.024 85.1258 112.195 86.7998 109.411 86.0902C106.627 85.3805 104.948 82.551 105.658 79.7715C106.367 76.9921 109.197 75.3181 111.981 76.0277C114.765 76.7373 116.443 79.5669 115.734 82.3463Z" fill="#007184"/>
<path d="M116.784 71.756C112.581 70.6552 108.3 72.2246 105.739 75.3998C103.965 65.1145 89.2714 63.4085 85.3046 73.1434C83.4213 77.7652 85.0591 83.224 89.1942 86.0262C93.7432 89.1104 100.094 88.1734 103.542 83.8882C105.066 92.6723 116.556 95.7839 122.288 88.9285C127.201 83.0558 124.226 73.703 116.784 71.756ZM103.683 79.4119C102.418 84.243 97.1686 87.068 92.4331 85.4895C87.8068 83.9474 85.2912 78.7206 86.9925 74.1443C88.6893 69.5907 93.9478 67.2616 98.465 69.0721C102.5 70.687 104.784 75.2041 103.683 79.4119ZM122.561 84.3067C121.356 88.9194 116.474 91.7579 111.866 90.5525C107.358 89.3743 104.502 84.6843 105.543 80.1398C106.626 75.3907 111.584 72.3928 116.297 73.6256C120.905 74.8311 123.767 79.694 122.561 84.3067Z" fill="#271E4C"/>
<path d="M85.078 132.64C81.4479 130.62 81.8437 127.45 81.8437 127.45L84.746 128.728C84.9552 126.03 86.2244 124.588 86.2244 124.588C87.9894 126.035 88.6855 128.268 88.6855 128.268L91.0966 126.144C92.1883 129.087 90.0365 131.416 89.6226 131.848C91.283 138.344 94.7857 144.872 102.273 146.901C109.902 148.966 108.897 153.602 107.819 155.435C104.935 160.33 98.7024 157.159 98.7115 157.177C84.0228 153.725 85.0052 133.8 85.078 132.644V132.64Z" fill="#007184"/>
<path d="M151.236 153.97C155.571 161.49 154.752 173.667 146.887 181.651C135.983 192.719 115.871 191.49 106.801 183.029C94.3456 171.416 98.9675 152.019 105.6 138.099C105.6 138.099 113.915 128.851 118.237 131.694C129.009 138.79 143.502 140.56 151.236 153.966V153.97Z" fill="#2BC1AB"/>
<path d="M131.419 196.785C131.419 190.103 133.944 184.012 138.083 179.408C139.607 177.711 139.521 175.118 137.847 173.567C136.063 171.911 133.229 172.125 131.747 174.058C127.598 179.463 125.132 186.227 125.132 193.569C125.132 198.114 126.083 202.44 127.789 206.356C122.839 206.457 118.677 208.858 116.089 212.479H136.655C136.655 212.479 136.259 211.965 135.69 211.069C135.618 210.96 135.549 210.851 135.481 210.742C134.676 209.441 133.616 207.494 132.811 205.206C131.91 202.567 131.419 199.738 131.419 196.794V196.785Z" fill="#007184"/>
<path d="M116.089 212.47C117.19 210.937 118.536 209.614 120.178 208.599L124.063 212.47H116.084H116.089Z" fill="#271E4C"/>
<path d="M110.167 97.7399C110.657 97.7399 111.054 97.3428 111.054 96.8529C111.054 96.363 110.657 95.9659 110.167 95.9659C109.678 95.9659 109.28 96.363 109.28 96.8529C109.28 97.3428 109.678 97.7399 110.167 97.7399Z" fill="#008E87"/>
<path d="M104.522 140.455C104.522 140.455 104.272 151.045 110.945 153.356C112.578 153.92 109.207 159.079 108.543 160.853C105.868 168.013 97.1162 168.15 97.1162 168.15C97.1162 168.15 97.0798 148.184 104.517 140.455H104.522Z" fill="#A81B6C"/>
<path d="M112.527 153.101C112.527 153.101 125.269 151.154 123.377 134.628C123.377 134.628 132.27 137.576 135.777 139.113C144.866 143.098 152.017 147.743 152.017 147.743C152.017 147.743 145.603 170.72 121.698 164.66C113.833 162.668 112.527 153.101 112.527 153.101Z" fill="#C13880"/>
<path d="M119.864 160.239C123.171 164.638 122.257 171.953 122.257 171.953C122.257 171.953 114.978 170.797 111.671 166.398C108.364 161.999 110.283 156.022 110.283 156.022C110.283 156.022 116.561 155.845 119.864 160.244V160.239Z" fill="#A81B6C"/>
<path d="M110.247 164.055C107.768 168.332 101.408 170.138 101.408 170.138C101.408 170.138 99.8116 163.719 102.291 159.443C104.77 155.167 110.379 154.657 110.379 154.657C110.379 154.657 112.726 159.779 110.252 164.055H110.247Z" fill="#C13880"/>
<path d="M112.399 160.234C114.961 160.234 117.039 158.157 117.039 155.594C117.039 153.032 114.961 150.954 112.399 150.954C109.836 150.954 107.759 153.032 107.759 155.594C107.759 158.157 109.836 160.234 112.399 160.234Z" fill="#D14695"/>
<path d="M25.5566 207.717L31.9797 214.113C31.9797 214.113 33.631 211.511 36.9427 208.581C40.9595 204.978 43.9618 203.104 41.9102 200.265C38.9624 196.167 30.3785 204.896 28.9229 206.643L25.5611 207.721L25.5566 207.717Z" fill="#005DCC"/>
<path d="M50.2846 169L47.1185 173.672L51.7448 175.701L49.4294 179.613L52.8729 181.373L50.5438 185.044L44.3662 167.249L50.289 169H50.2846Z" fill="black"/>
<path d="M24.7511 191.718L24.8055 190.076C26.4568 190.408 26.6615 192.15 26.6615 192.15C28.0945 193.201 30.2327 193.847 34.3222 190.458C36.5467 188.684 38.3479 189.757 38.953 190.74C40.1903 192.873 38.3253 195.148 37.1562 195.889C30.7785 200.438 25.6927 194.629 25.6927 194.629C23.8685 195.644 22.5039 194.261 22.5039 194.261L23.8413 193.492C22.9497 192.9 22.5765 191.85 22.5765 191.85C23.7729 191.281 24.7464 191.718 24.7464 191.718H24.7511Z" fill="#005DCC"/>
<path d="M28.3311 182.734L43.584 164.578L53.5645 193.856C54.9156 197.823 58.3727 196.845 60.5608 195.93C64.6549 194.215 65.1554 190.262 65.1554 190.262C65.9924 190.926 69.1495 197.682 62.2987 203.318C60.561 204.746 56.7807 206.834 54.7382 207.776C54.7382 207.776 44.5484 212.066 38.8075 202.554C34.3814 195.225 28.7087 184.003 28.3357 182.729L28.3311 182.734Z" fill="#158FEA"/>
<path d="M28.3312 182.734C27.8399 180.696 28.163 178.826 28.7726 177.257C29.3139 176.542 29.8371 175.587 30.4194 174.359L30.492 174.332C35.6324 172.093 37.6658 174.254 37.6658 174.254C37.6658 174.254 43.184 195.13 49.1341 202.504C50.3214 204.014 53.6693 208.208 53.6693 208.208C52.6003 208.64 52.4321 208.626 51.1629 208.972C45.8042 210.469 40.7366 208.786 37.9708 203.359C33.9722 195.698 28.6771 184.003 28.3359 182.734H28.3312Z" fill="#85E8FF"/>
<path d="M38.2843 170.856L38.3707 171.07C38.5709 171.57 43.3656 183.875 38.2843 187.496C38.0978 187.655 37.7703 187.869 37.5565 187.956C36.8423 188.242 36.119 188.288 35.2728 188.047C30.3918 186.618 25.7426 175.496 25.5698 175.068L25.4561 174.782L38.2797 170.856H38.2843Z" fill="#158FEA"/>
<path d="M33.5721 185.258C34.914 186.536 36.2425 187.164 37.3843 186.291C38.6671 185.358 39.1901 183.575 39.0673 181.637C39.0582 177.502 37.0884 172.416 37.0884 172.416L26.5713 174.254C26.5713 174.254 30.1148 182.015 33.5721 185.258Z" fill="black"/>
<path d="M33.5713 185.258C34.9132 186.537 36.2417 187.164 37.3835 186.291C38.6663 185.358 39.1893 183.575 39.0665 181.637C39.0665 181.637 35.8594 181.687 33.5713 185.258Z" fill="#680000"/>
<path d="M19.9795 178.235L22.8726 172.68C24.8378 171.393 27.7446 170.388 31.2201 169.15C33.9131 168.231 39.3128 166.221 39.3128 166.221C40.2226 169.91 39.4856 172.608 39.3037 174.009C38.1983 181.328 31.8433 184.053 28.8956 184.744C24.3648 185.827 20.2206 182.943 19.9795 178.235Z" fill="#158FEA"/>
<path d="M58.6777 177.125C58.6777 177.125 59.1551 178.116 58.9413 179.194L60.4335 178.835C60.4335 178.835 60.4198 180.736 58.4182 181.296C58.4182 181.296 58.7821 189.029 51.0079 190.194C49.6477 190.444 46.6501 190.139 46.1497 187.733C45.9359 186.518 46.4908 184.571 49.2703 184.294C54.6199 183.871 55.4068 182.533 56.0982 180.514C56.0982 180.514 54.6564 179.122 55.8437 177.493L57.0627 178.621C57.099 178.453 57.4449 177.579 58.6777 177.125Z" fill="#005DCC"/>
<path d="M45.4492 216.405L54.5108 216.423C54.5108 216.423 53.8239 213.426 54.1423 208.972C54.4607 203.595 55.3114 200.143 51.7814 199.597C46.7911 198.819 46.8457 210.951 47.0731 213.257L45.4537 216.401L45.4492 216.405Z" fill="#005DCC"/>
<path d="M29.482 185.558C29.3501 185.263 29.2319 184.985 29.1182 184.726C30.865 184.225 32.5026 183.438 33.9901 182.383C36.1054 180.914 37.6883 178.753 38.4525 176.269C38.5026 176.165 38.58 176.078 38.6846 176.019C38.7847 175.96 38.903 175.937 39.0167 175.951L39.0667 175.964C39.1713 176.014 39.2577 176.092 39.3123 176.192C39.3715 176.292 39.3988 176.406 39.3852 176.556C38.5391 179.226 36.8058 181.569 34.4995 183.152C33.4532 183.898 32.3251 184.526 31.1332 185.008C30.5964 185.222 30.0414 185.404 29.4773 185.558H29.482Z" fill="white"/>
<path d="M40.3507 168.944C43.0814 168.914 45.2704 166.675 45.2399 163.944C45.2094 161.214 42.9709 159.025 40.2402 159.055C37.5094 159.086 35.3206 161.324 35.3511 164.055C35.3816 166.786 37.6199 168.975 40.3507 168.944Z" fill="white"/>
<path d="M40.3275 166.117C41.5108 166.109 42.4633 165.143 42.4549 163.959C42.4464 162.776 41.4801 161.824 40.2968 161.832C39.1135 161.841 38.1612 162.807 38.1696 163.99C38.1781 165.173 39.1442 166.126 40.3275 166.117Z" fill="black"/>
<path d="M30.432 170.099C33.1071 169.55 34.8307 166.936 34.2815 164.261C33.7324 161.585 31.1186 159.862 28.4434 160.411C25.7683 160.96 24.0448 163.574 24.5939 166.249C25.143 168.924 27.7569 170.648 30.432 170.099Z" fill="white"/>
<path d="M29.8659 167.345C31.0201 167.108 31.7637 165.98 31.5267 164.826C31.2898 163.672 30.1621 162.928 29.0079 163.165C27.8536 163.402 27.11 164.53 27.347 165.684C27.5839 166.838 28.7116 167.582 29.8659 167.345Z" fill="black"/>
<path d="M28.7726 158.587C26.5981 158.81 24.6649 160.089 23.6049 161.999C21.8126 165.233 22.9816 169.305 26.216 171.093C29.4503 172.885 33.5218 171.716 35.3095 168.481C35.8054 169.036 36.3876 169.51 37.0381 169.873C40.2497 171.679 44.3166 170.533 46.1225 167.321C47.9285 164.11 46.782 160.043 43.5704 158.237C40.3588 156.431 36.2921 157.578 34.4861 160.789C33.0487 159.17 30.9197 158.346 28.7726 158.574V158.587ZM40.359 168.4C37.9844 168.413 36.042 166.503 36.0192 164.128C36.0192 164.123 36.0192 164.119 36.0192 164.11C36.001 161.726 37.9251 159.779 40.3088 159.761C42.6925 159.743 44.6395 161.667 44.6577 164.051C44.6759 166.434 42.7518 168.381 40.3681 168.4H40.3634H40.359ZM25.2471 166.111C24.7785 163.787 26.2752 161.517 28.5998 161.03C28.6043 161.03 28.6089 161.03 28.618 161.03C30.9562 160.548 33.2397 162.054 33.7174 164.392C34.1996 166.73 32.6938 169.014 30.3556 169.491C28.0174 169.974 25.7338 168.468 25.2562 166.13L25.2471 166.111Z" fill="#005DCC"/>
<path d="M24.3371 158.369C23.8276 158.032 24.0097 156.568 26.0477 155.549C27.6944 154.721 28.8771 155.094 28.9772 155.999C29.1137 157.195 27.4122 157.036 26.3569 157.6C25.2014 158.21 24.8148 158.665 24.3371 158.374V158.369Z" fill="black"/>
<path d="M42.9022 155.33C43.2479 154.83 42.5246 153.542 40.2501 153.361C38.4123 153.215 37.4571 154.007 37.7073 154.88C38.0348 156.04 39.5496 155.248 40.7414 155.371C42.047 155.499 42.5701 155.772 42.9022 155.326V155.33Z" fill="black"/>
<path d="M42.5145 173.899C42.7356 173.899 42.9148 173.72 42.9148 173.499C42.9148 173.278 42.7356 173.099 42.5145 173.099C42.2934 173.099 42.1143 173.278 42.1143 173.499C42.1143 173.72 42.2934 173.899 42.5145 173.899Z" fill="#005DCC"/>
<path d="M42.1376 177.038C42.3587 177.038 42.538 176.859 42.538 176.638C42.538 176.417 42.3587 176.238 42.1376 176.238C41.9165 176.238 41.7373 176.417 41.7373 176.638C41.7373 176.859 41.9165 177.038 42.1376 177.038Z" fill="#005DCC"/>
<path d="M44.1483 175.687C44.3694 175.687 44.5488 175.508 44.5488 175.287C44.5488 175.066 44.3694 174.886 44.1483 174.886C43.9272 174.886 43.748 175.066 43.748 175.287C43.748 175.508 43.9272 175.687 44.1483 175.687Z" fill="#005DCC"/>
<path d="M17.3454 175.532C17.4819 175.2 17.7231 174.927 18.0416 174.741C18.3782 174.541 18.7875 174.454 19.2106 174.477C18.7466 173.645 18.7738 172.694 19.3561 172.066C19.4698 171.943 19.6019 171.839 19.7474 171.752C20.5617 171.275 21.6717 171.479 22.5133 172.257C22.9318 172.644 23.2274 173.135 23.3502 173.636L20.7801 178.021C20.2069 178.357 19.4334 178.38 18.7101 178.084C17.5501 177.611 16.9498 176.488 17.341 175.532H17.3454Z" fill="#158FEA"/>
<path d="M22.0956 174.6C22.417 174.253 22.2536 173.579 21.7308 173.094C21.208 172.608 20.5236 172.495 20.2022 172.841C19.8808 173.187 20.044 173.862 20.5668 174.347C21.0897 174.833 21.7742 174.946 22.0956 174.6Z" fill="#0D1013"/>
<path d="M20.2338 176.601C20.3777 176.25 20.076 175.794 19.56 175.583C19.0439 175.371 18.5089 175.484 18.365 175.835C18.2211 176.186 18.5228 176.642 19.0389 176.854C19.555 177.065 20.0899 176.952 20.2338 176.601Z" fill="#0D1013"/>
<path d="M119.429 202.162L117.496 214.727C117.496 214.727 113.529 213.203 107.333 212.62C99.8046 211.911 94.8689 212.284 94.8234 207.266C94.7643 200.238 111.673 202.917 114.753 203.609L119.424 202.162H119.429Z" fill="#004C41"/>
<path d="M114.757 203.609L118.574 207.707L119.429 202.162L114.757 203.609Z" fill="#0D1013"/>
<path fill-rule="evenodd" clip-rule="evenodd" d="M126.416 217.433C124.237 217.611 107.124 217.315 95.1284 217.024C79.9893 216.656 77.0415 203.286 76.6048 195.989C75.8906 184.162 78.347 173.886 80.435 164.105C80.667 163.018 80.981 161.076 80.981 161.076L100.883 180.8L97.4438 183.37C96.907 187.569 97.8941 190.344 101.474 192.614C110.372 198.255 106.624 206.111 106.624 206.111C120.507 210.605 127.431 216.778 127.367 217.129C127.326 217.361 126.644 217.415 126.412 217.433H126.416Z" fill="#FF871A"/>
<path fill-rule="evenodd" clip-rule="evenodd" d="M84.6609 203.764C83.4281 206.484 76.9276 216.615 76.9276 216.615L68.3438 216.405C68.3438 216.405 69.8448 213.621 72.9654 213.139C72.9654 213.139 75.3765 199.67 76.9413 195.207C77.7238 192.973 80.6441 190.012 84.0149 193.123C86.7398 195.639 86.0302 200.725 84.6564 203.759L84.6609 203.764Z" fill="#004C41"/>
<path d="M113.997 207.298L112.064 219.863C112.064 219.863 108.097 218.339 101.902 217.756C94.3729 217.047 89.4372 217.42 89.3918 212.402C89.3326 205.374 106.241 208.053 109.321 208.745L113.993 207.298H113.997Z" fill="#004C41"/>
<path d="M109.325 208.745L113.146 212.843L113.997 207.298L109.325 208.745Z" fill="#0D1013"/>
<path fill-rule="evenodd" clip-rule="evenodd" d="M106.628 206.111C106.628 206.111 110.376 198.255 101.479 192.614C97.8984 190.344 96.9159 187.569 97.4482 183.37L100.887 180.8L86.7033 180.455C86.7033 180.455 86.2258 188.638 91.0795 197.3C96.4428 206.871 106.628 206.111 106.628 206.111Z" fill="#FFB000"/>
<path d="M82.5966 141.374C82.5966 141.374 76.2736 153.265 62.0625 154.462C62.0625 154.462 70.6556 166.626 62.0625 176.811C62.0625 176.811 68.7177 181.833 78.2297 179.918C80.2813 179.504 83.0153 182.62 83.0153 182.62L90.1844 178.717L94.6423 162.131C94.6423 162.131 94.5788 148.252 82.6012 141.379L82.5966 141.374Z" fill="#FF871A"/>
<path d="M112.788 167.576C111.496 165.793 110.254 164.738 107.598 163.723C107.598 163.723 102.394 161.922 94.6377 162.126L79.626 164.819L83.6745 178.953C83.4016 178.949 81.2819 180.109 81.2819 180.109L84.6481 183.034C97.1988 187.41 106.652 188.543 105.646 179.904C105.61 179.904 105.574 179.904 105.533 179.904C108.903 179.84 111.701 182.938 111.701 182.938C116.063 177.898 115.922 171.902 112.788 167.576Z" fill="#FF871A"/>
<path d="M97.1678 182.11C98.7872 183.671 100.616 184.717 102.454 184.408C104.078 184.139 104.678 182.533 104.701 180.364C104.701 180.209 104.701 180.05 104.696 179.886L95.0752 179.722C95.7212 180.573 96.4263 181.392 97.1678 182.106V182.11Z" fill="#4A0006"/>
<path d="M97.1617 182.11C98.7902 183.671 100.61 184.717 102.448 184.407C103.862 184.175 104.504 182.925 104.654 181.173C102.129 180.482 99.4363 180.818 97.1572 182.11H97.1617Z" fill="#8E010D"/>
<path d="M105.642 179.904L100.556 179.745L96.1523 179.608L98.9317 182.338L101.097 180.277L103.117 182.256L105.642 179.904Z" fill="white"/>
<path d="M98.7091 179.686C98.5999 179.686 97.8264 179.663 97.7218 179.663C95.7339 179.64 94.6513 179.326 94.0963 179.008C94.0781 178.999 94.0553 178.985 94.0326 178.976C93.2866 178.421 92.686 177.752 92.3585 176.943C92.3175 176.847 92.2357 176.77 92.1401 176.729C92.0401 176.688 91.9309 176.688 91.8354 176.729C91.7853 176.747 91.7398 176.774 91.7034 176.806C91.6671 176.843 91.6353 176.883 91.6126 176.929C91.5899 176.974 91.5762 177.025 91.5762 177.079C91.5762 177.129 91.5806 177.184 91.5988 177.229C91.9627 178.184 92.6497 179.022 93.7187 179.695C94.4784 180.15 95.6521 180.418 97.7082 180.464C97.8356 180.464 98.5451 180.477 98.7453 180.464C98.7589 180.464 98.932 179.69 98.7091 179.686Z" fill="white"/>
<path d="M114.667 158.133C113.73 157.632 106.57 163.419 106.57 163.419C106.57 163.419 106.875 165.111 108.758 166.516C110.642 167.922 112.698 167.563 112.698 167.563C112.698 167.563 115.568 158.615 114.667 158.133Z" fill="#E8D8C4"/>
<path d="M90.0351 171.909C90.0665 170.618 88.6116 169.536 86.7857 169.491C84.9598 169.447 83.4543 170.458 83.4229 171.749C83.3916 173.04 84.8463 174.122 86.6723 174.166C88.4982 174.211 90.0038 173.2 90.0351 171.909Z" fill="#ED6B00"/>
<path d="M81.554 170.53C81.5696 169.885 80.9124 169.345 80.0861 169.325C79.2598 169.305 78.5772 169.812 78.5616 170.457C78.5459 171.103 79.2031 171.643 80.0294 171.663C80.8557 171.683 81.5383 171.176 81.554 170.53Z" fill="#ED6B00"/>
<path d="M82.9661 174.073C82.9817 173.428 82.3246 172.888 81.4982 172.868C80.6719 172.848 79.9893 173.355 79.9737 174.001C79.958 174.646 80.6152 175.186 81.4415 175.206C82.2678 175.226 82.9504 174.719 82.9661 174.073Z" fill="#ED6B00"/>
<path fill-rule="evenodd" clip-rule="evenodd" d="M87.1363 155.776C89.1379 155.831 90.8711 156.877 91.8992 158.419C93.0046 156.914 94.8105 155.954 96.8303 156.008C100.087 156.099 102.658 158.802 102.567 162.05C102.476 165.298 99.7599 167.849 96.5029 167.758C94.5013 167.704 92.768 166.658 91.7399 165.116C90.6345 166.621 88.8286 167.581 86.8089 167.527C83.5518 167.436 80.9817 164.733 81.0727 161.485C81.1636 158.242 83.8792 155.685 87.1363 155.776Z" fill="#004C41"/>
<path fill-rule="evenodd" clip-rule="evenodd" d="M85.5121 149.499C83.5924 150.449 82.1503 152.583 83.0692 153.365C83.9562 154.12 84.9525 152.847 86.2535 152.055C87.5682 151.255 89.206 151.546 89.2605 150.131C89.306 148.966 87.0542 148.739 85.5121 149.499Z" fill="#0D1013"/>
<path fill-rule="evenodd" clip-rule="evenodd" d="M98.46 151.973C100.557 152.406 102.495 154.102 101.804 155.094C101.135 156.049 99.852 155.071 98.3918 154.635C96.9179 154.193 95.4076 154.889 94.9936 153.534C94.657 152.419 96.7769 151.628 98.46 151.973Z" fill="#0D1013"/>
<path d="M86.9647 165.466C89.06 165.466 90.7587 163.767 90.7587 161.672C90.7587 159.577 89.06 157.878 86.9647 157.878C84.8694 157.878 83.1709 159.577 83.1709 161.672C83.1709 163.767 84.8694 165.466 86.9647 165.466Z" fill="white"/>
<path fill-rule="evenodd" clip-rule="evenodd" d="M87.0058 159.866C87.9929 159.884 88.7798 160.703 88.7616 161.686C88.7434 162.668 87.9246 163.451 86.9329 163.432C85.9458 163.414 85.1589 162.595 85.1771 161.613C85.1953 160.63 86.0141 159.848 87.0058 159.866Z" fill="#0D1013"/>
<path d="M96.6581 165.702C98.7534 165.702 100.452 164.003 100.452 161.908C100.452 159.813 98.7534 158.114 96.6581 158.114C94.5628 158.114 92.8643 159.813 92.8643 161.908C92.8643 164.003 94.5628 165.702 96.6581 165.702Z" fill="white"/>
<path fill-rule="evenodd" clip-rule="evenodd" d="M96.6943 160.102C97.6814 160.12 98.4683 160.939 98.4501 161.922C98.4319 162.904 97.6131 163.687 96.6214 163.668C95.6343 163.65 94.8473 162.831 94.8655 161.849C94.8837 160.866 95.7026 160.084 96.6943 160.102Z" fill="#0D1013"/>
<path d="M187.196 105.323C183.948 108.357 184.708 113.288 187.706 115.763C187.383 114.803 187.551 113.707 188.261 112.888C189.057 111.965 190.294 111.66 191.386 112.001C191.272 111.187 191.486 110.331 192.064 109.663C192.873 108.726 194.138 108.421 195.244 108.794C196.394 105.837 194.516 103.217 194.516 103.217C192.751 105.337 189.839 106.183 187.196 105.323Z" fill="#911467"/>
<path d="M198.319 118.501L193.711 118.633C193.679 117.601 195.025 116.618 195.025 116.618C195.025 116.618 194.288 108.994 196.644 108.926C199.201 108.853 198.319 118.501 198.319 118.501Z" fill="#911467"/>
<path d="M203.168 101.429L198.755 104.659C202.676 108.994 208.572 109.39 213.071 106.096C215.282 104.477 215.927 102.566 215.927 102.566C211.729 105.637 206.466 105.014 203.168 101.429Z" fill="#F44A82"/>
<path d="M206.193 100.469C209.122 104.472 207.298 108.084 203.709 110.709C200.12 113.334 196.13 113.984 193.196 109.981C190.267 105.978 188.615 97.6169 192.205 94.9921C195.794 92.3673 203.263 96.466 206.193 100.469Z" fill="#F44A82"/>
<path d="M197.869 110.695C199.954 110.695 201.644 109.005 201.644 106.919C201.644 104.834 199.954 103.144 197.869 103.144C195.783 103.144 194.093 104.834 194.093 106.919C194.093 109.005 195.783 110.695 197.869 110.695Z" fill="#FF88B9"/>
<path d="M200.252 87.2678C202.263 90.5749 200.607 95.2468 193.902 99.3181C187.197 103.389 177.052 105.882 175.046 102.575C173.036 99.2682 179.928 91.412 186.628 87.3407C193.334 83.2693 198.242 83.9607 200.252 87.2678Z" fill="#F44A82"/>
<path d="M185.69 98.2263C185.69 98.2263 187.533 99.7457 188.324 99.127C189.116 98.5084 188.088 96.3794 188.088 96.3794C186.459 97.7396 185.69 98.2263 185.69 98.2263Z" fill="white"/>
<path d="M189.463 95.8928C189.617 95.729 189.603 95.4697 189.44 95.3151C189.276 95.1604 189.017 95.1741 188.862 95.3378C184.859 99.6685 177.58 102.029 174.696 101.411C174.714 101.72 174.783 102.007 174.892 102.271C176.684 102.489 179.546 101.916 182.448 100.665C184.986 99.5684 187.556 97.9489 189.458 95.8928H189.463Z" fill="#911467"/>
<path d="M185.833 92.7474C187.734 91.8833 188.574 89.6422 187.71 87.7417C186.846 85.8411 184.604 85.0009 182.704 85.865C180.803 86.7292 179.963 88.9704 180.827 90.8709C181.691 92.7715 183.933 93.6116 185.833 92.7474Z" fill="white"/>
<path d="M184.945 90.793C185.766 90.4197 186.129 89.4515 185.756 88.6304C185.382 87.8094 184.414 87.4464 183.593 87.8197C182.772 88.193 182.409 89.1613 182.782 89.9823C183.156 90.8034 184.124 91.1663 184.945 90.793Z" fill="#231C1C"/>
<path d="M193.044 90.3285C195.074 89.8415 196.325 87.8009 195.838 85.7707C195.351 83.7406 193.311 82.4896 191.28 82.9766C189.25 83.4636 187.999 85.5043 188.486 87.5344C188.973 89.5646 191.014 90.8156 193.044 90.3285Z" fill="white"/>
<path d="M192.543 88.2405C193.42 88.0301 193.961 87.1485 193.75 86.2715C193.54 85.3944 192.658 84.8539 191.781 85.0643C190.904 85.2747 190.364 86.1563 190.574 87.0334C190.785 87.9104 191.666 88.4509 192.543 88.2405Z" fill="#231C1C"/>
<path d="M196.154 83.2557L196.59 80.4854L194.052 81.7272C192.928 81.286 191.668 81.2496 190.504 81.659C188.939 82.1958 187.733 83.4559 187.265 85.0389C184.972 83.3967 181.788 83.9289 180.146 86.217C180.059 86.3399 179.977 86.4673 179.904 86.5946L177.111 87.1815L179.163 89.0966L177.584 90.2293L179.49 90.8708C179.827 91.8261 180.446 92.6949 181.333 93.3272C183.626 94.9694 186.81 94.4371 188.452 92.149C188.784 91.685 189.034 91.171 189.198 90.6251C191.486 92.2809 194.684 91.7715 196.345 89.4833C197.364 88.0777 197.559 86.3308 197.031 84.8069L198.114 83.1692L196.172 83.2512L196.154 83.2557ZM187.274 87.8274C187.274 87.8274 187.274 87.8365 187.278 87.8411C188.034 89.4969 187.306 91.4485 185.654 92.2082C183.999 92.9724 182.038 92.2445 181.274 90.5887C180.51 88.9328 181.237 86.9723 182.893 86.208C184.549 85.4438 186.51 86.1716 187.274 87.8274ZM195.376 85.7213V85.7349C195.803 87.509 194.711 89.2922 192.937 89.7153C191.163 90.1384 189.38 89.0465 188.957 87.2724C188.534 85.4983 189.626 83.7151 191.4 83.2921C191.4 83.2921 191.409 83.2921 191.413 83.2921C193.178 82.8781 194.948 83.9608 195.376 85.7258V85.7213Z" fill="#911467"/>
<path d="M191.422 79.0296C191.576 78.5883 190.789 77.7832 189.075 78.1016C187.687 78.3609 187.141 79.1297 187.496 79.7302C187.964 80.5217 188.929 79.6392 189.834 79.4936C190.853 79.3344 191.29 79.4208 191.422 79.0296Z" fill="#231C1C"/>
<path d="M180.278 82.8598C179.882 82.6096 180.009 81.486 181.556 80.6854C182.807 80.0349 183.712 80.3078 183.799 80.9992C183.917 81.9136 182.611 81.809 181.811 82.2502C180.919 82.7506 180.623 83.0873 180.273 82.8598H180.278Z" fill="#231C1C"/>
<path d="M210.424 112.633L206.703 115.358C206.093 114.526 206.644 112.952 206.644 112.952C206.644 112.952 201.712 107.088 203.614 105.696C205.679 104.186 210.424 112.633 210.424 112.633Z" fill="#911467"/>
<path d="M204.087 92.9588C207.958 90.7752 212.434 92.9951 213.885 96.598C213.067 96.002 211.975 95.8292 210.979 96.2568C209.859 96.7344 209.191 97.8262 209.186 98.968C208.445 98.6131 207.567 98.5586 206.752 98.9089C205.615 99.3956 204.942 100.515 204.96 101.679C201.794 101.879 199.865 99.3 199.865 99.3C202.422 98.2583 204.105 95.7382 204.087 92.9588Z" fill="#911467"/>
<path fill-rule="evenodd" clip-rule="evenodd" d="M242.816 161.217C243.935 162.413 243.494 164.528 241.834 165.938C240.174 167.349 237.922 167.522 236.807 166.325C235.688 165.129 236.129 163.013 237.79 161.603C239.45 160.193 241.702 160.02 242.816 161.217Z" fill="#EF5968"/>
<path fill-rule="evenodd" clip-rule="evenodd" d="M241.747 162.804C242.066 163.332 241.665 164.201 240.855 164.747C240.041 165.288 239.122 165.302 238.804 164.774C238.485 164.246 238.886 163.377 239.695 162.831C240.51 162.29 241.429 162.276 241.747 162.804Z" fill="#0D1013"/>
<path fill-rule="evenodd" clip-rule="evenodd" d="M245.518 166.889C246.077 168.222 244.963 169.805 243.025 170.419C241.092 171.034 239.067 170.451 238.508 169.118C237.948 167.786 239.063 166.203 241.001 165.588C242.934 164.974 244.958 165.557 245.518 166.889Z" fill="#EF5968"/>
<path fill-rule="evenodd" clip-rule="evenodd" d="M244.026 167.522C244.185 168.058 243.653 168.659 242.839 168.859C242.025 169.059 241.233 168.786 241.074 168.245C240.915 167.708 241.447 167.108 242.261 166.907C243.076 166.707 243.867 166.98 244.026 167.522Z" fill="#0D1013"/>
<path fill-rule="evenodd" clip-rule="evenodd" d="M195.739 200.561C196.262 200.698 199.469 203.855 199.851 204.578C200.247 205.324 200.029 206.256 199.533 206.943L193.633 215.081H211.624L206.989 211.429L209.054 207.166C209.996 205.219 209.395 202.872 207.635 201.616L201.484 197.236L195.743 200.561H195.739Z" fill="#6F568E"/>
<path fill-rule="evenodd" clip-rule="evenodd" d="M206.989 211.324C206.989 211.324 203.387 215.081 203.841 215.081C204.296 215.081 211.625 215.081 211.625 215.081L206.989 211.324Z" fill="#0D1013"/>
<path fill-rule="evenodd" clip-rule="evenodd" d="M210.769 180.259C210.769 180.259 214.681 177.748 216.797 183.434C218.357 187.624 221.887 191.395 224.999 191.217C224.999 191.217 226.791 188.993 228.806 188.761L228.41 191.231C228.41 191.231 229.802 191.003 231.067 192.022C231.067 192.022 230.23 193.314 228.72 193.542L230.253 195.603C230.253 195.603 227.846 196.499 225.767 194.429C225.767 194.429 216.647 197.54 209.987 188.533C209.987 188.533 206.407 182.997 210.769 180.263V180.259Z" fill="#6F568E"/>
<path fill-rule="evenodd" clip-rule="evenodd" d="M214.795 180.323C214.891 180.241 215.036 180.254 215.123 180.35C215.209 180.445 215.196 180.596 215.096 180.677C215 180.759 214.855 180.746 214.768 180.65C214.686 180.55 214.695 180.404 214.795 180.323Z" fill="#473760"/>
<path fill-rule="evenodd" clip-rule="evenodd" d="M212.97 179.649C213.066 179.567 213.211 179.581 213.298 179.676C213.384 179.772 213.371 179.922 213.271 180.004C213.175 180.086 213.029 180.072 212.943 179.977C212.861 179.877 212.87 179.731 212.97 179.649Z" fill="#473760"/>
<path fill-rule="evenodd" clip-rule="evenodd" d="M223.643 176.497L213.189 147.897C213.116 147.692 212.853 147.642 212.712 147.806C210.423 150.385 196.399 166.498 190.694 179.272C188.202 184.853 184.631 185.222 184.631 185.222C182.365 185.667 179.754 185.485 177.871 185.858C177.912 186.304 177.944 186.75 177.966 187.191C178.053 189.425 177.707 191.54 176.947 193.542C184.308 207.958 199.392 204.186 203.163 199.16C206.912 194.16 211.392 183.466 223.516 176.847C223.638 176.779 223.697 176.629 223.647 176.497H223.643Z" fill="#EF5968"/>
<path d="M219.503 165.174C213.626 168.955 204.064 176.77 199.747 189.548C199.747 189.548 196.481 199.346 186.082 197.641C184.381 197.363 180.691 196.003 176.92 193.606C176.697 194.179 176.442 194.747 176.151 195.302C175.933 195.971 175.674 196.617 175.378 197.245C187.91 208.326 199.533 204 203.159 199.164C206.707 194.438 222.429 175.437 229.266 178.571L223.038 174.845L219.503 165.183V165.174Z" fill="#FFC500"/>
<path fill-rule="evenodd" clip-rule="evenodd" d="M190.494 192.942C191.381 193.142 192.091 193.82 192.309 194.707C192.523 195.585 192.523 196.813 191.65 198.205C189.921 200.971 185.499 211.925 185.499 211.925L189.334 215.427L175.005 215.514C175.005 215.514 180.436 190.676 190.49 192.942H190.494Z" fill="#6F568E"/>
<path fill-rule="evenodd" clip-rule="evenodd" d="M185.504 211.92L181.569 215.473L189.339 215.423L185.504 211.92Z" fill="#0D1013"/>
<path fill-rule="evenodd" clip-rule="evenodd" d="M196.294 169.582L194.72 163.268L200.424 162.363L199.073 155.64L206.62 154.889L204.246 146.778L213.052 147.324L196.289 169.582H196.294Z" fill="#0D1013"/>
<path fill-rule="evenodd" clip-rule="evenodd" d="M224.079 180.828C224.079 180.828 225.394 181.514 228.032 182.356C231.148 183.348 233.309 183.903 233.309 183.903C233.309 183.903 236.43 179.467 239.095 172.253C241.757 165.047 236.612 163.287 226.14 159.006C222.137 157.368 212.602 153.406 212.602 153.406C212.602 153.406 211.892 158.942 211.97 165.138C212.093 174.955 224.079 180.832 224.084 180.832L224.079 180.828Z" fill="#EF5968"/>
<path fill-rule="evenodd" clip-rule="evenodd" d="M221.46 138.472C222.451 138.79 223.056 139.363 222.947 140.036C222.838 140.714 221.915 141.042 221.269 140.974C220.623 140.905 218.676 141.588 218.184 141.742C217.693 141.897 216.965 141.542 216.77 141.074C216.574 140.605 216.924 139.973 217.338 139.609C218.348 138.717 219.986 137.989 221.464 138.467L221.46 138.472Z" fill="#0D1013"/>
<path fill-rule="evenodd" clip-rule="evenodd" d="M231.89 145.536C230.953 145.068 230.121 145.049 229.72 145.613C229.32 146.178 229.748 147.069 230.257 147.474C230.767 147.883 231.676 149.749 231.917 150.208C232.159 150.667 232.927 150.927 233.401 150.727C233.874 150.526 234.065 149.826 234.028 149.271C233.937 147.915 233.278 146.232 231.886 145.532L231.89 145.536Z" fill="#0D1013"/>
<path fill-rule="evenodd" clip-rule="evenodd" d="M220.036 145.327C223.165 146.806 224.507 150.536 223.033 153.661C221.559 156.786 217.825 158.123 214.695 156.645C211.565 155.167 210.223 151.436 211.697 148.311C213.171 145.186 216.906 143.849 220.036 145.327Z" fill="#6F568E"/>
<path fill-rule="evenodd" clip-rule="evenodd" d="M228.775 148.83C231.904 150.308 233.246 154.038 231.772 157.164C230.299 160.289 226.564 161.626 223.434 160.148C220.304 158.669 218.963 154.939 220.436 151.814C221.91 148.689 225.645 147.351 228.775 148.83Z" fill="#6F568E"/>
<path fill-rule="evenodd" clip-rule="evenodd" d="M219.08 147.347C221.091 148.297 221.955 150.695 221.005 152.705C220.058 154.716 217.656 155.576 215.646 154.625C213.635 153.674 212.771 151.277 213.721 149.266C214.668 147.256 217.07 146.396 219.08 147.347Z" fill="white"/>
<path fill-rule="evenodd" clip-rule="evenodd" d="M216.911 147.888C217.861 148.338 218.266 149.467 217.82 150.417C217.375 151.363 216.242 151.773 215.291 151.322C214.34 150.872 213.936 149.744 214.381 148.793C214.827 147.847 215.96 147.438 216.911 147.888Z" fill="#0D1013"/>
<path fill-rule="evenodd" clip-rule="evenodd" d="M227.819 150.854C229.829 151.805 230.694 154.202 229.743 156.213C228.797 158.223 226.395 159.083 224.384 158.132C222.373 157.182 221.509 154.784 222.46 152.774C223.406 150.763 225.808 149.903 227.819 150.854Z" fill="white"/>
<path fill-rule="evenodd" clip-rule="evenodd" d="M225.526 151.577C226.477 152.028 226.881 153.156 226.436 154.107C225.99 155.053 224.857 155.462 223.906 155.012C222.956 154.562 222.551 153.251 222.997 152.305C223.442 151.359 224.575 151.132 225.526 151.577Z" fill="#0D1013"/>
<path fill-rule="evenodd" clip-rule="evenodd" d="M211.175 166.726L209.041 170.642L213.481 172.021L211.175 166.721V166.726Z" fill="white"/>
<path fill-rule="evenodd" clip-rule="evenodd" d="M213.576 172.075L213.099 176.206L217.875 176.502L213.572 172.08L213.576 172.075Z" fill="white"/>
<path fill-rule="evenodd" clip-rule="evenodd" d="M217.83 176.588L218.476 180.75L222.57 180.209L217.83 176.588Z" fill="white"/>
<path d="M224.034 181.787C219.13 179.022 209.577 171.184 211.324 164.624C211.397 164.351 211.674 164.192 211.947 164.265C212.22 164.337 212.379 164.615 212.307 164.888C211.46 168.063 213.817 171.575 215.937 173.959C218.707 177.066 222.301 179.645 224.534 180.905C224.78 181.041 224.866 181.351 224.725 181.596C224.589 181.842 224.28 181.928 224.034 181.787Z" fill="white"/>
<path fill-rule="evenodd" clip-rule="evenodd" d="M202.212 174.404C202.212 174.404 201.307 178.962 195.744 176.542C191.64 174.759 186.482 174.686 184.449 177.047C184.449 177.047 184.808 179.881 183.575 181.492L182.07 179.495C182.07 179.495 181.269 180.655 179.654 180.855C179.654 180.855 179.304 179.354 180.186 178.112L177.639 177.784C177.639 177.784 178.662 175.428 181.596 175.369C181.596 175.369 185.686 166.644 196.794 168.099C196.794 168.099 203.263 169.364 202.208 174.404H202.212Z" fill="#6F568E"/>
<path fill-rule="evenodd" clip-rule="evenodd" d="M159.081 147.775L162.447 149.399L160.186 152.465C159.276 153.697 159.631 155.449 160.95 156.231L163.675 157.851L162.447 159.738C161.619 161.012 162.056 162.723 163.398 163.437L165.949 164.801L161.3 140.746L158.394 143.589C157.111 144.845 157.461 146.997 159.081 147.775Z" fill="#080A0C"/>
<path fill-rule="evenodd" clip-rule="evenodd" d="M161.009 141.797C161.009 141.797 161.878 141.833 163.311 141.965C166.836 142.284 173.773 143.18 179.669 145.504C182.307 146.546 182.553 150.381 184.209 155.999C184.8 158.005 185.068 159.042 184.818 162.468C184.732 163.637 186.865 182.638 188.094 193.815H171.057C167.782 176.97 162.464 147.829 161.009 141.793V141.797Z" fill="#66BC2F"/>
<path fill-rule="evenodd" clip-rule="evenodd" d="M173.341 150.954C173.341 150.954 170.498 146.669 179.305 145.564L179.368 145.555C185.2 149.935 187.124 149.23 187.306 150.718C187.306 150.745 189.731 181.765 190.618 193.82H181.338C178.681 179.918 173.346 150.954 173.346 150.954H173.341Z" fill="#F9C932"/>
<path fill-rule="evenodd" clip-rule="evenodd" d="M193.766 137.43C193.716 135.879 194.617 134.546 195.781 134.455C196.791 134.373 197.665 135.256 197.91 136.502C198.52 135.692 199.398 135.251 200.144 135.465C201.136 135.747 201.522 137.071 201.008 138.422C200.494 139.773 199.271 140.646 198.274 140.364C197.788 140.228 197.446 139.836 197.287 139.318C196.937 139.755 196.473 140.037 195.959 140.078C194.794 140.169 193.812 138.986 193.762 137.435L193.766 137.43Z" fill="#66BC2F"/>
<path fill-rule="evenodd" clip-rule="evenodd" d="M196.195 135.751C196.632 135.806 196.941 136.416 196.882 137.112C196.823 137.808 196.423 138.326 195.986 138.267C195.55 138.212 195.24 137.603 195.299 136.907C195.358 136.211 195.759 135.692 196.195 135.751Z" fill="#080A0C"/>
<path fill-rule="evenodd" clip-rule="evenodd" d="M199.839 136.575C200.212 136.725 200.307 137.289 200.057 137.83C199.807 138.376 199.302 138.694 198.934 138.544C198.561 138.394 198.465 137.83 198.715 137.289C198.966 136.743 199.47 136.425 199.839 136.575Z" fill="#080A0C"/>
<path d="M196.655 138.59L179.701 137.398C179.701 137.398 176.171 135.064 172.281 135.656C166.995 136.461 163.356 141.397 164.161 146.683C164.698 150.226 169.829 154.639 169.829 154.639C169.829 154.639 174.897 158.092 182.676 156.891C193.43 155.23 198.256 147.642 199.384 145.413C202.15 145.154 203.756 144.995 203.965 144.545C203.997 144.476 204.488 144.317 204.429 144.035C204.138 142.625 202.464 139.077 196.65 138.594L196.655 138.59Z" fill="#66BC2F"/>
<path d="M184.868 149.053L180.665 149.635C180.665 149.635 181.948 146.965 182.43 146.897C182.908 146.828 184.868 149.053 184.868 149.053Z" fill="white"/>
<path d="M201.299 145.295C202.018 145.2 202.636 145.113 203.164 145.036C203.25 145.022 203.351 145.009 203.455 144.99C204.019 144.886 204.379 144.754 204.456 144.581C204.488 144.513 204.483 144.317 204.424 144.031C203.614 144.194 202.391 144.363 201.19 144.522C198.224 144.922 195.881 145.204 192.378 146.341C191.669 146.573 190.959 146.815 190.204 147.074C184.486 149.03 178.008 151.25 174.05 146.946C173.905 146.787 173.659 146.778 173.5 146.924C173.341 147.069 173.332 147.315 173.477 147.474C175.92 150.131 179.145 150.536 182.566 150.017C185.168 149.621 187.884 148.693 190.454 147.811C191.205 147.552 191.914 147.31 192.62 147.083C196.054 145.964 198.351 145.686 201.29 145.291L201.299 145.295Z" fill="white"/>
<path d="M177.329 140.91C179.983 140.381 181.704 137.8 181.175 135.147C180.645 132.493 178.064 130.772 175.411 131.301C172.757 131.831 171.036 134.412 171.566 137.065C172.095 139.718 174.676 141.44 177.329 140.91Z" fill="white"/>
<path d="M176.784 138.18C177.93 137.952 178.673 136.837 178.445 135.692C178.216 134.546 177.102 133.803 175.956 134.032C174.811 134.26 174.067 135.374 174.296 136.52C174.525 137.666 175.639 138.409 176.784 138.18Z" fill="#080A0C"/>
<path d="M167.876 143.861C170.38 142.837 171.579 139.976 170.555 137.472C169.53 134.967 166.67 133.768 164.165 134.792C161.661 135.817 160.461 138.678 161.486 141.182C162.511 143.686 165.371 144.886 167.876 143.861Z" fill="white"/>
<path d="M166.822 141.285C167.903 140.842 168.421 139.607 167.978 138.526C167.536 137.445 166.301 136.927 165.22 137.369C164.138 137.812 163.62 139.047 164.063 140.128C164.505 141.209 165.74 141.727 166.822 141.285Z" fill="#080A0C"/>
<path d="M180.865 134.414C179.559 132.044 176.58 131.18 174.21 132.485C172.518 133.418 171.535 135.256 171.69 137.175L180.865 134.41V134.414Z" fill="#66BC2F"/>
<path d="M170.525 137.53C169.22 135.16 166.24 134.296 163.87 135.601C162.178 136.534 161.195 138.372 161.35 140.291L170.525 137.526V137.53Z" fill="#66BC2F"/>
<path d="M181.63 132.676L178.673 130.311L182.426 128.655L181.63 132.676Z" fill="#870054"/>
<path d="M182.53 134.592L181.311 132.226L184.236 132.217L182.53 134.592Z" fill="#870054"/>
<path d="M159.735 139.272L160.891 135.67L156.847 136.361L159.735 139.272Z" fill="#870054"/>
<path d="M160.031 141.374L159.744 138.727L157.297 140.337L160.031 141.374Z" fill="#870054"/>
<path d="M164.143 132.981C162.065 133.6 160.418 135.192 159.735 137.253C158.585 140.728 160.468 144.481 163.943 145.637C167.419 146.787 171.172 144.904 172.327 141.429C172.909 141.879 173.564 142.234 174.265 142.47C177.727 143.64 181.475 141.784 182.644 138.322C183.813 134.86 181.957 131.112 178.495 129.942C175.034 128.773 171.285 130.629 170.116 134.091C168.419 132.777 166.195 132.367 164.143 132.981ZM177.226 140.414C174.915 140.86 172.673 139.359 172.213 137.048C172.213 137.044 172.213 137.039 172.213 137.03C171.758 134.71 173.273 132.463 175.593 132.008C177.913 131.553 180.16 133.068 180.615 135.388C181.066 137.708 179.555 139.955 177.235 140.41H177.231L177.226 140.414ZM162.096 140.951C161.214 138.772 162.256 136.293 164.425 135.392C164.43 135.392 164.434 135.392 164.439 135.388C166.627 134.491 169.125 135.538 170.021 137.726C170.917 139.914 169.871 142.411 167.682 143.307C165.494 144.204 162.997 143.157 162.101 140.969V140.951H162.096Z" fill="#870054"/>
<path d="M160.399 133.595C159.872 133.3 159.949 131.835 161.896 130.679C163.466 129.742 164.662 130.029 164.821 130.916C165.035 132.089 163.347 132.049 162.342 132.681C161.214 133.391 160.863 133.832 160.399 133.6V133.595Z" fill="#080A0C"/>
<path d="M175.593 126.667C176.062 126.285 175.725 124.861 173.605 124.07C171.895 123.428 170.771 123.92 170.767 124.82C170.762 126.012 172.418 125.676 173.519 126.121C174.77 126.617 175.197 127.018 175.589 126.667H175.593Z" fill="#080A0C"/>
<path d="M167.327 166.407L167.559 163.996C170.006 165.079 170.189 167.704 170.189 167.704C174.792 170.42 176.434 171.175 181.98 168.395C185.833 166.462 188.316 167.931 189.244 169.665C191.301 173.504 187.379 177.393 185.287 178.157C174.692 182.024 167.95 171.37 167.95 171.37C164.68 172.403 163.001 169.833 163.001 169.833L165.421 168.982C164.207 167.663 164.002 165.939 164.002 165.939C165.735 165.675 167.327 166.407 167.327 166.407Z" fill="#106D00"/>
<path d="M188.731 164.215L187.698 162.022C185.761 163.864 186.475 166.398 186.475 166.398C183.054 170.506 179.56 171.707 171.34 170.997C165.649 170.506 165.122 172.662 164.99 174.627C164.585 180.623 171.445 180.964 173.669 180.978C184.946 181.051 189.814 169.1 189.814 169.1C193.239 168.973 193.958 165.984 193.958 165.984L191.392 166.002C192.093 164.351 191.706 162.659 191.706 162.659C189.987 162.996 188.736 164.219 188.736 164.219L188.731 164.215Z" fill="#348400"/>
<path d="M193.429 215.755H180.396C180.396 215.755 182.098 210.132 181.652 202.627C181.365 197.745 179.059 191.818 182.371 190.458C185.928 188.993 191.319 192.673 188.571 211.561L193.429 215.755Z" fill="#348400"/>
<path d="M188.571 211.561L187.365 215.755H193.429L188.571 211.561Z" fill="#043300"/>
<path d="M181.396 215.755H168.363C168.363 215.755 170.065 210.132 169.619 202.627C169.332 197.745 167.026 191.818 170.338 190.458C173.895 188.993 179.286 192.673 176.538 211.561L181.396 215.755Z" fill="#348400"/>
<path d="M176.538 211.561L175.333 215.755H181.397L176.538 211.561Z" fill="#043300"/>
<path d="M189.93 184.64C189.93 184.64 186.855 187.756 180.241 188.038C176.566 188.193 172.571 188.511 169.633 186.146C166.844 189.78 169.082 195.23 164.975 197.7C164.975 197.7 166.612 202.204 178.995 202.167C189.994 202.718 195.153 197.7 195.153 197.7C190.617 195.803 192.423 187.497 189.93 184.644V184.64Z" fill="#3C3CB5"/>
<path d="M130.749 171.102C129.207 174.35 129.403 178.048 131.336 180.732C132.983 183.016 135.33 183.807 136.222 184.053L140.575 175.678C138.71 176.848 136.372 176.479 135.162 175.01C134.238 173.886 134.07 172.239 134.716 170.793C133.397 170.893 132.073 170.997 130.754 171.102H130.749Z" fill="#092266"/>
<path d="M164.125 153.27L169.461 159.448L165.317 163.546L168.934 168.473L164.412 171.83L167.942 176.111L162.647 181.296L159.395 166.822L164.121 153.275L164.125 153.27Z" fill="#0D1013"/>
<path fill-rule="evenodd" clip-rule="evenodd" d="M139.642 201.703C140.443 196.863 142.949 195.621 145.01 197.1C146.925 198.473 147.875 201.189 148.262 204.483C148.644 207.763 148.235 216.892 148.235 216.892H133.71L138.436 213.253C138.436 213.253 139.037 205.383 139.646 201.703H139.642Z" fill="#183889"/>
<path d="M150.286 188.352C158.224 189.512 163.851 184.949 164.634 184.258C162.605 171.802 164.729 154.621 164.729 154.621L139.91 153.993L138.609 164.101L138.391 181.023C139.046 181.951 142.949 187.283 150.286 188.356V188.352Z" fill="#2C60C6"/>
<path fill-rule="evenodd" clip-rule="evenodd" d="M151.227 167.322C151.227 167.322 155.767 177.275 150.668 185.863C145.523 194.529 149.312 202.677 157.86 203.723C157.86 203.723 151.769 204.615 150.381 204.587C144.909 204.478 132.941 201.689 132.185 193.952C131.881 190.817 132.681 187.642 134.123 185.158C136.561 180.96 138.754 179.126 138.677 170.492C138.677 170.147 147.302 171.816 151.227 167.326V167.322Z" fill="#3B82EA"/>
<path d="M151.865 151.346C146.556 150.55 139.942 151.064 135.716 152.633C135.17 150.818 133.683 149.622 132.268 149.876C130.967 150.131 130.162 151.514 130.275 153.17C129.229 152.356 127.978 152.087 127.1 152.606C125.958 153.293 125.899 155.08 127.014 156.586C127.532 157.346 128.274 157.928 129.134 158.246C129.329 159.698 129.975 160.949 130.958 162.004C128.902 167.181 133.337 176.356 146.552 176.675C168.592 177.211 161.227 153.124 151.865 151.346Z" fill="#2C60C6"/>
<path d="M132.218 151.651C131.681 151.865 131.499 152.733 131.813 153.589C132.122 154.444 132.796 154.962 133.305 154.744C133.819 154.526 134.015 153.657 133.71 152.797C133.405 151.942 132.718 151.432 132.213 151.646L132.218 151.651Z" fill="#0D1013"/>
<path d="M127.874 153.902C127.456 154.216 127.52 154.953 128.015 155.558C128.511 156.163 129.257 156.4 129.676 156.077C130.094 155.754 130.03 155.021 129.526 154.421C129.021 153.82 128.252 153.575 127.87 153.902H127.874Z" fill="#0D1013"/>
<path d="M165.894 151.196C165.894 151.164 165.885 151.136 165.88 151.105L167.714 148.889L164.948 148.662C163.952 147.229 162.296 146.287 160.417 146.287C157.893 146.287 155.773 147.984 155.118 150.299C155.072 150.454 155.027 150.604 154.995 150.763C154.972 150.891 154.958 151.018 154.949 151.146C154.945 151.191 154.936 151.232 154.931 151.277C154.931 151.3 154.931 151.328 154.931 151.35C154.917 151.5 154.908 151.651 154.908 151.805C154.908 154.848 157.378 157.319 160.422 157.319C163.046 157.319 165.244 155.481 165.794 153.02L167.627 152.142L165.899 151.2L165.894 151.196Z" fill="#183889"/>
<path d="M152.143 145.446C151.147 145.446 150.21 145.714 149.405 146.178L146.675 145.259L147.471 148.043C147.471 148.043 147.458 148.066 147.448 148.08L145.456 148.243L146.762 149.776C146.68 150.158 146.63 150.554 146.63 150.959C146.63 154.002 149.1 156.472 152.143 156.472C155.186 156.472 157.656 154.002 157.656 150.959C157.656 147.916 155.186 145.446 152.143 145.446Z" fill="#183889"/>
<path d="M132.218 151.651C131.681 151.865 131.499 152.733 131.813 153.589C132.122 154.444 132.796 154.962 133.305 154.744C133.819 154.526 134.015 153.657 133.71 152.797C133.405 151.942 132.718 151.432 132.213 151.646L132.218 151.651Z" fill="#0D1013"/>
<path d="M127.874 153.902C127.456 154.216 127.52 154.953 128.015 155.558C128.511 156.163 129.257 156.4 129.676 156.077C130.094 155.754 130.03 155.021 129.526 154.421C129.021 153.82 128.252 153.575 127.87 153.902H127.874Z" fill="#0D1013"/>
<path d="M144.451 165.548L142.849 167.545C142.822 167.576 142.686 167.736 142.449 167.758C142.162 167.786 141.971 167.59 141.949 167.567L139.965 165.78L137.741 167.194C137.713 167.217 137.513 167.363 137.245 167.304C136.972 167.24 136.858 167.017 136.84 166.985L135.566 164.765L133.242 165.493C133.21 165.502 132.928 165.584 132.687 165.402C132.509 165.27 132.464 165.079 132.455 165.029L131.986 163.2L137.823 164.788L144.455 165.543L144.451 165.548Z" fill="white"/>
<path d="M154.996 143.126C155.069 142.53 154.496 141.984 153.7 141.784C153.118 141.638 151.071 141.511 150.234 143.112C149.888 143.767 150.284 144.263 150.393 144.349C150.743 144.613 151.193 144.622 151.553 144.422C152.203 144.063 152.926 143.863 153.668 143.908C154.396 143.972 154.901 143.767 155.001 143.126H154.996Z" fill="#080A0C"/>
<path d="M162.56 145.164C162.733 144.59 163.479 144.317 164.284 144.449C164.88 144.549 166.804 145.25 166.931 147.051C166.986 147.793 166.427 148.089 166.295 148.12C165.867 148.225 165.448 148.052 165.198 147.725C164.748 147.138 164.161 146.665 163.465 146.41C162.774 146.178 162.392 145.787 162.555 145.164H162.56Z" fill="#080A0C"/>
<path d="M152.224 154.334C154.166 154.334 155.741 152.76 155.741 150.818C155.741 148.876 154.166 147.302 152.224 147.302C150.282 147.302 148.708 148.876 148.708 150.818C148.708 152.76 150.282 154.334 152.224 154.334Z" fill="white"/>
<path d="M160.349 155.313C162.291 155.313 163.866 153.738 163.866 151.796C163.866 149.854 162.291 148.28 160.349 148.28C158.407 148.28 156.833 149.854 156.833 151.796C156.833 153.738 158.407 155.313 160.349 155.313Z" fill="white"/>
<path d="M141.335 165.716C140.662 165.675 140.02 165.611 139.415 165.525C134.866 164.893 131.204 163.178 130.144 162.45C129.935 162.304 129.881 162.018 130.026 161.808C130.172 161.599 130.458 161.545 130.668 161.69C132.264 162.791 144.701 168.441 152.858 161.285C153.049 161.117 153.34 161.135 153.508 161.326C153.676 161.517 153.658 161.808 153.467 161.977C149.682 165.298 145.056 165.93 141.335 165.711V165.716Z" fill="white"/>
<path fill-rule="evenodd" clip-rule="evenodd" d="M164.052 213.253L168.779 216.892H154.254C154.254 216.892 153.844 207.763 154.227 204.483C154.613 201.189 155.564 198.473 157.479 197.1C159.54 195.621 162.046 196.863 162.847 201.703C163.457 205.383 164.057 213.253 164.057 213.253H164.052Z" fill="#183889"/>
<path fill-rule="evenodd" clip-rule="evenodd" d="M162.169 216.892H168.779L164.534 213.626L162.169 216.892Z" fill="#0D1013"/>
<path fill-rule="evenodd" clip-rule="evenodd" d="M140.316 216.892H133.706L137.95 213.626L140.316 216.892Z" fill="#0D1013"/>
<path d="M131.754 166.085L132.155 168.677C132.155 168.677 132.928 168.55 134.556 168.759C134.425 169.578 134.188 170.365 133.856 171.102C133.856 171.102 135.039 171.734 135.871 172.762C133.92 174.118 131.227 173.481 130.121 171.543C129.061 169.687 129.753 167.167 131.75 166.085H131.754Z" fill="#183889"/>
<path d="M164.648 184.144C164.648 184.144 159.207 187.893 150.901 187.297C140.056 186.519 136.18 181.788 136.18 181.788C134.188 184.572 132.154 187.624 130.134 190.949C127.801 194.793 125.713 198.301 122.374 200.812C122.52 200.916 124.544 202.281 124.981 202.322C125.231 202.345 125.445 202.308 125.59 202.267L128.47 201.476C129.32 201.244 130.207 201.676 130.548 202.49L131.64 205.12C132.013 206.02 133.051 206.439 133.947 206.052L136.521 204.942C137.313 204.601 138.232 204.888 138.691 205.615L140.124 207.89C140.643 208.713 141.735 208.954 142.553 208.422L144.773 206.98C145.492 206.516 146.438 206.634 147.016 207.267L148.949 209.386C149.604 210.105 150.723 210.151 151.433 209.487L153.462 207.59C154.09 207.003 155.054 206.957 155.732 207.49L157.997 209.259C158.766 209.86 159.876 209.714 160.463 208.941L162.21 206.644C162.719 205.975 163.633 205.761 164.384 206.139L167.036 207.471C167.905 207.908 168.965 207.549 169.392 206.675L170.475 204.442C170.862 203.641 171.79 203.264 172.631 203.559L175.247 204.487C176.166 204.81 179.209 203.782 177.781 200.939C173.018 196.604 167.409 192.014 164.643 184.153L164.648 184.144Z" fill="#B251BC"/>
<path d="M150.4 191.609C158.947 192.223 164.92 188.925 166.28 188.088C165.671 186.792 165.116 185.477 164.647 184.144C164.647 184.144 159.207 187.893 150.9 187.297C140.055 186.519 136.179 181.788 136.179 181.788C135.306 183.007 134.424 184.281 133.541 185.604C134.979 186.969 139.923 190.854 150.4 191.609Z" fill="#9941A5"/>
<path d="M140.238 181.296C144.414 179.959 149.65 184.99 150.887 186.159C150.887 186.159 150.364 178.135 154.749 177.225C156.887 176.779 159.002 178.217 159.475 180.35C160.526 185.068 156.118 191.482 155.422 192.169C152.252 195.298 147.407 190.949 144.696 186.432C143.317 187.865 141.266 187.683 141.266 187.683L142.112 185.604C140.279 185.445 139.364 184.581 139.364 184.581C139.364 184.581 139.997 183.707 141.839 182.989L140.238 181.301V181.296Z" fill="#183889"/>
<path d="M150.336 151.969C150.318 151.957 150.318 151.957 150.336 151.969C150.045 151.623 149.886 151.323 149.817 151.004C149.758 150.85 149.777 150.704 149.868 150.563C149.959 150.422 150.058 150.331 150.213 150.272C150.35 150.245 150.495 150.258 150.636 150.349C150.777 150.44 150.868 150.54 150.927 150.695C150.968 150.877 151.05 151.05 151.209 151.232C151.432 151.496 151.692 151.582 152.051 151.578C152.392 151.6 152.683 151.514 152.974 151.309C153.111 151.159 153.234 150.968 153.315 150.782C153.379 150.627 153.447 150.513 153.607 150.459C153.761 150.399 153.925 150.39 154.084 150.454C154.244 150.518 154.335 150.618 154.394 150.772C154.453 150.927 154.462 151.091 154.417 151.223C154.276 151.564 154.093 151.841 153.825 152.137L153.807 152.164C153.279 152.61 152.697 152.783 152.047 152.756L152.074 152.774C151.35 152.738 150.786 152.451 150.345 151.973L150.336 151.969Z" fill="#080A0C"/>
<path d="M158.598 153.224C158.58 153.212 158.58 153.212 158.598 153.224C158.307 152.879 158.147 152.578 158.079 152.26C158.02 152.105 158.038 151.96 158.129 151.819C158.22 151.678 158.32 151.587 158.475 151.528C158.611 151.5 158.757 151.514 158.898 151.605C159.039 151.696 159.13 151.796 159.189 151.951C159.23 152.133 159.312 152.306 159.471 152.488C159.694 152.751 159.953 152.838 160.313 152.833C160.654 152.856 160.945 152.77 161.236 152.565C161.373 152.415 161.495 152.224 161.577 152.037C161.641 151.882 161.709 151.769 161.868 151.714C162.023 151.655 162.187 151.646 162.346 151.71C162.505 151.773 162.596 151.873 162.655 152.028C162.715 152.183 162.724 152.346 162.678 152.478C162.537 152.82 162.355 153.097 162.087 153.393L162.069 153.42C161.541 153.866 160.959 154.039 160.308 154.011L160.335 154.03C159.612 153.993 159.048 153.707 158.607 153.229L158.598 153.224Z" fill="#080A0C"/>
<path d="M194.61 29.4184C194.142 26.3387 191.581 23.9824 188.492 23.9824C187.773 23.9824 187.082 24.1143 186.44 24.3463C186.363 19.6881 182.564 15.9351 177.884 15.9351C174.699 15.9351 171.92 17.6774 170.446 20.2612C169.741 19.9701 168.977 19.8109 168.176 19.8109C165.365 19.8109 162.995 21.7624 162.235 24.4327C161.53 24.1416 160.766 23.9824 159.965 23.9824C156.876 23.9824 154.315 26.3387 153.847 29.4184H194.61Z" fill="#DCFDFF"/>
<path d="M122.559 45.5856H97.8809C97.8809 40.3451 101.957 36.1009 106.979 36.1009C110.541 36.1009 113.62 38.2343 115.112 41.3368C115.19 41.2822 115.231 41.2504 115.231 41.2504C115.859 40.9911 116.541 40.85 117.26 40.85C120.003 40.85 122.259 42.9244 122.555 45.5901L122.559 45.5856Z" fill="#DCFDFF"/>
</svg>
