<svg width="417" height="351" viewBox="0 0 417 351" fill="none" xmlns="http://www.w3.org/2000/svg">
<path d="M415.953 0.328094H0.328125V350.328H415.953V0.328094Z" fill="white" stroke="#9547FF" stroke-width="0.6562" stroke-linecap="round" stroke-dasharray="2.19 2.41"/>
<path d="M299.238 240.161C299.238 240.161 300.258 217.337 334.358 218.738C353.152 198.286 372.05 204.955 379.243 209.361C392.474 190.459 415.953 188.695 415.953 188.695V241.893L299.238 240.161Z" fill="#CDF4FF"/>
<path d="M150.866 223.615C147.839 223.615 145.027 223.608 143.116 224.717C140.905 221.904 136.632 219.997 131.722 219.997C127.756 219.997 124.208 221.242 121.824 223.202C117.986 217.337 108.971 213.219 98.4604 213.219C84.466 213.219 73.1211 220.519 73.1211 229.524C73.1211 238.529 84.4659 245.829 98.4604 245.829C109.312 245.829 118.568 241.44 122.179 235.27C124.554 237.067 127.949 238.194 131.722 238.194C137.07 238.194 141.662 235.932 143.656 232.7C145.524 233.637 148.026 234.211 150.778 234.211C156.557 234.211 161.242 231.682 161.242 228.562C161.242 225.443 156.645 223.615 150.866 223.615Z" fill="#CDF4FF"/>
<path d="M0.328125 182.714C0.328125 182.714 27.8102 174.211 44.8237 192.592C82.6195 187.161 97.5571 220.443 97.5571 220.443H0.328125V182.714Z" fill="#CDF4FF"/>
<path d="M121.049 60.8754C115.803 55.837 108.812 53.0234 101.538 53.0234C94.2646 53.0234 87.2728 55.8371 82.0273 60.8754C76.7811 65.9137 73.688 72.786 73.3945 80.0535C73.3945 80.9968 73.4471 81.9269 73.5388 82.8505H129.544C129.636 81.9269 129.682 80.9968 129.682 80.0535C129.388 72.786 126.295 65.9136 121.049 60.8754Z" fill="#E5F6FF"/>
<path d="M27.98 134.664C25.6959 134.664 23.5048 135.571 21.8899 137.187C20.2746 138.802 19.3672 140.993 19.3672 143.277C19.3685 143.756 19.4119 144.235 19.4963 144.707H36.468C36.5489 144.234 36.5906 143.756 36.5928 143.277C36.5928 140.993 35.6855 138.802 34.0701 137.187C32.4548 135.571 30.2641 134.664 27.98 134.664Z" fill="#E5F6FF"/>
<path d="M62.7593 130.26C59.3103 126.947 54.7139 125.098 49.9321 125.098C45.1503 125.098 40.5537 126.947 37.1052 130.26C33.6562 133.572 31.6226 138.09 31.4297 142.868C31.4297 143.488 31.4644 144.1 31.5247 144.707H68.3442C68.4045 144.1 68.4348 143.488 68.4348 142.868C68.2419 138.09 66.2079 133.572 62.7593 130.26Z" fill="#E5F6FF"/>
<path d="M341.761 79.539C338.287 79.539 334.954 80.9191 332.497 83.3761C330.04 85.8329 328.66 89.1652 328.66 92.6397C328.662 93.369 328.728 94.0965 328.857 94.8144H354.672C354.795 94.096 354.858 93.3686 354.862 92.6397C354.862 89.1652 353.481 85.8329 351.024 83.3761C348.567 80.9192 345.235 79.539 341.761 79.539Z" fill="#E5F6FF"/>
<path d="M394.662 72.8402C389.416 67.8018 382.425 64.9883 375.151 64.9883C367.878 64.9883 360.886 67.8019 355.641 72.8402C350.394 77.8785 347.301 84.7508 347.008 92.0183C347.008 92.9616 347.06 93.8917 347.152 94.8153H403.157C403.249 93.8917 403.295 92.9616 403.295 92.0183C403.002 84.7508 399.908 77.8784 394.662 72.8402Z" fill="#E5F6FF"/>
<path d="M371.68 139.715C369.448 139.715 367.306 140.602 365.728 142.181C364.149 143.759 363.262 145.901 363.262 148.133C363.263 148.602 363.306 149.069 363.388 149.531H379.977C380.056 149.069 380.097 148.602 380.099 148.133C380.099 145.901 379.212 143.759 377.633 142.181C376.054 140.602 373.913 139.715 371.68 139.715Z" fill="#E5F6FF"/>
<path d="M403.193 130.764C399.822 127.527 395.329 125.719 390.655 125.719C385.981 125.719 381.488 127.527 378.118 130.764C374.746 134.002 372.759 138.418 372.57 143.088C372.57 143.694 372.604 144.292 372.663 144.885H408.652C408.711 144.292 408.74 143.694 408.74 143.088C408.552 138.418 406.564 134.002 403.193 130.764Z" fill="#E5F6FF"/>
<path d="M338.617 188.46C339.982 188.918 341.137 189.758 342.181 190.803C342.723 189.455 343.529 188.283 344.536 187.246C343.34 187.477 342.419 188.041 341.808 188.981C340.992 188.359 339.905 188.228 338.617 188.46Z" fill="#D5F1F9"/>
<path d="M334.992 193.637C335.889 194.326 336.533 195.246 337.042 196.29C337.789 195.426 338.688 194.761 339.701 194.248C338.754 194.114 337.925 194.298 337.23 194.84C336.783 194.169 336.009 193.794 334.992 193.637Z" fill="#D5F1F9"/>
<path d="M338.617 155.679C341.107 155.494 343.52 156.06 345.892 157.028C345.851 154.508 346.351 152.093 347.263 149.758C345.507 150.932 344.414 152.453 344.069 154.366C342.347 153.921 340.521 154.442 338.617 155.679Z" fill="#D5F1F9"/>
<path d="M57.2791 172.03C55.3795 172.668 53.7703 173.838 52.3167 175.292C51.5627 173.415 50.4404 171.784 49.0391 170.34C50.7032 170.662 51.9856 171.447 52.8369 172.755C53.9721 171.89 55.4855 171.707 57.2791 172.03Z" fill="#D5F1F9"/>
<path d="M73.439 176.848C72.1903 177.808 71.2933 179.088 70.5847 180.541C69.5445 179.338 68.2934 178.413 66.8828 177.698C68.2019 177.512 69.3559 177.768 70.323 178.522C70.9455 177.589 72.0234 177.066 73.439 176.848Z" fill="#D5F1F9"/>
<path d="M82.5759 167.639C79.1095 167.382 75.7499 168.17 72.4475 169.517C72.505 166.009 71.8077 162.646 70.5391 159.395C72.9829 161.029 74.5052 163.147 74.9861 165.811C77.3832 165.191 79.9256 165.916 82.5759 167.639Z" fill="#D5F1F9"/>
<path d="M415.953 350.327H0.328125V230.095C120.256 219.566 300.049 220.657 415.953 231.186V350.327Z" fill="#6BCCF7"/>
<path d="M415.759 237.328V207.411C415.759 207.411 400.045 205.284 385.389 214.393C366.747 207.263 350.213 215.241 349.032 217.526C333.718 211.208 320.096 218.97 315.562 230.968C315.911 231.327 415.759 237.328 415.759 237.328Z" fill="#6AD1BD"/>
<path d="M309.334 226.219C257.526 236.834 244.221 255.364 309.334 265.555C279.02 285.381 378.94 286.678 378.94 286.678C355.361 291.311 368.123 314.983 415.952 311.878C415.766 312.249 415.952 254.56 415.952 254.56L309.334 226.219Z" fill="#56B5EC"/>
<path d="M415.757 225.531C350.912 220.095 286.295 223.673 280.325 237.953C272.517 256.631 322.253 262.086 328.677 262.708C321.159 280.631 415.757 278.895 415.757 278.895V225.531Z" fill="#FFDDA0"/>
<path d="M378.94 223.998H364.164C365.323 221.051 368.193 218.965 371.552 218.965C373.292 218.965 374.901 219.524 376.208 220.474C377.425 221.357 378.381 222.578 378.94 223.998Z" fill="#FFDDA0"/>
<path d="M367.836 224.656H357.402C358.22 222.575 360.248 221.102 362.62 221.102C363.848 221.102 364.984 221.497 365.907 222.167C366.767 222.791 367.442 223.653 367.836 224.656Z" fill="#FFDDA0"/>
<path d="M409.582 241.317H393.324C394.599 237.6 397.758 234.969 401.453 234.969C403.367 234.969 405.137 235.675 406.576 236.872C407.915 237.986 408.967 239.525 409.582 241.317Z" fill="#F5CF8B"/>
<path d="M405.484 190.777C397.952 207.329 397.17 224.363 405.542 241.357H390.81C386.651 222.152 388.987 206.219 398.54 191.246C399.018 190.397 400.405 187.451 405.484 190.777Z" fill="#DD799A"/>
<path d="M393.456 225.932L390.191 225.406C390.86 227.095 391.89 227.479 393.456 225.932Z" fill="#CF6C89"/>
<path d="M400.757 234.975L397.492 234.449C398.161 236.138 399.192 236.522 400.757 234.975Z" fill="#CF6C89"/>
<path d="M395.792 224.432C394.663 224.25 393.572 224.074 392.527 223.906C393.196 225.595 394.226 225.979 395.792 224.432Z" fill="#CF6C89"/>
<path d="M395.699 209.35L392.434 208.824C393.102 210.513 394.133 210.897 395.699 209.35Z" fill="#CF6C89"/>
<path d="M404.762 191.975C408.07 193.188 411.958 193.919 415.759 193.397V183.538C411.573 183.24 407.432 183.964 404.247 186.418C404.559 181.214 401.666 176.098 395.172 173.586C393.866 179.007 394.881 183.211 398.255 186.179C387.259 180.744 381.591 185.522 375.977 194.681C378.015 195.021 380.014 195.393 381.944 195.69L383.821 193.445L383.467 195.909C389.21 196.67 394.486 197.274 398.047 193.225C398.624 192.367 399.652 191.581 399.652 191.581C399.652 191.581 398.659 194.068 402.265 196.582C404.349 194.101 404.762 191.975 404.762 191.975Z" fill="#75C3B6"/>
<path d="M409.791 188.465L406.081 188.84C402.347 197.096 406.916 202.353 413.971 205.499C416.985 199.404 416.564 193.634 409.791 188.465Z" fill="#75C3B6"/>
<path d="M401.892 190.59C400.076 190.682 398.678 192.229 398.77 194.045C398.862 195.862 400.409 197.259 402.225 197.167C404.042 197.075 405.439 195.528 405.347 193.712C405.255 191.896 403.708 190.498 401.892 190.59Z" fill="#C55B7A"/>
<path d="M401.855 204.008C404.124 204.008 405.964 202.168 405.964 199.898C405.964 197.629 404.124 195.789 401.855 195.789C399.585 195.789 397.746 197.629 397.746 199.898C397.746 202.168 399.585 204.008 401.855 204.008Z" fill="#CF6C89"/>
<path d="M396.589 191.115C394.322 191.23 392.578 193.16 392.693 195.427C392.808 197.693 394.738 199.438 397.005 199.323C399.271 199.208 401.016 197.277 400.901 195.011C400.786 192.744 398.855 191 396.589 191.115Z" fill="#CF6C89"/>
<path d="M394.179 193.994C393.911 194.115 393.688 194.451 393.798 194.695C393.914 194.952 394.368 195.042 394.64 194.836C394.892 194.645 394.957 194.226 394.761 194.034C394.604 193.881 394.335 193.923 394.179 193.994Z" fill="#C55B7A"/>
<path d="M395.2 192.769C394.932 192.891 394.823 193.193 394.933 193.437C395.048 193.694 395.388 193.818 395.66 193.612C395.912 193.421 395.899 193.065 395.703 192.873C395.547 192.72 395.356 192.698 395.2 192.769Z" fill="#C55B7A"/>
<path d="M395.68 193.988C395.412 194.11 395.304 194.412 395.413 194.656C395.529 194.912 395.869 195.037 396.141 194.83C396.393 194.64 396.38 194.284 396.183 194.091C396.027 193.938 395.836 193.917 395.68 193.988Z" fill="#C55B7A"/>
<path d="M390.895 235.949C387.11 235.949 383.993 238.796 383.562 242.465H398.227C397.797 238.796 394.679 235.949 390.895 235.949Z" fill="#F5CF8B"/>
<path d="M412.495 245.442H391.07C392.75 241.17 396.913 238.145 401.783 238.145C404.305 238.145 406.638 238.956 408.533 240.332C410.298 241.613 411.685 243.383 412.495 245.442Z" fill="#FFDDA0"/>
<path d="M345.773 235.32H331.276C330.755 235.32 330.331 234.897 330.331 234.375C330.331 233.854 330.755 233.43 331.276 233.43H345.773V235.32Z" fill="white"/>
<path d="M331.885 237.953H333.25V234.278H331.885V237.953Z" fill="white"/>
<path d="M351.998 232.289L345.776 235.319L344.948 233.62L351.17 230.589C351.639 230.361 352.205 230.556 352.434 231.025C352.662 231.494 352.467 232.06 351.998 232.289Z" fill="white"/>
<path d="M344.502 237.953H345.867V234.278H344.502V237.953Z" fill="white"/>
<path d="M351.652 237.952H353.017L350.908 232.352H349.543L351.652 237.952Z" fill="white"/>
<path d="M379.818 261.002H356.66C358.476 256.383 362.976 253.113 368.24 253.113C370.966 253.113 373.488 253.99 375.536 255.478C377.444 256.863 378.943 258.776 379.818 261.002Z" fill="#F5CF8B"/>
<path d="M385.722 263.357H369.652C370.912 260.152 374.035 257.883 377.688 257.883C379.579 257.883 381.329 258.491 382.751 259.524C384.074 260.485 385.115 261.812 385.722 263.357Z" fill="#F5CF8B"/>
<path d="M0.328125 207.73C0.328125 207.73 13.7904 198.815 28.9966 208.477C47.8811 200.798 55.2493 214.744 55.2493 214.744C88.602 203.981 107.625 225.893 107.625 225.893L101.037 250.111H0.328125V207.73Z" fill="#6AD1BD"/>
<path d="M130.649 226.434C174.014 228.58 214.15 253.943 113.147 263.825C119.614 281.613 29.0818 278.73 29.0818 278.73L0.328125 277.658V247.138L83.7905 238.208L130.649 226.434Z" fill="#56B5EC"/>
<path d="M0.328125 225.278C44.5424 216.956 155.507 220.324 158.931 240.098C162.355 259.872 77.9678 258.406 76.5557 258.892C112.278 279.143 0.328125 272.044 0.328125 272.044V225.278Z" fill="#FFDDA0"/>
<path d="M44.4186 233.768L48.043 233.668L46.8598 190.74L43.2355 190.84L44.4186 233.768Z" fill="#F3FBFF"/>
<path d="M30.5629 234.151L34.1875 234.051L33.0044 191.122L29.3798 191.222L30.5629 234.151Z" fill="#F3FBFF"/>
<path d="M32.1903 211.733L46.0391 211.352L45.7815 202.005L31.9327 202.387L32.1903 211.733Z" fill="#F3FBFF"/>
<path d="M32.0067 217.221L45.8555 216.84L45.7807 214.128L31.932 214.51L32.0067 217.221Z" fill="#F3FBFF"/>
<path d="M32.0067 222.03L45.8555 221.648L45.7807 218.937L31.932 219.319L32.0067 222.03Z" fill="#F3FBFF"/>
<path d="M32.0067 226.835L45.8555 226.453L45.7807 223.742L31.932 224.123L32.0067 226.835Z" fill="#F3FBFF"/>
<path d="M32.0067 231.643L45.8555 231.262L45.7807 228.55L31.932 228.932L32.0067 231.643Z" fill="#F3FBFF"/>
<path d="M28.4169 193.044L47.8119 192.509C48.7027 192.485 49.4048 191.743 49.3803 190.852C49.362 190.189 48.9402 189.605 48.3168 189.379L38.5978 185.86C37.8667 185.596 37.0609 185.629 36.3544 185.954L27.6976 189.932C27.1102 190.202 26.7406 190.796 26.7584 191.442L26.7594 191.475C26.784 192.366 27.5261 193.068 28.4169 193.044Z" fill="#FF90BC"/>
<path d="M42.5521 226.302C44.6502 229.12 48.636 229.704 51.4544 227.606C54.2728 225.508 54.857 221.522 52.7589 218.704C50.6608 215.886 46.675 215.302 43.8565 217.4C41.038 219.498 40.454 223.483 42.5521 226.302ZM45.0289 224.458C43.949 223.008 44.2497 220.956 45.7003 219.876C47.1509 218.796 49.2024 219.097 50.2823 220.548C51.3622 221.998 51.0615 224.05 49.6109 225.13C48.1603 226.21 46.1088 225.909 45.0289 224.458Z" fill="#FF90BC"/>
<path d="M43.2344 217.931L45.105 220.444C45.2723 220.236 45.4709 220.045 45.6968 219.876C45.9227 219.708 46.1635 219.573 46.4133 219.47L44.5425 216.957C44.3082 217.088 44.077 217.235 43.8542 217.401C43.6346 217.565 43.4244 217.741 43.2344 217.931Z" fill="#FFECF2"/>
<path d="M48.8984 225.536L50.769 228.049C51.0057 227.922 51.2347 227.771 51.4543 227.607C51.6771 227.441 51.8851 227.262 52.0774 227.075L50.2068 224.562C50.0363 224.772 49.8377 224.964 49.6118 225.132C49.3859 225.3 49.1451 225.435 48.8984 225.536Z" fill="#FFECF2"/>
<path d="M50.2837 220.547C50.4332 220.748 50.5559 220.959 50.6521 221.18L53.1589 219.314C53.0383 219.106 52.9061 218.902 52.759 218.704C52.5768 218.46 52.3784 218.232 52.1663 218.02L49.6406 219.9C49.8801 220.077 50.0969 220.296 50.2837 220.547Z" fill="#FFECF2"/>
<path d="M42.5525 226.301C42.6996 226.498 42.8567 226.683 43.0212 226.858L45.5281 224.992C45.3441 224.837 45.1771 224.659 45.0276 224.458C44.8408 224.207 44.6933 223.937 44.5918 223.656L42.0664 225.536C42.2093 225.8 42.3703 226.056 42.5525 226.301Z" fill="#FFECF2"/>
<path d="M101.191 238.207H115.688C116.21 238.207 116.634 238.631 116.634 239.152C116.634 239.674 116.21 240.097 115.688 240.097H101.191V238.207Z" fill="white"/>
<path d="M115.084 239.055H113.719V242.73H115.084V239.055Z" fill="white"/>
<path d="M95.795 235.367L102.017 238.397L101.19 240.097L94.9673 237.066C94.4984 236.838 94.3031 236.272 94.5315 235.803C94.7599 235.334 95.326 235.139 95.795 235.367Z" fill="white"/>
<path d="M102.463 239.055H101.098V242.73H102.463V239.055Z" fill="white"/>
<path d="M95.3145 242.729H93.9492L96.0581 237.129H97.4231L95.3145 242.729Z" fill="white"/>
<path d="M79.6137 209.546C79.9934 209.612 80.2482 209.974 80.182 210.353L76.7924 229.824L75.4164 229.584L78.806 210.114C78.8721 209.734 79.2339 209.479 79.6137 209.546Z" fill="white"/>
<path d="M71.7832 215.71C72.9415 215.912 73.9636 216.334 74.7271 216.873C74.9388 217.023 75.2026 217.069 75.4524 216.999C76.3532 216.75 77.4576 216.698 78.616 216.9C79.7744 217.102 80.7962 217.523 81.5596 218.063C81.7713 218.212 82.0351 218.258 82.2849 218.189C83.1857 217.939 84.2901 217.888 85.4485 218.089C86.3902 218.253 87.2405 218.563 87.9353 218.963C88.5743 219.331 89.3323 218.727 89.1453 218.014C88.2925 214.763 84.5357 211.855 79.6426 211.003C74.7495 210.151 70.2313 211.618 68.3299 214.39C67.9129 214.998 68.4221 215.822 69.1477 215.692C69.9368 215.55 70.8416 215.546 71.7832 215.71Z" fill="#449BE3"/>
<path d="M74.8984 228.578H89.3958C89.9174 228.578 90.3408 229.002 90.3408 229.523C90.3408 230.045 89.9174 230.468 89.3958 230.468H74.8984V228.578Z" fill="white"/>
<path d="M88.7908 229.426H87.4258V233.101H88.7908V229.426Z" fill="white"/>
<path d="M69.502 225.738L75.7242 228.768L74.8966 230.468L68.6744 227.437C68.2054 227.209 68.0101 226.643 68.2385 226.174C68.4669 225.705 69.0331 225.51 69.502 225.738Z" fill="white"/>
<path d="M76.1699 229.426H74.8047V233.101H76.1699V229.426Z" fill="white"/>
<path d="M69.0215 233.101H67.6562L69.7651 227.5H71.1301L69.0215 233.101Z" fill="white"/>
<path d="M24.6309 229.555C21.4384 229.555 18.8083 231.957 18.4453 235.052H30.8162C30.4533 231.957 27.8233 229.555 24.6309 229.555Z" fill="#F5CF8B"/>
<path d="M42.0657 236.977H23.9922C25.4092 233.372 28.9212 230.82 33.0293 230.82C35.1571 230.82 37.1251 231.505 38.7241 232.666C40.2126 233.747 41.3823 235.239 42.0657 236.977Z" fill="#F5CF8B"/>
<path d="M108.311 221.445C105.701 221.445 103.551 223.409 103.254 225.939H113.367C113.071 223.409 110.921 221.445 108.311 221.445Z" fill="#F5CF8B"/>
<path d="M124.022 227.158H109.246C110.405 224.211 113.276 222.125 116.634 222.125C118.374 222.125 119.983 222.685 121.29 223.634C122.507 224.517 123.463 225.738 124.022 227.158Z" fill="#F5CF8B"/>
<path d="M66.1714 259.564H50.1016C51.3615 256.359 54.484 254.09 58.1367 254.09C60.0286 254.09 61.7785 254.698 63.2002 255.731C64.5237 256.692 65.5638 258.019 66.1714 259.564Z" fill="#F5CF8B"/>
<path d="M415.952 309.882C395.07 298.356 268.065 293.79 310.74 325.773C234.521 324.795 232.734 350.326 232.734 350.326H415.952V309.882Z" fill="#56B5EC"/>
<path d="M365.449 320.9C362.084 326.794 340.314 327.619 337.882 319.414C335.486 311.328 348.631 302.842 354.267 304.223C359.903 305.604 369.429 313.927 365.449 320.9Z" fill="#365F97"/>
<path d="M349.393 307.482C350.983 307.351 352.905 308.608 353.058 310.454C353.221 312.421 351.311 314.295 349.538 314.356C347.985 314.409 346.114 313.083 346.019 311.197C345.921 309.247 347.768 307.616 349.393 307.482Z" fill="#3D6EA6"/>
<path d="M338.997 318.098C343.274 318.732 345.985 322.613 345.633 325.498C345.21 328.965 339.593 330.886 334.071 329.625C332.232 329.206 327.892 328.214 327.72 325.683C327.512 322.623 333.387 317.266 338.997 318.098Z" fill="#3D6EA6"/>
<path d="M369.471 315.633C376.04 318.974 373.235 326.013 351.996 330.014C388.19 328.548 375.171 315.552 369.471 315.633Z" fill="#6BCCF7"/>
<path d="M323.514 322.266C318.236 324.95 320.489 330.604 337.552 333.819C308.475 332.641 318.934 322.201 323.514 322.266Z" fill="#6BCCF7"/>
<path d="M158.945 318.594C169.376 323.899 164.922 335.076 131.195 341.43C188.67 339.103 167.997 318.465 158.945 318.594Z" fill="#56B5EC"/>
<path d="M98.9216 340.775C126.139 340.775 148.203 333.813 148.203 325.224C148.203 316.635 126.139 309.672 98.9216 309.672C71.7044 309.672 49.6406 316.635 49.6406 325.224C49.6406 333.813 71.7044 340.775 98.9216 340.775Z" fill="#56B5EC"/>
<path d="M111.757 339.633C111.757 343.537 108.822 347.193 103.705 350.327H3.64233C2.40643 349.57 1.29712 348.783 0.328125 347.969V331.298C9.24002 323.826 29.7698 318.598 53.6726 318.598C85.7523 318.598 111.757 328.015 111.757 339.633Z" fill="#56B5EC"/>
<path d="M111.897 311.261C107.058 319.739 75.7478 320.924 72.251 309.125C68.8052 297.495 87.7102 285.29 95.8157 287.276C103.921 289.263 117.621 301.232 111.897 311.261Z" fill="#3D6EA6"/>
<path d="M232.977 283.395C229.603 283.395 226.867 285.625 226.867 288.376C226.867 291.127 239.087 291.128 239.087 288.376C239.087 285.625 236.351 283.395 232.977 283.395Z" fill="#56B5EC"/>
<path d="M218.042 290.437C215.79 290.437 213.965 291.926 213.965 293.762C213.965 295.598 222.12 295.598 222.12 293.762C222.12 291.926 220.294 290.437 218.042 290.437Z" fill="#56B5EC"/>
<path d="M75.2205 345.699C84.5613 341.546 62.0693 332.77 62.0693 332.77C62.0693 332.77 90.3575 335.832 113.309 328.866C137.946 321.945 47.6014 279.777 0.328125 258.891V348.256C30.6811 348.838 67.2316 349.252 75.2205 345.699Z" fill="#08A5BF"/>
<path d="M80.0664 346.256C86.5294 339.968 71.1296 334.46 71.1296 334.46C71.1296 334.46 104.543 338.926 117.132 330.011C129.185 321.477 112.586 309.809 81.9214 298.09L91.6382 311.582C91.6382 311.582 60.2806 300.903 54.3481 303.785C48.4156 306.666 62.0693 319.617 62.0693 319.617C62.0693 319.617 35.5649 306.05 26.1421 307.884C16.7193 309.717 29.9773 325.385 29.9773 325.385L0.328125 316.826V350.325L54.1436 350.324C66.2429 349.887 75.8845 350.325 80.0664 346.256Z" fill="#FFDDA0"/>
<path d="M29.0818 278.727C46.0973 266.516 28.8543 251.237 7.62231 262.13C22.6319 250.803 12.2615 235.484 0.328125 242.68V277.656C19.1923 284.805 39.0687 292.312 42.6741 293.574C49.8408 296.084 45.9605 283.471 29.0818 278.727Z" fill="#0089A7"/>
<path d="M17.0398 294.788C20.4287 290.149 16.2255 290.255 6.35938 293.9C6.35938 293.9 16.262 298.532 22.323 301.696C28.384 304.861 26.3612 294.171 17.0398 294.788Z" fill="#0089A7"/>
</svg>
