<svg width="536" height="232" viewBox="0 0 536 232" fill="none" xmlns="http://www.w3.org/2000/svg">
<g clip-path="url(#clip0_14_3527)">
<path d="M536 0H0V231.97H536V0Z" fill="#56BA74"/>
<path d="M536 195.035V0H0V231.97H536V195.035Z" fill="#63AC79"/>
<path opacity="0.65" d="M166.41 135.662C166.358 171.331 179.734 205.713 203.88 231.97H414C430.145 214.365 441.606 192.986 447.331 169.796C453.056 146.607 452.861 122.351 446.764 99.256C440.667 76.1615 428.863 54.9691 412.438 37.6258C396.012 20.2825 375.491 7.3444 352.76 0L265.14 0C236.453 9.27384 211.445 27.3998 193.706 51.7743C175.967 76.1489 166.411 105.518 166.41 135.662Z" fill="#B6D367"/>
<path d="M299.59 228.06C298.77 221.531 299.49 211.423 298.13 204.873C287.52 153.75 259.93 113.245 224.65 79.8896C204.836 126.046 199.721 177.185 210 226.351C210.39 228.23 210.81 230.1 211.24 231.97H298.2L299.59 228.06Z" fill="#3A986A"/>
<path d="M192.42 209.913C222.68 164.919 219.68 129.143 219.68 129.143C219.68 129.143 152.68 147.651 101.68 191.135L77.6499 231.97H165.77L192.42 209.913Z" fill="#3A986A"/>
<path d="M47.5098 142.982L84.6398 79.7897C138.74 33.6457 209.81 13.9982 209.81 13.9982C209.81 13.9982 213 51.9933 180.91 99.6771L128.66 142.982H47.5098Z" fill="#3A986A"/>
<path d="M95 224.141L114.52 157.89C153.43 103.317 214 69.1112 214 69.1112C214 69.1112 225.58 103.107 207.14 154.1L169.24 205.614L95 224.141Z" fill="#3A986A"/>
<path d="M80.91 0H0V231.97H178.49L133.49 156.74C130.6 108.306 113.33 40.9347 80.91 0Z" fill="#3A986A"/>
<path d="M357.51 124.414C404 110.416 491.88 161.409 524.29 120.504C528.443 115.258 532.346 109.902 536 104.436V0H400.5C375.058 36.7586 360.188 79.7914 357.51 124.414Z" fill="#3A986A"/>
<path d="M383.85 206.413L395.13 209.353L449.54 0H437.5L383.85 206.413Z" fill="#84BC72"/>
<path d="M424.477 48.161L436.701 51.3379C437.946 51.6616 439.218 50.9165 439.541 49.6737C439.864 48.431 439.116 47.1611 437.871 46.8375L425.647 43.6606C424.402 43.3369 423.13 44.082 422.807 45.3247C422.484 46.5675 423.232 47.8374 424.477 48.161Z" fill="#A4CB6B"/>
<path d="M432.437 14.4676L444.689 17.6247C445.937 17.9464 447.209 17.1974 447.53 15.9519C447.851 14.7064 447.099 13.4359 445.851 13.1142L433.6 9.95711C432.352 9.63544 431.08 10.3844 430.759 11.6299C430.438 12.8754 431.189 14.1459 432.437 14.4676Z" fill="#A4CB6B"/>
<path d="M317.44 180.067C266.44 136.562 199.44 118.075 199.44 118.075C199.44 118.075 196.44 153.82 226.7 198.834L266.7 231.98H348L317.44 180.067Z" fill="#3A986A"/>
<path d="M387.23 184.776C383.57 179.317 379.67 169.958 375.52 164.709C343.11 123.784 300.28 99.9871 253.79 85.9889C256.802 136.115 275.174 184.099 306.41 223.421C308.72 226.341 311.1 229.18 313.51 231.96H393L387.23 184.776Z" fill="#3A986A"/>
<path d="M130.88 231.97C142.617 214.755 158.382 200.667 176.804 190.932C195.226 181.196 215.748 176.107 236.585 176.107C257.422 176.107 277.944 181.196 296.366 190.932C314.788 200.667 330.553 214.755 342.29 231.97H130.88Z" fill="#3A986A"/>
<path d="M475.81 37.5249L464.83 48.3135L476.64 231.97H488.31L475.81 37.5249Z" fill="#84BC72"/>
<path d="M466.175 76.9092L478.779 76.0987C480.063 76.0161 481.038 74.9104 480.955 73.6289C480.873 72.3475 479.765 71.3757 478.481 71.4583L465.877 72.2688C464.593 72.3514 463.618 73.4571 463.701 74.7385C463.783 76.02 464.891 76.9918 466.175 76.9092Z" fill="#A4CB6B"/>
<path d="M472.034 44.4785C474.919 41.1979 476.487 37.8617 475.537 37.0267C474.587 36.1918 471.479 38.1743 468.595 41.4548C465.71 44.7354 464.142 48.0716 465.092 48.9066C466.042 49.7415 469.15 47.759 472.034 44.4785Z" fill="#A4CB6B"/>
<path d="M513.34 115.175H420.67V231.95H513.34V115.175Z" fill="#007A57"/>
<path d="M69.7402 18.6178L60.2702 17.6779L38.9102 231.97H48.4802L69.7402 18.6178Z" fill="#84BC72"/>
<path d="M62.895 86.9682L53.4816 86.0304C52.2011 85.9029 51.0599 86.8352 50.9325 88.113C50.8052 89.3907 51.74 90.5299 53.0205 90.6575L62.4339 91.5953C63.7144 91.7229 64.8557 90.7905 64.983 89.5127C65.1103 88.235 64.1755 87.0958 62.895 86.9682Z" fill="#A4CB6B"/>
<path d="M69.938 16.2933L60.5246 15.3555C59.2441 15.2279 58.1028 16.1603 57.9755 17.4381C57.8482 18.7158 58.783 19.855 60.0635 19.9826L69.4769 20.9204C70.7574 21.0479 71.8986 20.1156 72.026 18.8378C72.1533 17.5601 71.2185 16.4209 69.938 16.2933Z" fill="#A4CB6B"/>
<path d="M66.4214 51.6359L57.008 50.6981C55.7275 50.5705 54.5862 51.5029 54.4589 52.7806C54.3316 54.0584 55.2664 55.1976 56.5469 55.3252L65.9603 56.263C67.2408 56.3905 68.382 55.4581 68.5094 54.1804C68.6367 52.9027 67.7019 51.7635 66.4214 51.6359Z" fill="#A4CB6B"/>
<path d="M40.5298 42.2846H31.0098V231.97H40.5298V42.2846Z" fill="#84BC72"/>
<path d="M40.5 110.986H31.04C29.7531 110.986 28.71 112.027 28.71 113.311C28.71 114.595 29.7531 115.636 31.04 115.636H40.5C41.7868 115.636 42.83 114.595 42.83 113.311C42.83 112.027 41.7868 110.986 40.5 110.986Z" fill="#A4CB6B"/>
<path d="M40.5 39.9651H31.04C29.7531 39.9651 28.71 41.006 28.71 42.2901C28.71 43.5741 29.7531 44.6151 31.04 44.6151H40.5C41.7868 44.6151 42.83 43.5741 42.83 42.2901C42.83 41.006 41.7868 39.9651 40.5 39.9651Z" fill="#A4CB6B"/>
<path d="M40.5 75.4702H31.04C29.7531 75.4702 28.71 76.5111 28.71 77.7952C28.71 79.0793 29.7531 80.1202 31.04 80.1202H40.5C41.7868 80.1202 42.83 79.0793 42.83 77.7952C42.83 76.5111 41.7868 75.4702 40.5 75.4702Z" fill="#A4CB6B"/>
<path d="M260.56 44.0541C259.818 40.6877 259.508 37.2402 259.64 33.7955C263.248 34.737 266.665 36.2965 269.74 38.4049C272.86 22.8169 282.19 17.3176 282.19 17.3176C282.77 20.6872 284.19 26.6164 284.19 26.6164V41.9044L260.75 58.9022C258.922 53.8871 257.582 48.707 256.75 43.4342C258.039 43.4956 259.318 43.7035 260.56 44.0541Z" fill="#964566"/>
<path d="M372.54 108.886C389.335 108.886 402.95 95.2727 402.95 78.4799C402.95 61.6871 389.335 48.0739 372.54 48.0739C355.745 48.0739 342.13 61.6871 342.13 78.4799C342.13 95.2727 355.745 108.886 372.54 108.886Z" fill="#283356"/>
<path d="M398.92 171.958C430.284 171.958 455.71 146.535 455.71 115.175C455.71 83.8148 430.284 58.3924 398.92 58.3924C367.556 58.3924 342.13 83.8148 342.13 115.175C342.13 146.535 367.556 171.958 398.92 171.958Z" fill="white"/>
<path d="M494.57 130.213V97.6475C488.122 96.9391 481.617 96.8989 475.16 97.5275C458.16 99.1573 443.94 105.057 435.76 110.816C412.68 127.044 416.47 149.981 388.5 153.98C379.8 94.8578 306.33 101.697 284.16 26.6167C286.3 38.3252 287 54.993 287 54.993L260.7 58.8925C276.78 103.067 324.93 121.884 333.58 168.058C338.58 194.755 327.99 217.602 317.16 232H432.16C432.69 170.158 456.27 130.213 494.57 130.213Z" fill="#A35571"/>
<path d="M280.53 53.0173C287.088 45.5324 289.434 36.8629 285.77 33.6534C282.106 30.444 273.819 33.91 267.261 41.3949C260.703 48.8798 258.357 57.5492 262.021 60.7587C265.685 63.9681 273.972 60.5022 280.53 53.0173Z" fill="#C66683"/>
<path d="M341.25 93.9478C350.236 93.9478 357.52 87.4523 357.52 79.4397C357.52 71.4271 350.236 64.9315 341.25 64.9315C332.264 64.9315 324.98 71.4271 324.98 79.4397C324.98 87.4523 332.264 93.9478 341.25 93.9478Z" fill="white"/>
<path d="M326.9 18.1674C330.14 12.7981 337.37 11.8083 342.97 15.4478C347.72 18.5374 350.19 23.5967 347.86 28.8661C345.19 34.5453 339.75 37.5149 334.09 34.8653C328.43 32.2156 323.36 24.0467 326.9 18.1674Z" fill="#283356"/>
<path d="M300 35.3454C293.76 36.0154 289.81 42.1546 290.75 48.7637C291.55 54.383 295.09 58.7624 300.86 58.8624C307.13 58.8624 312.12 55.1629 312.12 48.9137C312.12 42.6645 306.77 34.6155 300 35.3454Z" fill="#283356"/>
<path d="M304.54 73.3304C313.83 87.8986 330.7 87.2587 345.85 77.5999C361 67.9412 368.69 52.9231 359.4 38.355C350.11 23.7869 329.6 18.7075 314.45 28.3563C299.3 38.005 295.25 58.7623 304.54 73.3304Z" fill="white"/>
<path d="M343.28 50.7932C346.28 52.273 349.59 49.5034 350.08 45.9239C350.7 41.4144 347.46 37.7349 342.92 36.1651C336.57 33.9554 329.13 38.2848 331.37 44.754C333.12 49.8034 338 48.2436 343.28 50.7932Z" fill="#283356"/>
<path d="M322.63 63.9918C322.68 67.3714 318.8 69.1611 315.34 68.0913C310.99 66.7515 309.03 62.262 309.52 57.4827C310.2 50.8035 317.26 45.8842 322.18 50.6435C326 54.3331 322.53 58.1326 322.63 63.9918Z" fill="#283356"/>
<path d="M364.56 36.9954C364.341 38.2323 363.724 39.3639 362.804 40.2191C361.884 41.0742 360.71 41.6063 359.46 41.7348L333 23.4472C354.65 24.0671 357.07 39.2551 364.56 36.9954Z" fill="white"/>
<path d="M337.18 46.3148C339.256 46.3148 340.94 44.6314 340.94 42.5548C340.94 40.4782 339.256 38.7948 337.18 38.7948C335.103 38.7948 333.42 40.4782 333.42 42.5548C333.42 44.6314 335.103 46.3148 337.18 46.3148Z" fill="white"/>
<path d="M336.78 44.1747C337.198 44.0141 337.564 43.7434 337.841 43.3913C338.117 43.0391 338.293 42.6188 338.35 42.1747C338.06 42.2167 337.764 42.1657 337.504 42.0291C337.244 41.8925 337.035 41.6773 336.905 41.4143C336.775 41.1513 336.732 40.854 336.781 40.5649C336.831 40.2758 336.97 40.0097 337.18 39.8047C336.86 39.6032 336.497 39.4792 336.12 39.4427C335.743 39.4063 335.363 39.4583 335.01 39.5947C334.397 39.8281 333.902 40.2953 333.634 40.8936C333.366 41.4918 333.347 42.1721 333.58 42.7847C333.813 43.3974 334.281 43.8922 334.879 44.1604C335.477 44.4286 336.157 44.4481 336.77 44.2147L336.78 44.1747Z" fill="black"/>
<path d="M335.16 39.3851C335.38 39.2519 335.611 39.1382 335.85 39.0451C336.744 38.7145 337.731 38.7397 338.607 39.1154C339.483 39.4912 340.181 40.1889 340.558 41.0646C340.935 41.9402 340.96 42.927 340.63 43.8212C340.301 44.7154 339.64 45.4489 338.785 45.8702C337.93 46.2914 336.945 46.3684 336.035 46.0852C335.125 45.8021 334.358 45.1803 333.893 44.3482C333.428 43.5162 333.3 42.5374 333.536 41.6139C333.772 40.6903 334.353 39.8925 335.16 39.3851ZM334.6 38.5152C333.871 38.9802 333.282 39.6338 332.894 40.4066C332.507 41.1794 332.336 42.0426 332.4 42.9047C332.463 43.7668 332.759 44.5956 333.256 45.3033C333.752 46.0109 334.431 46.571 335.22 46.9241C335.792 47.1842 336.411 47.3279 337.039 47.3468C337.667 47.3656 338.293 47.2594 338.88 47.0341C339.191 46.9179 339.489 46.7705 339.77 46.5942C340.694 45.9978 341.386 45.1034 341.732 44.0595C342.078 43.0155 342.056 41.8847 341.67 40.8549C341.217 39.6659 340.311 38.7052 339.15 38.184C337.99 37.6627 336.67 37.6236 335.48 38.0753C335.172 38.1895 334.876 38.337 334.6 38.5152Z" fill="#17294D"/>
<path d="M332.43 71.1809C333.177 71.0165 333.898 70.7472 334.57 70.381C337.11 69.0012 338.21 65.6216 338.21 65.6216C338.21 65.6216 341.73 66.0516 344.05 64.3318C344.67 63.8791 345.222 63.3405 345.69 62.732C346.69 61.4122 348.22 62.822 345.63 65.1117C343.04 67.4014 339 66.7915 339 66.7915C339 66.7915 337.75 70.791 334.67 72.1308C331.59 73.4706 330.81 71.5409 332.43 71.1809Z" fill="#5F6680"/>
<path d="M317.72 58.7233C319.797 58.7233 321.48 57.0399 321.48 54.9633C321.48 52.8867 319.797 51.2033 317.72 51.2033C315.643 51.2033 313.96 52.8867 313.96 54.9633C313.96 57.0399 315.643 58.7233 317.72 58.7233Z" fill="white"/>
<path d="M317.32 56.5833C317.738 56.424 318.104 56.1534 318.379 55.8009C318.654 55.4483 318.827 55.0273 318.88 54.5833C318.59 54.6252 318.294 54.5742 318.034 54.4376C317.775 54.301 317.565 54.0859 317.435 53.8229C317.305 53.5599 317.262 53.2625 317.311 52.9734C317.361 52.6843 317.5 52.4182 317.71 52.2133C317.39 52.0117 317.027 51.8877 316.65 51.8513C316.273 51.8148 315.893 51.8669 315.54 52.0033C314.928 52.2367 314.433 52.7039 314.165 53.3021C313.896 53.9004 313.877 54.5806 314.11 55.1933C314.344 55.8059 314.811 56.3008 315.409 56.569C316.007 56.8371 316.688 56.8567 317.3 56.6233L317.32 56.5833Z" fill="black"/>
<path d="M315.71 51.7935C316.494 51.2836 317.44 51.0849 318.363 51.2363C319.285 51.3877 320.118 51.8783 320.698 52.6119C321.277 53.3454 321.562 54.269 321.496 55.2015C321.43 56.1341 321.018 57.0083 320.34 57.6527C320.154 57.8295 319.953 57.99 319.74 58.1326C318.956 58.6241 318.017 58.809 317.105 58.6518C316.193 58.4946 315.371 58.0064 314.796 57.2807C314.221 56.555 313.935 55.6428 313.991 54.7189C314.047 53.7949 314.442 52.9242 315.1 52.2734C315.287 52.094 315.492 51.9333 315.71 51.7935ZM315.15 50.9136C314.871 51.0947 314.61 51.3023 314.37 51.5335C313.919 51.9718 313.559 52.4954 313.312 53.0738C313.065 53.6523 312.935 54.274 312.93 54.9031C312.917 55.532 313.031 56.157 313.265 56.741C313.498 57.3251 313.847 57.8561 314.29 58.3026C315.059 59.0888 316.074 59.5872 317.166 59.7146C318.258 59.842 319.361 59.5906 320.29 59.0025C320.567 58.8255 320.825 58.6211 321.06 58.3926C321.897 57.5613 322.399 56.451 322.469 55.2736C322.539 54.0962 322.173 52.9341 321.441 52.0092C320.709 51.0844 319.662 50.4614 318.5 50.2593C317.338 50.0572 316.142 50.2901 315.14 50.9136H315.15Z" fill="#17294D"/>
<path d="M334.34 59.5426C336.81 57.9426 340.8 56.8726 340.61 58.0626C340.07 61.3426 337.23 63.9726 337.21 64.0626C337.19 64.1526 333.56 65.5226 330.35 64.6326C329.19 64.2826 331.85 61.1126 334.34 59.5426Z" fill="#0B1731"/>
<path d="M280.73 42.2743C277.06 39.0647 270.05 41.0644 265.07 46.7537C261.8 50.4932 260.23 54.8826 260.57 58.3722C259.41 54.2827 261.96 47.4536 267.26 41.3744C273.82 33.8954 282.11 30.4258 285.77 33.6354C289.02 36.485 287.53 43.6341 282.57 50.4432C283.35 47.1237 282.78 44.074 280.73 42.2743Z" fill="#D3718A"/>
<path d="M435.76 110.815C421.46 120.014 419.67 135.212 408.9 145.041C397.52 155.44 378.25 157.709 365.74 146.801C367.517 144.15 370.02 142.067 372.95 140.802C369.296 140.359 365.589 140.868 362.19 142.281C364.43 131.503 376.52 135.282 382.3 131.283C392.3 124.284 386.51 105.896 401.02 97.8771C409.47 93.2077 428.31 91.628 435.76 110.815Z" fill="#283356"/>
<path d="M284.16 26.6167C290.39 47.7239 300.67 62.352 312.43 73.7906L299.59 77.0701L280.76 58.5425C280.76 58.5425 280.36 63.1319 278.99 55.5429C277.16 45.593 278.997 35.3171 284.16 26.6167Z" fill="#A35271"/>
<path d="M291.9 72.6204C296.63 67.461 305.25 67.421 311.54 70.8106C321.77 76.3399 332.81 86.5486 342.88 83.6389C359 78.9895 351.51 58.2422 363.35 49.5034L395.35 58.3822C389.64 59.4721 386.47 62.2717 384.71 64.9814C387.111 69.7733 388.361 75.0595 388.36 80.4194C388.36 100.367 371.28 116.535 350.21 116.535C340.186 116.589 330.523 112.8 323.21 105.946C311.58 96.1673 306.62 79.5795 293.74 77.7097C295.585 76.0131 297.899 74.912 300.38 74.5501C297.775 73.1657 294.848 72.4996 291.9 72.6204Z" fill="#283356"/>
<path d="M372.43 178.977C366.84 162.219 354.15 146.981 344.43 137.872C352.12 147.241 359.02 157.57 363.21 170.158C370.098 190.413 368.949 212.538 360 231.97H374C378.27 217.142 379.06 198.854 372.43 178.977Z" fill="#964566"/>
<path d="M275.75 64.9916C275.75 64.9916 272 58.3425 273.87 50.9934L285.58 53.1231L283.74 56.7027L275.75 64.9916Z" fill="#A35271"/>
<path d="M352 170.148C337.59 126.914 294.56 109.406 268.11 74.4103C287.84 109.206 331.16 133.263 333.21 171.218C334.42 193.665 323.35 214.962 305.39 231.97H346.14C353.9 216.552 359.79 193.405 352 170.148Z" fill="#964566"/>
<path d="M389.61 162.835C389.406 159.815 389.019 156.809 388.45 153.836C412.797 152.031 412.96 126.804 435.76 110.806C443.93 105.046 458.18 99.1572 475.16 97.5274C432.15 103.727 436.53 165.615 389.61 162.835Z" fill="#964566"/>
<path d="M453.7 88.9884C450.641 86.7386 447 85.4162 443.21 85.1789L395.37 58.3824C429.38 55.8127 450.06 77.8299 453.7 88.9884Z" fill="white"/>
<path d="M337.18 46.3148C339.256 46.3148 340.94 44.6314 340.94 42.5548C340.94 40.4782 339.256 38.7948 337.18 38.7948C335.103 38.7948 333.42 40.4782 333.42 42.5548C333.42 44.6314 335.103 46.3148 337.18 46.3148Z" fill="white"/>
<path d="M317.71 58.7336C319.787 58.7336 321.47 57.0502 321.47 54.9736C321.47 52.897 319.787 51.2136 317.71 51.2136C315.634 51.2136 313.95 52.897 313.95 54.9736C313.95 57.0502 315.634 58.7336 317.71 58.7336Z" fill="white"/>
<path d="M316 51.6536C316.791 51.2321 317.708 51.1082 318.583 51.3045C319.458 51.5008 320.234 52.0043 320.77 52.7236C321.049 53.2629 321.168 53.8707 321.113 54.4754C321.059 55.08 320.833 55.6566 320.462 56.1373C320.091 56.618 319.591 56.9829 319.019 57.1891C318.448 57.3953 317.83 57.4342 317.238 57.3013C316.645 57.1685 316.103 56.8692 315.675 56.4389C315.247 56.0085 314.95 55.4649 314.82 54.8718C314.69 54.2787 314.732 53.6609 314.941 53.0908C315.15 52.5207 315.517 52.0222 316 51.6536Z" fill="white"/>
<path d="M317.78 54.5631C318.476 54.5631 319.04 53.999 319.04 53.3031C319.04 52.6072 318.476 52.0431 317.78 52.0431C317.084 52.0431 316.52 52.6072 316.52 53.3031C316.52 53.999 317.084 54.5631 317.78 54.5631Z" fill="white"/>
<path d="M536 55.9928C536 55.9928 496 83.3592 485.06 155.05L535.36 231.97H536V55.9928Z" fill="#007A57"/>
<path d="M458.52 159.549C460.806 184.705 467.622 209.24 478.64 231.97H536V198.904C513.212 180.509 486.817 167.101 458.52 159.549Z" fill="#3A986A"/>
<path d="M520.21 95.3978C507.958 136.612 508.691 180.598 522.31 221.382C523.51 224.974 524.793 228.507 526.16 231.98H536V108.416C530.94 103.803 525.677 99.464 520.21 95.3978Z" fill="#3A986A"/>
<path d="M467.29 108.736C467.275 151.728 480.497 193.683 505.16 228.9C505.88 229.9 506.62 230.9 507.36 231.97H536V150.371C516.001 132.186 492.668 118.047 467.29 108.736Z" fill="#3A986A"/>
<path d="M509.53 19.3075L497.89 18.7076L486.85 231.97H498.52L509.53 19.3075Z" fill="#84BC72"/>
<path d="M493.61 91.9475L506.223 92.5996C507.509 92.6661 508.604 91.6804 508.67 90.398C508.737 89.1157 507.749 88.0223 506.464 87.9558L493.85 87.3037C492.565 87.2373 491.47 88.223 491.403 89.5053C491.337 90.7877 492.325 91.8811 493.61 91.9475Z" fill="#A4CB6B"/>
<path d="M491.759 127.425L504.372 128.077C505.657 128.143 506.752 127.158 506.819 125.875C506.885 124.593 505.897 123.5 504.612 123.433L491.999 122.781C490.714 122.715 489.618 123.7 489.552 124.983C489.486 126.265 490.474 127.358 491.759 127.425Z" fill="#A4CB6B"/>
<path d="M489.928 162.883L502.541 163.535C503.826 163.601 504.922 162.616 504.988 161.333C505.055 160.051 504.067 158.957 502.781 158.891L490.168 158.239C488.883 158.172 487.788 159.158 487.721 160.44C487.655 161.723 488.643 162.816 489.928 162.883Z" fill="#A4CB6B"/>
<path d="M497.282 21.0329L509.895 21.685C511.18 21.7514 512.275 20.7658 512.342 19.4834C512.408 18.2011 511.42 17.1076 510.135 17.0412L497.522 16.3891C496.237 16.3226 495.141 17.3083 495.075 18.5907C495.009 19.873 495.997 20.9664 497.282 21.0329Z" fill="#A4CB6B"/>
<path d="M495.441 56.4902L508.054 57.1423C509.339 57.2087 510.435 56.2231 510.501 54.9407C510.567 53.6584 509.579 52.565 508.294 52.4985L495.681 51.8464C494.396 51.78 493.3 52.7656 493.234 54.048C493.168 55.3303 494.156 56.4237 495.441 56.4902Z" fill="#A4CB6B"/>
<path d="M470.5 189.976C454.829 189.967 439.394 193.789 425.538 201.108C411.681 208.427 399.825 219.022 391 231.97H536V215.692C518.216 199.129 494.804 189.937 470.5 189.976Z" fill="#6F708A"/>
<path d="M78 203.054C53.5372 207.795 30.2559 217.334 9.5 231.12V231.97H71C74.0894 222.53 76.43 212.861 78 203.054Z" fill="#007A57"/>
<path d="M12.79 75.9902C8.40333 79.2231 4.14 82.656 0 86.2888V222.971L2.67 222.421C5.68958 215.728 8.35984 208.883 10.67 201.914C24.2882 161.152 25.0284 117.187 12.79 75.9902Z" fill="#007A57"/>
<path d="M42.61 229.91C68.2032 193.359 81.9213 149.815 81.9 105.196C50.8833 116.571 22.872 134.873 0 158.709L0 231.97H41.12C41.61 231.28 42.12 230.61 42.61 229.91Z" fill="#007A57"/>
<path opacity="0.5" d="M536 172.178H0V177.508H536V172.178Z" fill="#ECE1F2"/>
<path opacity="0.6" d="M536 172.178H0V231.97H536V172.178Z" fill="#61D8DB"/>
<path d="M108.25 169.978C108.247 169.271 107.965 168.593 107.465 168.093C106.965 167.593 106.287 167.311 105.58 167.308C104.874 167.311 104.197 167.594 103.698 168.094C103.2 168.594 102.92 169.272 102.92 169.978V231.97H108.25V169.978Z" fill="#ECE1F2"/>
<path d="M216.49 169.978C216.512 169.614 216.46 169.25 216.336 168.907C216.212 168.565 216.019 168.251 215.77 167.985C215.52 167.72 215.219 167.509 214.884 167.364C214.55 167.219 214.189 167.145 213.825 167.145C213.46 167.145 213.1 167.219 212.765 167.364C212.431 167.509 212.13 167.72 211.88 167.985C211.63 168.251 211.438 168.565 211.314 168.907C211.19 169.25 211.137 169.614 211.16 169.978V231.97H216.49V169.978Z" fill="#D7D8E4"/>
<path d="M324.74 169.978C324.762 169.614 324.71 169.25 324.586 168.907C324.462 168.565 324.269 168.251 324.02 167.985C323.77 167.72 323.469 167.509 323.134 167.364C322.8 167.219 322.439 167.145 322.075 167.145C321.71 167.145 321.35 167.219 321.015 167.364C320.681 167.509 320.38 167.72 320.13 167.985C319.88 168.251 319.688 168.565 319.564 168.907C319.44 169.25 319.387 169.614 319.41 169.978V231.97H324.74V169.978Z" fill="#D7D8E4"/>
<path d="M433.08 169.978C433.08 169.272 432.8 168.594 432.302 168.094C431.803 167.594 431.126 167.311 430.42 167.308C429.713 167.311 429.035 167.593 428.535 168.093C428.035 168.593 427.753 169.271 427.75 169.978V231.97H433.08V169.978Z" fill="#D7D8E4"/>
<path d="M222.39 108.576C220.62 108.906 220.68 112.476 215.21 111.956C209.74 111.436 206.44 116.395 205.52 118.685C205.52 118.685 219.05 125.684 221.87 120.355L219.11 118.035C217.92 116.975 218.96 115.715 221.86 114.635C225.23 113.416 224.81 108.116 222.39 108.576Z" fill="#FC9F90"/>
<path d="M207.11 115.895L195.76 135.893C201.76 143.892 211.55 130.483 215.28 123.774L212.57 118.245L207.11 115.895Z" fill="#FFB5A6"/>
<path d="M225.7 121.984C225.7 121.984 211.57 110.856 207.12 115.885L207.21 122.654L212.02 125.354C215.43 125.824 224.49 127.004 226.61 126.214C228.73 125.424 230.98 123.974 233.61 122.784C236.03 121.654 238.86 120.784 238.68 120.154C237.87 117.725 229.85 118.985 225.7 121.984Z" fill="#FFB5A6"/>
<path d="M198.72 126.773C195.56 125.324 186.45 135.272 186.45 135.272C181.8 124.724 170.03 99.777 150.86 99.1171L148 118.665L150.22 124.664C157.67 157.39 174.87 176.727 195.77 163.949C202.14 160.079 210.55 151.85 213.26 141.802C213.556 140.35 213.556 138.854 213.26 137.402C212.968 135.95 212.39 134.57 211.56 133.343C208.53 129.193 203.25 125.984 198.72 126.773Z" fill="#283356"/>
<path d="M200.79 123.104C200.113 123.434 199.552 123.96 199.18 124.614C198.808 125.27 198.648 126.024 198.72 126.774C203.622 127.485 208.151 129.799 211.6 133.353C213.33 132.283 213.41 129.763 213.41 129.763C209.37 124.034 200.79 123.104 200.79 123.104Z" fill="#5F6680"/>
<path d="M138.21 218.202L144 231.97H181.44C179.91 225.591 178 218.182 175.92 210.653C170.63 191.655 162.76 171.898 158.53 166.559L121.34 165.059C106.06 175.717 99.4398 187.356 97.7998 203.734C97.1798 209.963 97.5998 221.731 98.1998 231.97H136.42L138.21 218.202Z" fill="#005F69"/>
<path d="M160 111.236C155.61 101.997 155.12 101.037 155.12 101.037C138.77 104.207 111.35 97.4176 111.35 97.4176C107.992 98.6812 104.747 100.227 101.65 102.037C75.9999 118.405 98.2099 148.341 94.8999 172.978C93.2299 185.386 104.39 203.974 107.36 204.134C133.36 186.876 142.97 203.824 173.36 213.333C174.63 211.783 178.62 211.973 179.25 210.163C183.33 198.694 175.11 177.277 172.39 160.169C171.22 152.8 171.21 144.681 171.14 136.952C171 126.984 163 117.545 160 111.236Z" fill="white"/>
<path d="M104.61 196.564C106.73 200.514 108.98 201.324 110.02 201.484C113.21 199.764 119.21 199.754 119.21 199.754C142.15 194.255 160.21 214.662 177.39 216.142C179.15 215.912 180.31 211.902 179.19 210.143C161.81 207.133 136.15 181.896 104.61 196.564Z" fill="#E6DBED"/>
<path d="M120.2 196.175C118.24 194.935 116.112 193.986 113.88 193.355C110.64 192.445 108.1 192.705 106.14 193.855L103.89 190.156L92.27 194.975C103.65 206.483 105.34 224.311 107.56 224.971C109.78 225.631 111.67 223.281 110.66 217.342C115.2 224.641 111.83 229.241 116.53 227.651C120.78 227.571 122.43 219.302 118.21 214.012C122.5 216.942 124.21 221.961 125.73 221.012C127.73 218.902 124.89 214.012 120.73 208.013C118.41 204.514 115.52 201.014 118.22 200.084C119.08 199.784 120.54 201.084 122.49 200.974C126.13 200.694 127.19 197.835 125.78 196.525C125.25 196.065 123.57 198.265 120.2 196.175Z" fill="#FFB5A6"/>
<path d="M127.28 210.373L117.69 213.442L105.13 219.781L106.75 229.54L133.38 228.28L127.28 210.373Z" fill="#005F69"/>
<path d="M119.33 183.406C118.91 183.428 118.489 183.361 118.097 183.21C117.704 183.059 117.348 182.827 117.051 182.529C116.754 182.231 116.522 181.873 116.372 181.48C116.222 181.087 116.157 180.667 116.18 180.247C116.459 174.177 118.347 168.29 121.65 163.189C133.42 167.739 139.73 162.439 142.06 156.41C147.832 156.589 153.497 158.022 158.66 160.609L159.11 164.299C159.41 166.673 160.314 168.931 161.736 170.857C163.157 172.782 165.049 174.311 167.23 175.298C169.669 180.673 170.15 186.732 168.59 192.425C168.464 192.876 168.237 193.293 167.928 193.644C167.618 193.996 167.233 194.273 166.801 194.454C166.369 194.636 165.902 194.718 165.435 194.694C164.967 194.67 164.511 194.54 164.1 194.315C150.54 186.976 139.38 182.977 119.33 183.406Z" fill="#E6DBED"/>
<path d="M146.57 134.273C154.823 134.246 163.052 135.155 171.1 136.982C171.01 126.934 170.8 117.525 167.81 111.216C165.224 105.763 160.684 101.481 155.09 99.2171C138.74 102.387 111.32 97.4474 111.32 97.4474C107.962 98.711 104.717 100.256 101.62 102.067C83.7798 113.435 89.0898 131.373 92.8798 149.521C106.14 140.142 125.29 134.273 146.57 134.273Z" fill="#5F6680"/>
<path d="M149.54 38.285C153.09 44.7342 161.54 46.224 168.26 42.2145C173.99 38.8049 177.11 32.9857 174.62 26.6965C171.75 19.9174 165.51 16.1779 158.74 19.0175C151.97 21.8571 145.65 31.2259 149.54 38.285Z" fill="#283356"/>
<path d="M124 37.2853C120 43.4445 111.42 44.2844 105 39.745C99.5599 35.8955 96.9099 29.8563 99.8799 23.747C103.27 17.2079 109.78 13.9683 116.31 17.3279C122.84 20.6874 128.44 30.5562 124 37.2853Z" fill="#283356"/>
<path d="M166.56 72.7904C165.7 94.6075 151.5 101.447 134.33 100.787C117.16 100.127 103.54 92.1878 104.4 70.3707C105.26 48.5535 114.72 20.9071 137.4 21.7969C160.08 22.6868 167.41 50.9932 166.56 72.7904Z" fill="#E6DBED"/>
<path d="M106.31 59.1623C103.42 64.6516 107.07 72.8305 115.21 73.1605C118.87 73.5404 116.64 58.0824 116.64 58.0824C116.64 58.0824 109.57 52.9931 106.31 59.1623Z" fill="#F4978E"/>
<path d="M155.28 59.5823C155.28 59.5823 151.85 74.8203 155.52 74.7303C163.67 75.0503 167.94 67.1713 165.52 61.472C162.72 54.9929 155.28 59.5823 155.28 59.5823Z" fill="#F4978E"/>
<path d="M121.93 29.3062C115.1 35.5354 110.35 38.545 109.31 44.6342C108.6 49.1536 107.31 54.9528 114.08 65.6315C114.89 44.8542 124.37 37.4051 137.01 37.8951C149.65 38.385 159.15 37.2151 157.21 66.7013C167.82 53.423 165.84 42.9344 154.62 29.1562C143.74 15.8379 132.27 19.9274 121.93 29.3062Z" fill="#28202B"/>
<path d="M135 84.899L125.15 82.1593L123.58 100.987C130.636 102.465 137.89 102.749 145.04 101.827L145 82.9892L135 84.899Z" fill="#F4978E"/>
<path d="M114.82 48.234L114.09 66.9016C113.82 83.1395 126.92 87.6489 126.92 87.6489C127.823 88.8685 128.988 89.8697 130.33 90.5785C131.674 91.2803 133.156 91.6764 134.67 91.7383C136.186 91.799 137.696 91.5188 139.089 90.9183C140.483 90.3178 141.723 89.4124 142.72 88.2688C142.72 88.2688 156.14 84.7792 157.12 68.5813L157.85 49.9138C159.06 18.9378 116 17.258 114.82 48.234Z" fill="#FFB5A6"/>
<path d="M141.92 75.7505C139.745 76.3265 137.509 76.6453 135.26 76.7005C133.027 76.4701 130.829 75.9801 128.71 75.2405C127.56 75.1105 126.87 75.2405 126.84 76.0505C126.84 77.0505 127.84 78.5505 129.49 79.7505C131.173 80.7749 133.121 81.2794 135.09 81.2005C137.047 81.4362 139.03 81.0883 140.79 80.2005C142.54 79.1305 143.68 77.7205 143.72 76.7205C143.72 75.9205 143.07 75.7205 141.92 75.7505Z" fill="#1A1A1A"/>
<path d="M128.71 75.2403C129.18 77.0303 131.87 78.4503 135.19 78.5803C138.51 78.7103 141.32 77.4803 141.93 75.7503C140.37 75.7503 137.93 76.2203 135.29 76.1103C132.65 76.0003 130.25 75.3903 128.71 75.2403Z" fill="white"/>
<path d="M129.49 79.7487C131.109 80.9538 133.055 81.652 135.072 81.7305C137.089 81.8091 139.082 81.2771 140.79 80.2014C137.099 79.2416 133.245 79.0787 129.49 79.7487Z" fill="#D3595F"/>
<path d="M121.08 51.5735C126.38 51.0035 131.3 55.1235 131.86 53.2135C132.23 49.3935 123.87 49.4635 121.08 51.5735Z" fill="#201532"/>
<path d="M140.25 53.5033C140.66 55.4433 145.9 51.7133 151.12 52.7133C148.52 50.4233 140.19 49.7033 140.25 53.5033Z" fill="#201532"/>
<path d="M123 55.1227C119.41 55.4726 117.27 58.6822 119.58 61.9118C119.58 61.9118 120.58 63.5516 123.7 63.8216C125.986 63.9981 128.263 63.3839 130.15 62.0818C129.78 56.4825 125.82 54.8627 123 55.1227Z" fill="white"/>
<path d="M124.26 56.8725C124.481 57.1042 124.627 57.3968 124.68 57.7125C124.725 57.9302 124.725 58.1548 124.68 58.3725C124.624 58.5878 124.529 58.7912 124.4 58.9725C124.127 59.3319 123.726 59.5719 123.28 59.6425C123.004 59.6761 122.724 59.6488 122.46 59.5625C122.195 59.4679 121.956 59.314 121.76 59.1125C121.665 59.5271 121.665 59.9578 121.76 60.3725C121.931 61.1836 122.413 61.8953 123.103 62.3552C123.793 62.815 124.635 62.9864 125.45 62.8325C125.853 62.7831 126.241 62.6503 126.59 62.4425C126.94 62.2339 127.248 61.9627 127.5 61.6425C127.989 60.9781 128.2 60.1499 128.09 59.3325C127.914 58.5094 127.421 57.7889 126.717 57.3282C126.012 56.8674 125.154 56.7036 124.33 56.8725H124.26Z" fill="#511F2B"/>
<path d="M149.16 56.183C146.37 55.683 142.3 57.0029 141.49 62.5721C143.274 64.0051 145.492 64.7911 147.78 64.8018C150.88 64.8018 152.04 63.2121 152.04 63.2121C154.59 60.1824 152.71 56.8129 149.16 56.183Z" fill="white"/>
<path d="M146.56 57.7827C146.778 58.0177 146.927 58.3084 146.99 58.6227C147.03 58.8409 147.03 59.0645 146.99 59.2827C146.938 59.4995 146.843 59.7036 146.71 59.8827C146.579 60.0619 146.412 60.2118 146.22 60.3227C146.003 60.4486 145.761 60.527 145.511 60.5529C145.261 60.5787 145.009 60.5514 144.77 60.4727C144.477 60.3798 144.212 60.2148 144 59.9927C143.911 60.4079 143.911 60.8374 144 61.2527C144.169 62.0683 144.65 62.7858 145.34 63.2527C146.03 63.7138 146.875 63.8828 147.69 63.7227C148.093 63.6733 148.481 63.5405 148.83 63.3327C149.18 63.1241 149.488 62.8529 149.74 62.5327C149.983 62.2029 150.159 61.8294 150.26 61.4327C150.367 60.9264 150.345 60.4015 150.197 59.9057C150.049 59.41 149.78 58.9591 149.413 58.5943C149.046 58.2294 148.594 57.9622 148.097 57.8169C147.601 57.6717 147.076 57.653 146.57 57.7627L146.56 57.7827Z" fill="#511F2B"/>
<path d="M137.18 64.9917C135.86 64.2618 135.73 61.0722 135.73 61.0722C135.73 61.0722 134.73 64.6417 136.07 65.8916C137.18 66.8914 138.07 67.0714 138.67 67.6113C139.27 68.1513 138.51 70.161 135.53 72.4907C139.45 71.1809 141.53 67.4913 140.53 66.3715C140 65.7216 138.21 65.5416 137.18 64.9917Z" fill="#D8796C"/>
<path d="M136.43 21.7472L116.63 30.5061L109.88 45.8941L111.16 54.513L114.23 59.9323C114.46 54.263 116.99 44.4643 119.31 41.6346C126.82 32.4858 135.62 38.825 135.62 38.825C143.78 35.1455 151.17 39.8249 154.25 43.1944C157.33 46.564 157.53 50.3535 157.48 60.8421L160.83 56.3327L162.49 41.8146L154.76 31.126L136.43 21.7472Z" fill="#28202B"/>
<path d="M150.41 46.9939C147.295 45.7164 144.69 43.4456 143 40.5347C148 42.2845 152.78 41.5346 156.14 38.395C156.14 38.395 132.72 33.5357 131.29 24.2469C131.29 24.2469 122.91 24.5168 122.36 30.666C121.18 44.5442 132.21 50.3335 138.61 49.6636C138.61 49.6636 131.14 45.0542 131.09 40.1548C133.65 43.1844 138 48.8837 150.41 46.9939Z" fill="#28202B"/>
<path d="M134 108.606C134 108.606 99.28 100.217 100.33 73.3403C100.79 61.6818 101.89 48.3436 106.66 37.455C112.66 23.8967 123.02 17.3076 137.55 17.8675C152.08 18.4274 161.92 25.8665 166.81 39.8047C170.71 50.9832 170.81 64.4115 170.32 76.08C169.3 102.986 134 108.606 134 108.606ZM137.24 25.6965C125.94 25.2565 118.5 29.9959 113.83 40.6146C109.59 50.2533 108.59 62.7217 108.16 73.6103C107.53 89.7582 114.59 97.6072 134.4 98.3871C154.21 99.167 161.86 91.8779 162.49 75.73C162.92 64.8014 162.88 52.293 159.41 42.3543C155.61 31.4457 148.57 26.1464 137.27 25.6965H137.24Z" fill="white"/>
<path d="M134.15 105.576L133.25 105.326C127.485 103.58 121.984 101.057 116.9 97.8273C105.73 90.6583 100.05 81.3795 100.45 70.9908L108.28 71.3008C107.63 87.8286 129.69 95.9476 134.46 97.5074C139.33 96.3275 161.96 89.9584 162.61 73.4205L170.44 73.7305C170 84.1091 163.64 92.918 152 99.1972C146.677 102.021 140.995 104.106 135.11 105.396L134.15 105.576Z" fill="white"/>
<path d="M130.44 148.981C130.127 148.959 129.827 148.844 129.58 148.651C129.416 148.526 129.279 148.369 129.176 148.19C129.073 148.011 129.007 147.814 128.981 147.61C128.955 147.405 128.97 147.197 129.024 146.998C129.079 146.8 129.173 146.614 129.3 146.451C134.67 139.542 132.53 131.793 130.05 122.834C128.32 116.555 126.35 109.426 126.81 101.697C126.812 101.484 126.857 101.274 126.943 101.079C127.029 100.884 127.153 100.708 127.309 100.563C127.465 100.418 127.648 100.305 127.849 100.233C128.049 100.161 128.262 100.131 128.475 100.144C128.688 100.157 128.895 100.213 129.086 100.308C129.276 100.404 129.445 100.538 129.582 100.701C129.719 100.864 129.821 101.053 129.883 101.257C129.944 101.461 129.964 101.675 129.94 101.887C129.51 109.096 131.32 115.655 133.07 121.994C135.66 131.373 138.07 140.222 131.78 148.371C131.623 148.574 131.42 148.736 131.186 148.843C130.952 148.949 130.696 148.997 130.44 148.981Z" fill="#283356"/>
<path d="M148.09 141.452H147.91C147.708 141.417 147.514 141.342 147.341 141.232C147.167 141.122 147.017 140.979 146.899 140.811C146.781 140.643 146.698 140.453 146.653 140.252C146.609 140.052 146.604 139.844 146.64 139.642C148.07 131.273 145.64 125.704 143.08 119.795C140.86 114.695 138.56 109.416 138.98 102.357C139.025 101.957 139.222 101.59 139.53 101.331C139.838 101.073 140.234 100.942 140.635 100.966C141.037 100.991 141.414 101.168 141.688 101.462C141.963 101.757 142.114 102.145 142.11 102.547C141.73 108.846 143.78 113.545 145.95 118.545C148.59 124.614 151.32 130.883 149.73 140.172C149.66 140.549 149.455 140.887 149.153 141.123C148.851 141.358 148.473 141.475 148.09 141.452Z" fill="#283356"/>
<path d="M101.62 102.037C101.62 102.037 92.9198 104.946 83.3198 120.384C76.3198 131.683 69.7798 144.541 68.9798 154.82C68.9798 154.82 66.5998 167.428 78.8298 186.816C82.0398 191.905 86.7598 193.125 89.7598 192.545C91.6478 192.203 93.5849 192.237 95.4598 192.645L102.46 186.866C104.66 185.216 105.46 181.766 104.18 176.867C102.4 170.178 98.6698 162.169 96.1098 157.05C100.54 152.205 104.39 146.859 107.58 141.122C110.077 136.577 111.485 131.515 111.691 126.334C111.898 121.152 110.898 115.994 108.77 111.265C107.216 107.628 104.754 104.45 101.62 102.037Z" fill="#283356"/>
<path d="M103 185.716C99.4503 189.391 94.7778 191.78 89.7198 192.505C89.6413 193.279 89.8056 194.059 90.1898 194.735C90.5701 195.413 91.1496 195.957 91.8498 196.295C91.8498 196.295 100.71 195.295 104.85 189.416C104.91 189.416 104.83 186.816 103 185.716Z" fill="#5F6680"/>
<path d="M102.79 221.971L102.07 218.042C106.57 217.246 110.874 215.593 114.75 213.172C118.143 211.06 121.097 208.314 123.45 205.083L126.7 207.413C124.042 211.063 120.709 214.169 116.88 216.562C112.575 219.255 107.791 221.092 102.79 221.971Z" fill="#107E84"/>
<path d="M317.71 51.2132C318.613 51.2085 319.488 51.5301 320.173 52.1187C320.858 52.7074 321.308 53.5235 321.439 54.4172C321.571 55.3108 321.375 56.2218 320.889 56.9827C320.402 57.7437 319.657 58.3033 318.79 58.5589C317.924 58.8145 316.994 58.7487 316.173 58.3738C315.351 57.9988 314.692 57.3398 314.317 56.518C313.942 55.6961 313.877 54.7666 314.133 53.9004C314.389 53.0342 314.949 52.2894 315.71 51.8031C316.308 51.4213 317.001 51.2168 317.71 51.2132ZM317.71 49.2134C316.43 49.2116 315.186 49.636 314.175 50.4197C313.163 51.2034 312.441 52.3017 312.123 53.5412C311.805 54.7807 311.908 56.0909 312.418 57.2648C312.927 58.4388 313.813 59.4097 314.936 60.0243C316.058 60.6389 317.354 60.8621 318.617 60.6587C319.881 60.4554 321.041 59.837 321.914 58.9013C322.787 57.9656 323.323 56.7658 323.439 55.4913C323.554 54.2168 323.241 52.9402 322.55 51.8631C322.033 51.0485 321.318 50.3782 320.472 49.9149C319.625 49.4515 318.675 49.2102 317.71 49.2134Z" fill="#283356"/>
<path d="M337.18 38.7948C338.089 38.7849 338.97 39.1034 339.663 39.6917C340.355 40.2799 340.811 41.0984 340.948 41.9965C341.085 42.8945 340.893 43.8118 340.407 44.5794C339.921 45.3471 339.175 45.9136 338.304 46.1746C337.434 46.4356 336.499 46.3737 335.671 46.0001C334.843 45.6266 334.177 44.9665 333.797 44.1415C333.417 43.3164 333.348 42.3819 333.602 41.5097C333.856 40.6376 334.416 39.8865 335.18 39.3947C335.775 39.0059 336.47 38.7975 337.18 38.7948ZM337.18 36.795C336.081 36.7975 335.006 37.1132 334.08 37.7049C332.916 38.4518 332.059 39.5936 331.669 40.9207C331.278 42.2479 331.379 43.6714 331.953 44.9301C332.527 46.1888 333.536 47.1983 334.794 47.7733C336.053 48.3484 337.477 48.4505 338.804 48.0608C340.132 47.6711 341.274 46.8159 342.022 45.6519C342.77 44.488 343.073 43.0935 342.876 41.7242C342.678 40.3549 341.994 39.1026 340.948 38.1972C339.901 37.2918 338.564 36.794 337.18 36.795Z" fill="#283356"/>
<path d="M339.18 41.745C338.866 41.7424 338.566 41.6158 338.345 41.3929C338.124 41.1701 338 40.8689 338 40.555C338.002 40.2769 338.101 40.0082 338.28 39.795C338.137 39.7796 337.993 39.7796 337.85 39.795C337.425 39.7971 337.011 39.9253 336.66 40.1635C336.308 40.4017 336.036 40.739 335.876 41.1325C335.717 41.526 335.679 41.958 335.766 42.3735C335.853 42.789 336.061 43.1693 336.365 43.4659C336.669 43.7625 337.054 43.9621 337.471 44.0393C337.889 44.1165 338.319 44.0678 338.709 43.8994C339.099 43.731 339.43 43.4505 339.659 43.0936C339.889 42.7367 340.008 42.3194 340 41.895C339.999 41.7503 339.982 41.6061 339.95 41.465C339.735 41.6473 339.462 41.7466 339.18 41.745Z" fill="#0B1731"/>
<path d="M319.7 54.1633C319.388 54.1633 319.088 54.0407 318.866 53.8218C318.643 53.603 318.515 53.3054 318.51 52.9933C318.51 52.7129 318.613 52.4423 318.8 52.2333C318.657 52.2186 318.513 52.2186 318.37 52.2333C317.944 52.2313 317.528 52.3557 317.173 52.5908C316.818 52.8258 316.541 53.1609 316.377 53.5536C316.212 53.9463 316.168 54.3789 316.25 54.7966C316.332 55.2143 316.536 55.5983 316.836 55.9C317.136 56.2017 317.519 56.4074 317.937 56.4912C318.354 56.575 318.787 56.533 319.18 56.3706C319.574 56.2081 319.91 55.9326 320.147 55.5788C320.384 55.225 320.51 54.8089 320.51 54.3833C320.52 54.2401 320.52 54.0964 320.51 53.9533C320.273 54.1158 319.986 54.1901 319.7 54.1633Z" fill="#0B1731"/>
<path d="M306.17 143.821L306 143.661L304.23 141.902L302.95 142.901H265.38C264.853 142.901 264.335 143.04 263.879 143.303C263.422 143.566 263.043 143.945 262.78 144.401L234.13 193.975C234.007 194.181 233.913 194.403 233.85 194.635L232.59 195.635L234.5 197.534C234.781 197.848 235.124 198.099 235.508 198.272C235.893 198.444 236.309 198.533 236.73 198.534H275.3C275.827 198.535 276.345 198.396 276.801 198.133C277.257 197.87 277.636 197.491 277.9 197.034L306.55 147.421C306.887 146.861 307.033 146.207 306.964 145.557C306.895 144.908 306.617 144.298 306.17 143.821Z" fill="#D7D8E4"/>
<path d="M273.3 196.445H234.73C234.203 196.445 233.686 196.307 233.229 196.044C232.773 195.78 232.394 195.402 232.13 194.946C231.867 194.49 231.728 193.972 231.728 193.446C231.728 192.919 231.867 192.401 232.13 191.945L260.78 142.332C261.043 141.875 261.422 141.497 261.879 141.233C262.335 140.97 262.853 140.832 263.38 140.832H302C302.527 140.832 303.044 140.97 303.501 141.233C303.957 141.496 304.336 141.875 304.599 142.331C304.863 142.787 305.002 143.304 305.002 143.831C305.002 144.358 304.863 144.875 304.6 145.331L275.9 194.975C275.633 195.426 275.252 195.798 274.796 196.056C274.34 196.314 273.824 196.448 273.3 196.445Z" fill="white"/>
<path d="M279.37 174.578H250.45L251.7 172.408H280.62L279.37 174.578Z" fill="#D7D8E4"/>
<path d="M275.33 181.577H246.41L247.66 179.407H276.58L275.33 181.577Z" fill="#D7D8E4"/>
<path d="M272.29 148.541C270.61 148.051 268.11 149.781 266.51 151.691C264.91 153.601 265.43 154.781 267.11 155.271C268.078 155.524 269.099 155.481 270.042 155.148C270.985 154.815 271.807 154.206 272.4 153.401C274 151.511 274 149.031 272.29 148.541Z" fill="#B8BCCC"/>
<path d="M285.8 148.501C283.55 149.011 280.67 151.501 280.1 153.381C279.53 155.261 281.02 155.731 283.27 155.221C285.52 154.711 287.42 153.521 288 151.621C288.58 149.721 288.05 147.981 285.8 148.501Z" fill="#B8BCCC"/>
<path d="M278.37 149.681C273.13 149.681 266.03 154.27 263.37 158.87C261.26 162.519 261.37 166.139 268.91 166.119C276.45 166.099 280.7 162.469 282.8 158.81C285.48 154.22 283.61 149.671 278.37 149.681Z" fill="#D7D8E4"/>
<path d="M272.32 160.209C271.37 160.209 269.76 160.719 269.84 161.049C269.946 161.336 270.126 161.591 270.361 161.787C270.596 161.984 270.878 162.115 271.18 162.169C272.122 161.975 273.017 161.594 273.81 161.049C274.31 160.709 273.28 160.209 272.32 160.209Z" fill="#B8BCCC"/>
<path d="M279.29 154.42C278.11 154.13 275.76 155.42 275.62 158.13C275.54 159.61 276.99 160.95 279.43 159.21C281.46 157.76 281.41 154.98 279.29 154.42Z" fill="#B8BCCC"/>
<path d="M272 154.44C269.27 154.98 266 157.72 266.38 159.16C266.81 160.91 269.79 159.63 271.38 158.16C274.36 155.46 273.53 154.14 272 154.44Z" fill="#B8BCCC"/>
<path d="M265.82 186.406H243.62L242.37 188.576H264.56L265.82 186.406Z" fill="#D7D8E4"/>
</g>
<defs>
<clipPath id="clip0_14_3527">
<rect width="536" height="232" rx="16" fill="white"/>
</clipPath>
</defs>
</svg>
