<svg width="194" height="194" viewBox="0 0 194 194" fill="none" xmlns="http://www.w3.org/2000/svg">
<path d="M167.97 68.4463C183.481 107.901 164.072 152.459 124.618 167.971C85.164 183.483 40.6053 164.074 25.0935 124.619C9.58171 85.1652 28.9909 40.6065 68.445 25.0948C107.899 9.58299 152.458 28.9921 167.97 68.4463Z" fill="#05DBC1"/>
<path d="M78.7965 67.1108C81.0754 63.5519 85.3819 61.8588 89.4743 62.9127L103.312 66.4763L117.138 70.0863C121.227 71.1539 124.168 74.7264 124.431 78.9442L125.317 93.2062L126.157 107.471C126.405 111.69 123.916 115.591 119.986 117.144L106.696 122.394L93.3886 127.6C89.4531 129.14 84.9738 127.979 82.2825 124.721L73.182 113.704L64.1184 102.656C61.4379 99.3894 61.1584 94.7705 63.4254 91.204L71.0908 79.1445L78.7965 67.1108Z" fill="#00A9C0"/>
<path fill-rule="evenodd" clip-rule="evenodd" d="M29.4356 134.012C27.8383 131.117 26.4098 128.086 25.1676 124.927C17.5608 105.579 18.3518 85.0036 25.7862 67.2281L31.7467 83.1262L36.9609 97.1153C37.6193 98.8815 37.7533 100.8 37.3469 102.641L34.1283 117.219L30.2609 134.577L29.4356 134.012Z" fill="#00A9C0"/>
<path fill-rule="evenodd" clip-rule="evenodd" d="M171.031 78.0014C170.229 74.7938 169.211 71.6015 167.968 68.4419C160.362 49.0941 145.77 34.5667 128.22 26.614L134.683 42.3146L140.392 56.1091C141.113 57.8507 142.321 59.3471 143.873 60.4181L156.158 68.9007L170.811 78.9772L171.031 78.0014Z" fill="#00A9C0"/>
<path fill-rule="evenodd" clip-rule="evenodd" d="M88.9321 30.5L77.1531 39.6727C75.6659 40.8308 73.8758 41.5346 71.9981 41.6994L57.1261 43.0048L40.1058 44.466C47.723 36.1987 57.2823 29.4835 68.4467 25.0942C79.6107 20.7049 91.1835 19.1117 102.391 19.9775L88.9321 30.5Z" fill="#00A9C0"/>
<path fill-rule="evenodd" clip-rule="evenodd" d="M173.048 102.925C171.113 125.893 158.852 147.272 139.174 160.385L143.412 143.571L147.089 129.102C147.553 127.275 148.535 125.621 149.917 124.339L160.862 114.186L173.048 102.925Z" fill="#00A9C0"/>
<path fill-rule="evenodd" clip-rule="evenodd" d="M113.037 171.554C89.8497 176.802 66.0295 170.848 48.173 156.565L65.502 155.56L80.4078 154.724C82.2898 154.619 84.1622 155.059 85.7998 155.993L98.77 163.386L113.037 171.554Z" fill="#00A9C0"/>
</svg>
