<svg width="151" height="158" viewBox="0 0 151 158" fill="none" xmlns="http://www.w3.org/2000/svg">
<path d="M54.4077 29.7372L34.7676 17.7553L30.4438 40.7295L7.99972 42.5558L18.7799 62.3726L0 74.4606L18.1555 89.1876L54.4077 29.7372Z" fill="#FF5566"/>
<path d="M73.9921 0.130741L73.4517 11.0626L84.3835 11.603L84.9239 0.671136L73.9921 0.130741Z" fill="#2D8077"/>
<path d="M72.4573 25.9314L61.5239 25.3895L62.6432 7.41071L73.9771 0L72.4573 25.9314Z" fill="#00BA9E"/>
<path d="M94.324 27.0156L83.3906 26.4734L84.9104 0.541931L95.455 9.03675L94.324 27.0156Z" fill="#00BA9E"/>
<path d="M118.948 29.0183C118.948 29.0183 135.902 39.881 134.606 73.7886C134.24 83.3671 132.367 94.371 127.242 106.659C106.707 155.812 128.373 135.89 128.373 135.89C128.373 135.89 142.393 119.148 148.155 92.4155C152.726 71.1731 149.887 38.4437 137.799 30.8327C110.477 13.6197 118.96 29.0183 118.96 29.0183H118.948Z" fill="#2D8077"/>
<path d="M113.764 37.6311C113.764 37.6311 120.833 24.4945 136.844 30.8331C126.959 17.6965 105.764 19.063 99.6377 28.5708L113.764 37.6311Z" fill="#00BA9E"/>
<path d="M77.9357 21.8433C71.0905 21.8433 65.3411 23.0804 60.4871 25.154L43.0266 31.1627L45.5715 36.971C38.1844 46.8912 36.1226 59.1792 36.1226 65.6474V151.088L99.6493 148.378L105.033 142.004L124.544 145.468C127.725 143.724 129.692 140.379 129.692 136.75V75.6149C129.692 64.6697 124.721 21.8668 77.9357 21.8668V21.8433Z" fill="#402DBA"/>
<path d="M110.477 141.592L16.9067 152.018V72.4687C16.9067 60.5221 23.8697 28.6764 58.7081 28.6764C105.493 28.6764 110.465 71.479 110.465 82.4242V141.604L110.477 141.592Z" fill="#515DDA"/>
<path d="M97.7053 93.9115H23.8226C16.4178 93.9115 10.415 99.9144 10.415 107.319V144.538C10.415 151.942 16.4178 157.945 23.8226 157.945H97.7053C105.11 157.945 111.113 151.942 111.113 144.538V107.319C111.113 99.9144 105.11 93.9115 97.7053 93.9115Z" fill="#FFC430"/>
<path d="M72.104 115.932L61.3355 127.501L50.1076 116.78L39.2213 125.451L30.0081 113.87L16.5652 121.104L10.2031 107.508L72.104 115.932Z" fill="white"/>
<path d="M101.087 124.921L100.804 124.427C100.698 124.226 100.592 124.026 100.474 123.849L92.7924 110.289L85.2168 112.975L87.797 128.338C87.8205 128.562 87.8677 128.774 87.903 128.998L87.9973 129.563H88.0326C88.068 129.681 88.0797 129.822 88.1386 129.964C89.4228 133.581 93.3933 135.478 97.0102 134.194C100.627 132.909 102.512 128.939 101.228 125.322C101.181 125.181 101.098 125.074 101.051 124.945H101.087V124.921ZM95.7732 130.706C94.0766 131.307 92.2151 130.423 91.6142 128.727C91.5082 128.432 91.5082 128.126 91.4846 127.819C91.4846 127.643 91.4493 127.466 91.4729 127.289C91.4964 127.054 91.5671 126.83 91.6496 126.618C91.6967 126.465 91.7321 126.3 91.8028 126.147C91.9206 125.923 92.0855 125.722 92.2504 125.534C92.3447 125.428 92.4154 125.298 92.5214 125.192C92.8042 124.945 93.1341 124.756 93.4993 124.603C93.5347 124.591 93.5582 124.568 93.5935 124.556C93.6407 124.532 93.6996 124.556 93.7467 124.533C94.1002 124.427 94.4654 124.368 94.8189 124.379C94.9838 124.379 95.1369 124.45 95.2901 124.474C95.5257 124.521 95.7614 124.556 95.9735 124.65C96.1384 124.721 96.2798 124.839 96.433 124.945C96.6097 125.063 96.7982 125.181 96.9514 125.334C97.0809 125.463 97.187 125.628 97.293 125.793C97.4579 126.029 97.6464 126.253 97.7407 126.547C98.3416 128.244 97.458 130.105 95.7614 130.718L95.7732 130.706Z" fill="#FF5566"/>
<path d="M111.113 107.826C111.113 107.826 88.3743 117.404 56.8113 117.404C25.2482 117.404 10.4033 107.826 10.4033 107.826V107.025C10.4033 99.7907 16.2706 93.9115 23.5163 93.9115H97.9999C105.234 93.9115 111.113 99.7789 111.113 107.025V107.826Z" fill="#00BA9E"/>
<path d="M86.1592 85.7116C90.7075 85.7116 94.3946 82.0245 94.3946 77.4762C94.3946 72.9279 90.7075 69.2408 86.1592 69.2408C81.6109 69.2408 77.9238 72.9279 77.9238 77.4762C77.9238 82.0245 81.6109 85.7116 86.1592 85.7116Z" fill="white"/>
<path d="M86.159 82.0243C88.6707 82.0243 90.7067 79.9881 90.7067 77.4765C90.7067 74.9648 88.6707 72.9289 86.159 72.9289C83.6474 72.9289 81.6113 74.9648 81.6113 77.4765C81.6113 79.9881 83.6474 82.0243 86.159 82.0243Z" fill="#402DBA"/>
<path d="M33.5069 85.7116C38.0551 85.7116 41.7423 82.0245 41.7423 77.4762C41.7423 72.9279 38.0551 69.2408 33.5069 69.2408C28.9586 69.2408 25.2715 72.9279 25.2715 77.4762C25.2715 82.0245 28.9586 85.7116 33.5069 85.7116Z" fill="white"/>
<path d="M33.4007 82.0243C35.9124 82.0243 37.9485 79.9881 37.9485 77.4765C37.9485 74.9648 35.9124 72.9289 33.4007 72.9289C30.8891 72.9289 28.853 74.9648 28.853 77.4765C28.853 79.9881 30.8891 82.0243 33.4007 82.0243Z" fill="#402DBA"/>
<path d="M109.416 151.477C109.416 151.477 128.078 157.226 134.24 145.586V114.058L111.23 116.733L109.428 151.477H109.416Z" fill="#66D1AA"/>
<path d="M129.362 110.453L111.313 116.733C115.554 119.042 123.389 119.207 129.834 116.898V110.383C129.669 110.383 129.504 110.418 129.362 110.453Z" fill="#402DBA"/>
<path d="M129.834 110.383V116.898C130.612 116.615 131.377 116.309 132.108 115.956C137.044 113.564 132.52 110.218 129.834 110.395V110.383Z" fill="#19635C"/>
<path d="M81.5642 23.8935C77.0401 22.9392 72.7398 22.6095 68.9932 22.6095C65.9182 23.175 63.1142 24.0349 60.5575 25.1189L60.3926 25.1778C64.9167 24.577 72.7398 24.0587 81.2108 25.8612C98.7301 29.5842 110.606 40.9416 116.497 59.6038C118.947 67.3561 119.183 91.0843 119.183 91.3199C119.183 91.8619 119.631 92.3097 120.173 92.3097C120.726 92.3097 121.162 91.8501 121.162 91.3081C121.162 90.3185 120.915 67.038 118.382 59.0029C110.747 34.8034 94.1353 26.5562 81.5407 23.8935H81.5642Z" fill="white"/>
</svg>
