<svg width="183" height="367" viewBox="0 0 183 367" fill="none" xmlns="http://www.w3.org/2000/svg">
<path d="M70.8985 30.6136C74.7746 7.12453 46.7922 -3.28924 34.9979 9.52056C22.5199 7.5294 12.3584 19.5427 14.1504 26.5118C-1.77887 41.9632 10.6128 74.22 34.6859 72.1227L70.8985 30.6136Z" fill="#DD5E23"/>
<path d="M34.998 9.52056C45.4848 11.5117 62.0513 17.598 70.8987 30.6136C74.7748 7.12453 46.7924 -3.28924 34.998 9.52056Z" fill="#D33C24"/>
<path d="M12.0068 60.7266C15.8564 66.574 21.7635 70.9612 29.1242 72.0099L66.193 28.5163C61.2947 27.6468 46.9783 32.4986 42.4251 38.1004C22.0821 42.9455 12.9825 55.2576 12.0068 60.7266Z" fill="#D33C24"/>
<path d="M95.1052 27.753C86.6361 14.3126 98.8353 -4.52376 117.234 1.46964C141.745 -9.20298 170.139 41.5318 135.539 48.096L95.1052 27.753Z" fill="#DD5E23"/>
<path d="M117.234 1.46966C106.123 -2.14762 97.289 3.28825 93.8841 11.1135C92.3974 15.9653 96.2404 24.1092 103.063 16.3171C115.01 2.66435 127.621 0.440889 127.94 0.387791C124.346 -0.379296 120.602 -0.000946827 117.234 1.46966Z" fill="#D33C24"/>
<path d="M102.426 30.9323L135.539 48.0961C148.992 45.5408 152.922 36.3085 151.256 26.6049C141.745 21.9323 106.68 23.1402 102.426 30.9323Z" fill="#D33C24"/>
<path d="M50.7157 113.598C50.7157 113.598 39.9369 112.862 34.3351 98.5453C34.3351 98.5453 27.293 99.5741 24.7244 89.4523C20.9545 74.5916 31.4346 47.8437 50.3772 38.9034C66.9304 31.0914 106.223 32.3856 124.183 48.9322C142.143 65.4787 143.125 72.6668 140.842 81.262C138.559 89.8572 133.229 98.0674 133.229 98.0674C133.229 98.0674 130.07 101.187 124.083 101.187C118.097 101.187 70.322 101.997 70.322 101.997L50.7157 113.598Z" fill="#D33C24"/>
<path d="M121.945 147.68C120.279 144.528 112.879 140.147 107.41 139.052C102.399 138.282 91.8191 137.884 82.8522 138.315C75.4034 138.94 68.2665 141.586 62.2105 145.968C47.1971 155.877 48.571 178.212 67.049 179.645C68.2794 184.65 70.0881 189.495 72.4384 194.081C61.8587 208.935 78.2526 230.387 100.925 224.612C113.928 221.294 118.985 204.468 117.14 190.132C121.627 178.616 127.335 157.869 121.945 147.68Z" fill="#D8C6B4"/>
<path d="M83.3238 130.072C78.3791 128.512 76.3348 138.335 81.8901 139.165L106.813 140.738C111.85 140.413 110.981 131.446 107.477 131.804C96.1203 132.262 93.2597 131.964 83.3238 130.072Z" fill="#E7DCCE"/>
<path d="M84.8438 131.18C93.6248 139.716 108.432 136.649 108.3 132.508L84.8438 131.18Z" fill="#E59383"/>
<path d="M39.7909 91.5232C39.6847 93.2555 39.5055 109.185 50.0852 114.594C57.7445 118.51 65.7158 115.138 65.7158 115.138C80.6694 112.862 76.5477 85.7687 61.5941 88.0453C57.6052 77.4058 39.8506 80.3395 39.7909 91.5232Z" fill="#FAC7B5"/>
<path d="M133.441 69.6137L131.795 94.6691C131.795 94.6691 130.368 107.213 125.35 117.043C120.081 127.357 110.994 134.924 100.162 135.501C86.0317 136.258 70.4807 125.897 64.6333 113.3C51.6244 108.654 39.5248 79.0717 54.2262 50.91C65.2041 29.8967 131.351 22.6953 133.441 69.6137Z" fill="#FAC7B5"/>
<path d="M94.4551 116.399C94.8068 116.519 95.1719 116.632 95.5569 116.731L97.3887 118.171L112.422 118.059L115.415 115.497C115.668 115.357 115.913 115.218 116.145 115.072C114.353 127.019 97.4219 127.417 94.4551 116.399Z" fill="#E46650"/>
<path d="M115.427 115.517C110.39 118.211 101.529 118.41 95.5557 116.758C96.9163 122.286 114.067 122.612 115.427 115.517Z" fill="white"/>
<path d="M121.88 101.379C121.409 101.466 116.511 102.534 117.898 109.344C118.98 114.654 127.057 113.28 128.04 110.671C129.112 107.745 129.959 104.74 130.575 101.685C130.781 100.304 129.732 99.4612 128.126 100.623C124.86 101.917 124.19 100.968 121.88 101.379Z" fill="#FA9D88"/>
<path d="M78.0607 103.782C75.8107 103.41 72.366 104.705 70.7 108.209C68.158 113.519 73.2421 119.95 82.647 119.459C92.7157 118.928 95.9613 111.966 94.0099 108.64C92.4834 106.045 88.3218 106.689 85.2223 106.649C82.5806 106.603 80.3174 104.147 78.0607 103.782Z" fill="#FA9D88"/>
<path d="M113.671 94.9413C120.222 86.1271 127.278 87.9789 129.866 93.5209C130.145 109.397 112.921 109.775 113.671 94.9413Z" fill="white"/>
<path d="M73.1089 98.4657C79.6598 89.6582 88.4408 88.5431 94.3479 94.5564C95.3966 109.344 78.7505 111.309 73.1089 98.4657Z" fill="white"/>
<path d="M113.378 94.8417C119.557 86.97 128.332 87.043 130.482 95.3129" stroke="#0D0C14" stroke-width="4" stroke-linecap="round" stroke-linejoin="round"/>
<path d="M72.7578 98.8174C79.853 88.2708 90.1473 88.4899 94.3685 94.5563" stroke="#0D0C14" stroke-width="4" stroke-linecap="round" stroke-linejoin="round"/>
<path d="M119.555 90.0031C116.821 95.7178 119.721 106.085 124.274 105.063C126.179 104.632 130.48 100.57 129.816 93.1757C128.164 89.2199 124.599 88.1115 119.555 90.0031Z" fill="#0D0C14"/>
<path d="M81.9904 91.3041C79.2957 99.6802 83.0524 106.975 86.882 106.722C90.7117 106.47 95.0192 102.076 94.5082 94.5895C92.8865 93.0022 90.8794 91.8646 88.6845 91.2885C86.4896 90.7124 84.1826 90.7178 81.9904 91.3041Z" fill="#0D0C14"/>
<path d="M111.12 78.4744C111.075 78.0511 111.185 77.6259 111.429 77.2771C111.673 76.9283 112.035 76.6794 112.448 76.5761C118.036 75.6005 131.457 75.2885 133.607 76.8283C133.607 78.6735 131.934 82.2178 128.476 82.012C124.487 81.7731 111.326 79.6757 111.12 78.4744Z" fill="#D33C24"/>
<path d="M69.6177 85.6028C69.6177 85.6028 73.8456 78.7001 77.4828 77.4324C82.0823 75.8328 90.7572 76.1779 93.7837 77.3063C94.109 77.4324 94.4475 78.3616 94.4475 78.7996C94.401 80.1138 82.2881 85.0784 69.6177 85.6028Z" fill="#D33C24"/>
<path d="M96.598 264.382C93.5515 273.456 96.6511 292.259 99.525 309.057C103.507 318.628 120.173 316.69 121.74 308.447C121.979 286.903 123.585 270.615 123.817 262.79C122.569 247.524 100.361 249.522 96.598 264.382Z" fill="#341B13"/>
<path d="M99.5254 309.058C100.972 318.695 102.267 327.695 102.778 333.834C102.963 342.675 113.397 346.445 117.718 344.248C120.91 342.622 123.174 338.998 122.298 334.12C121.952 324.94 121.634 316.352 121.74 308.447C118.959 312.336 107.025 311.308 102.379 308.195L99.5254 309.058Z" fill="#EADFD1"/>
<path d="M90.486 212.473C87.247 230.227 97.2028 256.511 96.8311 265.033C98.7758 284.672 122.504 279.635 123.811 262.484L122.152 219.588C121.468 192.216 92.4373 196.876 90.486 212.473Z" fill="#341B13"/>
<path d="M62.1183 264.502C57.3594 275.745 62.2378 292.677 65.4369 310.637C69.1338 320.128 85.5609 318.502 88.0034 309.715C88.5145 288.973 90.353 273.774 90.5853 266.022C90.9371 252.07 69.0476 245.559 62.1183 264.502Z" fill="#341B13"/>
<path d="M65.4434 310.65C66.8969 319.544 68.523 328.199 69.0341 335.361C69.7708 344.162 79.5474 346.598 84.5585 343.783C87.3129 342.237 88.6271 339.801 88.0497 335.653C87.5851 326.294 87.897 317.593 88.0497 309.728C84.3063 313.664 74.6292 312.814 68.304 309.622L65.4434 310.65Z" fill="#EADFD1"/>
<path d="M68.7822 202.723C65.7654 207.169 63.4528 212.054 61.926 217.205C57.0012 234.568 63.2534 256.511 62.0455 264.96C59.5764 280.982 87.4925 285.947 90.6717 265.929L94.601 223.411C98.3244 200.373 74.7092 195.608 68.7822 202.723Z" fill="#341B13"/>
<path d="M149.159 224.307C150.865 219.176 152.477 213.382 160.09 212.851C160.09 212.851 172.761 212.34 177.088 214.179C179.484 215.187 180.606 219.581 178.064 220.743C176.391 221.506 170.272 223.298 170.272 223.298C172.515 225.654 180.812 233.254 181.927 234.057C184.708 236.108 180.752 242.433 175.728 240.973C172.051 244.458 163.781 247.484 157.708 244.849C153.586 243.057 149.325 234.741 148.283 232.192C147.387 230.002 148.17 225.926 149.159 224.307Z" fill="#F7B7A4"/>
<path d="M167.981 223.823C165.165 224.572 162.266 224.967 159.353 224.997L157.627 228.88C161.769 228.23 165.492 225.694 167.981 223.823Z" fill="#FA9D88"/>
<path d="M165.499 232.491C166.203 235.809 170.503 239.247 173.835 239.738L165.499 232.491Z" fill="#E59383"/>
<path d="M159.146 238.862C159.843 242.181 161.755 242.904 165.087 243.396L159.146 238.862Z" fill="#E59383"/>
<path d="M152.921 175.059C163.879 188.413 174.16 201.429 174.16 201.429C171.505 213.376 147.339 226.65 137.171 223.789L121.832 198.82C110.868 180.448 139.726 160.397 152.921 175.059Z" fill="#D8C6B4"/>
<path d="M161.105 185.121C159.851 190.318 154.952 196.126 148.255 200.32C140.954 204.907 132.99 206.845 126.094 205.776L129.114 210.688C129.366 210.688 129.611 210.688 129.87 210.688C136.667 210.688 143.988 208.464 150.724 204.236C157.249 200.148 162.187 194.778 164.543 189.369C163.455 188.035 162.306 186.601 161.105 185.121Z" fill="#624339"/>
<path d="M128.264 147.11C131.895 149.864 142.707 162.608 152.921 175.059C165.306 191.413 131.855 214.557 121.819 198.82L110.37 180.17C95.3967 155.26 113.105 134.101 128.264 147.11Z" fill="#D8C6B4"/>
<path d="M118.627 193.603C132.923 190.909 143.848 178.683 147.286 168.229C146.045 166.736 144.811 165.269 143.609 163.842C142.123 173.015 131.364 187.484 115.985 189.309L118.627 193.603Z" fill="#624339"/>
<path d="M61.7061 143.904C75.3854 132.349 119.675 135.88 122.244 145.55C124.64 160.63 122.35 176.081 120.638 185.446C116.656 202.039 72.704 208.962 67.4075 184.026C52.0822 187.822 39.279 161.977 61.7061 143.904Z" fill="#E7DCCE"/>
<path d="M79.6006 138.256C89.9413 147.415 105.983 146.187 110.344 139.835" stroke="#624339" stroke-width="6" stroke-linecap="round" stroke-linejoin="round"/>
<path d="M99.492 145.298C113.702 147.289 113.065 161.838 104.981 163.942C101.238 164.917 96.6646 154.716 98.5694 146.021C98.0916 147.667 95.6955 159.959 93.0738 160.504C91.1491 160.889 85.0163 158.546 85.6667 153.614C86.3304 148.371 97.0163 141.707 97.6137 144.548" stroke="#624339" stroke-width="5" stroke-linecap="round" stroke-linejoin="round"/>
<path d="M16.3611 214.816C21.7637 214.703 27.7571 215.101 30.3987 220.345C30.3987 220.345 35.7882 231.827 35.7882 236.519C35.7882 239.121 32.1709 241.862 30.1133 239.971C28.7859 238.723 24.7372 233.778 24.7372 233.778C23.4098 236.758 19.6664 247.345 19.3412 248.692C18.5248 252.044 11.1575 250.856 10.5668 245.659C5.92074 243.615 -0.0527461 237.15 0.000351496 230.546C0.0534491 226.046 6.06676 218.898 8.01809 216.953C9.12506 215.937 10.4659 215.21 11.9214 214.838C13.3769 214.465 14.902 214.457 16.3611 214.816Z" fill="#F7B7A4"/>
<path d="M14.423 232.823C11.6354 234.754 10.1354 240.044 10.9716 243.309L14.423 232.823Z" fill="#E59383"/>
<path d="M6.11969 229.789C3.33206 231.721 3.40507 233.772 4.248 237.024L6.11969 229.789Z" fill="#E59383"/>
<path d="M27.4124 175.358C16.3549 188.897 5.31055 202.796 5.31055 202.796C7.5141 216.07 31.6403 227.699 41.8152 224.864L57.2068 200.645C67.9525 182.041 40.9722 161.313 27.4124 175.358Z" fill="#E7DCCE"/>
<path d="M50.6091 211.013L53.649 206.234C38.0515 207.701 22.4541 196.205 18.047 186.9L14.8877 190.822C20.6289 200.473 35.1245 210.893 50.6091 211.013Z" fill="#624339"/>
<path d="M51.6507 147.787C48.0599 150.501 37.4869 163.012 27.4116 175.358C13.3208 192.727 48.6507 214.743 57.1994 200.645L69.5446 180.847C84.4916 155.931 65.8277 135.787 51.6507 147.787Z" fill="#E7DCCE"/>
<path d="M63.8036 190.052C48.538 188.944 37.3344 175.238 35.1442 165.986C33.976 167.38 32.788 168.813 31.5933 170.26C33.4471 174.932 36.198 179.196 39.6907 182.811C45.7571 189.216 53.2571 193.258 61.0757 194.426L63.8036 190.052Z" fill="#624339"/>
<path d="M98.0514 337.763C98.0514 337.763 95.9209 341.965 96.3191 348.536C96.3921 351.19 115.567 360.224 128.005 360.376C139.667 360.595 144.319 355.73 144.837 354.887C145.282 352.677 145.892 346 142.501 343.04C138.844 339.847 128.005 337.564 128.005 337.564L123.718 334.166L98.0514 337.763Z" fill="#B74329"/>
<path d="M98.316 327.907C97.7319 329.746 97.4067 333.469 98.0173 337.757C101.716 340.251 106.074 341.585 110.535 341.586L111.989 337.863C108.006 334.996 106.951 328.803 106.168 324.927H102.185C101.304 324.934 100.448 325.229 99.7497 325.767C99.0511 326.305 98.5476 327.056 98.316 327.907Z" fill="#772615"/>
<path d="M96.2867 348.482C95.4239 348.741 94.4482 353.918 95.8553 355.12C100.229 358.883 120.878 365.182 128.889 365.221C138.778 365.275 144.878 360.204 145.814 358.365C146.849 356.374 146.59 350.182 144.884 347.825C144.969 349.783 144.856 351.744 144.546 353.679C144.546 353.679 139.714 359.301 128.782 359.082C107.802 356.573 96.2867 348.482 96.2867 348.482Z" fill="#772615"/>
<path d="M106.17 324.947C112.143 322.816 121.217 321.628 122.703 323.945C123.613 325.358 122.265 335.228 122.265 335.228L112.309 337.75C110.517 338.075 109.031 337.332 107.836 335.759C105.951 333.343 105.274 326.44 106.17 324.947Z" fill="#A09714"/>
<path d="M110.735 341.334C114.718 333.761 124.859 333.469 127.368 337.219C127.368 337.219 121.123 336.257 117.93 344.6" stroke="#331716" stroke-width="4" stroke-linecap="round" stroke-linejoin="round"/>
<path d="M64.0891 339.19C64.0891 339.19 61.9652 343.392 62.3568 349.963C62.4364 352.617 81.6445 361.651 94.0494 361.803C105.711 362.029 110.357 357.157 110.881 356.314C111.319 354.104 111.937 347.427 108.545 344.467C104.881 341.275 94.0494 338.998 94.0494 338.998L89.7618 335.593L64.0891 339.19Z" fill="#BE4F2D"/>
<path d="M64.3942 329.321C63.8102 331.159 63.4783 334.889 64.0889 339.17C67.7871 341.665 72.1459 342.998 76.6067 343L78.0669 339.29C74.0846 336.423 73.0292 330.23 72.246 326.354H68.2637C67.3834 326.359 66.5288 326.651 65.8302 327.187C65.1316 327.723 64.6273 328.472 64.3942 329.321Z" fill="#772615"/>
<path d="M62.357 349.87C61.4942 350.129 60.5185 355.306 61.9256 356.507C66.3062 360.27 86.9545 366.576 94.959 366.615C104.855 366.662 110.955 361.591 111.89 359.752C112.926 357.761 112.66 351.569 110.955 349.213C111.042 351.17 110.93 353.131 110.623 355.067C110.623 355.067 105.791 360.695 94.8528 360.469C73.8792 357.98 62.357 349.87 62.357 349.87Z" fill="#772615"/>
<path d="M72.2464 326.354C78.2199 324.23 87.2863 323.035 88.7797 325.358C89.689 326.766 88.335 336.642 88.335 336.642L78.3792 339.171C76.5938 339.489 75.1071 338.746 73.9124 337.179C72.0208 334.75 71.3504 327.847 72.2464 326.354Z" fill="#A09714"/>
<path d="M76.813 342.741C80.7953 335.168 90.937 334.876 93.4458 338.626C93.4458 338.626 87.2002 337.664 84.0011 346.007" stroke="#331716" stroke-width="4" stroke-linecap="round" stroke-linejoin="round"/>
<path d="M127.255 237.927C127.255 257.838 64.3809 257.838 64.3809 237.927C64.3809 208.059 71.0181 193.869 71.0181 193.869H118.859C118.859 193.869 127.255 207.999 127.255 237.927Z" fill="#E7452E"/>
<path d="M99.6642 214.331C98.4165 209.997 95.1974 204.76 90.8102 205.783C88.7792 206.254 83.5093 210.701 83.8412 215.134C84.2062 220.285 92.2107 227.081 99.6642 231.23V214.331Z" fill="#CE3C26"/>
<path d="M99.664 214.331C100.918 209.997 104.137 204.76 108.518 205.783C110.556 206.254 115.819 210.701 115.487 215.134C115.122 220.285 107.124 227.081 99.664 231.23C96.7237 225.276 96.9958 219.674 99.664 214.331Z" fill="#CE3C26"/>
<path d="M65.7485 141.315C67.7065 142.132 77.3105 156.163 72.618 185.446H80.4898C83.1911 160.988 78.6977 144.959 72.4056 138.873C71.9543 138.514 66.1932 140.512 65.7485 141.315Z" fill="#E7452E"/>
<path d="M114.366 139.829C114.366 139.829 120.273 162.86 112.667 185.446H120.632C120.632 185.446 127.415 159.933 122.052 144.588C121.548 142.809 116.218 139.981 114.366 139.829Z" fill="#E7452E"/>
<path d="M118.806 193.869H70.9652C69.6909 192.342 67.7395 186.946 67.7594 185.446C85.5139 181.962 120.897 182.453 120.638 185.446L118.806 193.869Z" fill="#CE3C26"/>
<path d="M85.0032 55.9013C84.97 61.9743 75.4257 80.0939 58.5141 84.2024C58.7597 90.8396 59.7154 102.169 63.2332 109.351C57.2016 108.288 51.7954 104.983 48.1004 100.098C48.1004 100.098 35.6091 106.032 33.1866 85.0718C30.8635 64.9611 41.2441 64.0651 41.2441 64.0651L85.0032 55.9013Z" fill="#D33C24"/>
<path d="M32.8749 78.169C38.9014 79.1314 46.9988 74.3062 49.2422 68.7973L45.3063 78.0894C55.7732 81.0894 73.1826 80.7443 85.5875 59.2928C85.358 63.3351 85.8755 67.3851 87.1141 71.2398C87.1141 71.2398 102.207 71.0274 108.884 57.6734C108.884 57.6734 117.3 78.5606 139.223 69.9323C135.605 76.3239 133.966 86.3461 133.249 98.0275C133.249 98.0275 148.389 89.3992 145.395 62.3592C142.415 35.4653 119.656 21.2816 84.4393 23.3391C58.9259 24.8723 25.2553 49.6291 32.8749 78.169Z" fill="#DD5E23"/>
<path d="M35.5363 60.6668C26.2442 66.0429 30.4256 78.9722 40.096 72.8261C43.8991 78.8461 60.9037 65.6248 50.3903 60.003C52.4014 50.1667 34.773 50.7242 35.5363 60.6668Z" fill="#F7E4B7"/>
<path d="M44.1838 66.231C45.8616 63.671 45.8274 60.682 44.1074 59.5547C42.3875 58.4275 39.6331 59.589 37.9553 62.149C36.2776 64.709 36.3118 67.6981 38.0317 68.8253C39.7517 69.9525 42.5061 68.791 44.1838 66.231Z" fill="#FAA235"/>
</svg>
