<svg width="198" height="198" viewBox="0 0 198 198" fill="none" xmlns="http://www.w3.org/2000/svg">
<path d="M98.1514 174.964C113.202 174.964 127.913 170.498 140.414 162.139C152.93 153.779 162.681 141.896 168.429 128.004C174.193 114.097 175.692 98.8147 172.756 84.0576C169.82 69.3005 162.573 55.7487 151.941 45.102C141.295 34.4553 127.743 27.2235 112.986 24.2876C98.2287 21.3516 82.9308 22.866 69.039 28.6143C55.1318 34.378 43.2644 44.1285 34.9046 56.6295C26.5448 69.146 22.0791 83.8412 22.0791 98.8919C22.0791 119.073 30.0989 138.419 44.3615 152.682C58.6241 166.944 77.9705 174.964 98.1514 174.964Z" fill="#FFB443"/>
<path d="M50.3105 84.3975C51.2531 81.5388 53.0611 79.0356 55.4871 77.2585C57.9595 75.4815 60.9264 74.5234 63.986 74.508C67.0455 74.508 70.0278 75.466 72.5157 77.2431C75.0035 79.0201 76.8888 81.5079 77.9086 84.3975" stroke="#D15950" stroke-width="12.3619" stroke-miterlimit="10" stroke-linecap="round"/>
<path d="M118.379 84.3975C119.322 81.5388 121.129 79.0356 123.555 77.2585C126.028 75.4815 128.995 74.5234 132.054 74.508C135.114 74.508 138.096 75.466 140.584 77.2431C143.072 79.0201 144.957 81.5079 145.977 84.3975" stroke="#D15950" stroke-width="12.3619" stroke-miterlimit="10" stroke-linecap="round"/>
<path d="M61.127 102.369C61.127 122.828 77.7074 139.408 98.151 139.408C118.595 139.408 135.175 122.828 135.175 102.369H61.127Z" fill="#D15950"/>
</svg>
