<svg width="236" height="317" viewBox="0 0 236 317" fill="none" xmlns="http://www.w3.org/2000/svg">
<path d="M226.861 176.406C232.592 173.879 235.666 168.635 235.666 168.635C230.486 165.375 224.361 165.492 224.361 165.492L226.981 157.44C217.625 157.489 212.931 165.698 212.931 165.698C194.387 167.966 184.811 162.789 170.799 146.248C157.891 131.01 147.445 135.088 142.474 139.835C131.115 150.681 140.251 166.726 145.886 172.094C174.428 199.282 215.425 180.517 215.425 180.517C224.452 188.397 233.434 182.512 233.434 182.512L226.861 176.406Z" fill="#6F568E"/>
<path d="M214.851 174.048C215.829 176.413 218.547 177.534 220.92 176.552C223.294 175.569 224.424 172.856 223.446 170.491C222.467 168.126 219.749 167.005 217.376 167.987C215.002 168.97 213.872 171.684 214.851 174.048Z" fill="#FAC002"/>
<path d="M133.823 9.17569C130.583 9.17569 127.586 10.1988 125.12 11.928C123.526 5.0954 117.411 0 110.094 0C103.316 0 97.572 4.37269 95.4935 10.4457C92.9823 6.73956 88.7377 4.3035 83.924 4.3035C76.322 4.3035 70.1517 10.3808 69.9756 17.9406C68.0457 16.9335 65.8563 16.3562 63.5289 16.3562C55.816 16.3562 49.5634 22.6088 49.5634 30.3215C49.5634 33.0911 50.3802 35.6654 51.7705 37.8366C44.8994 38.7117 39.583 44.5674 39.583 51.6766C39.583 57.8528 43.5965 63.0831 49.1539 64.9259C45.3356 67.4184 42.8067 71.7216 42.8067 76.6218C42.8067 84.3347 49.0588 90.5871 56.7723 90.5871C57.6147 90.5871 58.4352 90.4997 59.2367 90.3567C58.7505 91.8277 58.4779 93.3955 58.4779 95.0295C58.4779 103.259 65.1494 109.931 73.3792 109.931C81.609 109.931 88.2804 103.259 88.2804 95.0295L133.823 39.5528C142.211 39.5528 149.011 32.7525 149.011 24.3642C149.011 15.9759 142.212 9.17569 133.823 9.17569Z" fill="#7A5DA8"/>
<path d="M134.336 316.369H186.356L171.254 303.218C171.254 303.218 179.172 269.57 166.523 246.105C162.004 237.598 152.84 230.764 140.449 233.343C129.218 235.663 121.346 246.365 123.152 257.709C126.281 274.58 134.078 279.111 125.749 316.369L134.336 316.369Z" fill="#695087"/>
<path d="M171.252 303.22L165.702 316.369H186.356L171.252 303.22Z" fill="black"/>
<path d="M33.8372 231.528C33.018 231.004 31.9436 231.579 31.9212 232.551L31.5668 248.485L31.0146 248.842C29.1494 248.118 24.1914 245.264 21.4378 243.649C20.6004 243.157 19.552 243.773 19.5645 244.743L19.7155 256.145L19.402 256.325C19.0613 256.577 14.4873 254.479 11.7685 253.196C10.8919 252.782 9.90033 253.485 9.99788 254.449L10.8793 263.393L47.6934 239.596C47.6934 239.596 37.1512 233.645 33.8372 231.528Z" fill="#0D1013"/>
<path d="M164.738 248.662L164.415 108.572H70.4844L57.0232 224.886C56.1624 227.381 52.2384 235.972 37.3637 243.34C21.3095 251.293 11.1019 258.363 1.41176 267.545C-0.0557787 268.936 -0.297918 270.868 0.312242 272.452C0.968639 274.156 2.99957 274.496 5.16467 274.285C51.5743 269.752 164.738 248.662 164.738 248.662Z" fill="#FF647A"/>
<path d="M176.876 210.384C171.805 155.979 163.099 117.739 160.141 105.776H110.809C110.809 105.776 112.931 200.763 116.093 232.252C116.926 240.55 116.187 257.068 90.7788 257.804C87.4169 257.902 62.3535 260.037 56.8514 260.667C56.8431 260.667 56.8343 260.668 56.8268 260.668C36.9329 262.947 12.8044 266.718 0.329102 272.445C0.993516 274.117 2.62061 275.398 4.77528 275.244C22.4678 273.98 54.6462 272.136 69.4058 272.689C85.2061 273.512 107.47 276.259 116.093 275.863C124.783 275.464 183.054 276.661 176.876 210.384Z" fill="#FAC002"/>
<path d="M175.891 55.4697H126.382L72.6312 73.0374C72.6312 73.0374 71.8826 98.5901 70.4854 108.572C70.4854 108.572 83.3105 116.812 102.459 123.461C102.426 123.591 102.387 123.715 102.356 123.846C102.356 123.846 118.127 152.291 141.549 152.291C154.604 152.291 159.635 141.365 161.451 130.749C183.539 127.393 193.229 119.333 193.229 119.333C193.229 119.333 196.253 77.8284 175.891 55.4697Z" fill="#FF647A"/>
<path d="M190.69 52.8937C189.257 51.8056 187.517 51.2307 185.656 51.2307C183.689 51.2307 181.7 51.8951 179.908 53.07C179.81 48.2842 177.264 44.2325 173.122 42.9948C172.313 42.7529 171.472 42.6302 170.623 42.6302C165.881 42.6305 161.584 46.3479 159.93 51.8797C159.111 54.6188 159.074 57.4951 159.827 59.979L182.137 72.4338C185.474 72.4338 188.887 70.564 191.267 67.4325C195.075 62.4205 194.821 56.034 190.69 52.8937Z" fill="#FF647A"/>
<path d="M173.713 56.0002C174.74 52.5671 173.73 49.2336 171.459 48.5548C169.188 47.8759 166.515 50.1087 165.489 53.5419C164.463 56.975 165.472 60.3085 167.743 60.9874C170.014 61.6662 172.687 59.4334 173.713 56.0002Z" fill="#3C2257"/>
<path d="M186.646 63.9218C188.458 61.5368 188.696 58.668 187.177 57.5142C185.659 56.3604 182.959 57.3584 181.146 59.7434C179.334 62.1284 179.096 64.9971 180.615 66.151C182.133 67.3048 184.834 66.3068 186.646 63.9218Z" fill="#3C2257"/>
<path d="M90.0616 100.67C92.5966 100.67 94.6516 99.3559 94.6516 97.7346C94.6516 96.1133 92.5966 94.799 90.0616 94.799C87.5267 94.799 85.4717 96.1133 85.4717 97.7346C85.4717 99.3559 87.5267 100.67 90.0616 100.67Z" fill="#E24462"/>
<path d="M95.2001 92.8098C96.2544 92.8098 97.1091 91.9551 97.1091 90.9008C97.1091 89.8464 96.2544 88.9917 95.2001 88.9917C94.1457 88.9917 93.291 89.8464 93.291 90.9008C93.291 91.9551 94.1457 92.8098 95.2001 92.8098Z" fill="#E24462"/>
<path d="M85.6575 93.6013C87.3113 93.6013 88.6519 92.7286 88.6519 91.6521C88.6519 90.5756 87.3113 89.703 85.6575 89.703C84.0037 89.703 82.6631 90.5756 82.6631 91.6521C82.6631 92.7286 84.0037 93.6013 85.6575 93.6013Z" fill="#E24462"/>
<path d="M147.982 131.729C136.444 131.729 125.33 129.933 115.293 127.345C122.277 135.481 133.758 146.638 142.746 144.505C149.233 142.966 152.096 137.24 153.309 131.578C151.594 131.673 149.824 131.729 147.982 131.729Z" fill="#4A0006"/>
<path d="M142.744 144.506C146.078 143.714 148.448 141.812 150.137 139.386C141.088 134.05 132.415 135.251 125.874 137.921C131.423 142.476 137.508 145.748 142.744 144.506Z" fill="#8E010D"/>
<path d="M22.0366 205.811C20.9646 211.981 23.6265 217.446 23.6265 217.446C29.211 214.941 32.5071 209.777 32.5071 209.777L37.7588 216.42C42.9015 208.604 38.6694 200.148 38.6694 200.148C47.0561 183.454 56.6722 178.351 78.205 175.852C98.0431 173.55 100.436 162.595 99.2389 155.826C96.504 140.36 78.0842 139.075 70.4932 140.792C32.0453 149.487 24.9511 194.014 24.9511 194.014C13.3898 197.161 13.3115 207.899 13.3115 207.899L22.0366 205.811Z" fill="#6F568E"/>
<path d="M182.399 207.318C182.364 203.48 179.225 200.397 175.387 200.431L113.991 209.932C110.152 209.966 107.069 213.106 107.104 216.944C107.138 220.782 110.277 223.865 114.116 223.831C114.269 223.829 114.411 223.793 114.562 223.782C114.576 223.781 114.583 223.783 114.598 223.782C112.974 226.36 113.171 229.788 115.327 232.142C117.492 234.505 120.905 234.998 123.619 233.59C123.094 236.602 124.591 239.71 127.494 241.063C130.387 242.411 133.716 241.568 135.686 239.246C136.363 242.216 138.925 244.501 142.115 244.641C145.316 244.781 148.078 242.716 149.003 239.801C150.759 242.303 154.015 243.443 157.025 242.346C160.025 241.254 161.783 238.304 161.534 235.268C164.111 236.891 167.54 236.694 169.894 234.538C172.257 232.374 172.75 228.96 171.341 226.246C174.354 226.772 177.461 225.276 178.814 222.372C180.164 219.478 179.321 216.149 176.998 214.179C177.205 214.132 177.343 214.075 177.432 214.01C180.32 213.146 182.428 210.485 182.399 207.318Z" fill="#CDE9EB"/>
<path d="M174.715 189.849C166.347 193.114 145.913 199.252 117.407 199.301H117.097C89.6422 199.301 69.7432 193.51 61.04 190.154L59.8154 200.737C69.7531 204.334 88.1589 209.493 112.918 210.027C114.615 226.172 128.338 238.686 144.904 238.537C162.509 238.378 176.488 223.979 176.493 206.373C176.495 201.665 175.789 195.97 174.715 189.849Z" fill="#037A95"/>
<path d="M68.3946 36.2817C69.3792 34.1559 72.0719 30.2344 78.4573 30.5775C79.4275 30.6297 80.3255 30.0518 80.6515 29.1365C81.1262 27.8036 80.2389 26.3781 78.8323 26.2257C74.8469 25.7935 67.4656 26.2345 64.0936 34.4566C63.5251 35.8429 64.4926 37.3877 65.9882 37.4796L66.2995 37.4988C67.1802 37.5528 68.0236 37.0822 68.3946 36.2817Z" fill="#3C2257"/>
<path d="M115.678 19.2629C117.395 17.669 121.372 15.0605 127.151 17.7983C128.03 18.2144 129.079 18.0199 129.728 17.2964C130.673 16.2429 130.392 14.5874 129.148 13.9131C125.624 12.0027 118.626 9.61313 112.389 15.9438C111.337 17.0112 111.647 18.8075 112.996 19.4591L113.277 19.5949C114.072 19.9787 115.031 19.8632 115.678 19.2629Z" fill="#3C2257"/>
<path d="M87.1557 79.3752C97.1613 79.3752 105.272 71.2642 105.272 61.2586C105.272 51.253 97.1613 43.1419 87.1557 43.1419C77.1502 43.1419 69.0391 51.253 69.0391 61.2586C69.0391 71.2642 77.1502 79.3752 87.1557 79.3752Z" fill="white"/>
<path d="M124.63 69.7941C134.636 69.7941 142.747 61.6829 142.747 51.6774C142.747 41.6718 134.636 33.5607 124.63 33.5607C114.625 33.5607 106.514 41.6718 106.514 51.6774C106.514 61.6829 114.625 69.7941 124.63 69.7941Z" fill="white"/>
<path d="M87.1518 68.9994C91.4269 68.9994 94.8926 65.5338 94.8926 61.2587C94.8926 56.9836 91.4269 53.5179 87.1518 53.5179C82.8768 53.5179 79.4111 56.9836 79.4111 61.2587C79.4111 65.5338 82.8768 68.9994 87.1518 68.9994Z" fill="#0D1012"/>
<path d="M124.626 59.4182C128.902 59.4182 132.367 55.9525 132.367 51.6774C132.367 47.4024 128.902 43.9367 124.626 43.9367C120.351 43.9367 116.886 47.4024 116.886 51.6774C116.886 55.9525 120.351 59.4182 124.626 59.4182Z" fill="#0D1012"/>
<path d="M140.236 34.6677L139.687 29.01L134.996 31.0968C134.914 31.0564 134.831 31.0211 134.749 30.9816L133.212 23.6818L127.093 28.7914C119.554 28.0003 111.777 30.8776 106.599 37.1682C104.944 39.1804 103.7 41.392 102.821 43.6995C98.7118 40.1003 93.3448 37.9021 87.453 37.9021C79.3063 37.9021 72.1426 42.0789 67.9626 48.402L60.1289 49.88L64.7884 55.705C64.767 55.7932 64.7411 55.8798 64.721 55.9685L60.1289 58.2645L64.148 62.2839C64.6881 74.7044 74.8997 84.6158 87.4528 84.6158C97.4235 84.6158 105.911 78.3571 109.263 69.5633C109.443 69.721 109.605 69.8918 109.791 70.0452C119.751 78.2424 134.471 76.8136 142.668 66.8536C150.646 57.1608 149.482 42.9777 140.236 34.6677ZM87.4533 76.2313C79.1845 76.2313 72.481 69.5278 72.481 61.259C72.481 52.9901 79.1845 46.2866 87.4533 46.2866C95.7221 46.2866 102.426 52.9901 102.426 61.259C102.426 69.5278 95.7227 76.2313 87.4533 76.2313ZM136.195 61.5252C130.94 67.9098 121.505 68.8257 115.12 63.5711C108.735 58.3164 107.819 48.8807 113.074 42.4961C118.329 36.1114 127.764 35.1955 134.149 40.4502C140.534 45.7051 141.45 55.1405 136.195 61.5252Z" fill="#4F3575"/>
<path d="M82.3557 316.369H134.375L119.274 303.218C119.274 303.218 127.192 269.57 114.542 246.105C110.024 237.598 100.859 230.764 88.4688 233.343C77.2374 235.663 69.3657 246.365 71.1711 257.709C74.3004 274.58 82.0973 279.111 73.7689 316.369L82.3557 316.369Z" fill="#695087"/>
<path d="M119.271 303.22L113.722 316.369H134.375L119.271 303.22Z" fill="black"/>
</svg>
