<svg width="452" height="298" viewBox="0 0 452 298" fill="none" xmlns="http://www.w3.org/2000/svg">
<path d="M28.6316 0H422.556C438.358 0 451.188 12.8294 451.188 28.6316V268.464C451.188 284.266 438.358 297.095 422.556 297.095H28.6317C12.8294 297.095 0 284.266 0 268.464V28.6316C0 12.8294 12.8293 0 28.6316 0Z" fill="#C5EEFF"/>
<path d="M125.476 99.9103C107.534 99.9103 92.6288 112.867 89.5767 129.932H161.375C158.323 112.867 143.417 99.9103 125.476 99.9103Z" fill="white"/>
<path d="M0 37.2335V92.7444H53.2939C48.3628 65.1726 27.176 43.243 0 37.2335Z" fill="white"/>
<path d="M344.19 28.4173C344.19 28.4173 337.991 25.318 330.686 31.0741C323.38 36.8298 323.159 44.5785 323.159 44.5785C323.159 44.5785 317.618 26.2972 298.142 29.3029C281.264 31.9079 280.211 49.8916 280.211 49.8916C280.211 49.8916 265.21 51.2412 257.327 64.1661H451.188V28.6316C451.188 12.8187 438.369 0 422.556 0H350.408C340.206 12.5815 344.19 28.4173 344.19 28.4173Z" fill="white"/>
<path d="M187.476 202.898C185.558 197.548 182.312 192.772 178.043 189.022C180.806 183.623 181.853 177.507 181.046 171.495C180.042 163.501 175.906 156.231 169.545 151.285C164.031 146.995 157.235 144.761 150.314 144.89C150.757 143.278 151.019 141.59 151.027 139.839C151.077 129.141 142.445 120.428 131.747 120.378C127.567 120.359 123.7 121.679 120.524 123.916C118.932 104.039 102.354 88.3573 82.0492 88.2624C65.48 88.1853 51.2964 98.5115 45.6696 113.104C42.2732 107.61 36.224 103.925 29.289 103.893C22.3477 103.86 16.2505 107.488 12.8062 112.96C10.5463 105.737 5.97685 99.6338 0 95.2424V236.82L189.005 219.605C189.919 213.996 189.393 208.247 187.476 202.898Z" fill="#9CDC73"/>
<path d="M28.6317 297.095H422.556C438.369 297.095 451.188 284.276 451.188 268.464V221.833C406.406 197.971 319.107 195.254 218.747 195.254C127.793 195.254 47.573 197.488 0 215.669V268.464C0 284.276 12.8188 297.095 28.6317 297.095Z" fill="#7ECE37"/>
<path opacity="0.5" d="M215.731 265.436C186.699 265.436 163.164 270.889 163.164 277.615C163.164 284.341 186.699 289.794 215.731 289.794C244.763 289.794 268.299 284.342 268.299 277.615C268.299 270.889 244.763 265.436 215.731 265.436Z" fill="#23B760"/>
<path d="M212.724 74.8058C200.437 76.254 191.574 86.7392 192.928 98.2252C194.282 109.711 205.339 117.849 217.626 116.401C229.913 114.953 238.775 104.468 237.422 92.9815C236.068 81.4953 225.01 73.3578 212.724 74.8058Z" fill="#EF5A38"/>
<path d="M227.61 136.823C253.219 129.098 270.362 110.845 265.9 96.052C261.438 81.2592 237.061 75.5292 211.452 83.2535C185.843 90.9778 168.7 109.232 173.162 124.024C177.624 138.817 202.001 144.547 227.61 136.823Z" fill="#FF764C"/>
<path d="M239.13 148.755L238.094 151.549L227.805 144.944L244.244 171.915C245.789 182.415 252.657 191.431 258.722 201.314L266.334 198.629C257.888 176.687 249.17 156.453 239.13 148.755Z" fill="#FFC5C7"/>
<path d="M265.218 196.138L262.586 191.558L258.021 194.32L259.606 199.547L278.576 209.189C278.448 203.272 276.071 198.17 265.218 196.138Z" fill="#007B8C"/>
<path d="M271.627 203.188L259.903 193.387L258.83 193.587L257.892 200.038C256.441 206.402 263.667 213.987 265.591 212.713C267.515 211.439 263.605 206.279 263.605 206.279C268.515 205.722 277.039 213.783 278.994 211.845C281.246 209.136 271.627 203.188 271.627 203.188Z" fill="#007B8C"/>
<path d="M269.325 202.439C272.216 203.758 274.899 205.357 277.376 207.232C275.512 203.445 272.777 201.963 269.325 202.439Z" fill="#006E7A"/>
<path d="M215.175 93.3421C215.175 93.3421 207.119 87.9167 199.72 94.4931C192.322 101.07 199.72 113.2 193.308 123.065C190.275 127.731 188.726 135.651 194.918 139.931C194.918 139.931 193.764 135.052 196.885 132.886C199.987 145.949 219.97 144.442 227.801 140.113L242.796 115.538C255.455 98.2746 237.292 77.3508 215.175 93.3421Z" fill="#473685"/>
<path d="M221.373 147.548L230.845 147.69L232.056 137.079L221.658 136.866L221.373 147.548Z" fill="#FFC5C7"/>
<path d="M221.556 140.681C224.845 142.299 228.268 143.003 231.42 142.653L232.056 137.079L221.658 136.866L221.556 140.681Z" fill="#FBA7A9"/>
<path d="M242.36 150.894L238.902 151.94L232.956 170.725L241.962 181.74C241.962 181.74 256.229 175.215 255.455 167.805C251.391 161.156 247.153 155.094 242.36 150.894Z" fill="#7F47BA"/>
<path d="M225.791 206.057L224.375 257.855C229.555 259.063 236.127 259.224 239.547 256.802L249.943 189.653L215.225 190.645L225.791 206.057Z" fill="#378CF3"/>
<path d="M225.264 227.962C230.015 221.25 234.396 212.475 238.451 201.901L225.727 208.707L225.264 227.962Z" fill="#0084E6"/>
<path d="M234.194 119.35C236.733 113.735 240.211 112.438 242.798 116.409" stroke="#473685" stroke-width="0.5765" stroke-miterlimit="10"/>
<path d="M225.325 84.3631C225.325 84.3631 218.238 85.9834 215.175 93.3422L225.994 96.6182C225.994 96.6182 223.675 91.2608 225.325 84.3631Z" fill="#473685"/>
<path d="M241.831 91.7998C252.156 101.336 254.646 113.722 241.144 121.687C241.145 121.687 240.076 119.922 240.076 119.922C242.368 118.479 244.44 116.682 245.874 114.509C250.934 107.201 245.401 99.1506 239.663 94.1628C239.663 94.1628 241.831 91.7998 241.831 91.7998Z" fill="#473685"/>
<path d="M240.066 98.9745L209.448 101.35C206.53 108.078 207.239 116.21 209.008 124.753C218.071 146.837 249.216 150.532 244.113 115.163C244.113 108.828 242.882 103.638 240.066 98.9745Z" fill="#FFC5C7"/>
<path d="M232.062 119.258C232.295 120.16 232.531 121.046 233.011 121.691C233.471 122.37 234.117 122.632 235.011 123.152C236.297 123.888 236.417 125.521 235.22 126.369C234.334 127.012 233.328 127.197 232.366 127.066C233.167 126.525 233.941 126.076 234.428 125.501C235.433 124.435 233.851 124.063 233.159 123.383C231.941 122.422 231.703 120.615 232.062 119.258Z" fill="#FA8D9F"/>
<path d="M222.749 111.992C224.355 109.891 228.177 109.386 229.855 111.676C230.493 112.496 229.635 113.732 228.656 113.447C228.112 113.341 227.628 113.068 227.188 112.876C225.815 112.153 224.518 111.955 222.749 111.992Z" fill="#30236F"/>
<path d="M240.8 112.313C239.074 112.3 237.874 112.574 236.568 113.313C236.151 113.512 235.681 113.777 235.153 113.881C234.155 114.173 233.318 112.931 233.931 112.116C235.511 109.899 239.256 110.246 240.8 112.313Z" fill="#30236F"/>
<path d="M207.482 151.13C221.807 159.541 234.399 162.98 241.916 151.841C241.916 151.841 228.721 132.941 207.482 151.13Z" fill="#FFC5C7"/>
<path d="M212.118 99.3C205.866 98.9435 201.012 114.702 201.012 114.702L208.975 120.464C213.666 117.512 218.414 111.639 219.529 104.79C219.529 104.79 218.37 99.6562 212.118 99.3Z" fill="#473685"/>
<path d="M200.738 121.484C199.839 128.18 205.93 131.88 213.672 128.36C213.672 128.36 213.232 124.049 211.121 120.178C209.009 116.307 201.411 116.476 200.738 121.484Z" fill="#FFC5C7"/>
<path d="M211.219 97.2161C214.997 107.631 239.399 110.081 243.892 103.036L236.949 91.8046L211.219 97.2161Z" fill="#473685"/>
<path d="M216.47 104.06C220.155 107.602 225.212 109.26 231.427 109.327L223.211 100.338L216.47 104.06Z" fill="#473685"/>
<path d="M213.416 113.54L209.11 115.516C209.836 120.494 212.621 121.727 216.239 121.445C213.955 119.84 212.956 117.25 213.416 113.54Z" fill="#473685"/>
<path d="M238.005 128.213C238.005 128.213 234.887 129.777 232.507 130C230.067 130.229 225.956 128.602 225.956 128.602C225.333 128.614 224.856 128.777 224.592 129.218C223.641 130.802 226.845 134.005 232.02 133.97C237.195 133.935 239.694 130.239 239.025 128.795C238.828 128.368 238.482 128.212 238.005 128.213Z" fill="#2E2684"/>
<path d="M226.94 132.786C228.236 133.486 229.969 133.984 232.02 133.97C233.899 133.958 235.42 133.459 236.57 132.764C235.39 132.058 233.681 131.612 231.773 131.612C229.846 131.612 228.121 132.067 226.94 132.786Z" fill="#C0226E"/>
<path d="M226.156 128.605C227.139 129.755 229.416 130.928 231.908 130.928C234.657 130.928 236.85 129.583 237.66 128.239C236.509 128.379 234.773 129.122 232.619 129.323C230.276 129.543 227.783 128.648 226.156 128.605Z" fill="white"/>
<path d="M208.917 206.285L188.827 258.941C196.422 263.659 205.541 260.947 205.541 260.947L230.285 210.727C237.841 206.393 244.255 200.723 248.403 192.402L212.018 189.512C212.018 189.512 207.772 199.185 208.917 206.285Z" fill="#378CF3"/>
<path d="M205.371 154.069C205.371 154.069 188.118 170.639 187.046 176.292C185.865 184.949 205.132 197.358 205.132 197.358L208.782 191.79L199.62 176.292L210.528 165.402L205.371 154.069Z" fill="#FFC5C7"/>
<path d="M207.305 149.894C201.541 155.332 194.915 160.876 190.613 168.961C194.203 174.055 197.143 177.922 203.479 179.503L210.567 170.373L219.735 162.785L211.265 148.861L207.305 149.894Z" fill="#7F47BA"/>
<path d="M233.136 144.401C233.102 148.432 232.313 151.729 230.769 154.293C225.757 152.12 221.634 148.729 218.328 144.219C214.502 145.483 210.842 147.435 207.305 149.894C212.247 154.354 214.314 165.464 210.567 170.373C209.833 179.832 213.948 184.013 213.948 184.013C213.948 184.013 209.164 193.738 211.803 197.802C226.296 202.019 240.909 188.667 250.638 184.489C250.638 184.489 252.442 167.865 242.361 150.894C239.689 148.202 236.613 146.038 233.136 144.401Z" fill="#378CF3"/>
<path d="M233.136 144.401C232.751 147.714 230.769 154.293 230.769 154.293C230.769 154.293 222.052 147.848 218.329 144.219C217.109 144.622 215.909 145.102 214.722 145.638C219.604 151.138 221.1 160.709 221.1 160.709C228.578 161.122 235.36 160.961 241.213 160.036C241.213 160.036 239.344 152.409 236.585 146.286C235.482 145.597 234.335 144.965 233.136 144.401Z" fill="#7F47BA"/>
<path d="M213.947 184.013C213.14 185.446 212.447 187.358 211.856 189.482C226.689 191.869 239.688 192.157 249.943 189.653L250.638 184.49C238.975 185.981 226.795 186.115 213.947 184.013Z" fill="#0084E6"/>
<path d="M235.17 163.589C234.061 163.589 233.162 164.489 233.162 165.598C233.162 166.707 234.061 167.606 235.17 167.606C236.279 167.606 237.178 166.707 237.178 165.598C237.178 164.489 236.279 163.589 235.17 163.589Z" fill="#0084E6"/>
<path d="M236.317 174.683C237.426 174.683 238.326 173.783 238.326 172.674C238.326 171.565 237.426 170.666 236.317 170.666C235.208 170.666 234.309 171.565 234.309 172.674C234.309 173.783 235.208 174.683 236.317 174.683Z" fill="#0084E6"/>
<path d="M211.426 190.535C208.902 196.1 215.423 192.146 215.423 192.146C215.423 192.146 225.736 191.156 224.444 187.944C223.152 184.731 213.949 184.97 211.426 190.535Z" fill="#FBA7A9"/>
<path d="M213.902 189.649L209.333 189.958L207.521 190.081L203.87 196.019C208.773 202.438 213.284 199.001 217.356 196.703C219.867 195.286 222.262 198.354 223.071 195.97C223.881 193.585 218.5 193.39 216.46 193.752C219.492 191.995 224.817 194.906 225.787 191.943C227.081 187.991 219.945 185.724 213.902 189.649Z" fill="#FFC5C7"/>
<path d="M215.66 191.261C218.503 190.755 221.216 190.477 223.77 190.48C221.199 188.969 218.492 189.287 215.66 191.261Z" fill="#FBA7A9"/>
<path d="M239.992 114.318C237.929 114.08 235.447 115.638 235.11 119.731C235.11 119.731 236.664 121.282 239.392 121.086C241.648 120.925 242.424 119.729 242.424 119.729C244.148 117.4 242.609 114.619 239.992 114.318Z" fill="white"/>
<path d="M240.191 117.75C239.503 117.63 239.049 116.993 239.175 116.329C239.22 116.092 239.335 115.886 239.493 115.721C239.487 115.72 239.482 115.717 239.476 115.716C238.201 115.494 236.981 116.292 236.749 117.501C236.518 118.709 237.364 119.87 238.639 120.092C239.914 120.315 241.135 119.516 241.366 118.308C241.427 117.992 241.41 117.681 241.335 117.388C241.05 117.677 240.627 117.827 240.191 117.75Z" fill="#122D50"/>
<path d="M222.126 114.334C219.257 114.801 217.694 117.865 219.704 120.266C219.704 120.266 220.615 121.505 223.108 121.553C223.549 121.562 223.96 121.532 224.341 121.475C226.567 121.139 227.762 119.865 227.762 119.865C227.196 115.498 224.388 113.965 222.126 114.334Z" fill="white"/>
<path d="M224.642 118.078C223.905 117.949 223.417 117.266 223.553 116.554C223.601 116.3 223.725 116.078 223.894 115.902C223.887 115.901 223.882 115.898 223.876 115.897C222.509 115.658 221.2 116.515 220.952 117.811C220.704 119.106 221.611 120.35 222.978 120.589C224.346 120.828 225.655 119.971 225.902 118.676C225.967 118.337 225.95 118.004 225.869 117.689C225.564 117.999 225.109 118.16 224.642 118.078Z" fill="#122D50"/>
<path d="M193.372 241.796L187.948 261.892L181.136 269.008C175.437 270.688 172.386 272.341 172.307 273.962L172.142 276.301C172.142 276.301 182.545 284.973 195.141 276.122C199.041 275.959 201.525 273.137 203.553 270.925L204.637 266.277C203.767 266.851 213.013 248.579 213.013 248.579C208.063 243.706 201.375 241.675 193.372 241.796Z" fill="#5225A7"/>
<path d="M194.709 274.209C185.449 279.349 177.619 278.171 172.307 273.962L171.852 277.015C171.852 277.015 182.255 285.687 194.851 276.836C198.751 276.673 202.014 275.813 204.042 273.602L203.553 270.925C201.044 272.628 198.339 273.752 194.709 274.209Z" fill="#3D1898"/>
<path d="M206.394 248.044C205.113 248.044 204.074 249.083 204.074 250.364C204.074 251.646 205.113 252.685 206.394 252.685C207.676 252.685 208.715 251.646 208.715 250.364C208.715 249.083 207.676 248.044 206.394 248.044Z" fill="#3D1898"/>
<path d="M244.404 264.564L240.142 260.277L243.31 241.791C235.973 240.545 229.031 240.53 222.716 242.46L224.084 262.108C223.516 263.764 223.068 266.178 222.716 268.269C225.959 270.718 235.487 272.014 251.357 271.111L253.229 268.719C252.593 266.081 248.357 264.459 244.404 264.564Z" fill="#5225A7"/>
<path d="M253.229 268.719C242.988 270.079 232.821 269.829 222.716 268.269L222.075 271.857C232.563 273.188 243.548 273.296 254.011 272.204L253.229 268.719Z" fill="#3D1898"/>
<path d="M227.903 245.155C226.621 245.155 225.583 246.193 225.583 247.475C225.583 248.757 226.621 249.796 227.903 249.796C229.185 249.796 230.224 248.757 230.224 247.475C230.224 246.193 229.185 245.155 227.903 245.155Z" fill="#3D1898"/>
<path d="M227.805 83.5475L191.844 93.8315L195.558 117.699C210.532 102.931 229.233 95.5905 254.034 102.884L240.61 86.9094L227.805 83.5475Z" fill="#FF764C"/>
<path d="M196.5 100.338L189.347 104.833C193.769 106.233 195.52 103.835 196.5 100.338Z" fill="#EF5A38"/>
<path d="M205.914 99.4214L198.761 103.916C203.183 105.316 204.934 102.918 205.914 99.4214Z" fill="#EF5A38"/>
<path d="M251.375 90.531L244.221 95.0254C248.643 96.4258 250.395 94.0278 251.375 90.531Z" fill="#EF5A38"/>
<path d="M250.638 193.657L259.098 203.121L267.558 197.383L262.221 185.033C257.134 186.577 253.588 189.794 250.638 193.657Z" fill="#007B8C"/>
<path d="M238.916 184.76C238.916 184.76 233.63 180.684 232.769 186.047C231.909 191.41 234.309 201.901 234.309 201.901C239.125 201.699 243.324 200.304 246.359 196.013C246.631 180.824 242.747 181.25 238.916 184.76Z" fill="#007B8C"/>
<path d="M61.6719 82.2313V254.513H87.2464V82.2313L74.4591 65.9153L61.6719 82.2313Z" fill="#4EA8A1"/>
<path d="M36.0972 82.2313V254.513H61.6716V82.2313L48.8844 65.9153L36.0972 82.2313Z" fill="#119990"/>
<path d="M10.5229 82.2313V254.513H36.0976V82.2313L23.3103 65.9153L10.5229 82.2313Z" fill="#4EA8A1"/>
<path d="M10.5227 82.2313L0 68.8047V254.513H10.5227V82.2313Z" fill="#119990"/>
<path d="M282.016 289.104H314.993L325.546 242.222H271.463L282.016 289.104Z" fill="#A59EB3"/>
<path d="M298.504 248.321C313.439 248.321 325.546 245.591 325.546 242.222C325.546 238.854 313.439 236.123 298.504 236.123C283.57 236.123 271.463 238.854 271.463 242.222C271.463 245.591 283.57 248.321 298.504 248.321Z" fill="#8980A6"/>
<path d="M272.765 244.094C276.268 246.546 286.465 248.321 298.505 248.321C310.544 248.321 320.742 246.546 324.244 244.094C317.539 241.738 308.482 240.29 298.505 240.29C288.527 240.29 279.47 241.738 272.765 244.094Z" fill="#FFE988"/>
<path d="M298.505 292.823C307.611 292.823 314.993 291.158 314.993 289.104C314.993 287.05 307.611 285.385 298.505 285.385C289.398 285.385 282.016 287.05 282.016 289.104C282.016 291.158 289.398 292.823 298.505 292.823Z" fill="#A59EB3"/>
<path d="M323.622 250.901C323.021 250.901 322.534 251.388 322.534 251.989C322.534 252.416 321.363 253.792 316.019 255.025C311.352 256.1 305.13 256.693 298.499 256.693C291.869 256.693 285.647 256.1 280.979 255.025C275.635 253.792 274.465 252.416 274.465 251.989C274.465 251.388 273.978 250.901 273.377 250.901C272.776 250.901 272.289 251.388 272.289 251.989C272.289 254.156 275.048 255.89 280.49 257.145C285.313 258.257 291.709 258.87 298.499 258.87C305.29 258.87 311.685 258.257 316.508 257.145C321.95 255.89 324.71 254.156 324.71 251.989C324.71 251.388 324.223 250.901 323.622 250.901Z" fill="#9A91AD"/>
<path d="M322.889 254.12C322.297 254.12 321.817 254.6 321.817 255.192C321.817 255.623 320.682 257.013 315.496 258.244C310.967 259.32 304.929 259.912 298.494 259.912C292.058 259.912 286.02 259.32 281.491 258.244C276.306 257.013 275.17 255.623 275.17 255.192C275.17 254.6 274.69 254.12 274.098 254.12C273.505 254.12 273.025 254.6 273.025 255.192C273.025 257.346 275.707 259.076 280.995 260.331C285.682 261.444 291.896 262.057 298.494 262.057C305.091 262.057 311.305 261.444 315.992 260.331C321.28 259.076 323.962 257.346 323.962 255.192C323.962 254.6 323.482 254.12 322.889 254.12Z" fill="#9A91AD"/>
<path d="M316.218 284.313C315.646 284.313 315.178 284.76 315.147 285.324C314.57 286.31 308.603 288.032 298.504 288.032C288.405 288.032 282.439 286.31 281.862 285.324C281.83 284.761 281.363 284.313 280.791 284.313C280.199 284.313 279.719 284.793 279.719 285.385C279.719 287.03 281.638 288.199 285.759 289.064C289.175 289.782 293.701 290.177 298.504 290.177C303.307 290.177 307.834 289.782 311.25 289.064C315.371 288.199 317.29 287.031 317.29 285.385C317.29 284.793 316.81 284.313 316.218 284.313Z" fill="#9A91AD"/>
<path d="M307.28 242.531C305.088 242.531 303.311 244.308 303.311 246.5V250.469H311.25V246.5C311.25 244.308 309.473 242.531 307.28 242.531Z" fill="#A59EB3"/>
<path d="M288.733 230.921C286.541 230.921 284.764 232.698 284.764 234.89V238.859H292.703V234.89C292.703 232.698 290.926 230.921 288.733 230.921Z" fill="#8980A6"/>
<path d="M307.316 245.244C306.71 245.244 306.218 245.736 306.218 246.342C306.218 246.948 306.71 247.44 307.316 247.44C307.923 247.44 308.414 246.949 308.414 246.342C308.414 245.736 307.923 245.244 307.316 245.244Z" fill="#8980A6"/>
<path d="M308.164 245.64C307.776 245.172 307.083 245.107 306.615 245.494C306.147 245.882 306.081 246.576 306.469 247.044L307.001 247.686C307.506 248.296 307.522 249.161 307.041 249.789L297.368 262.421C294.281 266.453 289.132 268.151 284.252 266.747L276.26 264.448C275.486 264.226 274.866 263.672 274.558 262.929C274.25 262.186 274.295 261.356 274.684 260.651L275.343 259.457L275.837 258.561L274.007 257.338L272.757 259.589C272.043 260.883 271.959 262.408 272.525 263.772C273.092 265.137 274.231 266.154 275.651 266.563L283.644 268.862C284.985 269.248 286.343 269.435 287.684 269.435C292.098 269.435 296.322 267.406 299.115 263.759L308.788 251.127C309.897 249.679 309.859 247.687 308.696 246.283L308.164 245.64Z" fill="#8980A6"/>
<path d="M284.946 264.856L277.479 262.868C276.008 262.476 274.497 263.352 274.106 264.823C273.714 266.294 274.589 267.805 276.06 268.197L283.527 270.184C284.999 270.576 286.509 269.701 286.901 268.23C287.292 266.758 286.417 265.248 284.946 264.856Z" fill="#89347B"/>
<path d="M288.999 233.741C288.103 233.741 287.376 234.467 287.376 235.364C287.376 236.26 288.103 236.987 288.999 236.987C289.896 236.987 290.622 236.26 290.622 235.364C290.622 234.467 289.895 233.741 288.999 233.741Z" fill="#A59EB3"/>
<path d="M449.29 18.3802H440.904V59.3274H451.188V28.6316C451.188 25.0178 450.512 21.564 449.29 18.3802Z" fill="#8C819C"/>
<path d="M436.153 11.3039V25.3879H451C450.407 20.13 448.391 15.3044 445.345 11.3039H436.153Z" fill="#119990"/>
<path d="M293.69 106.32H287.751V215.627H293.69V106.32Z" fill="#827698"/>
<path d="M294.944 125.214H281.813V129.611H294.944V125.214Z" fill="#8C819C"/>
<path d="M294.944 183.749H281.813V188.146H294.944V183.749Z" fill="#8C819C"/>
<path d="M283.924 217.024V222.566L293.69 219.062V215.627H287.751L283.924 217.024Z" fill="#827698"/>
<path d="M386.202 128.58L451.188 128.93V56.5105H402.896L386.202 128.58Z" fill="#119990"/>
<path d="M446.975 56.5105H443.609L451.188 118.244V90.8316L446.975 56.5105Z" fill="#4EA8A1"/>
<path d="M419.393 56.5105L428.433 129.611H431.798L422.758 56.5105H419.393Z" fill="#4EA8A1"/>
<path d="M451.188 128.58H386.202V134.764H451.188V128.58Z" fill="#EDEEEC"/>
<path d="M375.974 37.2737L294.944 95.2592V216.726H451.188V91.0531L375.974 37.2737Z" fill="#659FFF"/>
<path opacity="0.5" d="M451.188 156.861H301.881V163.949H451.188V156.861Z" fill="#398CF9"/>
<path opacity="0.5" d="M451.188 145.317H301.881V152.405H451.188V145.317Z" fill="#398CF9"/>
<path opacity="0.5" d="M451.188 90.3015H301.881V97.3896H451.188V90.3015Z" fill="#398CF9"/>
<path opacity="0.5" d="M451.188 186.26H301.881V193.348H451.188V186.26Z" fill="#398CF9"/>
<path d="M307.279 109.327H294.944V202.353H307.279V109.327Z" fill="#398CF9"/>
<path d="M451.188 109.327H444.735V202.353H451.188V109.327Z" fill="#398CF9"/>
<path d="M451.188 193.367H294.35V222.566H451.188V193.367Z" fill="#8C819C"/>
<path d="M451.188 42.5639H447.304V46.8235H451.188V42.5639Z" fill="#827698"/>
<path d="M451 25.3879H440.904V31.5713H451.188V28.6316C451.188 27.5342 451.12 26.4532 451 25.3879Z" fill="#827698"/>
<path d="M277.128 119.512H451.188V104.826H293.53L277.128 119.512Z" fill="#119990"/>
<path d="M444.734 147.192V154.195L451.187 160.648V153.645L444.734 147.192Z" fill="#1481EB"/>
<path d="M444.734 161.29V168.293L451.187 174.746V167.743L444.734 161.29Z" fill="#1481EB"/>
<path d="M294.944 141.179L307.279 153.515V146.512L294.944 134.177V141.179Z" fill="#1481EB"/>
<path d="M294.944 155.277L307.279 167.613V160.61L294.944 148.274V155.277Z" fill="#1481EB"/>
<path d="M447.443 125.44C446.518 125.44 445.769 126.189 445.769 127.113V129.998C445.769 130.923 446.518 131.672 447.443 131.672H451.188V125.44H447.443Z" fill="#98C4E1"/>
<path d="M375.974 29.2354L271.189 112.023L277.128 119.512L375.974 43.3196L451.188 100.758V87.1493L375.974 29.2354Z" fill="#4EA8A1"/>
<path d="M356.628 135.577H334.698V173.023H356.628V135.577Z" fill="#594EBA"/>
<path d="M356.158 137.223V170.69H336.778V137.223H356.158ZM360.846 132.534H332.089V175.378H360.846V132.534Z" fill="#EDEEEC"/>
<path d="M332.936 146.551H360.846" stroke="#EDEEEC" stroke-width="5.24" stroke-miterlimit="10"/>
<path d="M346.468 174.281V146.551" stroke="#EDEEEC" stroke-width="5.24" stroke-miterlimit="10"/>
<path d="M336.819 170.677H332.089V181.11H334.462C335.764 181.11 336.819 180.054 336.819 178.753V170.677Z" fill="#EDEEEC"/>
<path d="M358.473 178.765L358.463 173.022H358.502V178.765H358.473Z" fill="#7468B1"/>
<path d="M360.846 170.677H356.116V178.753C356.116 180.054 357.171 181.11 358.473 181.11H360.846V170.677Z" fill="#EDEEEC"/>
<path d="M330.688 135.219C330.44 135.219 330.237 135.017 330.237 134.769V134.441H362.698V134.769C362.698 135.017 362.496 135.219 362.248 135.219H330.688Z" fill="#7468B1"/>
<path d="M364.604 132.534H328.331V134.769C328.331 136.071 329.386 137.126 330.687 137.126H362.248C363.549 137.126 364.604 136.071 364.604 134.769V132.534Z" fill="#EDEEEC"/>
<path d="M346.468 127.046L332.459 132.534L346.468 134.83V127.046Z" fill="#EDEEEC"/>
<path d="M346.468 127.046V134.83L360.476 132.534L346.468 127.046Z" fill="#EDEEEC"/>
<path d="M346.468 130.213C345.185 130.213 344.146 131.252 344.146 132.534C344.146 133.817 345.185 134.856 346.468 134.856C347.75 134.856 348.789 133.817 348.789 132.534C348.789 131.252 347.75 130.213 346.468 130.213Z" fill="#1481EB"/>
<path d="M340.57 132.125C339.816 132.125 339.205 132.736 339.205 133.491C339.205 134.245 339.816 134.856 340.57 134.856C341.324 134.856 341.936 134.245 341.936 133.491C341.936 132.737 341.324 132.125 340.57 132.125Z" fill="#1481EB"/>
<path d="M352.365 134.856C353.119 134.856 353.731 134.245 353.731 133.491C353.731 132.736 353.119 132.125 352.365 132.125C351.611 132.125 351 132.736 351 133.491C351 134.245 351.611 134.856 352.365 134.856Z" fill="#1481EB"/>
<path d="M415.706 135.577H393.776V173.023H415.706V135.577Z" fill="#594EBA"/>
<path d="M415.236 137.223V170.69H395.856V137.223H415.236ZM419.924 132.534H391.167V175.378H419.924V132.534Z" fill="#EDEEEC"/>
<path d="M392.014 146.551H419.924" stroke="#EDEEEC" stroke-width="5.24" stroke-miterlimit="10"/>
<path d="M405.546 174.281V146.551" stroke="#EDEEEC" stroke-width="5.24" stroke-miterlimit="10"/>
<path d="M395.897 170.677H391.167V181.11H393.54C394.842 181.11 395.897 180.054 395.897 178.753V170.677Z" fill="#EDEEEC"/>
<path d="M417.551 178.765L417.542 173.022H417.58V178.765H417.551Z" fill="#7468B1"/>
<path d="M419.924 170.677H415.194V178.753C415.194 180.054 416.249 181.11 417.551 181.11H419.924V170.677Z" fill="#EDEEEC"/>
<path d="M389.766 135.219C389.518 135.219 389.316 135.017 389.316 134.769V134.441H421.776V134.769C421.776 135.017 421.574 135.219 421.326 135.219H389.766Z" fill="#7468B1"/>
<path d="M423.683 132.534H387.409V134.769C387.409 136.071 388.464 137.126 389.766 137.126H421.326C422.628 137.126 423.683 136.071 423.683 134.769V132.534Z" fill="#EDEEEC"/>
<path d="M405.546 127.046L391.538 132.534L405.546 134.83V127.046Z" fill="#EDEEEC"/>
<path d="M405.546 127.046V134.83L419.554 132.534L405.546 127.046Z" fill="#EDEEEC"/>
<path d="M405.546 130.213C404.264 130.213 403.224 131.252 403.224 132.534C403.224 133.817 404.264 134.856 405.546 134.856C406.828 134.856 407.868 133.817 407.868 132.534C407.868 131.252 406.828 130.213 405.546 130.213Z" fill="#1481EB"/>
<path d="M399.648 134.856C400.403 134.856 401.014 134.245 401.014 133.491C401.014 132.736 400.403 132.125 399.648 132.125C398.894 132.125 398.283 132.736 398.283 133.491C398.283 134.245 398.894 134.856 399.648 134.856Z" fill="#1481EB"/>
<path d="M411.443 134.856C412.198 134.856 412.809 134.245 412.809 133.491C412.809 132.736 412.198 132.125 411.443 132.125C410.689 132.125 410.078 132.736 410.078 133.491C410.078 134.245 410.689 134.856 411.443 134.856Z" fill="#1481EB"/>
<path d="M382.99 64.1373H369.023V81.879H382.99V64.1373Z" fill="#594EBA"/>
<path d="M379.078 67.8397V78.1765H372.936V67.8397H379.078ZM383.766 63.1515H368.248V82.8648H383.766V63.1515Z" fill="#EDEEEC"/>
<path d="M422.089 234.32H451.187V209.225C450.72 209.202 450.251 209.189 449.778 209.189C435.321 209.189 423.442 220.217 422.089 234.32Z" fill="#23B760"/>
<path d="M120.018 277.651C106.052 277.651 93.9358 285.537 87.8569 297.095H152.179C146.1 285.537 133.984 277.651 120.018 277.651Z" fill="#009044"/>
<path opacity="0.5" d="M143.911 255.637C128.415 255.637 115.854 258.362 115.854 261.723C115.854 265.084 128.415 267.808 143.911 267.808C159.406 267.808 171.968 265.084 171.968 261.723C171.968 258.362 159.406 255.637 143.911 255.637Z" fill="#23B760"/>
<path d="M162.476 172.744C160.784 171.835 158.603 172.604 157.604 174.462C156.605 176.321 157.167 178.564 158.858 179.474C160.55 180.383 162.731 179.614 163.73 177.755C164.729 175.897 164.167 173.653 162.476 172.744Z" fill="#F14A62"/>
<path d="M145.965 168.11C144.302 169.638 144.777 172.859 147.024 175.304C149.272 177.75 152.441 178.495 154.104 176.967C155.766 175.439 155.292 172.218 153.044 169.772C150.797 167.327 147.627 166.582 145.965 168.11Z" fill="#F14A62"/>
<path d="M146.568 172.177C143.071 170.202 139.248 170.351 138.031 172.508C136.813 174.664 138.662 178.014 142.159 179.988C145.657 181.962 149.48 181.814 150.697 179.657C151.915 177.5 150.066 174.151 146.568 172.177Z" fill="#F14A62"/>
<path d="M156.238 168.025C154.048 167.962 152.212 170.011 152.137 172.603C152.061 175.195 153.775 177.348 155.965 177.412C158.155 177.475 159.991 175.426 160.066 172.834C160.141 170.242 158.427 168.089 156.238 168.025Z" fill="#F14A62"/>
<path d="M151.93 259.874L144.18 246.598L142.139 247.335L149.615 259.874C149.615 259.874 145.223 257.933 143.335 261.872H164.322C160.354 256.734 151.93 259.874 151.93 259.874Z" fill="#E17D2C"/>
<path d="M135.024 259.874L131.819 246.598L129.778 247.335L132.709 259.874C132.709 259.874 128.317 257.933 126.429 261.872H147.415C143.448 256.734 135.024 259.874 135.024 259.874Z" fill="#E17D2C"/>
<path d="M135.676 243.861C137.612 246.698 141.579 251.646 144.947 250.325C146.611 249.673 147.928 246.422 148.459 244.895C148.46 244.894 148.461 244.891 148.461 244.889C149.902 238.869 156.664 233.579 157.677 232.863L141.8 234.958L135.676 243.861Z" fill="#00204D"/>
<path d="M161.13 200.871C158.011 195.681 157.388 191.292 157.308 186.741C163.906 186.632 162.799 181.359 159.578 178.618C151.235 171.518 139.762 178.936 135.795 203.758L116.208 211.755L113.039 213.915C107.525 220.623 107.991 236.226 124.803 240.827C125.57 244.174 127.457 250.229 131.074 250.229C132.862 250.229 134.694 248.596 136.327 246.456C136.328 246.454 136.329 246.453 136.331 246.451C144.278 235.695 163.164 236.498 167.696 220.994C169.42 215.097 168.55 210.2 166.732 205.909C165.981 204.135 162.089 202.465 161.13 200.871Z" fill="#003B53"/>
<path d="M159.578 178.618C151.235 171.517 139.384 178.819 135.417 203.641L140.352 211.556C149.384 218.679 160.34 214.194 161.642 208.536C161.642 208.536 162.792 210.997 162.063 213.403C166.732 211.075 166.732 205.908 166.732 205.908C163.537 198.364 157.413 192.69 157.308 186.741C163.907 186.632 162.799 181.359 159.578 178.618Z" fill="#A0264A"/>
<path d="M156.058 185.485C156.058 185.485 153.178 191.326 154.162 195.805C155.513 201.95 162.761 203.323 164.781 200.169C167.696 195.618 159.388 192.592 159.388 187.882L156.058 185.485Z" fill="#F14A62"/>
<path d="M155.731 173.772C151.753 173.772 148.528 176.997 148.528 180.975C148.528 184.953 151.753 188.178 155.731 188.178C159.709 188.178 161.374 183.945 161.374 179.968C161.374 175.99 159.709 173.772 155.731 173.772Z" fill="#F14A62"/>
<path d="M161.357 185.634L157.178 185.335C159.585 192.087 165.21 191.411 165.21 191.411C165.21 191.411 162.333 189.162 161.357 185.634Z" fill="#E17D2C"/>
<path d="M158.799 185.205L156.058 185.485C158.307 191.816 165.21 191.411 165.21 191.411C165.21 191.411 160.67 190.674 158.799 185.205Z" fill="#FFE988"/>
<path d="M157.988 176.074C155.519 174.912 152.574 175.971 151.412 178.441C150.25 180.911 151.31 183.855 153.779 185.017C156.249 186.18 159.193 185.12 160.355 182.65C161.518 180.18 160.458 177.236 157.988 176.074Z" fill="#F14A62"/>
<path d="M158.873 181.688C159.505 180.037 158.679 178.187 157.028 177.555C155.378 176.923 153.527 177.749 152.895 179.4C152.263 181.05 153.089 182.901 154.74 183.533C156.391 184.165 158.241 183.339 158.873 181.688Z" fill="white"/>
<path d="M156.601 178.877C156.008 178.618 155.355 178.708 154.859 179.05C154.989 179.103 155.11 179.182 155.212 179.29C155.594 179.697 155.574 180.337 155.167 180.719C154.88 180.99 154.477 181.055 154.13 180.928C154.254 181.466 154.616 181.942 155.161 182.179C156.073 182.577 157.135 182.16 157.533 181.248C157.93 180.336 157.513 179.274 156.601 178.877Z" fill="#010105"/>
<path d="M161.375 179.701C161.375 179.701 161.38 185.035 156.058 185.485C161.155 188.472 163.273 182.815 170.27 185.553C170.27 185.553 168.301 180.975 161.375 179.701Z" fill="#FFE988"/>
<path d="M78.1123 179.877C101.192 182.212 104.333 196.373 104.333 196.373C104.333 196.373 87.6653 185.821 78.1289 199.979C91.1391 196.573 97.588 202.942 97.588 202.942C83.9941 201.223 73.1864 217.828 84.9494 232.323C84.9494 232.323 84.038 224.466 90.0728 220.884C87.6154 229.268 94.4241 235.089 94.4241 235.089C91.4403 225.626 100.273 217.335 108.809 220.889L119.483 210.949C124.757 180.504 89.5658 171.542 78.1123 179.877Z" fill="#00204D"/>
<path d="M112.68 212.099C106.987 217.126 101.99 226.692 106.284 228.713C106.312 228.726 106.339 228.732 106.367 228.744C106.73 228.92 107.133 229.027 107.563 229.027C108.055 229.027 108.51 228.888 108.91 228.662C108.952 230.149 110.164 231.344 111.66 231.344C112.249 231.344 112.791 231.156 113.239 230.842L120.867 217.683C123.776 211.77 132.035 208.391 134.483 207.96C134.727 207.917 122.513 203.416 112.68 212.099Z" fill="#A0264A"/>
<path d="M139.073 200.871C134.791 200.871 131.444 202.959 128.776 206.328C123.044 213.569 108.175 236.991 108.175 236.991C124.995 238.812 151.515 230.079 151.515 213.313C151.515 206.441 145.944 200.871 139.073 200.871Z" fill="#DE553E"/>
<path d="M115.853 225.098C111.632 231.547 108.175 236.991 108.175 236.991C120.335 238.307 137.558 234.105 146.172 225.343C141.789 227.936 136.68 229.429 131.219 229.429C125.587 229.429 120.325 227.843 115.853 225.098Z" fill="#C23B40"/>
<path d="M120.964 217.385C119.25 219.935 117.494 222.592 115.854 225.098C120.326 227.844 125.587 229.429 131.219 229.429C136.665 229.429 141.762 227.942 146.136 225.363C147.512 223.967 148.677 222.459 149.561 220.835C146.099 222.267 142.307 223.061 138.328 223.061C131.831 223.061 125.831 220.951 120.964 217.385Z" fill="#E17D2C"/>
<path d="M249.181 19.931C238.964 19.931 230.475 27.3097 228.737 37.0284H269.625C267.887 27.3097 259.399 19.931 249.181 19.931Z" fill="white"/>
<path d="M203.382 44.5969C203.382 44.5969 196.685 28.2839 178.456 24.0619C158.66 19.4774 153.207 33.6233 153.207 33.6233C153.207 33.6233 145.644 11.6193 117.186 11.3059C93.9758 11.0501 94.8405 35.1626 94.8405 35.1626C94.8405 35.1626 76.8173 35.174 78.2457 52.3925C78.2928 52.9611 78.3743 53.5481 78.4711 54.1426H230.095C226.892 42.4124 203.382 44.5969 203.382 44.5969Z" fill="white"/>
<path d="M344.715 218.569L342.031 271.662C355.906 278.962 376.044 278.962 389.919 271.662L386.341 218.569H344.715Z" fill="#89347B"/>
<path d="M365.528 213.548C354.033 213.548 344.715 215.796 344.715 218.569C344.715 221.342 354.033 223.59 365.528 223.59C377.022 223.59 386.34 221.342 386.34 218.569C386.34 215.796 377.022 213.548 365.528 213.548Z" fill="#9C3F91"/>
<path d="M343.951 233.689L343.44 243.796C355.749 251.811 363.151 262.766 366.077 277.134C369.087 277.129 372.094 276.888 375.033 276.425C372.844 265.015 368.167 255.224 361.049 247.226C356.369 241.968 350.7 237.481 343.951 233.689Z" fill="#7A2770"/>
<path d="M357.743 251.225L364.245 257.371C370.866 250.365 378.71 245.195 387.904 241.769L387.284 232.564C375.715 236.452 365.823 242.675 357.743 251.225Z" fill="#7A2770"/>
<path d="M364.7 197.383L351.567 204.765C352.74 206.833 354.723 210.987 354.911 216.569C354.934 217.262 354.919 217.923 354.89 218.569H374.993C378.904 215.407 381.321 212.08 382.604 210.078C380.232 209.595 376.007 208.407 371.736 205.208C368.068 202.46 365.883 199.366 364.7 197.383Z" fill="#B7D7F1"/>
<path d="M421.932 159.482C420.673 159.231 401.86 167.25 396.374 171.131C390.889 175.013 383.704 183.978 375.041 182.776C372.669 182.447 360.339 191.704 360.339 191.704L364.91 199.837C364.91 199.837 372.762 193.347 378.824 191.058C384.885 188.77 391.026 186.21 396.431 181.774C403.195 176.223 416.148 170.168 423.218 170.579C429.038 170.918 423.191 159.733 421.932 159.482Z" fill="#89347B"/>
<path d="M364.7 197.383L351.567 204.765C352.74 206.833 354.723 210.987 354.911 216.569C354.934 217.26 354.924 217.925 354.895 218.569H371.027C374.775 216.083 377.895 212.986 380.295 209.5C377.931 208.799 374.848 207.539 371.736 205.208C368.068 202.46 365.883 199.366 364.7 197.383Z" fill="#98C4E1"/>
<path d="M361.397 193.587L364.91 199.837C364.91 199.837 368.291 197.043 372.328 194.475C371.676 193.792 370.854 193.16 369.82 192.699C367.132 191.501 363.941 191.869 361.397 193.587Z" fill="#7B3174"/>
<path d="M405.946 171.081C403.588 170.501 401.611 169.695 400.05 168.923C398.554 169.734 397.282 170.489 396.375 171.131C390.89 175.013 383.705 183.978 375.041 182.776C379.081 185.127 384.677 183.808 394.627 178.522C399.723 175.815 403.936 175.215 406.837 175.273C408.275 174.564 409.742 173.906 411.199 173.319C412.705 172.713 414.148 172.216 415.503 171.796C413.151 172.009 409.796 172.03 405.946 171.081Z" fill="#7B3174"/>
<path d="M421.932 159.482C421.343 159.365 416.91 161.058 411.797 163.291C413.746 165.377 416.508 167.416 420.213 168.146C422.313 168.56 424.214 168.455 425.752 168.185C425.818 164.972 422.796 159.654 421.932 159.482Z" fill="#7B3174"/>
<path d="M347.973 195.504C346.964 196.075 346.625 197.366 347.224 198.358L353.255 208.365L366.958 200.663L360.178 188.6L347.973 195.504Z" fill="#B7D7F1"/>
<path d="M451.187 268.464V228.277C420.2 228.964 399.779 241.72 399.648 277.651C381.976 277.379 371.195 284.531 367.519 297.095H422.556C438.369 297.095 451.187 284.276 451.187 268.464Z" fill="#009044"/>
<path opacity="0.5" d="M170.27 244.426C165.6 244.426 161.814 245.791 161.814 247.475C161.814 249.159 165.6 250.525 170.27 250.525C174.94 250.525 178.725 249.159 178.725 247.475C178.725 245.791 174.94 244.426 170.27 244.426Z" fill="#23B760"/>
<path d="M291.207 239.977C289.361 240.609 287.233 242.061 287.507 242.861C287.78 243.66 290.352 243.503 292.198 242.871C294.043 242.24 294.463 241.372 294.189 240.573C293.916 239.774 293.052 239.346 291.207 239.977Z" fill="#F9D739"/>
<path d="M271.796 285.684C269.95 286.315 267.822 287.768 268.096 288.567C268.369 289.366 270.941 289.209 272.786 288.577C274.632 287.946 275.052 287.078 274.778 286.279C274.505 285.48 273.641 285.052 271.796 285.684Z" fill="#F9D739"/>
<path d="M297.029 243.447C295.086 243.278 292.553 243.746 292.48 244.588C292.407 245.429 294.822 246.326 296.765 246.494C298.709 246.662 299.444 246.039 299.517 245.197C299.59 244.355 298.973 243.615 297.029 243.447Z" fill="#F9D739"/>
<path d="M153.712 275.614C151.769 275.446 149.235 275.914 149.162 276.755C149.089 277.597 151.505 278.493 153.448 278.661C155.391 278.83 156.126 278.206 156.199 277.364C156.272 276.523 155.655 275.782 153.712 275.614Z" fill="#F9D739"/>
<path d="M318.202 241.884C316.259 241.715 313.725 242.183 313.652 243.025C313.579 243.866 315.995 244.763 317.938 244.931C319.881 245.099 320.616 244.476 320.689 243.634C320.762 242.792 320.145 242.052 318.202 241.884Z" fill="#F9D739"/>
<path d="M343.06 282.792C341.117 282.624 338.583 283.092 338.51 283.934C338.438 284.775 340.853 285.672 342.796 285.84C344.739 286.008 345.475 285.385 345.547 284.543C345.62 283.701 345.003 282.96 343.06 282.792Z" fill="#F9D739"/>
<path d="M265.806 291.302C263.863 291.134 261.329 291.602 261.256 292.444C261.183 293.285 263.599 294.182 265.542 294.35C267.485 294.518 268.22 293.895 268.293 293.053C268.366 292.212 267.749 291.471 265.806 291.302Z" fill="#F9D739"/>
<path d="M67.3115 213.684C71.4228 204.186 71.5728 194.818 67.4024 185.59C66.0221 182.536 62.9444 180.6 59.593 180.6H0V218.814H59.4395C62.8464 218.814 65.9581 216.811 67.3115 213.684Z" fill="#9C3F91"/>
<path d="M69.7 206.283C70.3457 203.27 70.5853 200.271 70.3917 197.286C49.1933 197.791 28.7214 192.259 8.63293 180.6H0V185.85C21.9221 199.513 44.2993 206.32 67.5317 206.32C68.253 206.32 68.9771 206.296 69.7 206.283Z" fill="#89347B"/>
<path d="M23.3032 192.256C16.7507 198.246 9.05138 202.15 0 204.002V213.002C11.4424 211.015 21.1863 206.313 29.3398 198.86L23.3032 192.256Z" fill="#89347B"/>
<path d="M74.122 256.742C79.2793 245.329 79.4698 234.078 74.2201 223.004C72.7845 219.975 69.7619 218.014 66.4105 218.014H0V261.872H66.2503C69.657 261.872 72.7191 259.847 74.122 256.742Z" fill="#89347B"/>
<path d="M31.8106 261.872H40.0785C37.1931 247.657 26.6351 234.624 9.63195 224.552C6.57504 222.742 3.35422 221.067 0 219.52V228.476C1.89121 229.436 3.74852 230.427 5.52807 231.481C19.8181 239.945 28.8967 250.523 31.8106 261.872Z" fill="#7A2770"/>
<path d="M14.9493 229.035L15.384 237.076C31.9045 236.182 43.9793 229.789 51.5142 218.014H41.2773C35.0783 224.773 26.3391 228.42 14.9493 229.035Z" fill="#7A2770"/>
<path d="M41.188 223.954L34.5801 228.555C44.8172 243.258 58.6769 251.132 75.9407 252.119C76.8321 249.455 77.4431 246.801 77.7761 244.155C62.3204 243.661 50.2564 236.978 41.188 223.954Z" fill="#7A2770"/>
<path d="M74.122 176.592C79.2793 165.179 79.4698 153.928 74.2201 142.853C72.7845 139.825 69.7619 137.864 66.4105 137.864H0V181.722H66.2503C69.657 181.722 72.7191 179.697 74.122 176.592Z" fill="#89347B"/>
<path d="M31.8106 181.722H40.0785C37.1931 167.507 26.6351 154.474 9.63195 144.402C6.57504 142.592 3.35422 140.917 0 139.37V148.326C1.89121 149.286 3.74852 150.277 5.52807 151.331C19.8181 159.795 28.8967 170.373 31.8106 181.722Z" fill="#7A2770"/>
<path d="M14.9493 148.885L15.384 156.925C31.9045 156.032 43.9793 149.639 51.5142 137.864H41.2773C35.0783 144.623 26.3391 148.27 14.9493 148.885Z" fill="#7A2770"/>
<path d="M41.188 143.804L34.5801 148.405C44.8172 163.107 58.6769 170.982 75.9407 171.969C76.8321 169.305 77.4431 166.651 77.7761 164.005C62.3204 163.511 50.2564 156.828 41.188 143.804Z" fill="#7A2770"/>
<path d="M63.8473 121.993L41.62 121.196C41.6502 122.124 41.9591 126.032 40.9862 128.421C39.1286 132.984 34.0617 132.775 30.3354 137.864H65.1261C65.0786 131.593 61.0194 129.611 63.8473 121.993Z" fill="#003B53"/>
<path d="M43.521 123.171C45.5157 126.64 46.7664 125.865 53.9826 128.428C60.8071 132.255 63.0972 129.228 63.0972 129.228C62.7539 127.621 62.697 125.829 63.3715 123.447L43.521 123.171Z" fill="#00204D"/>
<path d="M39.7417 103.778C39.3873 103.707 39.0194 103.745 38.687 103.887C35.6615 105.27 38.5031 115.393 38.5031 115.393L47.3747 111.381C47.3747 111.381 42.8628 104.314 39.7417 103.778Z" fill="#003B53"/>
<path d="M41.5498 106.021C40.5491 105.173 39.9152 104.92 39.5628 104.856C39.4201 104.824 39.2705 104.833 39.1332 104.884C38.8259 105.023 38.5766 105.574 38.4591 106.383C38.3418 107.581 38.3752 108.789 38.559 109.979C38.7256 111.276 38.9616 112.563 39.2665 113.834L45.7708 110.913C45.2998 110.259 44.6379 109.377 43.8986 108.475C43.1837 107.595 42.3979 106.774 41.5498 106.021Z" fill="#FFC5C7"/>
<path d="M62.5316 102.363C62.1836 102.264 61.814 102.273 61.4715 102.389C58.4347 103.324 54.8657 110.895 54.8657 110.895L64.181 113.745C64.181 113.745 65.7109 103.349 62.5316 102.363Z" fill="#003B53"/>
<path d="M62.2132 103.408C62.0703 103.376 61.9211 103.385 61.7835 103.436C61.4399 103.546 60.8456 103.876 59.9611 104.845C59.2128 105.698 58.5374 106.614 57.9416 107.58C57.3205 108.566 56.7812 109.525 56.395 110.234L63.2501 112.301C63.3852 111.002 63.4538 109.696 63.456 108.39C63.4793 107.185 63.3515 105.982 63.0752 104.81C62.8531 104.022 62.541 103.51 62.2132 103.408Z" fill="#FFC5C7"/>
<path d="M50.8229 106.373C42.3164 106.917 37.9087 113.444 37.368 119.526C36.3583 131.387 47.7945 130.792 52.3651 130.501C56.9356 130.211 68.1174 129.366 65.8429 117.706C64.5504 111.741 59.3322 105.829 50.8229 106.373Z" fill="#003B53"/>
<path d="M48.461 121.214L48.6964 124.895C48.7525 125.774 49.1556 126.594 49.8169 127.176C50.4781 127.758 51.3433 128.053 52.2224 127.997C53.1013 127.941 53.9217 127.538 54.5038 126.876C55.0857 126.215 55.3811 125.35 55.3248 124.471L55.2349 123.065L48.461 121.214Z" fill="#005068"/>
<path d="M53.2901 120.34C52.9044 120.291 52.2354 120.795 51.9263 121.06C51.4667 120.851 50.4871 120.446 50.1107 120.543C44.0424 122.115 44.8782 126.637 47.724 127.583C49.749 128.233 52.1294 126.502 51.9824 124.815C52.0463 126.507 54.618 127.922 56.5585 127.018C59.2569 125.735 59.5115 121.126 53.2901 120.34Z" fill="#005068"/>
<path d="M52.5226 120.247C52.2377 120.293 51.9707 120.416 51.75 120.603C51.5082 120.446 51.2293 120.358 50.9416 120.346C50.6518 120.336 50.3645 120.405 50.1108 120.546L51.8458 122.104L53.3683 120.337C53.0999 120.231 52.8076 120.2 52.5226 120.247Z" fill="#010105"/>
<path d="M49.7944 125.76C49.9305 125.758 50.0682 125.744 50.2057 125.716C51.1246 125.529 51.9918 124.39 51.9918 124.39C51.9918 124.39 52.997 125.409 53.9321 125.478C54.0722 125.488 54.2104 125.484 54.3458 125.469L51.9274 123.382L49.7944 125.76Z" fill="#010105"/>
<path d="M56.0922 136.495C51.9455 135.89 50.8042 132.676 44.3909 133.654C41.544 134.089 48.5315 137.897 48.5315 137.897H61.9907L60.9746 135.685C60.9746 135.685 58.9017 136.904 56.0922 136.495Z" fill="#00204D"/>
<path d="M51.4415 136.25C50.2146 134.902 47.6504 134.18 44.7478 133.604C42.5323 133.164 36.8127 133.129 37.3192 135.025C38.2555 138.528 44.2282 139.565 44.2057 142.709C44.1563 149.589 50.7636 149.808 51.9495 148.512C53.0139 147.348 52.2213 145.108 52.5195 142.159C52.7621 139.757 52.8163 137.761 51.4415 136.25Z" fill="#003B53"/>
<path d="M50.1123 149.125C50.519 149.106 50.8886 149.043 51.1981 148.943C51.5782 147.565 51.2979 146.54 51.2979 146.54C51.2979 146.54 51.0746 147.829 50.1123 149.125Z" fill="#00204D"/>
<path d="M47.2148 148.484C47.5774 148.671 47.9506 148.815 48.3228 148.918C49.1873 146.64 48.3266 144.931 48.3266 144.931C48.3266 144.931 48.3795 146.755 47.2148 148.484Z" fill="#00204D"/>
<path d="M65.8952 134.66C64.192 133.489 60.9713 132.809 58.4824 139.413C56.6328 144.321 59.8188 147.561 63.3138 145.554C66.2371 143.875 67.0167 140.42 67.3324 138.917C67.5685 137.791 67.508 135.768 65.8952 134.66Z" fill="#003B53"/>
<path d="M60.8071 146.13C61.1968 146.183 61.6116 146.164 62.0422 146.065C62.7177 144.848 62.6756 143.811 62.6756 143.811C62.6756 143.811 62.1352 145.101 60.8071 146.13Z" fill="#00204D"/>
<path d="M58.2271 143.847C58.3638 144.246 58.5491 144.602 58.7759 144.907C60.9011 143.476 61.0942 141.468 61.0942 141.468C61.0942 141.468 60.1548 143.051 58.2271 143.847Z" fill="#00204D"/>
<path d="M45.0512 121.434C46.6184 121.434 47.889 120.163 47.889 118.596C47.889 117.029 46.6184 115.758 45.0512 115.758C43.4839 115.758 42.2134 117.029 42.2134 118.596C42.2134 120.163 43.4839 121.434 45.0512 121.434Z" fill="white"/>
<path d="M45.0513 120.513C45.966 120.513 46.7076 119.655 46.7076 118.596C46.7076 117.537 45.966 116.678 45.0513 116.678C44.1366 116.678 43.395 117.537 43.395 118.596C43.395 119.655 44.1366 120.513 45.0513 120.513Z" fill="#010105"/>
<path d="M43.9461 116.58C43.4225 116.58 42.998 117.004 42.998 117.528C42.998 118.052 43.4225 118.476 43.9461 118.476C44.4696 118.476 44.8943 118.052 44.8943 117.528C44.8943 117.004 44.4697 116.58 43.9461 116.58Z" fill="white"/>
<path d="M58.1489 120.597C59.7163 120.597 60.9868 119.327 60.9868 117.759C60.9868 116.192 59.7163 114.921 58.1489 114.921C56.5816 114.921 55.311 116.192 55.311 117.759C55.311 119.327 56.5816 120.597 58.1489 120.597Z" fill="white"/>
<path d="M58.149 115.842C57.2342 115.842 56.4927 116.7 56.4927 117.759C56.4927 118.818 57.2343 119.677 58.149 119.677C59.0638 119.677 59.8053 118.818 59.8053 117.759C59.8053 116.7 59.0639 115.842 58.149 115.842Z" fill="#010105"/>
<path d="M57.0444 115.743C56.5207 115.743 56.0962 116.168 56.0962 116.691C56.0962 117.215 56.5207 117.639 57.0444 117.639C57.5681 117.639 57.9924 117.215 57.9924 116.691C57.9924 116.167 57.568 115.743 57.0444 115.743Z" fill="white"/>
<path d="M48.2667 112.973C47.571 113.056 46.9715 113.73 47.1 114.422C47.233 115.138 48.0836 115.535 48.7616 115.341C49.3089 115.185 49.8024 114.628 49.7161 113.998C49.6232 113.32 48.9068 112.896 48.2667 112.973Z" fill="#00204D"/>
<path d="M54.7286 112.63C54.033 112.713 53.4334 113.388 53.5619 114.08C53.6949 114.796 54.5455 115.192 55.2235 114.999C55.7708 114.843 56.2643 114.286 56.178 113.655C56.0851 112.978 55.3687 112.553 54.7286 112.63Z" fill="#00204D"/>
<path fill-rule="evenodd" clip-rule="evenodd" d="M76.4347 261.26C87.2052 247.425 67.4295 239.389 64.9079 256.741C67.3297 234.303 36.0199 238.155 49.0839 261.399C36.2269 247.218 23.1488 267.734 44.7613 277.599L80.4256 277.92C99.2171 273.208 91.5028 247.025 76.4347 261.26Z" fill="#23B760"/>
</svg>
