<svg width="194" height="194" viewBox="0 0 194 194" fill="none" xmlns="http://www.w3.org/2000/svg">
<path d="M71.4312 80.1287C71.4312 80.1287 58.0889 55.2132 75.5143 40.9501C103.879 17.7172 152.219 70.2602 152.219 70.2602L122.296 91.608L71.4312 80.1287Z" fill="#05DBC1"/>
<path d="M89.9289 142.624C89.9289 142.624 80.8086 155.413 93.1702 160.205C103.759 164.308 123.361 157.498 133.546 141.709L89.9289 142.624Z" fill="#05DBC1"/>
<path d="M17.1556 73.3714C3.30861 84.3181 11.7719 104.658 29.4442 106.34C11.7149 107.399 4.84929 128.166 19.5108 138.435C29.5433 145.479 41.0827 138.87 49.7237 130.647L72.6007 105.816L49.1275 81.5638C38.9278 70.8596 26.9186 65.6507 17.1556 73.3714Z" fill="#05DBC1"/>
<path d="M117.996 57.3117C101.223 56.6791 76.5235 64.8306 59.5065 81.1387C44.7287 95.3636 39.6673 101.232 37.9343 103.571C37.2568 104.486 37.3016 105.566 37.9792 106.481C39.8546 109.012 45.2346 115.278 60.0303 128.385C78.893 143.185 95.0926 151.06 119.082 150.769C155.431 150.328 176.699 116.099 182.526 105.263C183.608 103.251 183.466 100.858 182.16 98.9834C175.294 89.1341 151.364 58.57 117.996 57.3117Z" fill="#00A9C0"/>
<path d="M134.823 135.972L138.364 73.0375C132.007 75.0032 126.378 78.9685 122.251 84.3892C118.124 89.81 115.7 96.4207 115.312 103.315C114.924 110.209 116.591 117.048 120.085 122.895C123.578 128.742 128.726 133.31 134.823 135.972Z" fill="#007094"/>
<path d="M141.235 142.698L145.495 67.0906C140.678 69.6105 136.357 74.5112 133.124 81.1204C129.892 87.7296 127.906 95.7235 127.439 104.006C126.972 112.288 128.048 120.453 130.518 127.38C132.988 134.308 136.731 139.658 141.235 142.698Z" fill="#00A9C0"/>
<path d="M76.6113 125.909C68.9602 126.002 62.699 120.965 62.6222 114.635C62.5454 108.305 68.7182 103.117 76.3337 103.025L76.6113 125.909Z" fill="#007094"/>
<path d="M93.7822 109.502C86.1311 109.595 79.8699 104.558 79.7931 98.228C79.7163 91.8979 85.8891 86.71 93.5046 86.6175L93.7822 109.502Z" fill="#007094"/>
</svg>
