<svg width="194" height="194" viewBox="0 0 194 194" fill="none" xmlns="http://www.w3.org/2000/svg">
<path fill-rule="evenodd" clip-rule="evenodd" d="M94.8992 82.258C99.7081 84.2016 102.031 89.6756 100.087 94.4845L85.04 131.715C87.8846 129.388 90.955 127.316 94.2196 125.535L116.163 113.564C120.716 111.081 126.421 112.758 128.905 117.312C131.389 121.865 129.711 127.57 125.158 130.054L103.215 142.024C94.9481 146.534 88.5011 153.77 84.9725 162.501L82.269 169.19C79.3536 176.403 71.1426 179.888 63.9292 176.972L51.3615 171.893C44.1481 168.977 40.6639 160.766 43.5793 153.553L46.2828 146.864C49.8114 138.133 50.2032 128.449 47.3915 119.462L39.9279 95.6065C38.3792 90.6563 41.1366 85.3878 46.0868 83.8391C51.037 82.2904 56.3055 85.0478 57.8542 89.998L65.3178 113.854C66.4282 117.403 67.1967 121.026 67.6254 124.676L82.6727 87.4461C84.6163 82.6372 90.0903 80.3144 94.8992 82.258Z" fill="#05DBC1"/>
<path d="M90.5414 75.8379C82.6983 95.2436 60.6088 104.617 41.2031 96.7738C21.7974 88.9306 12.4241 66.8411 20.2673 47.4354C28.1104 28.0297 50.1999 18.6565 69.6056 26.4996C89.0113 34.3427 98.3846 56.4323 90.5414 75.8379Z" fill="#00A9C0"/>
<path d="M148.497 79.9393C138.651 104.3 110.922 116.066 86.5616 106.22C62.2013 96.3748 50.4349 68.6454 60.2805 44.2851C70.1261 19.9248 97.8555 8.15829 122.216 18.0039C146.576 27.8496 158.343 55.579 148.497 79.9393Z" fill="#00A9C0"/>
<path d="M172.782 109.076C164.939 128.482 142.849 137.855 123.444 130.012C104.038 122.169 94.6648 100.079 102.508 80.6737C110.351 61.268 132.441 51.8947 151.846 59.7379C171.252 67.581 180.625 89.6705 172.782 109.076Z" fill="#00A9C0"/>
</svg>
