<svg width="206" height="245" viewBox="0 0 206 245" fill="none" xmlns="http://www.w3.org/2000/svg">
<path d="M52.3769 4.31544C59.8493 10.7614 60.6881 22.053 54.2422 29.5365C40.986 44.7795 30.6768 63.1021 28.6018 83.1574C26.3501 103.246 33.6349 123.191 47.3215 138.323C55.8426 148.577 42.3878 161.889 32.2111 153.213C-11.8401 113.235 -6.84016 53.0687 26.0078 7.67092C31.9681 -1.00466 44.4298 -2.60488 52.3658 4.32675L52.3769 4.31544Z" fill="#983C54"/>
<path d="M52.3771 4.31544C59.8496 10.7724 60.6884 22.053 54.2424 29.5365C49.8053 34.6469 45.6993 40.0885 42.1231 45.8391C36.5822 45.7619 30.9752 44.5365 25.6109 42.0751C20.1804 39.5917 15.5446 36.0596 11.8359 31.8432C15.6881 23.4767 20.4562 15.3531 26.0191 7.67092C31.9684 -1.00466 44.4411 -2.60488 52.3771 4.32675V4.31544Z" fill="#842A46"/>
<path d="M11.5927 71.2035C17.1667 73.7091 24.0323 74.6694 30.5224 72.3957C29.6284 75.9167 28.9772 79.5039 28.6019 83.1573C28.4363 84.6254 28.3149 86.082 28.2707 87.539C21.0521 88.5876 13.3698 87.5171 5.79799 84.1064C5.01432 83.7532 4.24184 83.3782 3.48025 82.9919C2.37648 82.429 1.31673 81.8215 0.30127 81.1702C0.334382 75.4859 0.831184 69.7797 1.79146 64.0732C4.5619 67.1527 8.01656 69.5923 11.6038 71.1927L11.5927 71.2035Z" fill="#842A46"/>
<path d="M148.647 233.556C155.225 234.207 158.791 237.066 156.395 244.285H134.342C121.517 225.521 113.47 204.461 109.938 181.227L148.901 176.768C143.426 196.724 143.548 215.62 148.636 233.556H148.647Z" fill="#842A46"/>
<path d="M69.2865 130.31C69.2865 130.31 102.311 153.886 100.998 180.708C100.159 197.728 89.6289 207.783 82.0461 212.86C77.0129 216.227 75.291 222.927 78.1608 228.269C78.1829 228.313 78.205 228.357 78.2382 228.401C79.6731 231.05 82.5648 233.159 85.5781 233.942C90.0594 235.112 94.2316 238.909 93.8673 244.285H69.7503C59.4411 234.009 52.1674 220.984 47.6861 205.432C67.7966 189.648 17.9726 139.294 69.2976 130.31H69.2865Z" fill="#842A46"/>
<path d="M117.918 119.736L161.329 146.822C160.093 228.501 73.7678 209.792 31.2729 177.573L46.1075 127.848C77.3771 112.959 91.8695 137.683 117.918 119.736Z" fill="#983C54"/>
<path d="M137.19 197.85C131.903 200.94 125.976 202.938 119.64 204.019L123.503 179.383C129.717 185.067 134.287 191.227 137.19 197.85Z" fill="#8E334D"/>
<path d="M67.3108 197.11C61.7809 195.034 56.3835 192.65 51.2289 190.001C50.7101 189.593 50.2133 189.174 49.7056 188.754L69.6064 171.37C70.8647 180.851 70.1364 189.45 67.3108 197.121V197.11Z" fill="#8E334D"/>
<path d="M161.329 146.822C161.208 154.604 160.314 161.48 158.757 167.518C136.792 162.683 124.022 150.63 115.998 134.857L148.846 139.041L161.318 146.822H161.329Z" fill="#8E334D"/>
<path d="M128.724 233.556C135.303 234.207 138.868 237.066 136.473 244.285H114.419C101.594 225.521 93.5472 204.461 90.0151 181.227L128.978 176.768C123.503 196.724 123.625 215.62 128.713 233.556H128.724Z" fill="#983C54"/>
<path d="M61.4167 123.389C61.4167 123.389 82.5869 148.401 67.7854 176.856C56.803 197.949 37.3658 208.964 28.061 213.247C24.2862 214.98 21.6261 218.556 21.1957 222.684C21.0301 224.274 21.2507 230.731 21.3169 232.32C21.3169 232.32 32.3106 232.198 28.6792 244.295H4.56187C-0.581661 233.39 -1.31018 219.582 2.04526 203.081C30.1029 186.337 5.58841 132.915 61.4388 123.389H61.4167Z" fill="#983C54"/>
<path d="M24.1648 244.295H19.3964C19.2419 241.646 18.8114 238.7 18.3037 235.664C21.3611 238.192 23.2486 241.083 24.1648 244.295Z" fill="#6D2E46"/>
<path d="M15.8425 244.295H11.0742C10.9196 241.646 10.4892 238.7 9.98145 235.664C13.0389 238.192 14.9264 241.083 15.8425 244.295Z" fill="#6D2E46"/>
<path d="M132.919 244.295H128.15C127.996 241.646 127.565 238.7 127.058 235.664C130.115 238.192 132.003 241.083 132.919 244.295Z" fill="#6D2E46"/>
<path d="M124.596 244.295H119.828C119.673 241.646 119.243 238.7 118.735 235.664C121.792 238.192 123.68 241.083 124.596 244.295Z" fill="#6D2E46"/>
<path d="M74.231 123.268C70.4893 134.648 71.1186 152.12 71.1186 152.12C62.5865 143.787 60.666 132.175 60.6991 123.29C65.5557 122.584 70.0036 122.749 74.231 123.268Z" fill="#842A46"/>
<path d="M105.744 124.405C106.814 133.048 107.09 149.747 95.81 160.763C95.81 160.763 96.6819 136.579 90.269 126.579C95.4678 126.513 100.49 125.398 105.733 124.405H105.744Z" fill="#842A46"/>
<path d="M121.837 43.1787L140.38 78.919L104.64 106.91C97.1679 83.5988 102.113 62.2297 121.837 43.1787Z" fill="#983C54"/>
<path d="M129.994 75.3096C122.577 77.9034 116.109 83.1461 110.281 90.2212C110.281 90.2212 108.603 70.0332 120.38 57.2737L129.983 75.3096H129.994Z" fill="#FFBBEA"/>
<path d="M183.802 110.674L148.062 82.6825L166.605 46.9427C186.33 65.9937 191.274 87.3623 183.802 110.674Z" fill="#842A46"/>
<path d="M146.958 71.8102C185.204 73.9625 196.33 112.065 196.33 112.065C196.33 112.065 201.054 150.84 152.157 151.182C103.26 151.524 88.9336 115.332 88.9336 115.332C88.9336 115.332 108.713 69.6579 146.958 71.8102Z" fill="#983C54"/>
<path d="M121.12 85.1215C129.817 79.8897 143.592 80.8502 150.192 90.1439C155.921 98.2124 153.581 108.841 149.144 115.243C142.212 125.232 126.649 130.023 117.356 122.981C109.85 117.297 109.442 106.17 111.296 99.1395C111.793 97.2521 113.824 89.5147 121.12 85.1328V85.1215Z" fill="#983C54"/>
<path d="M147.676 125.365C151.859 126.524 157.29 124.836 158.372 120.266L160.999 120.729C160.579 124.88 156.55 127.937 152.588 128.158C148.979 128.555 144.188 126.8 143.614 122.837C144.762 124.239 146.197 124.968 147.687 125.365H147.676Z" fill="#0C0C2B"/>
<path d="M171.054 125.299C172.544 124.89 173.979 124.151 175.116 122.749C174.917 124.571 173.482 126.204 171.782 127.076C166.54 129.891 158.471 127.131 157.709 120.74L160.336 120.266C161.44 124.836 166.893 126.48 171.054 125.299Z" fill="#0C0C2B"/>
<path d="M159.398 115.95C159.398 115.95 164.873 114.239 165.634 116.027C166.396 117.815 161.738 122.274 159.685 122.341C159.089 122.363 158.195 121.998 157.279 121.469C156.142 120.806 154.939 119.835 154.1 118.875C153.294 117.97 152.809 117.065 152.996 116.435C153.537 114.603 159.398 115.95 159.409 115.95H159.398Z" fill="#FFBBEA"/>
<path d="M158.007 120.398C158.04 120.862 157.853 121.292 157.544 121.634C157.456 121.579 157.367 121.535 157.268 121.48C156.197 120.851 155.082 119.957 154.254 119.063C154.63 118.787 155.104 118.599 155.645 118.588C156.881 118.544 157.941 119.361 158.007 120.409V120.398Z" fill="#EF97D9"/>
<path d="M163.239 118.334C163.78 118.312 164.277 118.466 164.685 118.72C163.902 119.758 162.776 120.795 161.716 121.502C161.363 121.182 161.142 120.774 161.109 120.31C161.043 119.262 162.003 118.378 163.239 118.345V118.334Z" fill="#EF97D9"/>
<path d="M133.04 91.9761C140.159 91.9761 145.579 97.8811 145.137 105.155C144.707 112.44 138.581 118.334 131.461 118.334C124.342 118.334 118.923 112.429 119.364 105.155C119.795 97.8701 125.92 91.9761 133.04 91.9761Z" fill="white"/>
<path d="M128.029 97.3187C128.239 97.3187 128.448 97.3295 128.658 97.3516C132.576 97.771 135.347 102.021 134.828 106.822C134.342 111.381 131.164 114.813 127.422 114.813C127.212 114.813 127.002 114.813 126.793 114.78C122.874 114.361 120.104 110.111 120.623 105.31C121.108 100.751 124.298 97.3187 128.029 97.3187Z" fill="#0C0C2B"/>
<path d="M119.408 105.177C119.132 107.716 119.673 110.222 120.92 112.22C122.267 114.372 124.353 115.74 126.66 115.994C126.914 116.016 127.168 116.038 127.422 116.038C131.782 116.038 135.479 112.131 136.031 106.955C136.307 104.416 135.766 101.91 134.519 99.9121C133.172 97.7598 131.075 96.3802 128.779 96.1373C128.525 96.1153 128.272 96.0931 128.018 96.0931C123.658 96.0931 119.96 100 119.408 105.177ZM121.837 105.431C122.256 101.502 124.971 98.5324 128.029 98.5324C128.194 98.5324 128.36 98.5324 128.537 98.5545C131.793 98.9077 134.066 102.55 133.625 106.689C133.205 110.619 130.49 113.588 127.433 113.588C127.267 113.588 127.102 113.588 126.925 113.566C123.669 113.224 121.395 109.57 121.837 105.431Z" fill="#71BCFF"/>
<path d="M134.74 106.06C136.508 106.06 137.941 104.627 137.941 102.86C137.941 101.092 136.508 99.6583 134.74 99.6583C132.972 99.6583 131.539 101.092 131.539 102.86C131.539 104.627 132.972 106.06 134.74 106.06Z" fill="white"/>
<path d="M175.447 91.9761C182.566 91.9761 188.692 97.8811 189.122 105.155C189.553 112.44 184.144 118.334 177.025 118.334C169.906 118.334 163.78 112.429 163.35 105.155C162.919 97.8701 168.328 91.9761 175.447 91.9761Z" fill="white"/>
<path d="M170.104 97.8151C170.579 97.6937 171.065 97.6389 171.55 97.6389C174.95 97.6389 178.151 100.564 179.166 104.582C180.347 109.273 178.184 113.864 174.365 114.824C173.89 114.946 173.405 115.001 172.919 115.001C169.52 115.001 166.318 112.087 165.303 108.058C164.751 105.84 164.906 103.566 165.756 101.667C166.65 99.6697 168.195 98.3007 170.093 97.8151H170.104Z" fill="#0C0C2B"/>
<path d="M164.123 108.356C165.282 112.992 168.902 116.226 172.92 116.226C173.505 116.226 174.09 116.149 174.664 116.016C179.134 114.891 181.683 109.637 180.348 104.306C179.189 99.6698 175.569 96.4354 171.551 96.4354C170.966 96.4354 170.381 96.5128 169.807 96.6563C165.337 97.7711 162.787 103.036 164.123 108.367V108.356ZM170.403 98.9964C170.789 98.8971 171.165 98.8525 171.551 98.8525C174.354 98.8525 177.092 101.314 177.986 104.879C179.001 108.919 177.246 112.849 174.068 113.643C173.681 113.743 173.306 113.787 172.92 113.787C170.116 113.787 167.379 111.325 166.485 107.76C165.469 103.72 167.224 99.7911 170.403 98.9964Z" fill="#71BCFF"/>
<path d="M178.703 99.537C180.469 99.537 181.904 100.972 181.904 102.749C181.904 104.526 180.469 105.95 178.703 105.95C176.937 105.95 175.502 104.515 175.502 102.749C175.502 100.983 176.937 99.537 178.703 99.537Z" fill="white"/>
<path d="M113.735 131.138L135.06 123.135" stroke="#63253E" stroke-width="2.01989" stroke-linecap="round" stroke-linejoin="round"/>
<path d="M120.722 141.778L136.649 127.098" stroke="#63253E" stroke-width="2.01989" stroke-linecap="round" stroke-linejoin="round"/>
<path d="M204.774 130.906L181.264 121.094" stroke="#63253E" stroke-width="2.01989" stroke-linecap="round" stroke-linejoin="round"/>
<path d="M196.838 140.884L179.31 124.901" stroke="#63253E" stroke-width="2.01989" stroke-linecap="round" stroke-linejoin="round"/>
<path d="M137.201 81.8987C139.541 81.3469 141.771 82.3403 142.201 84.1284C142.632 85.9165 141.075 87.8148 138.746 88.3666C136.418 88.9185 134.177 87.9251 133.746 86.137C133.327 84.3489 134.872 82.4506 137.201 81.8987Z" fill="#6D2E46"/>
<path d="M165.049 81.6781C167.323 82.4287 168.702 84.4592 168.129 86.2031C167.555 87.9471 165.237 88.7419 162.952 87.9914C160.667 87.2408 159.298 85.2098 159.872 83.4658C160.446 81.7219 162.764 80.9276 165.049 81.6781Z" fill="#6D2E46"/>
</svg>
