<svg width="336" height="224" viewBox="0 0 336 224" fill="none" xmlns="http://www.w3.org/2000/svg">
<g clip-path="url(#clip0_16_23745)">
<path d="M225.503 129.459C240.549 132.258 263.291 168.996 269.414 188.24C276.762 211.683 294.257 207.484 290.758 193.664C295.831 204.335 312.276 202.586 307.552 187.541C312.976 197.512 322.073 194.713 322.773 185.441C321.373 152.552 291.982 103.392 250.346 98.1438C215.532 93.7702 203.635 118.088 225.503 129.459Z" fill="#070723"/>
<path d="M87.9971 81.1743C46.5353 86.4226 16.9696 135.582 15.745 168.472C16.2698 177.744 25.367 180.543 30.7902 170.396C26.0667 185.441 42.5115 187.366 47.5849 176.694C44.086 190.34 61.5805 194.538 69.1031 171.271C75.2261 152.027 97.794 115.113 112.839 112.489C134.882 100.943 122.811 76.8006 87.9971 81.1743Z" fill="#070723"/>
<path d="M100.243 171.621C94.1204 181.942 92.8958 209.933 97.6193 216.581C102.343 223.229 133.308 222.18 136.457 219.031C144.154 211.158 138.381 176.344 135.757 173.02C133.133 169.696 100.243 171.621 100.243 171.621Z" fill="#070723"/>
<path d="M248.247 158.325C254.195 168.647 255.419 196.638 250.871 203.286C246.322 209.933 215.182 208.884 212.033 205.735C204.335 197.862 210.109 163.048 212.558 159.549C215.007 156.051 248.247 158.325 248.247 158.325Z" fill="#070723"/>
<path d="M271.514 143.105C271.689 184.392 251.92 198.737 178.618 202.236C119.137 205.035 76.9756 190.69 76.9756 147.128C76.9756 103.567 91.6709 33.4144 177.744 34.814C249.646 32.8896 270.989 99.5434 271.514 143.105Z" fill="#20204C"/>
<path d="M141.181 114.239C144.225 114.257 147.248 113.724 150.103 112.664C152.967 111.476 155.579 109.754 157.8 107.591C159.937 105.481 161.658 102.989 162.874 100.243C164.112 97.4298 164.766 94.3946 164.798 91.3211C164.786 88.2453 164.131 85.2061 162.874 82.3989C161.659 79.6011 159.939 77.0511 157.8 74.8763C155.526 72.8257 152.924 71.1701 150.103 69.9778C147.271 68.8359 144.232 68.2996 141.181 68.4033C138.113 68.3096 135.057 68.8331 132.195 69.9428C129.334 71.0525 126.724 72.7257 124.521 74.8633C122.318 77.0008 120.567 79.559 119.372 82.3861C118.177 85.2132 117.562 88.2517 117.563 91.3211C117.582 94.3632 118.211 97.3705 119.413 100.165C120.615 102.96 122.366 105.485 124.561 107.591C126.749 109.749 129.347 111.449 132.2 112.591C135.054 113.732 138.107 114.293 141.181 114.239Z" fill="#070723"/>
<path d="M202.061 114.239C205.106 114.257 208.129 113.724 210.983 112.664C213.847 111.476 216.459 109.754 218.681 107.591C220.817 105.481 222.538 102.989 223.754 100.243C224.992 97.4297 225.647 94.3946 225.679 91.321C225.667 88.2453 225.011 85.2061 223.754 82.3989C222.539 79.6011 220.819 77.0511 218.681 74.8762C216.406 72.8257 213.804 71.1701 210.983 69.9778C205.22 67.8785 198.902 67.8785 193.139 69.9778C190.318 71.1701 187.716 72.8257 185.441 74.8762C183.303 77.0511 181.583 79.6011 180.368 82.3989C179.111 85.2061 178.455 88.2453 178.443 91.321C178.475 94.3946 179.13 97.4297 180.368 100.243C181.584 102.989 183.305 105.481 185.441 107.591C187.663 109.754 190.275 111.476 193.139 112.664C195.997 113.709 199.018 114.242 202.061 114.239Z" fill="#070723"/>
<path d="M99.0187 164.098C92.7207 157.45 124.036 125.785 169.171 119.837C217.981 113.364 251.57 141.005 244.398 147.653C237.225 154.301 216.581 128.934 171.446 133.133C130.859 136.982 107.241 172.495 99.0187 164.098Z" stroke="#2050CE" stroke-width="17.4945" stroke-miterlimit="10"/>
<path d="M112.839 155.176L132.083 167.772C132.629 168.108 133.253 168.296 133.893 168.316C134.534 168.337 135.168 168.189 135.734 167.889C136.3 167.588 136.778 167.145 137.119 166.602C137.461 166.06 137.655 165.438 137.681 164.798L138.031 134.182C138.031 134.182 120.362 143.979 112.839 155.176Z" fill="white"/>
<path d="M232.852 135.057L223.579 147.478C223.32 147.818 222.975 148.085 222.58 148.25C222.186 148.416 221.754 148.475 221.329 148.422C220.905 148.369 220.501 148.205 220.159 147.947C219.817 147.69 219.549 147.347 219.381 146.953L212.033 127.71C212.033 127.71 225.504 129.809 232.852 135.057Z" fill="white"/>
<path d="M155.176 126.135H190.514C192.046 126.135 193.514 126.743 194.597 127.826C195.679 128.909 196.288 130.377 196.288 131.908V171.97C196.288 178.188 193.818 184.151 189.421 188.547C185.025 192.943 179.062 195.413 172.845 195.413C166.628 195.413 160.665 192.943 156.269 188.547C151.872 184.151 149.402 178.188 149.402 171.97V131.908C149.402 131.15 149.552 130.399 149.842 129.699C150.132 128.998 150.557 128.362 151.093 127.826C151.629 127.29 152.266 126.865 152.966 126.574C153.667 126.284 154.417 126.135 155.176 126.135Z" fill="#BC317A"/>
<path d="M172.845 179.143V127.884" stroke="#9E1E6D" stroke-width="6.99778" stroke-miterlimit="10" stroke-linecap="round"/>
<path d="M102.867 160.424C141.18 121.062 202.236 112.839 242.823 144.679" stroke="#070723" stroke-width="6.99778" stroke-miterlimit="10" stroke-linecap="round"/>
<path d="M149.753 110.04C162.7 110.04 173.195 99.5445 173.195 86.5975C173.195 73.6506 162.7 63.155 149.753 63.155C136.806 63.155 126.31 73.6506 126.31 86.5975C126.31 99.5445 136.806 110.04 149.753 110.04Z" fill="white"/>
<path d="M194.013 110.04C206.96 110.04 217.456 99.5445 217.456 86.5975C217.456 73.6506 206.96 63.155 194.013 63.155C181.067 63.155 170.571 73.6506 170.571 86.5975C170.571 99.5445 181.067 110.04 194.013 110.04Z" fill="white"/>
<path d="M153.777 95.8696C159.767 95.8696 164.623 91.0134 164.623 85.023C164.623 79.0326 159.767 74.1765 153.777 74.1765C147.786 74.1765 142.93 79.0326 142.93 85.023C142.93 91.0134 147.786 95.8696 153.777 95.8696Z" fill="#070723"/>
<path d="M190.864 95.8696C196.855 95.8696 201.711 91.0134 201.711 85.023C201.711 79.0326 196.855 74.1765 190.864 74.1765C184.874 74.1765 180.018 79.0326 180.018 85.023C180.018 91.0134 184.874 95.8696 190.864 95.8696Z" fill="#070723"/>
<path d="M279.037 32.5397C211.333 26.5915 174.42 77.1505 174.42 77.1505C174.42 77.1505 139.081 26.7665 71.5523 32.7146C68.2284 33.0645 58.2566 39.7124 69.8029 43.9111C77.5005 46.5352 86.7725 50.2091 96.3944 54.4077C86.4226 57.0319 63.5049 62.6301 66.8288 68.2284C72.2521 77.5004 145.379 83.6235 168.821 87.2973C174.945 88.172 175.469 87.4722 183.692 83.7984C213.432 70.6776 268.715 70.3277 274.838 65.7791C280.961 61.2306 263.991 56.857 254.019 54.2328C263.641 50.0341 272.914 46.1853 280.611 43.7361C292.157 39.5375 282.186 32.7146 279.037 32.5397Z" fill="#070723"/>
<path d="M116.338 28.1661C121.136 32.7046 125.691 37.493 129.984 42.5116C123.161 43.0364 111.965 44.7858 114.239 49.1595C116.513 53.5331 169.872 84.1484 169.872 84.1484L171.971 76.8007C171.971 76.8007 163.574 25.1921 120.362 18.5442C118.438 18.1943 110.39 22.3929 116.338 28.1661Z" fill="#070723"/>
<path d="M216.756 14.5203C175.294 36.7383 170.571 80.2995 170.571 80.2995L176.169 82.9237C176.169 82.9237 224.104 40.762 226.378 34.8139C228.653 28.8658 216.931 33.9392 210.108 36.2135C214.307 30.0904 218.331 24.4922 221.83 20.2935C225.329 16.0948 218.681 13.4707 216.756 14.5203Z" fill="#070723"/>
</g>
<defs>
<clipPath id="clip0_16_23745">
<rect width="307.028" height="207.659" fill="white" transform="translate(15.7451 13.9955)"/>
</clipPath>
</defs>
</svg>
