<svg width="194" height="194" viewBox="0 0 194 194" fill="none" xmlns="http://www.w3.org/2000/svg">
<path d="M102.137 100.459V24.6211C102.137 21.7486 100.996 18.9936 98.9651 16.9624C96.9339 14.9312 94.179 13.7901 91.3064 13.7901H46.249C43.3765 13.7901 40.6216 14.9312 38.5903 16.9624C36.5591 18.9936 35.418 21.7486 35.418 24.6211V120.063C35.4201 126.39 37.2926 132.574 40.8001 137.839C44.3075 143.104 49.2933 147.215 55.1305 149.654L114.593 175.085C118.456 176.698 122.598 177.533 126.784 177.542C130.97 177.551 135.116 176.734 138.985 175.139C142.855 173.543 146.372 171.2 149.334 168.243C152.297 165.286 154.647 161.774 156.25 157.907C157.844 154.042 158.661 149.9 158.652 145.718C158.644 141.537 157.811 137.398 156.202 133.539C154.592 129.68 152.237 126.176 149.272 123.228C146.306 120.28 142.788 117.946 138.92 116.359L102.137 100.459Z" fill="#FF6363"/>
<path d="M114.594 175.084C118.457 176.696 122.599 177.531 126.785 177.541C130.97 177.55 135.117 176.733 138.986 175.137C142.856 173.542 146.373 171.198 149.335 168.241C152.297 165.285 154.647 161.772 156.25 157.906C157.845 154.04 158.662 149.898 158.653 145.717C158.645 141.535 157.812 137.397 156.203 133.537C154.593 129.678 152.238 126.174 149.273 123.227C146.307 120.279 142.789 117.944 138.921 116.358L114.594 175.084Z" fill="#FFB443"/>
<path d="M39.2088 104.316C37.9416 104.319 36.6757 104.399 35.418 104.554V120.065C35.4201 126.391 37.2926 132.575 40.8001 137.84C44.3075 143.105 49.2933 147.216 55.1305 149.655L67.0881 154.767C70.2279 149.786 71.9735 144.054 72.1431 138.169C72.3126 132.283 70.8998 126.46 68.052 121.306C65.2042 116.153 61.0257 111.858 55.9524 108.869C50.8791 105.881 45.0969 104.309 39.2088 104.316Z" fill="#FFB443"/>
</svg>
