<svg width="183" height="361" viewBox="0 0 183 361" fill="none" xmlns="http://www.w3.org/2000/svg">
<path d="M124.07 190.585C133.176 203.461 143.357 214.061 151.017 220.625C157.78 226.413 169.707 215.727 162.041 207.888C154.74 200.401 144.253 180.072 144.253 180.072C136.149 168.556 117.054 180.384 124.07 190.585Z" fill="#F7B7A4"/>
<path d="M104.822 155.454C107.391 164.846 114.314 177.602 123.407 189.822C131.517 200.707 147.4 190.744 144.898 181.983L136.542 158.501C126.964 131.646 100.276 138.815 104.822 155.454Z" fill="#F7B7A4"/>
<path d="M149.139 217.831C150.851 212.7 152.458 206.899 160.07 206.375C160.07 206.375 172.741 205.864 177.068 207.702C179.464 208.711 180.593 213.105 178.051 214.266C176.378 215.03 170.259 216.822 170.259 216.822C172.502 219.178 180.798 226.777 181.914 227.581C184.694 229.631 180.739 235.957 175.714 234.49C172.037 237.981 163.767 241.008 157.694 238.373C153.566 236.581 149.312 228.264 148.27 225.716C147.38 223.519 148.17 219.45 149.139 217.831Z" fill="#F7B7A4"/>
<path d="M167.982 217.346C165.165 218.092 162.267 218.487 159.354 218.521L157.628 222.404C161.73 221.753 165.506 219.224 167.982 217.346Z" fill="#FA9D88"/>
<path d="M165.506 226.014C166.209 229.333 170.504 232.771 173.842 233.262L165.506 226.014Z" fill="#E59383"/>
<path d="M159.142 232.386C159.845 235.705 161.757 236.428 165.115 236.919L159.142 232.386Z" fill="#E59383"/>
<path d="M96.9831 257.879C93.2596 271.466 101.715 310.366 103.122 327.351C103.308 336.192 113.364 339.962 117.724 337.771C120.923 336.145 123.034 332.521 122.145 327.643C120.465 293.521 123.505 267.006 123.831 256.313C122.563 241.047 100.746 243.019 96.9831 257.879Z" fill="#FA9D88"/>
<path d="M90.506 205.996C87.2604 223.751 97.2162 250.034 96.8445 258.556C98.7958 278.196 122.524 273.158 123.831 256.001L122.172 213.105C121.462 185.74 92.4308 190.399 90.506 205.996Z" fill="#FA9D88"/>
<path d="M137.325 112.691C137.491 107.427 114.599 98.653 81.8774 99.9804C55.2423 101.042 30.0674 109.319 31.0431 114.821C33.0342 126.297 62.4835 138.748 92.497 135.795C108.99 134.155 136.017 128.129 137.325 112.691Z" fill="#0D373A"/>
<path d="M121.96 141.204C120.294 138.045 112.894 133.664 107.425 132.576C102.453 131.839 91.8338 131.421 82.8869 131.839C75.4355 132.456 68.2939 135.095 62.2319 139.472C47.2119 149.388 48.5924 171.722 67.0637 173.156C68.2953 178.16 70.1038 183.004 72.4532 187.591C61.8801 202.446 78.274 223.897 100.947 218.123C113.949 214.804 119 197.979 117.161 183.642C121.628 172.14 127.33 151.392 121.96 141.204Z" fill="#D8C6B4"/>
<path d="M82.8867 131.839L83.0394 116.573H109.276L108.068 132.908C107.703 136.545 102.758 139.054 97.2961 138.921C89.265 138.755 82.9796 134.739 82.8867 131.839Z" fill="#FA9D88"/>
<path d="M32.311 173.607C25.6565 184.285 20.0973 195.608 15.718 207.404C8.92815 222.882 27.7446 226.273 30.9836 215.308C35.092 205.678 49.8133 188.195 49.8133 188.195C57.32 176.308 39.0279 163.206 32.311 173.607Z" fill="#F7B7A4"/>
<path d="M55.7671 142.352C48.3069 148.611 39.6122 160.233 32.3113 173.607C25.8135 185.521 43.2162 194.514 48.4198 189.855L66.254 172.452C85.9001 153.31 68.9818 131.268 55.7671 142.352Z" fill="#F7B7A4"/>
<path d="M16.3545 208.333C21.7638 208.227 27.7572 208.625 30.3988 213.868C30.3988 213.868 35.7816 225.351 35.7816 230.043C35.7816 232.645 32.171 235.353 30.1134 233.494C28.786 232.247 24.7373 227.302 24.7373 227.302C23.4098 230.275 19.6598 240.868 19.3346 242.209C18.5249 245.567 11.1576 244.379 10.5602 239.176C5.91417 237.138 -0.0592904 230.674 0.000444474 224.07C0.0535421 219.57 6.06682 212.421 8.01816 210.47C9.12568 209.457 10.4654 208.732 11.9193 208.36C13.3731 207.987 14.8963 207.978 16.3545 208.333Z" fill="#F7B7A4"/>
<path d="M14.4103 226.339C11.6161 228.278 10.1227 233.567 10.959 236.833L14.4103 226.339Z" fill="#E59383"/>
<path d="M6.12039 223.306C3.33276 225.244 3.4058 227.289 4.24209 230.547L6.12039 223.306Z" fill="#E59383"/>
<path d="M63.0284 258.045C57.878 271.984 67.4953 307.254 69.0019 328.871C69.732 337.672 79.5152 340.108 84.5263 337.294C87.2741 335.747 88.5949 333.311 88.0109 329.156C86.3317 295.035 89.6303 270.145 89.9489 259.466C90.314 245.501 69.9311 239.103 63.0284 258.045Z" fill="#F7B7A4"/>
<path d="M68.7815 196.22C65.7609 200.662 63.4459 205.545 61.9186 210.696C57.0004 228.058 64.0691 250.008 62.881 258.483C60.412 274.506 86.7749 279.47 89.9807 259.446L94.6268 216.968C98.317 193.897 74.7019 189.131 68.7815 196.22Z" fill="#F7B7A4"/>
<path d="M122.007 327.125C125.325 330.729 133.595 338.621 136.708 339.988C143.83 341.747 146.073 343.506 145.277 347.19C143.83 351.53 136.303 351.033 136.303 351.033C134.704 353.913 125.206 355.592 119.518 351.909C113.83 348.225 102.221 350.548 99.8186 345.185C97.4757 340.347 101.763 334.041 103.084 327.172C105.281 320.488 114.168 318.072 122.007 327.125Z" fill="#FA9D88"/>
<path d="M87.9178 328.645C91.2364 332.249 99.8648 340.134 102.978 341.502C110.106 343.26 112.349 345.019 111.546 348.703C110.106 353.03 102.579 352.546 102.579 352.546C100.98 355.426 91.117 357.112 85.4355 353.429C79.7541 349.745 68.139 352.068 65.7363 346.705C63.3934 341.86 67.6743 335.555 69.0018 328.692C71.2916 322.506 80.0859 319.592 87.9178 328.645Z" fill="#F7B7A4"/>
<path d="M50.682 107.122C50.682 107.122 39.9098 106.392 34.3213 92.0689C34.3213 92.0689 27.2792 93.0977 24.7106 82.9759C20.9341 68.1152 31.4142 41.3673 50.3568 32.427C66.9498 24.615 106.209 25.9093 124.169 42.4558C142.129 59.0024 143.138 66.1838 140.848 74.7591C138.559 83.3344 133.229 91.5645 133.229 91.5645C133.229 91.5645 130.076 94.684 124.083 94.684C118.089 94.684 70.3215 95.4871 70.3215 95.4871L50.682 107.122Z" fill="#D33C24"/>
<path d="M39.7901 85.0467C39.6839 86.779 39.4981 102.702 50.0844 108.118C57.7437 112.027 65.715 108.662 65.715 108.662C80.6687 106.385 76.5403 79.2923 61.5867 81.5689C57.6044 70.9294 39.8499 73.8631 39.7901 85.0467Z" fill="#FAC7B5"/>
<path d="M133.442 63.1374L131.79 88.1862C131.79 88.1862 130.369 100.737 125.352 110.56C120.042 120.881 110.989 128.447 100.13 129.025C85.9995 129.782 70.4486 119.421 64.6012 106.823C51.5923 102.177 39.4927 72.5954 54.1874 44.4337C65.1986 23.4336 131.352 16.2123 133.442 63.1374Z" fill="#FAC7B5"/>
<path d="M94.4482 109.936C94.8067 110.056 95.1717 110.168 95.55 110.275L97.4084 111.722L112.435 111.609L115.435 109.04C115.687 108.907 115.933 108.768 116.165 108.622C114.353 120.556 97.4151 120.941 94.4482 109.936Z" fill="#E46650"/>
<path d="M115.428 109.014C110.384 111.708 101.53 111.907 95.5498 110.255C96.9104 115.81 114.061 116.135 115.428 109.014Z" fill="white"/>
<path d="M121.879 94.9029C121.402 94.9892 116.503 96.0578 117.897 102.868C118.979 108.21 127.056 106.803 128.032 104.195C129.104 101.264 129.949 98.2551 130.561 95.1949C130.773 93.8144 129.725 92.9715 128.118 94.133C124.86 95.4405 124.183 94.4914 121.879 94.9029Z" fill="#FA9D88"/>
<path d="M78.0617 97.3255C75.8051 96.9605 72.3603 98.2547 70.701 101.753C68.159 107.062 73.2364 113.494 82.648 113.003C92.7233 112.478 95.9689 105.509 94.0175 102.191C92.491 99.5954 88.3295 100.239 85.2299 100.199C82.575 100.126 80.3184 97.6707 78.0617 97.3255Z" fill="#FA9D88"/>
<path d="M113.67 88.4782C120.221 79.664 127.277 81.5091 129.865 87.0578C130.144 102.921 112.92 103.299 113.67 88.4782Z" fill="white"/>
<path d="M73.1084 92.0157C79.6593 83.2015 88.4337 82.0931 94.3475 88.1064C95.3696 102.868 78.75 104.832 73.1084 92.0157Z" fill="white"/>
<path d="M113.378 88.3653C119.551 80.4935 128.325 80.5665 130.482 88.8365" stroke="#0D0C14" stroke-width="4" stroke-linecap="round" stroke-linejoin="round"/>
<path d="M72.7588 92.341C79.854 81.7945 90.1416 82.0135 94.3695 88.0799" stroke="#0D0C14" stroke-width="4" stroke-linecap="round" stroke-linejoin="round"/>
<path d="M119.551 83.5267C116.817 89.2414 119.717 99.6087 124.277 98.5799C126.182 98.1551 130.483 94.0932 129.819 86.6993C128.166 82.7236 124.582 81.6351 119.551 83.5267Z" fill="#0D0C14"/>
<path d="M81.9833 84.8277C79.3284 93.2038 83.0519 100.491 86.8815 100.246C90.7112 100 95.0188 95.5999 94.5011 88.1131C92.8805 86.5241 90.8734 85.3854 88.6782 84.8092C86.4829 84.233 84.1753 84.2394 81.9833 84.8277Z" fill="#0D0C14"/>
<path d="M111.115 71.9913C111.076 71.5667 111.193 71.1426 111.443 70.7974C111.693 70.4521 112.06 70.209 112.475 70.113C118.064 69.1373 131.484 68.7855 133.635 70.3652C133.635 72.2037 131.955 75.7546 128.497 75.5488C124.488 75.2966 111.347 73.1926 111.115 71.9913Z" fill="#D33C24"/>
<path d="M69.6123 79.1263C69.6123 79.1263 73.8402 72.217 77.484 70.9559C82.0836 69.3497 90.7584 69.7015 93.7783 70.8298C94.1036 70.9493 94.4421 71.8851 94.4421 72.3165C94.4022 73.6373 82.2894 78.602 69.6123 79.1263Z" fill="#D33C24"/>
<path d="M93.9111 26.0154C93.9111 26.0154 101.504 4.38471 96.4332 0.707701C89.723 -4.16401 69.4663 17.7122 69.4663 17.7122C69.4663 17.7122 49.8666 11.5396 50.298 17.0485C50.5967 20.8715 58.0967 31.7765 58.0967 31.7765C63.7583 41.4336 86.7164 44.0354 93.9111 26.0154Z" fill="#DD5E23"/>
<path d="M85.4285 50.8982C85.3887 56.9447 75.8975 74.9647 59.0722 79.0599C59.3178 85.6572 60.2669 96.9272 63.7647 104.075C57.7569 103.024 52.3709 99.7341 48.6916 94.8697C48.6916 94.8697 36.2601 100.777 33.8575 79.9227C31.5477 59.9115 41.8685 59.0221 41.8685 59.0221L85.4285 50.8982Z" fill="#D33C24"/>
<path d="M32.7168 64.8032C33.3805 66.2501 42.8452 64.0997 45.0288 60.0045L41.7102 68.2347C52.031 73.6506 78.8785 69.6749 86.0069 54.2965C85.7774 58.3248 86.2903 62.3609 87.5202 66.2037C87.5202 66.2037 102.54 65.9913 109.184 52.7036C109.184 52.7036 117.56 73.4847 139.363 64.9028C135.766 71.2612 134.14 81.2303 133.39 92.852C133.39 92.852 156.62 71.5001 140.319 50.4204C141.613 30.3495 130.496 5.07503 84.8321 18.5618C55.2833 18.5751 33.115 36.7013 32.7168 64.8032Z" fill="#DD5E23"/>
<path d="M152.896 168.582C163.847 181.937 174.135 194.952 174.135 194.952C171.48 206.899 147.314 220.173 137.152 217.313L121.814 192.344C110.862 173.972 139.721 153.921 152.896 168.582Z" fill="#166369"/>
<path d="M138.818 211.247C138.818 211.247 144.341 219.828 145.495 220.021C149.544 220.685 168.819 211.333 168.892 207.543C168.892 205.698 161.199 197.587 161.199 197.587L138.818 211.247Z" fill="#166369"/>
<path d="M128.264 140.633C131.895 143.381 142.707 156.131 152.922 168.582C165.307 184.937 132.227 209.581 121.82 192.344L110.37 173.693C95.4235 148.784 113.105 127.618 128.264 140.633Z" fill="#166369"/>
<path d="M99.2871 303.019C100.097 308.097 100.807 313.333 101.165 318.736C101.265 333.033 123.413 334.944 122.059 318.915C122.006 312.816 122.02 306.855 122.099 301.891C119.995 305.953 107.225 305.017 102.712 301.891L99.2871 303.019Z" fill="#614238"/>
<path d="M94.8668 257.222C93.1345 271.625 94.2031 287.674 95.4244 302.873C97.5217 306.305 121.489 306.915 125.352 301.791C125.896 283.924 126.772 269.767 126.619 258.517C126.042 237.875 98.0262 242.846 94.8668 257.222Z" fill="#341B13"/>
<path d="M95.3376 197.401C93.3066 201.052 91.873 205.651 90.6916 211.379C87.9504 224.355 94.6141 254.348 95.0588 258.576C96.9372 280.326 125.982 276.762 126.652 258.517L125.829 204.238C123.366 186.928 98.5301 190.996 95.3376 197.401Z" fill="#341B13"/>
<path d="M65.3584 304.406C66.1748 309.484 66.8783 314.72 67.2434 320.123C67.3429 334.42 89.4913 336.331 88.1373 320.302C88.0775 314.203 88.0908 308.243 88.1705 303.278C86.0731 307.34 73.2965 306.404 68.7832 303.278L65.3584 304.406Z" fill="#614238"/>
<path d="M59.723 258.729C58.8535 272.335 59.0593 287.82 59.723 304.824C62.5372 310.672 89.0727 310.021 89.7232 304.824C90.8051 286.519 91.6413 270.789 91.9599 260.096C92.1059 239.733 62.5173 241.253 59.723 258.729Z" fill="#341B13"/>
<path d="M79.973 191.932C67.4287 192.649 60.6853 205.147 60.0614 210.968C58.422 225.775 59.3512 245.939 59.9286 258.941C60.8512 279.105 90.181 279.291 91.9863 260.096L96.1744 207.384C96.5859 198.709 90.0814 191.355 79.973 191.932Z" fill="#341B13"/>
<path d="M98.0119 331.287C98.0119 331.287 95.888 335.482 96.2796 342.053C96.3593 344.747 115.567 353.747 127.972 353.893C139.634 354.119 144.28 349.247 144.804 348.411C145.242 346.201 145.86 339.524 142.468 336.564C138.804 333.364 127.972 331.088 127.972 331.088L123.691 327.69L98.0119 331.287Z" fill="#B74329"/>
<path d="M98.3186 321.437C97.7345 323.276 97.4026 326.999 98.0132 331.287C101.711 333.781 106.07 335.115 110.531 335.117L111.991 331.406C108.009 328.539 106.954 322.347 106.17 318.464H102.188C101.307 318.469 100.452 318.763 99.7529 319.299C99.0542 319.836 98.5504 320.587 98.3186 321.437Z" fill="#772615"/>
<path d="M96.2799 341.98C95.4171 342.245 94.4414 347.415 95.8485 348.617C100.229 352.38 120.877 358.679 128.882 358.719C138.778 358.772 144.877 353.701 145.813 351.862C146.849 349.831 146.583 343.672 144.877 341.316C144.964 343.276 144.853 345.239 144.546 347.176C144.546 347.176 139.714 352.798 128.776 352.579C107.802 350.097 96.2799 341.98 96.2799 341.98Z" fill="#772615"/>
<path d="M106.169 318.464C112.143 316.34 121.209 315.145 122.703 317.468C123.612 318.875 122.258 328.752 122.258 328.752L112.302 331.274C110.517 331.592 109.03 330.849 107.835 329.283C105.944 326.867 105.273 319.964 106.169 318.464Z" fill="#DD5E23"/>
<path d="M110.735 334.858C114.718 327.285 124.859 326.993 127.368 330.743C127.368 330.743 121.123 329.78 117.923 338.117" stroke="#331716" stroke-width="4" stroke-linecap="round" stroke-linejoin="round"/>
<path d="M64.0901 332.694C64.0901 332.694 61.9662 336.929 62.3578 343.46C62.4308 346.154 81.6056 355.154 94.0504 355.307C105.705 355.526 110.358 350.661 110.882 349.818C111.32 347.608 111.938 340.931 108.539 337.971C104.882 334.778 94.0504 332.495 94.0504 332.495L89.7628 329.097L64.0901 332.694Z" fill="#BE4F2D"/>
<path d="M64.3883 322.844C63.8042 324.683 63.479 328.406 64.0896 332.694C67.7878 335.189 72.1465 336.522 76.6073 336.524L78.0609 332.814C74.0786 329.946 73.0232 323.754 72.24 319.871H68.2577C67.3768 319.877 66.5221 320.171 65.8236 320.708C65.1251 321.245 64.6211 321.995 64.3883 322.844Z" fill="#772615"/>
<path d="M62.358 343.393C61.4952 343.652 60.5195 348.829 61.9266 350.03C66.3005 353.794 86.9488 360.092 94.9599 360.132C104.849 360.185 110.949 355.115 111.891 353.276C112.92 351.245 112.661 345.092 110.956 342.736C111.044 344.694 110.931 346.656 110.617 348.59C110.617 348.59 105.792 354.212 94.8537 353.993C73.8735 351.53 62.358 343.393 62.358 343.393Z" fill="#772615"/>
<path d="M72.2403 319.871C78.2138 317.747 87.2869 316.552 88.7736 318.875C89.6895 320.289 88.3355 330.159 88.3355 330.159L78.3797 332.681C76.5877 333.006 75.1076 332.263 73.9063 330.69C72.0213 328.3 71.3509 321.371 72.2403 319.871Z" fill="#DD5E23"/>
<path d="M76.8066 336.265C80.789 328.692 90.9306 328.4 93.4395 332.15C93.4395 332.15 87.1939 331.187 84.0014 339.53" stroke="#331716" stroke-width="4" stroke-linecap="round" stroke-linejoin="round"/>
<path d="M67.5081 134.899C83.5104 129.018 120.307 131.441 122.477 140.089C126.546 152.66 130.88 206.541 130.515 209.05C130.037 210.603 126.845 214.877 125.869 216.198C111.081 209.494 80.4042 212.01 59.4705 217.784C59.4705 217.784 56.205 214.625 55.1696 211.466C54.1408 207.483 55.0103 193.87 56.3045 179.819C36.9637 174.981 39.0876 142.863 67.5081 134.899Z" fill="#166369"/>
<path d="M130.516 209.05C130.284 210.656 127.41 214.499 125.87 216.198C111.083 209.494 80.4055 212.01 59.4718 217.784C59.4718 217.784 55.9873 214.824 55.1709 211.465C78.2418 201.53 112.788 200.866 130.516 209.05Z" fill="#11464A"/>
<path d="M127.562 146.806C130.137 156.795 131.995 171.397 129.334 191.003C124.734 160.339 117.765 140.149 114.52 134.587C120.586 135.861 126.042 140.467 127.562 146.806Z" fill="#11464A"/>
<path d="M54.9904 197.733C78.8843 183.53 92.4043 143.706 72.9109 133.492C71.0645 133.775 69.252 134.247 67.5016 134.899C39.0811 142.863 36.9704 174.974 56.298 179.819C55.7139 186.151 55.2227 192.397 54.9705 197.707L54.9904 197.733Z" fill="#11464A"/>
<path d="M27.4067 168.881C16.3557 182.421 5.89551 195.762 5.89551 195.762C8.55039 207.709 32.0726 220.983 42.2342 218.176L57.2011 194.169C69.9312 171.848 42.4598 153.111 27.4067 168.881Z" fill="#166369"/>
<path d="M15.8101 199.426C15.8101 199.426 9.13305 205.545 9.41181 207.622C9.97597 211.718 30.3854 221.68 33.2195 220.127C34.4009 219.463 38.1708 212.275 38.1708 212.275L15.8101 199.426Z" fill="#166369"/>
<path d="M51.6452 141.304C48.0611 144.025 37.488 156.536 27.4061 168.881C13.3219 186.244 46.654 210.032 57.2005 194.169L69.5457 174.364C84.486 149.454 66.8112 128.295 51.6452 141.304Z" fill="#166369"/>
<path d="M48.6057 144.158C48.6057 144.158 60.0217 138.045 75.5328 147.476C81.2203 150.936 87.8512 152.522 94.4887 152.009C96.6936 151.807 98.8868 151.493 101.06 151.067L100.044 131.938C86.3913 124.465 46.3822 106.564 31.4353 113.666C28.4618 115.093 40.2296 146.487 48.6057 144.158Z" fill="#11464A"/>
<path d="M137.053 112.365C130.362 114.502 113.902 129.881 100.044 131.938C95.9019 135.343 94.2426 145.91 101.059 151.067C103.699 151.558 106.387 151.752 109.07 151.644C116.066 151.259 123.672 142.585 128.603 141.071C135.533 140.275 138.148 112.02 137.053 112.365Z" fill="#11464A"/>
<path d="M116.503 139.585C116.503 137.832 115.083 136.412 113.331 136.412C111.579 136.412 110.158 137.832 110.158 139.585V162.695C110.158 164.447 111.579 165.868 113.331 165.868C115.083 165.868 116.503 164.447 116.503 162.695V139.585Z" fill="#A09714"/>
<path d="M89.643 139.585C89.643 137.832 88.2226 136.412 86.4705 136.412C84.7183 136.412 83.2979 137.832 83.2979 139.585V162.695C83.2979 164.447 84.7183 165.868 86.4705 165.868C88.2226 165.868 89.643 164.447 89.643 162.695V139.585Z" fill="#A09714"/>
</svg>
