<svg width="220" height="329" viewBox="0 0 220 329" fill="none" xmlns="http://www.w3.org/2000/svg">
<path opacity="0.6" d="M95.2301 121.69C103.989 111.902 93.8036 90.2132 72.48 73.2479C51.1563 56.2826 26.7694 50.4648 18.0104 60.2535C9.25145 70.0423 19.4372 91.7308 40.7608 108.696C62.0845 125.661 86.4711 131.479 95.2301 121.69Z" fill="white"/>
<path opacity="0.6" d="M75.1795 164.246C96.2168 144.402 104.968 120.484 94.7267 110.824C84.4851 101.163 59.1286 109.418 38.0914 129.262C17.0541 149.106 8.3023 173.024 18.5439 182.684C28.7856 192.345 54.1422 184.09 75.1795 164.246Z" fill="white"/>
<path d="M33.1473 74.5578L37.26 76.6802C37.4445 76.7745 37.5985 76.9141 37.7059 77.0841C37.8132 77.2542 37.8699 77.4484 37.8699 77.6462C37.8699 77.8441 37.8132 78.0383 37.7059 78.2083C37.5985 78.3783 37.4445 78.518 37.26 78.6123L33.1473 80.7347L30.8969 84.6127C30.797 84.7868 30.649 84.9324 30.4686 85.0337C30.2882 85.1351 30.0822 85.1887 29.8722 85.1887C29.6622 85.1887 29.4561 85.1351 29.2758 85.0337C29.0954 84.9324 28.9474 84.7868 28.8474 84.6127L26.5971 80.7347L22.4844 78.6123C22.2999 78.518 22.1459 78.3783 22.0385 78.2083C21.9312 78.0383 21.8745 77.8441 21.8745 77.6462C21.8745 77.4484 21.9312 77.2542 22.0385 77.0841C22.1459 76.9141 22.2999 76.7745 22.4844 76.6802L26.5971 74.5578L28.8474 70.6797C28.9474 70.5056 29.0954 70.3601 29.2758 70.2587C29.4561 70.1574 29.6622 70.1038 29.8722 70.1038C30.0822 70.1038 30.2882 70.1574 30.4686 70.2587C30.649 70.3601 30.797 70.5056 30.8969 70.6797L33.1473 74.5578Z" fill="white"/>
<path d="M49.7512 64.0307L52.2189 65.3013C52.329 65.3581 52.4208 65.4418 52.4848 65.5436C52.5488 65.6455 52.5825 65.7617 52.5825 65.8801C52.5825 65.9984 52.5488 66.1147 52.4848 66.2165C52.4208 66.3183 52.329 66.402 52.2189 66.4589L49.7512 67.7298L48.403 70.0564C48.3428 70.1602 48.254 70.2469 48.1461 70.3073C48.0381 70.3676 47.915 70.3994 47.7895 70.3994C47.664 70.3994 47.5408 70.3676 47.4328 70.3073C47.3249 70.2469 47.2362 70.1602 47.176 70.0564L45.8284 67.7298L43.3607 66.4589C43.2506 66.402 43.1588 66.3183 43.0948 66.2165C43.0308 66.1147 42.9971 65.9984 42.9971 65.8801C42.9971 65.7617 43.0308 65.6455 43.0948 65.5436C43.1588 65.4418 43.2506 65.3581 43.3607 65.3013L45.8284 64.0307L47.176 61.7038C47.2362 61.5999 47.3249 61.5132 47.4328 61.4529C47.5408 61.3925 47.664 61.3607 47.7895 61.3607C47.915 61.3607 48.0381 61.3925 48.1461 61.4529C48.254 61.5132 48.3428 61.5999 48.403 61.7038L49.7512 64.0307Z" fill="white"/>
<path d="M191.839 60.1358C195.502 53.7669 195.871 47.2739 192.663 45.6333C189.455 43.9927 183.885 47.8258 180.222 54.1947C176.559 60.5636 176.189 67.0565 179.397 68.6971C182.605 70.3377 188.175 66.5047 191.839 60.1358Z" fill="#4D8D6E"/>
<path d="M190.4 70.4193C197.554 67.7812 202.276 63.0453 200.948 59.8414C199.62 56.6375 192.745 56.1788 185.591 58.8169C178.438 61.455 173.716 66.1909 175.044 69.3948C176.372 72.5986 183.247 73.0574 190.4 70.4193Z" fill="#4D8D6E"/>
<path d="M162.11 57.6517C181.526 95.8403 183.783 131.989 163.138 158.072C148.217 176.926 77.09 190.086 35.9636 148.177C35.5545 147.758 35.2431 147.262 35.0496 146.723C34.8561 146.183 34.7846 145.611 34.8399 145.043C34.8952 144.476 35.0759 143.926 35.3705 143.428C35.6651 142.931 36.067 142.497 36.5503 142.155C79.3424 111.617 69.1428 41.1189 69.1428 41.1189L105.746 40.1793L162.11 57.6517Z" fill="#D11C56"/>
<path d="M168.586 110.44C175.711 117 186.387 118.571 194.496 117.773C196.791 117.548 198.459 115.365 197.655 113.325C194.63 105.646 191.006 98.8743 187.811 62.8613C186.267 45.4624 185.943 12.0419 155.184 9.22961C152.3 66.6411 154.71 97.6655 168.586 110.44Z" fill="#E84576"/>
<path d="M82.242 100.038C64.6101 109.528 43.3864 106.93 43.5893 101.841C43.7922 96.7525 57.9839 84.4041 59.7914 63.9344C61.599 43.4647 64.6102 -3.30608 128.063 3.43658C129.258 23.0247 95.2718 93.0237 82.242 100.038Z" fill="#E84576"/>
<path d="M51.9194 246.822C80.2519 272.698 173.28 270.661 195.967 246.037C169.858 240.517 147.116 167.007 147.116 167.007H106.284C106.284 167.007 97.2621 233.682 51.9194 246.822Z" fill="#F9CEC7"/>
<path d="M158.74 163.019C168.144 175.551 178.659 185.88 186.576 192.273C193.554 197.909 205.871 187.502 197.955 179.863C190.415 172.572 179.591 152.774 179.591 152.774C171.251 141.564 151.495 153.091 158.74 163.019Z" fill="#F7B7A4"/>
<path d="M138.866 128.808C141.519 137.96 148.661 150.376 158.059 162.275C166.428 172.875 182.838 163.18 180.254 154.642L171.624 131.781C161.726 105.623 134.171 112.604 138.866 128.808Z" fill="#F7B7A4"/>
<path d="M179.72 149.676C174.207 148.295 170.213 153.923 171.091 161.879C168.406 156.51 157.878 156.765 156.378 162.716C155.061 167.939 160.341 170.209 164.821 171.95C172.879 181.563 179.074 187.041 189.01 194.937C201.691 206.248 211.551 190.118 202.027 183.549C194.094 176.613 183.556 157.372 183.556 157.372C183.556 157.372 184.083 150.77 179.72 149.676Z" fill="#FFEAE6"/>
<path d="M184.636 189.558C186.398 184.555 188.064 178.913 195.926 178.402C195.926 178.402 209.011 177.898 213.48 179.695C215.955 180.677 217.12 184.956 214.495 186.087C212.767 186.83 206.441 188.582 206.441 188.582C208.758 190.87 217.326 198.277 218.477 199.052C221.349 201.05 217.271 207.216 212.082 205.787C208.278 209.181 199.744 212.128 193.465 209.562C189.208 207.817 184.808 199.725 183.732 197.236C182.82 195.097 183.629 191.128 184.636 189.558Z" fill="#FFEAE6"/>
<path d="M204.091 189.086C201.182 189.81 198.189 190.192 195.18 190.223L193.398 194.004C197.642 193.397 201.521 190.915 204.091 189.086Z" fill="#F9CEC7"/>
<path d="M201.533 197.527C202.253 200.759 206.695 204.101 210.136 204.579L201.533 197.527Z" fill="#F9CEC7"/>
<path d="M194.969 203.738C195.654 206.97 197.663 207.681 201.138 208.159L194.969 203.738Z" fill="#F9CEC7"/>
<path d="M130.761 228.558C126.923 241.789 135.649 279.664 137.102 296.211C137.294 304.82 147.685 308.492 152.182 306.352C155.486 304.775 157.665 301.239 156.747 296.489C155.013 263.26 158.118 237.439 158.481 227.026C157.186 212.141 134.648 214.08 130.761 228.558Z" fill="#FA9D88"/>
<path d="M124.051 178.027C120.706 195.317 130.988 220.912 130.604 229.211C132.613 248.336 157.117 243.43 158.468 226.729L156.754 184.956C156.048 158.3 126.066 162.838 124.051 178.027Z" fill="#FA9D88"/>
<path d="M156.603 295.991C160.031 299.501 168.578 307.179 171.786 308.511C179.148 310.223 181.465 311.936 180.635 315.524C179.148 319.738 171.375 319.266 171.375 319.266C169.723 322.071 159.914 323.712 154.04 320.125C148.165 316.538 136.177 318.8 133.696 313.578C131.276 308.86 135.704 302.72 137.068 296.036C139.33 289.521 148.515 287.175 156.603 295.991Z" fill="#FA9D88"/>
<path d="M133.049 307.355C129.759 310.549 128.143 317.891 136.659 319.536C145.175 321.18 149.957 321.668 156.51 323.962C167.982 327.977 182.625 323.323 182.625 313.448L148.534 302.884L133.049 307.355Z" fill="#2E6F4F"/>
<path d="M132.208 269.717C131.979 269.776 131.764 269.878 131.577 270.017C131.391 270.156 131.236 270.329 131.121 270.526C131.007 270.723 130.936 270.939 130.913 271.163C130.889 271.386 130.914 271.612 130.985 271.826C134.892 283.824 136.736 292.202 135.014 296.436C130.721 306.987 130.632 312.261 130.632 312.261C132.787 316.485 151.248 317.988 151.248 317.988C151.248 317.988 158.171 321.985 164.801 321.681C169.713 321.455 179.915 319.024 182.623 313.448C180.511 308.083 172.564 308.25 167.207 303.558C161.85 298.867 159.198 297.054 157.721 292.675C156.293 288.442 160.288 267.091 161.422 255.67C161.457 255.301 161.374 254.931 161.185 254.607C160.995 254.282 160.708 254.019 160.359 253.849C154.807 251.08 145.751 251.961 142.439 260.659C141.671 262.854 140.333 264.833 138.546 266.415C136.758 267.997 134.58 269.132 132.208 269.717Z" fill="#408463"/>
<path d="M160.744 261.432C152.564 256.895 145.467 262.491 147.919 270.521C149.601 276.03 145.942 280.311 141.536 281.581C141.323 281.641 141.133 281.756 140.986 281.913C140.839 282.07 140.741 282.262 140.703 282.468C140.665 282.675 140.689 282.887 140.772 283.081C140.855 283.275 140.994 283.444 141.172 283.568C146.72 287.303 153.78 284.618 154.241 280.376C154.757 275.631 151.761 265.857 160.033 266.642C160.077 266.324 160.744 261.432 160.744 261.432Z" fill="#4D8D6E"/>
<path d="M159.673 269.2C155.919 271.98 156.02 278.572 158.096 280.996C158.128 280.743 159.673 269.2 159.673 269.2Z" fill="#4D8D6E"/>
<path d="M157.483 287.584C155.632 289.113 153.503 288.36 151.952 287.352C151.812 287.266 151.65 287.219 151.483 287.218C151.317 287.217 151.153 287.261 151.013 287.346C150.873 287.43 150.761 287.551 150.692 287.694C150.622 287.836 150.598 287.995 150.622 288.15C151.14 291.409 154.479 293.561 158.162 293.819C157.125 291.797 157.483 287.584 157.483 287.584Z" fill="#4D8D6E"/>
<path d="M159.963 116.912C158.243 113.835 145.46 107.721 141.551 106.535C136.376 105.791 125.45 105.397 116.189 105.817C108.499 106.42 101.128 108.99 94.8719 113.25C79.3944 122.945 80.7653 144.662 99.8689 146.065C101.142 150.937 103.013 155.652 105.442 160.117C94.5155 174.588 111.446 195.472 134.868 189.849C148.289 186.617 153.512 170.226 151.607 156.239C156.22 145.054 165.508 126.859 159.963 116.912Z" fill="#F7B7A4"/>
<path d="M116.21 105.821L116.361 90.9552H143.457L142.216 106.868C141.833 110.404 136.733 112.847 131.085 112.718C122.791 112.552 116.306 108.635 116.21 105.821Z" fill="#F7B7A4"/>
<path d="M63.9827 146.485C57.111 156.884 51.3698 167.911 46.8464 179.397C39.8411 194.476 59.2736 197.773 62.6118 187.102C66.8547 177.717 82.0581 160.692 82.0581 160.692C89.79 149.09 70.9195 136.363 63.9827 146.485Z" fill="#F7B7A4"/>
<path d="M88.1959 116.055C80.4914 122.15 71.512 133.461 63.9789 146.485C57.2683 158.119 75.2408 166.845 80.6079 162.308L99.0328 145.361C119.315 126.727 101.843 105.261 88.1959 116.055Z" fill="#F7B7A4"/>
<path d="M47.5023 180.308C53.0818 180.205 59.2715 180.586 62.0065 185.692C62.0065 185.692 67.5655 196.874 67.5655 201.444C67.5655 203.978 63.8297 206.647 61.7117 204.805C60.3408 203.59 56.1527 198.774 56.1527 198.774C54.7818 201.676 50.9158 211.986 50.5799 213.298C49.7368 216.568 42.1352 215.405 41.5183 210.344C36.7201 208.353 30.551 202.058 30.6058 195.627C30.6675 191.251 36.8708 184.29 38.8861 182.39C40.0295 181.401 41.4143 180.693 42.9174 180.33C44.4205 179.967 45.9954 179.96 47.5023 180.308Z" fill="#FFEAE6"/>
<path d="M45.4881 197.844C42.6092 199.724 41.0601 204.883 41.9306 208.056L45.4881 197.844Z" fill="#F9CEC7"/>
<path d="M36.9333 194.887C34.0475 196.768 34.123 198.765 34.9935 201.939L36.9333 194.887Z" fill="#F9CEC7"/>
<path d="M88.8831 155.857C88.3991 150.498 81.4322 148.856 73.7874 152.323C75.8965 147.489 75.4263 139.655 67.9809 139.549C61.3683 139.454 61.8406 145.599 61.6165 150.162C54.7448 160.561 51.3697 167.911 46.8464 179.397C39.8411 194.476 59.2736 197.773 62.6118 187.102C66.8547 177.717 82.4967 161.864 82.4967 161.864C82.4967 161.864 89.2662 160.099 88.8831 155.857Z" fill="#FFEAE6"/>
<path d="M64.786 187.697C65.3963 187.66 65.9928 187.509 66.5414 187.254C67.0899 186.999 67.5798 186.644 67.9829 186.21C68.5901 185.558 68.979 184.751 69.1008 183.891C69.2229 183.029 69.0705 182.153 68.6629 181.374C68.2564 180.595 67.6146 179.947 66.8183 179.512C66.0213 179.078 65.1057 178.875 64.1869 178.931C63.2678 178.985 62.3868 179.296 61.6568 179.826C60.9246 180.352 60.3757 181.072 60.0803 181.894C59.7842 182.717 59.7522 183.603 59.9885 184.443C60.2267 185.282 60.7229 186.037 61.4149 186.611C62.3426 187.378 63.5544 187.769 64.786 187.697Z" fill="#D11C56"/>
<path d="M66.8689 184.943C67.5788 184.894 68.0932 184.06 68.0179 183.079C67.9426 182.098 67.3061 181.342 66.5962 181.39C65.8864 181.439 65.3721 182.273 65.4474 183.254C65.5227 184.235 66.1591 184.991 66.8689 184.943Z" fill="#F46292"/>
<path d="M57.5092 183.041C58.1196 183.003 58.7161 182.853 59.2647 182.598C59.8133 182.342 60.3031 181.988 60.7061 181.554C61.3133 180.902 61.7025 180.095 61.8249 179.234C61.9463 178.373 61.7936 177.497 61.3862 176.717C60.9799 175.939 60.338 175.291 59.5416 174.856C58.7448 174.421 57.8294 174.219 56.9108 174.274C55.9915 174.328 55.1103 174.64 54.3801 175.169C53.6481 175.696 53.0992 176.416 52.8036 177.238C52.5076 178.06 52.4759 178.947 52.7124 179.786C52.9501 180.626 53.4461 181.381 54.1381 181.955C55.0659 182.722 56.2776 183.112 57.5092 183.041Z" fill="#D11C56"/>
<path d="M59.138 179.968C59.8479 179.92 60.3623 179.085 60.287 178.104C60.2117 177.124 59.5752 176.368 58.8654 176.416C58.1555 176.465 57.6411 177.299 57.7164 178.28C57.7917 179.261 58.4282 180.017 59.138 179.968Z" fill="#F46292"/>
<path d="M49.1027 180.469C49.713 180.432 50.3096 180.282 50.8582 180.027C51.4068 179.772 51.8966 179.417 52.2996 178.983C52.9071 178.331 53.2963 177.524 53.4182 176.664C53.5404 175.801 53.3878 174.924 52.9796 174.143C52.573 173.365 51.9312 172.717 51.135 172.282C50.3382 171.848 49.4228 171.645 48.5042 171.701C47.585 171.755 46.7038 172.066 45.9735 172.596C45.2417 173.122 44.6928 173.842 44.3969 174.664C44.1004 175.486 44.0685 176.373 44.3052 177.212C44.543 178.052 45.0391 178.807 45.7309 179.381C46.6584 180.149 47.8704 180.54 49.1027 180.469Z" fill="#D11C56"/>
<path d="M50.8065 177.376C51.5163 177.327 52.0308 176.493 51.9555 175.512C51.8802 174.531 51.2437 173.775 50.5338 173.824C49.824 173.872 49.3096 174.707 49.3849 175.688C49.4602 176.668 50.0967 177.424 50.8065 177.376Z" fill="#F46292"/>
<path d="M95.7016 228.72C90.3825 242.293 100.308 276.633 101.905 297.685C102.659 306.262 112.756 308.627 117.931 305.887C120.775 304.381 122.14 302.009 121.536 297.969C119.802 264.74 123.202 240.496 123.531 230.103C123.882 216.497 102.858 210.27 95.7016 228.72Z" fill="#F7B7A4"/>
<path d="M101.646 168.532C98.5278 172.861 96.1371 177.618 94.5584 182.635C89.4723 199.544 96.7724 220.918 95.5523 229.14C93.0024 244.749 120.229 249.577 123.532 230.084L128.331 188.685C132.177 166.25 107.76 161.61 101.646 168.532Z" fill="#F7B7A4"/>
<path d="M121.41 297.458C124.837 300.968 133.748 308.653 136.963 309.984C144.324 311.697 146.641 313.41 145.812 316.997C144.324 321.205 136.551 320.74 136.551 320.74C134.893 323.545 124.713 325.18 118.839 321.593C112.965 318.005 100.976 320.268 98.495 315.045C96.0753 310.333 100.503 304.193 101.867 297.503C104.232 291.492 113.314 288.649 121.41 297.458Z" fill="#F7B7A4"/>
<path d="M98.0459 310.001C94.7557 313.195 93.1394 320.537 101.655 322.182C110.172 323.826 114.953 324.315 121.506 326.608C132.978 330.624 147.622 325.97 147.622 316.094L113.53 305.53L98.0459 310.001Z" fill="#367757"/>
<path d="M97.2043 272.362C96.9748 272.421 96.7602 272.523 96.5735 272.662C96.3868 272.801 96.2317 272.974 96.1175 273.171C96.0033 273.368 95.9324 273.585 95.9089 273.808C95.8854 274.031 95.9098 274.257 95.9808 274.471C99.8878 286.469 101.732 294.848 100.01 299.081C95.7176 309.633 95.6284 314.907 95.6284 314.907C97.7828 319.13 116.244 320.633 116.244 320.633C116.244 320.633 123.167 324.63 129.797 324.327C134.71 324.101 144.91 321.67 147.619 316.094C145.288 310.578 137.56 310.896 132.203 306.205C126.846 301.513 124.194 299.701 122.717 295.321C121.289 291.088 125.285 269.736 126.418 258.316C126.453 257.947 126.37 257.577 126.18 257.253C125.991 256.928 125.704 256.665 125.355 256.495C119.803 253.727 110.748 254.608 107.435 263.305C106.667 265.5 105.329 267.479 103.542 269.061C101.755 270.643 99.5759 271.778 97.2043 272.362Z" fill="#4D8D6E"/>
<path d="M125.735 264.078C117.556 259.54 110.459 265.137 112.91 273.167C114.592 278.675 110.934 282.957 106.527 284.226C106.314 284.287 106.124 284.402 105.977 284.559C105.83 284.716 105.732 284.908 105.695 285.114C105.657 285.321 105.681 285.532 105.764 285.727C105.847 285.921 105.985 286.089 106.164 286.213C111.712 289.949 118.772 287.263 119.233 283.022C119.749 278.277 116.753 268.502 125.024 269.287C125.072 268.969 125.735 264.078 125.735 264.078Z" fill="#5A9F7E"/>
<path d="M124.669 271.846C120.915 274.626 121.017 281.218 123.093 283.642C123.124 283.388 124.669 271.846 124.669 271.846Z" fill="#5A9F7E"/>
<path d="M122.479 290.23C120.628 291.758 118.499 291.005 116.948 289.998C116.809 289.911 116.646 289.865 116.48 289.864C116.313 289.863 116.15 289.907 116.01 289.991C115.869 290.076 115.758 290.196 115.688 290.339C115.619 290.482 115.595 290.64 115.619 290.796C116.136 294.055 119.476 296.206 123.159 296.465C122.12 294.442 122.479 290.23 122.479 290.23Z" fill="#5A9F7E"/>
<path d="M116.857 99.5092L117.008 84.6432H144.104L142.863 100.556C142.479 104.091 137.379 106.535 131.731 106.406C123.437 106.238 116.953 102.321 116.857 99.5092Z" fill="#FA9D88"/>
<path d="M71.6974 60.2501C71.5878 61.937 71.4027 77.4428 82.3288 82.7105C90.2389 86.5239 98.4713 83.2404 98.4713 83.2404C113.915 81.0234 109.658 54.6464 94.2146 56.8634C90.095 46.496 71.7591 49.3527 71.6974 60.2501Z" fill="#FAC7B5"/>
<path d="M168.416 38.9208L166.716 63.314C166.716 63.314 165.242 75.5363 160.06 85.1022C154.618 95.1464 145.234 102.521 134.047 103.083C119.454 103.814 103.394 93.7308 97.3552 81.4567C83.9203 76.9323 71.4244 48.1248 86.6072 20.7004C97.9446 0.250082 166.257 -6.78218 168.416 38.9208Z" fill="#FAC7B5"/>
<path d="M128.153 84.4687C128.516 84.585 128.9 84.6948 129.291 84.7982L131.203 86.2073L146.729 86.0909L149.82 83.5961C150.08 83.4668 150.334 83.3245 150.574 83.1823C148.703 94.81 131.218 95.198 128.153 84.4687Z" fill="#E46650"/>
<path d="M149.817 83.5831C144.608 86.2073 135.464 86.4077 129.253 84.7919C130.693 90.2082 148.405 90.5249 149.817 83.5831Z" fill="white"/>
<path d="M156.475 69.8483C155.989 69.9323 150.93 70.9665 152.363 77.6044C153.487 82.8075 161.822 81.4372 162.836 78.8971C163.941 76.0423 164.814 73.1123 165.448 70.1326C165.66 68.7818 164.577 67.9609 162.918 69.0984C159.553 70.3653 158.861 69.4411 156.475 69.8483Z" fill="#FA9D88"/>
<path d="M111.227 72.1815C108.896 71.8196 105.339 73.0864 103.618 76.4926C100.993 81.6633 106.244 87.9265 115.957 87.4482C126.362 86.9376 129.714 80.1512 127.691 76.913C126.115 74.3858 121.817 75.0127 118.616 74.9739C115.888 74.9261 113.557 72.5306 111.227 72.1815Z" fill="#FA9D88"/>
<path d="M147.995 63.5854C154.767 55.0084 162.046 56.8052 164.72 62.2021C165.009 77.6498 147.256 78.0183 147.995 63.5854Z" fill="white"/>
<path d="M147.7 63.4819C154.074 55.8162 163.136 55.8874 165.357 63.9344" stroke="#0D0C14" stroke-width="2.58537" stroke-linecap="round" stroke-linejoin="round"/>
<path d="M154.112 58.7674C151.288 64.3324 154.284 74.4284 158.986 73.4265C160.953 73.0064 165.395 69.0507 164.709 61.8504C162.967 58.0008 159.272 56.9214 154.112 58.7674Z" fill="#0D0C14"/>
<path d="M158.289 73.5125C160.398 73.5125 162.107 71.128 162.107 68.1866C162.107 65.2452 160.398 62.8607 158.289 62.8607C156.181 62.8607 154.471 65.2452 154.471 68.1866C154.471 71.128 156.181 73.5125 158.289 73.5125Z" fill="#0D0C14"/>
<path d="M106.132 67.0044C112.904 58.4274 121.966 57.3415 128.066 63.1974C129.1 77.5979 111.936 79.5112 106.132 67.0044Z" fill="white"/>
<path d="M105.743 67.36C113.07 57.096 123.702 57.3029 128.061 63.2105" stroke="#0D0C14" stroke-width="2.58537" stroke-linecap="round" stroke-linejoin="round"/>
<path d="M115.281 60.0367C112.498 68.1936 116.378 75.2906 120.34 75.0449C124.302 74.7993 128.736 70.5204 128.209 63.2296C126.534 61.6833 124.461 60.5755 122.194 60.0156C119.927 59.4556 117.544 59.4629 115.281 60.0367Z" fill="#0D0C14"/>
<path d="M120.255 75.0703C122.753 75.0703 124.779 72.5527 124.779 69.4471C124.779 66.3415 122.753 63.8239 120.255 63.8239C117.756 63.8239 115.731 66.3415 115.731 69.4471C115.731 72.5527 117.756 75.0703 120.255 75.0703Z" fill="#0D0C14"/>
<path d="M145.362 47.5366C145.315 47.1244 145.429 46.7104 145.681 46.3708C145.933 46.0311 146.306 45.7887 146.733 45.6881C152.504 44.738 166.364 44.4341 168.585 45.9337C168.585 47.7305 166.857 51.1883 163.286 50.988C159.173 50.7527 145.595 48.7 145.362 47.5366Z" fill="#D11C56"/>
<path d="M102.501 54.478C102.501 54.478 106.867 47.7563 110.624 46.5218C115.374 44.9641 124.333 45.2999 127.458 46.3987C127.794 46.5215 128.144 47.4328 128.144 47.853C128.096 49.1327 115.588 53.9674 102.501 54.478Z" fill="#D11C56"/>
<path d="M101.643 168.532C86.5073 175.084 78.824 220.134 50.5381 240.529C49.9694 240.935 49.5343 241.484 49.2832 242.113C49.0321 242.743 48.9752 243.426 49.1193 244.085C49.2633 244.744 49.6024 245.35 50.0971 245.835C50.5918 246.319 51.222 246.661 51.9146 246.822C121.981 263.142 135.907 234.541 138.329 174.161C118.355 176.22 101.643 168.532 101.643 168.532Z" fill="#FFEAE6"/>
<path d="M150.619 168.532C146.689 172.794 122.982 174.556 122.982 174.556C130.958 236.626 145.18 257.03 193.436 247.751C194.11 247.619 194.733 247.318 195.241 246.88C195.749 246.441 196.122 245.882 196.321 245.261C196.52 244.639 196.537 243.978 196.371 243.348C196.204 242.718 195.861 242.143 195.377 241.681C177.595 224.635 175.207 180.42 150.619 168.532Z" fill="#FFEAE6"/>
<path opacity="0.6" d="M102.265 177.104C87.1293 183.656 82.1304 203.559 53.8445 223.953C51.3172 225.776 52.0513 229.987 55.2215 230.246C118.304 235.408 130.591 222.845 133.139 177.964C113.165 180.021 102.265 177.104 102.265 177.104Z" fill="white"/>
<path opacity="0.6" d="M147.113 171.982C143.184 176.244 129.834 176.289 129.834 176.289C136.631 216.865 149.074 240.944 191.719 232.409C194.687 231.815 195.948 228.219 193.66 226.34C173.518 209.799 171.701 183.87 147.113 171.982Z" fill="white"/>
<path d="M101.261 167.741C101.261 167.741 102.58 154.947 99.8701 146.066C119.482 128.911 141.095 127.972 151.398 133.618C157.169 136.781 151.457 168.533 151.457 168.533C151.457 168.533 130.093 184.712 101.261 167.741Z" fill="#4D8D6E"/>
<path d="M101.329 166.921C81.3946 177.658 67.2688 190.987 78.3662 201.053C89.4637 211.118 114.49 197.613 117.074 187.393C121.551 210.996 147.234 207.589 150.104 187.393C167.2 209.171 178.839 203.666 175.91 191.545C173.155 180.148 159.513 171.935 151.454 168.532C132.944 179.241 101.329 166.921 101.329 166.921Z" fill="#4D8D6E"/>
<path d="M101.33 166.921C113.848 173.714 138.329 178.337 151.454 168.532" stroke="white" stroke-width="3.23172" stroke-linecap="round" stroke-linejoin="round"/>
<path d="M100.996 153.008C123.937 168.532 151.909 165.007 151.909 165.007" stroke="white" stroke-width="3.23172" stroke-linecap="round" stroke-linejoin="round"/>
<path d="M153.24 155.857C137.395 172.671 101.33 166.921 101.33 166.921" stroke="white" stroke-width="3.23172" stroke-linecap="round" stroke-linejoin="round"/>
<path d="M174.307 20.0326L135.501 24.9922C123.478 18.9037 108.127 18.0827 89.9072 18.3994C102.945 -4.47148 159.85 -8.31538 174.307 20.0326Z" fill="#E84576"/>
<path d="M135.499 24.9923C98.0811 16.7191 108.433 72.3586 126.108 109.65C137.118 139.866 110.351 151.742 104.679 151.745C99.2704 151.749 106.675 138.849 101.682 132.036C96.6896 125.223 66.4976 103.778 66.4976 65.6936C66.4948 -15.6119 134.889 9.49426 135.499 24.9923Z" fill="#E84576"/>
<path d="M135.5 25.0017C161.311 20.8147 154.213 60.3148 168.37 70.35C168.819 70.6654 169.352 70.8563 169.91 70.901C170.468 70.9457 171.028 70.8423 171.527 70.6027C172.026 70.3632 172.444 69.9969 172.734 69.5452C173.024 69.0935 173.174 68.5744 173.168 68.0464C172.977 50.5195 183.854 12.7279 158.701 8.64369C138.487 5.36091 135.5 25.0017 135.5 25.0017Z" fill="#E84576"/>
<path d="M135.5 24.9921C143.332 4.40025 174.023 9.44111 168.874 43.2908C168.807 43.6866 168.61 44.0525 168.31 44.3367C168.01 44.6209 167.623 44.8088 167.204 44.8738C166.784 44.9388 166.354 44.8777 165.973 44.699C165.593 44.5202 165.282 44.233 165.084 43.8781C154.471 26.0914 151.487 24.645 135.5 24.9921Z" fill="#D11C56"/>
<path d="M92.8805 50.9965C71.6705 69.4476 79.7972 93.1031 93.9326 98.9777C97.9323 83.8914 92.8805 50.9965 92.8805 50.9965Z" fill="#D11C56"/>
<path d="M90.6926 79.1634C84.7011 80.5207 72.0908 78.8253 64.4748 58.5902C64.3275 58.1895 64.2971 57.7589 64.387 57.3433C64.4768 56.9278 64.6836 56.5427 64.9855 56.2283C65.2874 55.914 65.6734 55.6818 66.103 55.5564C66.5327 55.431 66.9902 55.4171 67.4277 55.5157C82.0018 58.7578 91.2046 61.2033 95.2687 67.2278C90.8173 71.3063 90.6926 79.1634 90.6926 79.1634Z" fill="#FAC7B5"/>
<path d="M92.8814 50.9965C92.8814 50.9965 83.1144 79.5163 96.43 104.296C114.774 84.2566 92.8814 50.9965 92.8814 50.9965Z" fill="#E84576"/>
<path d="M92.8074 45.608C93.2433 42.1915 87.4125 38.7198 79.7839 37.8537C72.1553 36.9877 65.6174 39.0552 65.1814 42.4717C64.7455 45.8882 70.5766 49.36 78.2052 50.226C85.8339 51.0921 92.3714 49.0246 92.8074 45.608Z" fill="#4D8D6E"/>
<path d="M90.8066 48.4638C94.2041 47.2113 94.6911 40.7277 91.8943 33.9823C89.0974 27.2369 84.0757 22.7838 80.6781 24.0364C77.2806 25.289 76.7938 31.7728 79.5907 38.5182C82.3875 45.2636 87.409 49.7164 90.8066 48.4638Z" fill="#4D8D6E"/>
<path d="M93.7869 44.1872C95.0925 44.7559 96.5478 44.9464 97.9682 44.7341C99.3904 44.5225 100.714 43.9186 101.773 42.9987C102.827 42.077 103.569 40.8824 103.905 39.5646C104.243 38.2463 104.16 36.8631 103.664 35.5897C103.165 34.3181 102.28 33.2133 101.119 32.4135C99.955 31.6156 98.5668 31.1606 97.1292 31.106C95.6909 31.0519 94.2677 31.4003 93.0391 32.1077C91.8124 32.8144 90.8365 33.8495 90.2356 35.0809C89.834 35.8987 89.6078 36.7832 89.57 37.6837C89.531 38.5841 89.681 39.4831 90.0115 40.3287C90.342 41.1732 90.844 41.9487 91.4893 42.6121C92.1384 43.274 92.919 43.8092 93.7869 44.1872Z" fill="#FFF1E1"/>
<path d="M97.4546 53.1316C98.7603 53.6999 100.215 53.8905 101.636 53.6792C103.058 53.4673 104.382 52.8632 105.441 51.9431C106.494 51.0204 107.237 49.8267 107.578 48.5097C107.912 47.1906 107.826 45.8082 107.332 44.5347C106.835 43.2621 105.949 42.1568 104.786 41.3586C103.623 40.5605 102.234 40.1054 100.797 40.0504C99.3602 39.9959 97.9387 40.3444 96.7123 41.0521C95.4835 41.7584 94.5052 42.7934 93.9018 44.0254C93.5006 44.8431 93.2743 45.7274 93.2359 46.6278C93.1974 47.5281 93.3476 48.4269 93.6778 49.2725C94.3442 50.9802 95.7028 52.3682 97.4546 53.1316Z" fill="#FFF1E1"/>
<path d="M85.1579 47.3413C86.4636 47.9097 87.9188 48.1001 89.3392 47.8882C90.7599 47.6766 92.0821 47.0724 93.1386 46.1521C94.1959 45.2325 94.9398 44.0375 95.2759 42.7187C95.6121 41.4001 95.5265 40.0172 95.0298 38.7444C94.5326 37.4716 93.6468 36.3662 92.4841 35.5676C91.3202 34.7696 89.9318 34.3147 88.494 34.2601C87.0574 34.2061 85.636 34.5546 84.4094 35.2618C83.182 35.9696 82.2042 37.0042 81.5991 38.235C80.7915 39.8873 80.7109 41.774 81.3749 43.4822C82.0436 45.1905 83.4043 46.5785 85.1579 47.3413Z" fill="#FFF1E1"/>
<path d="M88.8341 56.2815C90.1396 56.8504 91.5949 57.041 93.0154 56.829C94.4361 56.6174 95.7583 56.0132 96.8149 55.0929C97.8721 54.173 98.616 52.9779 98.9521 51.6589C99.2887 50.3403 99.203 48.9573 98.7061 47.6846C98.209 46.4117 97.3228 45.3064 96.1595 44.5084C94.9963 43.7099 93.608 43.2547 92.1702 43.2003C90.7337 43.1466 89.3124 43.4951 88.0856 44.202C86.8584 44.91 85.8806 45.9445 85.2753 47.1752C84.4677 48.8277 84.3871 50.7146 85.0511 52.423C85.7201 54.131 87.0807 55.5187 88.8341 56.2815Z" fill="#FFF1E1"/>
<path d="M92.3889 48.0426C93.2259 48.4067 94.1585 48.529 95.0691 48.3942C95.9788 48.258 96.8255 47.8713 97.503 47.2829C98.1795 46.6946 98.6548 45.9296 98.8678 45.0854C99.0856 44.2417 99.0312 43.3558 98.7115 42.5414C98.3938 41.7267 97.827 41.0191 97.0829 40.508C96.3392 39.9965 95.4514 39.7043 94.5316 39.6679C93.6107 39.6325 92.6994 39.8557 91.9132 40.3095C91.1286 40.7631 90.5037 41.4255 90.1173 42.2132C89.8595 42.7368 89.714 43.3031 89.689 43.8798C89.6639 44.4566 89.7599 45.0323 89.9714 45.574C90.4003 46.6653 91.2693 47.5527 92.3889 48.0426Z" fill="#F2C26E"/>
</svg>
