<svg width="272" height="203" viewBox="0 0 272 203" fill="none" xmlns="http://www.w3.org/2000/svg">
<path d="M94.5747 163.132C92.0547 167.384 91.5826 188.932 93.4746 191.605C95.5216 194.597 107.962 193.805 109.222 192.55C112.372 189.4 110.01 165.021 108.907 163.604C108.275 162.659 94.5747 163.132 94.5747 163.132Z" fill="#008CA8"/>
<path d="M155.563 120.926C155.563 120.926 164.443 121.679 171.83 116.466C177.16 112.703 182.298 109.045 188.206 110.395C195.32 112.021 206.568 120.995 200.77 128.324C190.792 140.941 160.17 136.943 160.17 136.943C160.17 136.943 146.35 135.635 146.954 127.459C147.558 119.283 155.563 120.926 155.563 120.926Z" fill="#03789C"/>
<path d="M71.8427 164.763C69.3237 169.015 68.8507 190.563 70.7427 193.236C72.7897 196.228 85.2296 195.436 86.4896 194.181C89.6386 191.031 87.2767 166.652 86.1747 165.235C85.5427 164.29 71.8427 164.763 71.8427 164.763Z" fill="#008CA8"/>
<path d="M155.675 146.218C155.675 164.128 141.975 175.943 105.55 175.943C70.3497 175.943 47.6666 170.071 47.6666 152.161C47.6666 129.993 72.3136 118.432 105.928 118.432C139.542 118.432 155.675 124.109 155.675 146.218Z" fill="#00B5B2"/>
<path d="M53.4056 125.576C53.4056 125.576 47.5917 132.899 38.9697 135.621C32.2967 137.727 17.4077 137.95 13.4697 142.559C8.73071 148.109 10.0947 157.406 19.1217 159.829C34.6577 163.998 59.2667 141.176 59.2667 141.176C59.2667 141.176 69.5747 131.876 64.2107 125.676C58.8467 119.476 53.4056 125.576 53.4056 125.576Z" fill="#008CA8"/>
<path d="M49.6627 124.58C59.0507 158.615 114.363 186.638 126.428 184.094C142.022 180.807 169.118 150.219 165.422 114.244C162.1 81.9297 38.6617 84.6957 49.6627 124.58Z" fill="#5159B1"/>
<mask id="mask0_16_22321" style="mask-type:luminance" maskUnits="userSpaceOnUse" x="48" y="92" width="118" height="93">
<path d="M49.6627 124.58C59.0507 158.615 114.363 186.638 126.428 184.094C142.022 180.807 169.118 150.219 165.422 114.244C162.1 81.9297 38.6617 84.6957 49.6627 124.58Z" fill="white"/>
</mask>
<g mask="url(#mask0_16_22321)">
<path d="M76.6876 130.231C76.6876 130.231 74.5486 139.993 75.4216 141.331C76.2946 142.669 85.4547 140.724 87.1377 142.546C88.8207 144.368 84.6376 156.546 86.5736 158.357C88.5096 160.168 101.338 156.29 103.515 157.793C105.692 159.296 107.715 170.647 109.868 171.871C112.021 173.095 120.802 163.08 122.921 163.744C125.04 164.408 137.046 168.125 138.033 167.478C139.02 166.831 138.2 154.269 139.938 153.278C141.676 152.287 151.556 149.568 152.503 148.36C153.45 147.152 148.024 134.668 148.885 132.34C149.746 130.012 160.144 127.584 161.03 124.33C161.523 122.52 155.468 112.619 155.468 112.619L174.853 114.776L180.234 189.238L66.4027 198.995L37.4437 95.1047L76.6876 130.231Z" fill="#BD51A7"/>
</g>
<path d="M32.6646 69.7686C32.6646 69.7686 24.3896 20.7596 40.6036 10.1386C56.8176 -0.482359 97.9476 17.3016 97.9476 17.3016L32.6646 69.7686Z" fill="#F08030"/>
<path d="M45.6396 117.818C45.6396 117.818 39.8186 125.357 22.3617 127.495C10.0297 129.005 1.78961 127.725 0.816606 125.454C-0.156394 123.183 -8.44338 74.9727 59.4516 28.5127C123.546 -15.3463 175.377 3.99567 176.634 5.73767C177.891 7.47967 174.749 17.7377 168.892 26.6997C158.378 42.7797 149.599 42.1997 149.599 42.1997C112.823 40.5687 48.1576 75.1007 45.6396 117.818Z" fill="#D83828"/>
<mask id="mask1_16_22321" style="mask-type:luminance" maskUnits="userSpaceOnUse" x="0" y="0" width="177" height="129">
<path d="M45.6396 117.818C45.6396 117.818 39.8186 125.357 22.3617 127.495C10.0297 129.005 1.78961 127.725 0.816606 125.454C-0.156394 123.183 -8.44338 74.9727 59.4516 28.5127C123.546 -15.3463 175.377 3.99567 176.634 5.73767C177.891 7.47967 174.749 17.7377 168.892 26.6997C158.378 42.7797 149.599 42.1997 149.599 42.1997C112.823 40.5687 48.1576 75.1007 45.6396 117.818Z" fill="white"/>
</mask>
<g mask="url(#mask1_16_22321)">
<path d="M16.6337 134.489C19.1337 127.9 9.24064 108.004 10.2336 106.63C11.2266 105.256 29.2417 95.5117 30.8257 94.0427C32.4097 92.5737 26.1647 70.5097 28.6807 68.0427C31.1967 65.5757 48.8806 61.1707 52.0216 59.5727C55.1626 57.9747 65.2216 34.0347 67.9276 32.7487C70.6336 31.4627 89.3577 35.3877 93.6217 33.9727C97.8857 32.5577 109.822 13.2087 111.975 12.9837C114.128 12.7587 130.819 22.9687 133.716 22.8667C136.613 22.7647 154.972 9.66667 157.434 9.87867C159.896 10.0907 168.918 28.2257 173.998 31.7137C179.078 35.2017 186.482 -8.96233 186.482 -8.96233L162.082 -42.9053L-41.6304 86.1117L3.46362 142.758C3.46362 142.758 14.1267 141.078 16.6337 134.489Z" fill="#FAA600"/>
</g>
<path d="M180.014 72.2766C184.249 103.054 158.436 117.627 116.414 128.311C74.3917 138.995 45.4597 132.153 43.0757 109.83C39.9697 80.7476 55.9368 61.2386 97.2878 46.3006C146.171 28.6376 176.734 48.4376 180.014 72.2766Z" fill="#29CBB8"/>
<path d="M126.049 117.243C118.375 138.489 91.1138 149.488 67.8298 141.077C44.5458 132.666 34.8297 106.815 44.4887 86.3937C54.3707 65.4997 74.4998 55.1347 97.7888 63.5447C121.078 71.9547 133.723 95.9957 126.049 117.243Z" fill="#29CBB8"/>
<path d="M166.464 49.9716C190.746 65.0296 194.55 90.6317 181.493 108.383C168.436 126.134 143.1 129.673 124.904 116.289C106.708 102.905 102.541 77.6626 115.598 59.9116C128.655 42.1606 147.267 38.0656 166.464 49.9716Z" fill="#29CBB8"/>
<path d="M96.9127 103.86C102.38 102.119 107.003 98.4069 109.885 93.4457C112.767 88.4846 113.7 82.629 112.504 77.0178C111.307 71.4066 108.067 66.4409 103.412 63.0867C98.7574 59.7324 93.0215 58.2293 87.32 58.8697C81.6185 59.5101 76.3591 62.2483 72.5645 66.5516C68.77 70.8549 66.7117 76.4158 66.79 82.1526C66.8683 87.8894 69.0776 93.392 72.9881 97.5902C76.8986 101.788 82.2308 104.382 87.9476 104.867C90.9731 105.124 94.0196 104.781 96.9127 103.86Z" fill="white"/>
<path d="M138.499 90.4977C143.637 88.8073 148.03 85.3873 150.929 80.8207C153.829 76.2541 155.055 70.8233 154.398 65.4541C153.742 60.0848 151.244 55.1093 147.33 51.3754C143.416 47.6416 138.329 45.3805 132.935 44.9775C127.54 44.5746 122.173 46.0546 117.748 49.1655C113.323 52.2764 110.113 56.8255 108.667 62.0377C107.22 67.2498 107.625 72.8024 109.814 77.7491C112.002 82.6959 115.839 86.7306 120.669 89.1657C126.201 91.955 132.614 92.4341 138.499 90.4977Z" fill="white"/>
<path d="M100.204 98.6987C102.757 97.8597 104.907 96.1011 106.235 93.765C107.564 91.4288 107.976 88.6821 107.392 86.0589C106.807 83.4357 105.268 81.1235 103.074 79.5721C100.88 78.0206 98.1865 77.3408 95.5186 77.6647C92.8507 77.9887 90.3987 79.2933 88.6393 81.3249C86.88 83.3564 85.939 85.9697 85.9994 88.6565C86.0599 91.3433 87.1176 93.9116 88.9666 95.8619C90.8156 97.8122 93.3239 99.0051 96.0037 99.2087C97.4236 99.3163 98.8508 99.143 100.204 98.6987Z" fill="#0D2A5E"/>
<path d="M138.225 86.5027C140.722 85.7158 142.838 84.0281 144.16 81.7677C145.482 79.5074 145.917 76.8361 145.379 74.2733C144.84 71.7106 143.368 69.4396 141.249 67.902C139.129 66.3645 136.513 65.6703 133.91 65.9546C131.307 66.2388 128.902 67.4811 127.164 69.4398C125.426 71.3986 124.479 73.9337 124.506 76.5522C124.534 79.1708 125.534 81.6854 127.313 83.6072C129.092 85.5289 131.522 86.7203 134.131 86.9497C135.511 87.0711 136.903 86.9192 138.225 86.5027Z" fill="#0D2A5E"/>
<path d="M133.714 92.4647C137.514 100.946 130.353 106.183 125.241 107.523C121.29 108.559 117.048 107.017 113.241 98.5347C109.434 90.0527 110.733 77.3776 112.041 76.7896C113.349 76.2016 129.634 83.3767 133.714 92.4647Z" fill="#D64245"/>
<path d="M161.759 119.101C148.717 113.421 136.353 108.89 136.353 108.89C134.018 108.09 131.336 112.324 133.867 114.301L155.951 124.673L161.759 119.101Z" fill="#F08622"/>
<path d="M206.088 138.438L189.853 131.944L186.324 139.567C186.324 139.567 202.385 146.792 208.178 150.267C213.971 153.742 229.218 168.349 232.041 192.208L257.1 137.219C239.241 147.238 217.181 143.214 206.088 138.438Z" fill="#F79728"/>
<path d="M248.477 144.975C249.524 145.983 246.659 149.383 245.707 147.821C244.755 146.259 247.434 143.967 248.477 144.975Z" fill="#FFB43B"/>
<path d="M240.665 147.353C240.757 149.442 232.437 149.36 232.613 147.933C232.789 146.506 240.573 145.268 240.665 147.353Z" fill="#FFB43B"/>
<path d="M193.707 128.499L190.893 127.199L186.599 136.528L189.412 137.823L193.707 128.499Z" fill="#E37425"/>
<path d="M193.293 136.768L183.039 159.044" stroke="#F08622" stroke-width="3.727" stroke-miterlimit="10" stroke-linecap="round"/>
<path d="M184.572 133.438L174.318 155.715" stroke="#F08622" stroke-width="3.727" stroke-miterlimit="10" stroke-linecap="round"/>
<path d="M175.852 130.11L165.598 152.387" stroke="#F08622" stroke-width="3.727" stroke-miterlimit="10" stroke-linecap="round"/>
<path d="M167.134 126.78L156.88 149.057" stroke="#F08622" stroke-width="3.727" stroke-miterlimit="10" stroke-linecap="round"/>
<path d="M195.063 127.651L190.695 125.64C190.514 125.556 190.319 125.51 190.12 125.502C189.921 125.494 189.723 125.526 189.536 125.595C189.35 125.664 189.179 125.769 189.033 125.904C188.887 126.039 188.769 126.202 188.686 126.383C188.602 126.563 188.556 126.759 188.548 126.958C188.54 127.157 188.572 127.355 188.641 127.542C188.71 127.728 188.815 127.899 188.95 128.046C189.085 128.192 189.248 128.31 189.429 128.393L193.797 130.403C193.977 130.486 194.173 130.533 194.371 130.54C194.57 130.548 194.769 130.516 194.955 130.447C195.142 130.378 195.313 130.273 195.459 130.138C195.605 130.003 195.723 129.84 195.806 129.66C195.889 129.479 195.936 129.284 195.943 129.085C195.951 128.886 195.92 128.688 195.851 128.501C195.782 128.315 195.676 128.143 195.541 127.998C195.406 127.852 195.243 127.734 195.063 127.651Z" fill="#E37425"/>
<path d="M184.955 124.404L182.141 123.104L177.847 132.434L180.66 133.728L184.955 124.404Z" fill="#E37425"/>
<path d="M186.31 123.557L181.942 121.547C181.761 121.463 181.566 121.417 181.367 121.409C181.168 121.401 180.97 121.433 180.783 121.501C180.597 121.57 180.426 121.675 180.28 121.81C180.134 121.945 180.016 122.108 179.933 122.289C179.849 122.469 179.803 122.665 179.795 122.864C179.787 123.062 179.819 123.261 179.888 123.448C179.957 123.634 180.062 123.805 180.197 123.951C180.332 124.098 180.495 124.215 180.676 124.299L185.044 126.309C185.224 126.392 185.42 126.439 185.618 126.446C185.817 126.454 186.016 126.422 186.202 126.353C186.389 126.284 186.56 126.179 186.706 126.044C186.852 125.909 186.97 125.746 187.053 125.566C187.22 125.201 187.236 124.784 187.097 124.407C186.958 124.031 186.675 123.725 186.31 123.557Z" fill="#E37425"/>
<path d="M176.626 120.593L173.812 119.298L169.518 128.627L172.332 129.927L176.626 120.593Z" fill="#E37425"/>
<path d="M177.981 119.745L173.613 117.735C173.432 117.651 173.237 117.605 173.038 117.597C172.839 117.589 172.641 117.621 172.454 117.69C172.268 117.759 172.097 117.864 171.951 117.999C171.805 118.134 171.687 118.297 171.604 118.478C171.52 118.658 171.474 118.854 171.466 119.052C171.458 119.251 171.49 119.45 171.559 119.636C171.628 119.823 171.733 119.994 171.868 120.14C172.003 120.286 172.166 120.404 172.347 120.487L176.714 122.498C177.079 122.666 177.496 122.682 177.872 122.542C178.249 122.403 178.556 122.12 178.724 121.755C178.807 121.574 178.854 121.379 178.861 121.18C178.869 120.981 178.838 120.782 178.769 120.596C178.7 120.409 178.594 120.238 178.459 120.092C178.324 119.946 178.162 119.828 177.981 119.745Z" fill="#E37425"/>
<path d="M201.624 142.059L159.434 122.638C158.043 121.997 156.539 121.638 155.009 121.578C153.479 121.519 151.952 121.762 150.516 122.293C149.08 122.824 147.762 123.632 146.639 124.672C145.515 125.712 144.607 126.964 143.967 128.355L143.467 129.448C142.174 132.257 142.049 135.464 143.121 138.365C144.193 141.266 146.374 143.622 149.183 144.915L191.376 164.336C194.185 165.629 197.392 165.753 200.293 164.681C203.194 163.609 205.549 161.429 206.843 158.62L207.343 157.526C207.983 156.135 208.343 154.631 208.402 153.101C208.461 151.571 208.218 150.044 207.687 148.608C207.156 147.171 206.347 145.854 205.306 144.73C204.266 143.606 203.015 142.699 201.624 142.059Z" stroke="#F79728" stroke-width="9" stroke-miterlimit="10" stroke-linecap="round"/>
<path d="M266.77 135.13C274.322 139.054 271.696 157.899 263.311 176.183C254.926 194.467 243.35 205.089 236.411 201.342C229.292 197.501 231.072 180.632 239.457 162.348C247.842 144.064 259.361 131.28 266.77 135.13Z" fill="#F79728"/>
<path d="M264.872 141.006C270.285 144.475 267.884 160.836 260.911 176.042C253.938 191.248 245.099 198.771 239.62 196.069C234.831 193.708 236.699 179.852 242.558 164.183C248.628 147.953 260.064 137.924 264.872 141.006Z" fill="#F08622"/>
<path d="M249.264 153.243C251.483 154.261 250.964 160.385 248.634 167.093C246.087 174.419 241.359 178.443 238.888 177.102C236.743 175.937 237.638 169.863 240.598 163.407C243.558 156.951 247.045 152.225 249.264 153.243Z" fill="#E37425"/>
<path d="M200.687 146.524C205.242 148.702 210.781 151.224 212.829 154.289C212.779 155.102 212.637 155.907 212.405 156.689C209.823 154.331 206.864 152.422 203.652 151.042C203.245 149.225 202.191 147.619 200.687 146.524Z" fill="#F08622"/>
<path d="M136.255 100.961C138.632 105.972 137.917 108.427 131.109 110.187C135.031 114.164 132.409 118.805 126.418 119.43" stroke="#00A4BA" stroke-width="3" stroke-linecap="round" stroke-linejoin="round"/>
<path d="M203.089 125.275C201.195 129.635 194.754 127.499 187.642 124.411C180.53 121.323 175.442 118.451 177.334 114.091C179.226 109.731 186.528 108.699 193.64 111.791C200.752 114.883 204.982 120.914 203.089 125.275Z" fill="#008CA8"/>
</svg>
