<svg width="194" height="194" viewBox="0 0 194 194" fill="none" xmlns="http://www.w3.org/2000/svg">
<path d="M34.7272 108.91C34.0935 154.229 62.1099 176.71 97.1033 177.126C132.097 177.542 160.733 155.734 161.366 110.415C162 65.0956 130.6 18.0208 99.3333 17.6492C68.0669 17.2776 35.3609 63.5905 34.7272 108.91Z" fill="#FFD15B"/>
<path fill-rule="evenodd" clip-rule="evenodd" d="M161.302 112.594L148.582 118.535C147.064 119.243 145.212 118.666 144.472 117.255L126.734 83.4308C124.931 79.9915 120.005 79.1871 117.03 81.846L74.2381 120.088C72.9893 121.204 70.9814 121.129 69.8357 119.922L51.959 101.1C49.455 98.4638 44.9702 98.5688 42.6146 101.319L34.7048 110.553C34.7601 154.779 62.5211 176.725 97.0915 177.136C131.522 177.545 159.798 156.44 161.302 112.594Z" fill="#FF8F0D"/>
</svg>
