<svg width="179" height="442" viewBox="0 0 179 442" fill="none" xmlns="http://www.w3.org/2000/svg">
<path d="M83.7364 126.212C58.2415 119.489 38.862 163.447 38.862 163.447C37.5705 182.174 30.6801 184.544 30.228 188.134C32.6626 207.275 59.7978 217.058 69.2066 208.037C107.765 226.725 144.083 116.732 83.7364 126.212Z" fill="#573928"/>
<path d="M92.7197 204.291C118.893 210.032 141.682 193.1 141.682 183.472C141.682 180.081 136.18 171.848 134.966 156.052C134.966 156.052 130.697 142.123 129.393 138.901C125.744 132.307 125.015 127.974 114.663 126.954L92.7197 204.291Z" fill="#64402C"/>
<path d="M88.3291 203.432C119.584 212.402 137.182 192.17 137.182 192.17C137.182 192.17 133.617 190.349 132.157 180.721C130.698 171.092 133.74 157.576 133.74 157.576C133.74 157.576 132.338 141.923 131.04 138.701C127.385 132.107 120.643 127.116 110.253 126.095L88.3291 203.432Z" fill="#573928"/>
<path d="M121.424 275.28C130.336 287.879 140.3 298.25 147.804 304.676C154.417 310.346 166.092 299.884 158.588 292.212C151.44 284.883 141.185 264.987 141.185 264.987C133.242 253.705 114.553 265.29 121.424 275.28Z" fill="#F7B7A4"/>
<path d="M102.594 240.88C105.106 250.076 111.874 262.559 120.779 274.518C128.709 285.174 144.265 275.423 141.818 266.847L133.636 243.864C124.253 217.581 98.1383 224.594 102.594 240.88Z" fill="#F7B7A4"/>
<path d="M145.976 301.931C147.649 296.914 149.205 291.244 156.677 290.721C156.677 290.721 169.082 290.224 173.312 292.012C175.662 293 176.76 297.301 174.274 298.438C172.64 299.187 166.641 300.943 166.641 300.943C168.837 303.249 176.973 310.688 178.052 311.469C180.77 313.478 176.909 319.671 171.988 318.237C168.385 321.653 160.293 324.611 154.346 322.034C150.31 320.278 146.138 312.141 145.124 309.648C144.246 307.511 145.027 303.52 145.976 301.931Z" fill="#F7B7A4"/>
<path d="M164.4 301.46C161.643 302.194 158.806 302.58 155.953 302.609L154.268 306.413C158.323 305.774 161.966 303.294 164.4 301.46Z" fill="#FA9D88"/>
<path d="M161.979 309.945C162.657 313.174 166.868 316.558 170.129 317.049L161.979 309.945Z" fill="#E59383"/>
<path d="M155.754 316.183C156.438 319.412 158.305 320.136 161.566 320.62L155.754 316.183Z" fill="#E59383"/>
<path d="M94.9088 341.149C91.2731 354.445 99.5454 392.52 100.921 409.148C101.102 417.801 110.95 421.489 115.212 419.338C118.344 417.75 120.41 414.204 119.532 409.426C117.885 376.033 120.869 350.08 121.179 339.612C119.952 324.656 98.5961 326.587 94.9088 341.149Z" fill="#FA9D88"/>
<path d="M88.5485 290.353C85.3778 307.73 95.1224 333.451 94.7607 341.795C96.6981 361.019 119.888 356.085 121.166 339.302L119.545 297.327C118.874 270.528 90.46 275.087 88.5485 290.353Z" fill="#FA9D88"/>
<path d="M119.339 226.938C117.711 223.851 110.466 219.564 105.132 218.492C100.23 217.736 89.8722 217.349 81.0962 217.768C73.807 218.382 66.8231 220.971 60.8966 225.259C46.1989 234.946 47.5486 256.818 65.6301 258.193C66.8364 263.091 68.6069 267.833 70.906 272.323C60.5737 286.865 76.5951 307.84 98.7966 302.209C111.512 298.98 116.465 282.494 114.657 268.461C119.029 257.199 124.614 236.909 119.339 226.938Z" fill="#D8C6B4"/>
<path d="M81.0957 217.807L81.2378 202.87H106.926L105.751 218.866C105.389 222.424 100.585 224.885 95.2058 224.756C87.3533 224.536 81.2119 220.61 81.0957 217.807Z" fill="#FA9D88"/>
<path d="M31.6429 258.652C25.1283 269.102 19.687 280.184 15.4019 291.728C8.76337 306.884 27.1806 310.197 30.3449 299.477C34.3615 290.043 48.7751 272.936 48.7751 272.936C56.0723 261.267 38.1909 248.468 31.6429 258.652Z" fill="#F7B7A4"/>
<path d="M54.5682 228.068C47.2645 234.19 38.7921 245.562 31.6434 258.652C25.2826 270.34 42.3181 279.116 47.4067 274.551L64.8424 257.522C84.0605 238.795 67.5352 217.213 54.5682 228.068Z" fill="#F7B7A4"/>
<path d="M16.0027 292.645C21.2915 292.535 27.1551 292.923 29.7446 298.057C29.7446 298.057 35.014 309.293 35.014 313.884C35.014 316.468 31.4753 319.115 29.467 317.262C28.1755 316.041 24.1974 311.204 24.1974 311.204C22.9059 314.123 19.238 324.481 18.9151 325.799C18.1208 329.079 10.9075 327.917 10.3328 322.835C5.78015 320.833 -0.0640463 314.504 0.000530499 308.04C0.0586496 303.636 5.94169 296.642 7.8467 294.737C8.93007 293.742 10.2429 293.03 11.6682 292.665C13.0935 292.3 14.587 292.293 16.0156 292.645H16.0027Z" fill="#F7B7A4"/>
<path d="M14.1038 310.268C11.3722 312.16 9.90629 317.372 10.7329 320.536L14.1038 310.268Z" fill="#E59383"/>
<path d="M5.97959 307.298C3.248 309.19 3.31913 311.172 4.14571 314.401L5.97959 307.298Z" fill="#E59383"/>
<path d="M61.6849 341.304C56.6415 354.942 66.0503 389.459 67.4969 410.614C68.2137 419.229 77.7775 421.592 82.6853 418.861C85.3782 417.343 86.6762 414.986 86.1015 410.905C84.4548 377.506 87.6771 353.141 87.9935 342.692C88.381 329.015 68.4655 322.783 61.6849 341.304Z" fill="#F7B7A4"/>
<path d="M67.3148 280.808C64.3573 285.158 62.0918 289.939 60.5989 294.983C55.775 311.979 62.6976 333.451 61.5417 341.723C59.12 357.403 84.925 362.265 88.0569 342.673L92.5773 301.059C96.2194 278.509 73.1073 273.847 67.3148 280.808Z" fill="#F7B7A4"/>
<path d="M119.404 408.916C122.633 412.435 130.75 420.158 133.791 421.495C140.772 423.219 142.968 424.937 142.186 428.547C140.779 432.777 133.41 432.305 133.41 432.305C131.835 435.127 122.542 436.768 116.982 433.164C111.422 429.561 100.05 431.873 97.6994 426.59C95.4069 421.85 99.6367 415.677 100.928 408.954C103.053 402.413 111.738 400.049 119.404 408.916Z" fill="#FA9D88"/>
<path d="M86.042 410.394C89.2709 413.92 97.7369 421.637 100.785 422.98C107.759 424.698 109.948 426.429 109.18 430.026C107.766 434.262 100.404 433.791 100.404 433.791C98.8282 436.613 89.1805 438.259 83.6139 434.649C78.0474 431.04 66.6885 433.319 64.3314 428.069C62.0389 423.329 66.2364 417.162 67.5279 410.44C69.7623 404.395 78.3703 401.535 86.042 410.394Z" fill="#F7B7A4"/>
<path d="M38.934 171.958C38.8306 173.656 38.6499 189.245 49.008 194.559C56.5054 198.389 64.3062 195.089 64.3062 195.089C78.9393 192.861 74.9097 166.346 60.2701 168.574C56.3697 158.151 38.9921 161.025 38.934 171.958Z" fill="#FAC7B5"/>
<path d="M91.1958 305.27C104.408 305.231 115.089 295.583 115.044 283.727C114.999 271.871 104.273 262.288 91.0602 262.333C77.8478 262.378 67.1669 272.019 67.2121 283.876C67.2573 295.732 77.9834 305.309 91.1958 305.27Z" fill="#341B13"/>
<path d="M91.1958 305.27C104.408 305.231 115.089 295.583 115.044 283.727C114.999 271.871 104.273 262.288 91.0602 262.333C77.8478 262.378 67.1669 272.019 67.2121 283.876C67.2573 295.732 77.9834 305.309 91.1958 305.27Z" fill="#341B13"/>
<path d="M96.9946 381.186C97.7889 386.165 98.6477 395.432 99.0093 400.714C99.1062 414.708 120.785 416.581 119.454 400.889C119.396 394.922 119.241 384.945 119.319 380.102C117.259 384.073 104.763 383.156 100.346 380.102L96.9946 381.186Z" fill="#F2D6B4"/>
<path d="M93.1524 340.503C92.2096 347.645 93.2235 370.635 94.4957 382.614C96.5492 385.965 119.681 386.566 123.478 381.548C124.007 364.061 124.072 352.779 123.917 341.769C123.355 321.556 96.2457 326.419 93.1524 340.503Z" fill="#341B13"/>
<path d="M93.3075 281.938C91.3121 285.509 89.9108 290.017 88.7226 295.629C86.0362 308.318 92.5971 337.675 93.004 341.814C94.8315 363.124 123.271 359.611 123.917 341.756L123.11 288.629C120.733 271.716 96.4265 275.668 93.3075 281.938Z" fill="#341B13"/>
<path d="M64.041 384.105C64.8353 389.071 65.4488 396.795 65.8039 402.071C65.9008 416.064 87.5792 417.937 86.2489 402.251C86.1972 396.278 86.2876 387.857 86.3716 383.001C84.3116 386.979 71.8096 386.062 67.3925 383.001L64.041 384.105Z" fill="#F2D6B4"/>
<path d="M59.1917 341.969C58.6945 354.632 59.1335 367.464 59.7534 384.105C62.4592 389.827 87.8831 389.194 88.503 384.105C89.5362 366.185 89.7945 353.754 90.0851 343.299C90.2207 323.371 61.8652 324.862 59.1917 341.969Z" fill="#341B13"/>
<path d="M78.6028 276.572C66.5851 277.276 60.1146 289.487 59.4946 295.196C57.9254 309.693 58.8166 329.422 59.3655 342.15C60.2502 361.891 88.3604 362.072 90.0846 343.28L94.1012 291.696C94.521 283.217 88.2893 276.01 78.6028 276.572Z" fill="#341B13"/>
<path d="M148.624 252.556C159.441 265.807 170.251 279.413 170.251 279.413C168.101 292.406 144.478 303.785 134.521 301.014L119.461 277.308C108.948 259.136 135.341 238.833 148.624 252.556Z" fill="#A55608"/>
<path d="M158.646 264.948L170.27 279.426C168.12 292.419 144.504 303.798 134.546 301.027L127.94 290.63C141.591 290.191 156.709 274.396 158.646 264.948Z" fill="#834006"/>
<path d="M125.525 226.376C129.083 229.076 139.661 241.545 149.664 253.731C161.785 269.74 129.044 292.393 119.229 276.979L108.012 258.723C93.3656 234.352 110.692 213.642 125.525 226.376Z" fill="#A55608"/>
<path d="M55.3743 228.927C55.3743 228.927 45.6879 309.358 44.0283 334.304C66.7658 344.21 119.783 344.048 135.372 332.838L121.52 228.436L55.3743 228.927Z" fill="#A55608"/>
<path d="M76.5112 300.691C91.4478 319.257 67.322 338.701 52.3724 320.136L48.627 315.492L72.7658 296.048L76.5112 300.691Z" fill="#834006"/>
<path d="M130.504 296.145L130.446 296.1L126.707 300.691C116.723 313.09 124.169 325.876 134.662 327.478L130.504 296.145Z" fill="#834006"/>
<path d="M106.533 340.742C103.756 341.007 100.96 341.2 98.3965 341.317V234.339H106.533V340.742Z" fill="#834006"/>
<path d="M26.8514 254.028C16.0348 267.279 5.22461 280.879 5.22461 280.879C7.38147 293.872 30.9972 305.257 40.9485 302.48L56.0142 278.774C66.5015 260.57 40.0961 240.28 26.8514 254.028Z" fill="#A55608"/>
<path d="M16.7908 266.408C13.8009 270.16 5.16699 280.879 5.16699 280.879C7.32386 293.872 30.9396 305.257 40.8909 302.48L47.5165 292.07C33.852 291.657 18.7281 275.868 16.7908 266.408Z" fill="#834006"/>
<path d="M50.5447 227.042C47.0318 229.696 36.6866 241.94 26.8192 254.028C13.0256 271.025 47.6066 292.574 55.9757 278.774L68.058 259.401C73.2565 251.31 72.5784 230.406 66.6051 226.099C61.9943 222.741 55.9692 222.45 50.5447 227.042Z" fill="#A55608"/>
<path d="M95.9485 412.978C95.9485 412.978 93.8626 417.091 94.2565 423.523C94.3276 426.106 113.094 434.966 125.253 435.147C136.664 435.36 141.217 430.626 141.72 429.774C142.16 427.611 142.76 421.076 139.435 418.15C135.857 415.025 125.228 412.79 125.228 412.79L121.03 409.465L95.9485 412.978Z" fill="#B74329"/>
<path d="M96.2136 403.336C95.6453 405.131 95.3289 408.78 95.923 412.971C99.5481 415.415 103.82 416.722 108.193 416.723L109.62 413.081C105.745 410.272 104.686 404.208 103.924 400.417H100.05C99.1873 400.425 98.3507 400.713 97.6665 401.237C96.9666 401.76 96.4564 402.497 96.2136 403.336Z" fill="#772615"/>
<path d="M94.2312 423.471C93.3853 423.723 92.4294 428.792 93.8049 429.968C98.0864 433.649 118.299 439.816 126.139 439.854C135.825 439.906 141.785 434.947 142.709 433.145C143.716 431.208 143.464 425.137 141.792 422.813C141.879 424.73 141.769 426.652 141.463 428.547C141.463 428.547 136.736 434.049 126.035 433.836C105.5 431.388 94.2312 423.471 94.2312 423.471Z" fill="#772615"/>
<path d="M103.904 400.437C109.716 398.351 118.628 397.208 120.048 399.455C120.946 400.837 119.622 410.498 119.622 410.498L109.878 412.965C108.121 413.287 106.649 412.558 105.499 411.027C103.698 408.651 103.052 401.896 103.904 400.437Z" fill="#D27A45"/>
<path d="M108.373 416.478C112.247 409.064 122.198 408.78 124.652 412.448C124.652 412.448 118.537 411.505 115.411 419.674" stroke="#331716" stroke-width="4.02" stroke-linecap="round" stroke-linejoin="round"/>
<path d="M62.7171 414.379C62.7171 414.379 60.6312 418.48 61.0187 424.911C61.0897 427.553 79.8557 436.361 92.0156 436.503C103.42 436.722 107.972 431.983 108.483 431.137C108.915 428.973 109.522 422.432 106.197 419.513C102.613 416.394 91.9899 414.166 91.9899 414.166L87.7924 410.827L62.7171 414.379Z" fill="#B74329"/>
<path d="M63.0141 404.738C62.4394 406.539 62.123 410.181 62.7171 414.379C66.3419 416.823 70.6148 418.128 74.9867 418.124L76.4138 414.489C72.5392 411.686 71.4801 405.629 70.7181 401.825H66.8435C65.9812 401.833 65.1448 402.12 64.4606 402.645C63.7596 403.163 63.2508 403.899 63.0141 404.738Z" fill="#772615"/>
<path d="M61.0187 424.84C60.1728 425.105 59.2171 430.161 60.5926 431.337C64.874 435.024 85.0866 441.185 92.9262 441.223C102.613 441.275 108.573 436.316 109.497 434.514C110.504 432.525 110.252 426.5 108.58 424.182C108.667 426.099 108.557 428.021 108.25 429.916C108.25 429.916 103.53 435.418 92.8228 435.205C72.2874 432.79 61.0187 424.84 61.0187 424.84Z" fill="#772615"/>
<path d="M70.6926 401.851C76.5368 399.772 85.4162 398.622 86.8692 400.876C87.7668 402.258 86.443 411.918 86.443 411.918L76.6983 414.392C74.9418 414.702 73.4695 413.972 72.32 412.454C70.4731 410.052 69.8209 403.291 70.6926 401.851Z" fill="#D27A45"/>
<path d="M75.167 417.873C79.0416 410.453 88.9929 410.175 91.4468 413.843C91.4468 413.843 85.3378 412.9 82.2123 421.063" stroke="#331716" stroke-width="4.02" stroke-linecap="round" stroke-linejoin="round"/>
<path d="M130.594 150.524L128.773 175.031C128.773 175.031 127.481 190.833 125.098 197.84C121.489 208.592 108.625 214.449 98.0215 215.017C84.1956 215.753 68.962 205.615 63.247 193.287C50.5189 188.767 38.6755 159.785 53.0632 132.223C63.8088 111.656 128.547 104.604 130.594 150.524Z" fill="#FAC7B5"/>
<path d="M119.274 181.644C118.816 181.728 114.024 182.774 115.4 189.439C116.465 194.637 126.319 192.784 127.282 190.233C128.386 187.095 128.702 183.678 129.032 181.593C129.245 180.237 126.972 179.746 125.403 180.882C122.193 182.148 121.541 181.218 119.274 181.644Z" fill="#FA9D88"/>
<path d="M76.3947 183.969C74.1862 183.607 70.8153 184.873 69.188 188.302C66.6954 193.501 71.6741 199.797 80.8763 199.312C90.7372 198.796 93.9079 191.983 92.0029 188.728C90.5047 186.184 86.43 186.791 83.4014 186.791C80.8118 186.733 78.6033 184.331 76.3947 183.969Z" fill="#FA9D88"/>
<path d="M111.24 175.316C117.653 166.688 124.563 168.503 127.094 173.927C127.365 189.464 110.511 189.839 111.24 175.316Z" fill="white"/>
<path d="M71.5449 178.764C77.9639 170.143 86.5525 169.078 92.3321 174.941C93.3654 189.393 77.0662 191.331 71.5449 178.764Z" fill="white"/>
<path d="M110.97 175.219C117.008 167.515 125.596 167.586 127.702 175.684" stroke="#0D0C14" stroke-width="4.02" stroke-linecap="round" stroke-linejoin="round"/>
<path d="M71.2026 179.113C78.1446 168.78 88.2251 169 92.3515 174.941" stroke="#0D0C14" stroke-width="4.02" stroke-linecap="round" stroke-linejoin="round"/>
<path d="M117.001 170.485C114.328 176.078 117.169 186.223 121.625 185.222C123.485 184.802 127.695 180.824 127.049 173.598C125.428 169.717 121.941 168.632 117.001 170.485Z" fill="#0D0C14"/>
<path d="M80.2365 171.757C77.6017 179.959 81.2762 187.094 85.0217 186.849C88.7671 186.604 92.9903 182.329 92.4866 174.973C90.8985 173.415 88.9318 172.298 86.7802 171.732C84.6286 171.165 82.3664 171.17 80.2171 171.745L80.2365 171.757Z" fill="#0D0C14"/>
<path d="M114.611 193.565C114.611 198.492 109.826 202.477 103.93 202.477C98.0342 202.477 93.249 198.492 93.249 193.565H114.611Z" fill="#E46650"/>
<path d="M129.567 166.501C129.567 166.501 135.179 159.856 131.86 158.054C127.21 155.555 115.716 154.826 109.807 159.346C108.548 160.302 108.864 165.061 109.161 166.114C109.51 167.347 118.286 167.521 129.567 166.501Z" fill="#3F3029"/>
<path d="M62.7363 167.573C62.7363 167.573 63.3046 161.031 66.6109 159.242C71.254 156.737 85.5642 155.587 91.4471 160.082C92.7387 161.044 93.3845 166.159 93.0809 167.23C92.7193 168.445 73.9921 168.58 62.7363 167.573Z" fill="#3F3029"/>
<path d="M30.5455 224.523C29.8997 229.967 55.9759 268.048 65.5074 268.048C75.039 268.048 103.104 231.556 103.104 231.556L102.678 220.119L61.3486 202.147C61.3486 202.147 31.2171 219.099 30.5455 224.523Z" fill="#CD7006"/>
<path d="M125.369 204.11L102.696 220.138C96.8458 220.268 97.4142 231.911 103.271 231.762C103.271 231.762 120.41 263.347 127.959 263.159C135.508 262.972 152.976 225.866 151.814 221.772C150.651 217.678 125.369 204.11 125.369 204.11Z" fill="#CD7006"/>
<path d="M46.6831 168.858L52.6694 201.411C49.4405 227.093 82.1423 246.537 102.432 245.252C128.657 243.593 137.73 198.912 128.379 178.919C126.545 189.897 116.684 210.749 116.684 210.749C111.092 202.27 97.8474 204.201 91.7965 212.305C91.7965 212.305 78.3516 199.564 66.2434 198.828C66.2434 198.828 66.2951 176.091 61.045 162.607L46.6831 168.858Z" fill="#64402C"/>
<path d="M80.9603 159.992C90.169 130.286 45.23 131.352 38.8627 163.446C38.8627 171.196 37.3838 176.497 35.0591 185.086C35.0591 185.086 39.2566 196.542 49.0013 182.187L51.3841 194.456C58.5328 192.073 62.3622 181.069 63.079 175.794C74.5995 173.656 79.5332 164.577 80.9603 159.992Z" fill="#573928"/>
<path d="M77.3052 210.93C77.3052 210.93 87.7732 180.243 104.893 187.308C107.301 185.306 123.039 182.832 126.526 210.755C126.526 210.755 119.067 214.281 112.319 211.453C107.889 209.599 105.545 201.211 105.177 194.966C104.744 201.276 102.858 209.78 94.9928 213.313C87.1274 216.845 77.3052 210.93 77.3052 210.93Z" fill="#573928"/>
<path d="M103.794 143.634C103.794 143.634 99.4097 152.914 87.0045 155.013C87.0045 155.013 85.9066 151.338 84.8928 148.407C81.7931 170.66 63.5114 178.002 47.4383 170.602C49.3756 166.566 51.8748 162.743 53.0242 160.76C48.5426 165.926 39.9215 167.541 38.8818 163.446C48.5684 106.89 102.341 91.6048 135.482 143.88C135.482 143.88 138.924 150.789 144.833 155.575C141.152 164.609 113.294 168.935 103.794 143.634Z" fill="#64402C"/>
<path d="M60.2571 134.652L114.824 95.2081L77.8672 7.77759C72.0165 -4.4468 57.3253 -1.63125 56.2275 11.8201L45.624 104.391L60.2571 134.652Z" fill="#EC5647"/>
<path d="M114.863 95.2082C104.144 95.4923 67.2896 117.042 64.4418 127.69C70.5508 97.604 51.139 85.4635 45.7145 103.474L38.8501 163.453C38.8501 163.453 78.9586 127.503 135.45 143.886L114.863 95.2082Z" fill="#D63E3E"/>
</svg>
