<svg width="198" height="198" viewBox="0 0 198 198" fill="none" xmlns="http://www.w3.org/2000/svg">
<path d="M15.4521 77.2622C15.4521 68.728 22.3704 61.8098 30.9046 61.8098H166.886C175.42 61.8098 182.338 68.728 182.338 77.2622V182.339H15.4521V77.2622Z" fill="#FF8F0D"/>
<path d="M98.8955 10.6635V38.4693C98.8955 39.3228 99.5873 40.0146 100.441 40.0146H138.578C139.855 40.0146 140.581 38.5531 139.809 37.5355L130.68 25.5003C130.261 24.9481 130.261 24.1847 130.68 23.6326L139.809 11.5974C140.581 10.5798 139.855 9.11829 138.578 9.11829H100.441C99.5873 9.11829 98.8955 9.81011 98.8955 10.6635Z" fill="#E03C50"/>
<rect x="61.8096" y="61.8098" width="74.1717" height="120.529" fill="#FF8F0D"/>
<rect x="134.837" y="81.8979" width="29.3596" height="30.9049" rx="7.72622" fill="#FFB443"/>
<rect x="134.837" y="131.346" width="29.3596" height="30.9049" rx="7.72622" fill="#FFB443"/>
<path d="M93.2285 27.9074C96.2861 24.6081 101.505 24.6081 104.562 27.9074L135.981 61.8097H61.8096L93.2285 27.9074Z" fill="#FF8F0D"/>
<rect x="34.2588" y="81.8979" width="29.3596" height="30.9049" rx="7.72622" fill="#FFB443"/>
<rect x="82.6709" y="61.8098" width="32.4501" height="32.4501" rx="16.2251" fill="#FFB443"/>
<rect x="34.2588" y="131.346" width="29.3596" height="30.9049" rx="7.72622" fill="#FFB443"/>
<path d="M80.3525 131.346C80.3525 127.079 83.8117 123.619 88.0788 123.619H109.712C113.979 123.619 117.438 127.079 117.438 131.346V182.339H80.3525V131.346Z" fill="#E03C50"/>
</svg>
