<svg width="177" height="181" viewBox="0 0 177 181" fill="none" xmlns="http://www.w3.org/2000/svg">
<path d="M154.989 147.029C152.907 148.584 151.497 150.832 151.034 153.338C150.57 155.843 151.087 158.426 152.482 160.583C153.494 161.952 153.955 163.631 153.78 165.306C153.605 166.981 152.806 168.536 151.531 169.682C146.95 174.304 132.708 172.526 132.708 172.526L135.279 179.68C135.279 179.68 132.686 180.182 139.818 180.308C155.854 180.642 168.648 178.781 173.23 165.247C174.872 160.332 175.131 151.087 168.561 146.987C166.536 145.731 164.181 145.063 161.775 145.063C159.37 145.063 157.014 145.731 154.989 146.987V147.029Z" fill="#C26421"/>
<path d="M147.341 159.184C147.304 153.124 145.882 147.156 143.187 141.752C140.492 136.348 136.598 131.656 131.814 128.047C127.029 124.438 121.485 122.011 115.619 120.958C109.754 119.905 103.728 120.255 98.0188 121.981C92.3093 123.706 87.0728 126.759 82.7232 130.899C78.3735 135.039 75.0301 140.152 72.9574 145.833C70.8846 151.514 70.1392 157.608 70.7805 163.633C71.4217 169.658 73.4318 175.448 76.6518 180.546H141.034C145.148 174.208 147.341 166.78 147.341 159.184Z" fill="#EA833A"/>
<path d="M84.0842 147.549C80.5225 136.58 65.0082 140.653 66.5375 152.14C67.1578 158.815 67.2451 165.534 66.7989 172.225C66.1147 176.535 65.8534 180.177 70.1395 180.544H82.072C82.5961 180.563 83.1179 180.46 83.6013 180.242C84.0845 180.01 84.5214 179.681 84.8889 179.272C88.6518 174.035 87.2837 154.833 84.0842 147.549Z" fill="#C26421"/>
<path d="M86.2152 168.095C93.1704 168.071 99.8685 165.365 105.006 160.503C110.144 155.641 113.354 148.971 114.012 141.791C114.671 134.611 112.73 127.433 108.568 121.654C104.405 115.876 98.319 111.909 91.4928 110.527C84.6666 109.144 77.5886 110.444 71.6355 114.174C65.6824 117.904 61.2799 123.796 59.2845 130.706C57.2891 137.616 57.8434 145.048 60.8396 151.557C63.8358 158.066 69.0597 163.187 75.495 165.923C78.8971 167.367 82.5392 168.105 86.2152 168.095Z" fill="#EA833A"/>
<path d="M109.887 180.482H93.1697C92.3928 180.485 91.6331 180.248 90.9878 179.802C90.3309 179.361 89.8203 178.723 89.5256 177.973C89.3175 177.477 89.2192 176.939 89.2376 176.399V149.35C89.2309 148.816 89.3299 148.285 89.5281 147.792C89.7263 147.298 90.0198 146.852 90.3906 146.479C91.1353 145.726 92.1282 145.293 93.1697 145.267L94.755 151.115C96.9168 151.115 100.108 157.218 102.291 159.281C105.001 162.024 107.088 165.355 108.402 169.032C109.715 172.709 110.223 176.642 109.887 180.546V180.482Z" fill="#C26421"/>
<path d="M100.378 147.549C96.4385 136.58 79.3289 140.653 81.0775 152.14C81.7156 158.817 81.8116 165.533 81.365 172.225C80.6124 176.535 80.3245 180.177 85.039 180.544H98.165C98.7416 180.563 99.3156 180.46 99.8472 180.242C100.372 180.01 100.846 179.681 101.241 179.272C105.381 174.035 103.942 154.833 100.378 147.549Z" fill="#EA833A"/>
<path d="M65.8494 54.6865C68.9415 64.6269 62.6948 77.8668 44.3081 78.7592C29.2419 79.61 28.7229 93.8047 17.2054 94.7801C-1.61707 96.3987 -10.4159 68.1755 19.5299 50.6189C41.9425 39.2259 59.1879 40.3881 65.8494 54.6865Z" fill="#C26421"/>
<path d="M106.399 61.9069C111.484 70.284 126.297 61.9069 139.091 54.8759C145.41 51.4035 157.477 61.684 167.832 52.1155C176.246 44.3414 175.839 31.7931 168.231 24.6868C161.923 18.7939 152.27 16.0011 137.381 19.3078C113.921 26.1048 99.3426 50.2851 106.399 61.9069Z" fill="#C26421"/>
<path d="M86.1491 33.4948C53.4166 33.4948 17.4352 61.9709 23.0198 97.4684C27.8815 129.468 67.7727 133.837 86.2035 133.837C104.634 133.837 144.471 129.546 149.351 97.4684C154.761 61.9555 118.881 33.4948 86.1491 33.4948Z" fill="#FF9A53"/>
<path d="M83.0386 46.2855C83.2096 45.9354 83.476 45.6405 83.8067 45.4346C84.1379 45.2433 84.5135 45.1427 84.896 45.1427C85.2785 45.1427 85.654 45.2433 85.9853 45.4346C86.316 45.6405 86.5824 45.9354 86.7534 46.2855L88.4552 49.7304C88.6065 50.0274 88.8268 50.2837 89.0982 50.4775C89.3635 50.6816 89.6793 50.8106 90.0116 50.851L93.8505 51.4113C94.2158 51.477 94.5584 51.6341 94.8466 51.8679C95.1189 52.1184 95.3256 52.432 95.4485 52.781C95.5474 53.1409 95.5474 53.5209 95.4485 53.8808C95.3669 54.2469 95.1876 54.5839 94.9297 54.8562L92.1487 57.554C91.912 57.7854 91.7342 58.07 91.6299 58.3841C91.549 58.7113 91.549 59.0531 91.6299 59.3802L92.2941 63.1986C92.3568 63.5765 92.3136 63.9644 92.1695 64.3193C92.024 64.6765 91.7824 64.9861 91.4708 65.2133C91.1592 65.4406 90.7904 65.5766 90.4058 65.6059C90.0163 65.6299 89.6278 65.5436 89.2851 65.3569L85.8404 63.6345C85.5488 63.4709 85.2197 63.385 84.8854 63.385C84.551 63.385 84.2224 63.4709 83.9308 63.6345L80.4861 65.3569C80.1434 65.5436 79.7549 65.6299 79.3654 65.6059C78.9809 65.5766 78.612 65.4406 78.3004 65.2133C77.9888 64.9861 77.7467 64.6765 77.6012 64.3193C77.4536 63.965 77.4178 63.5741 77.4979 63.1986L78.1408 59.3802C78.2217 59.0531 78.2217 58.7113 78.1408 58.3841C78.0413 58.0678 77.8627 57.7821 77.622 57.554L74.8623 54.8562C74.6044 54.5839 74.4251 54.2469 74.3435 53.8808C74.2446 53.5209 74.2446 53.1409 74.3435 52.781C74.4664 52.432 74.6731 52.1184 74.9454 51.8679C75.2359 51.6378 75.5775 51.4811 75.9415 51.4113L79.7596 50.851C80.0968 50.805 80.4179 50.6767 80.6938 50.4775C80.9611 50.2793 81.1804 50.024 81.3368 49.7304L83.0386 46.2855Z" fill="#FFB966"/>
<path d="M85.3162 83.7434C78.0529 83.7434 66.0992 98.0211 66.9086 106.903C67.7179 115.785 76.5794 120.662 85.3162 120.662C94.053 120.662 102.997 115.37 103.744 106.903C104.616 97.9588 92.6833 83.7434 85.3162 83.7434Z" fill="#C26421"/>
<path d="M79.5242 110.216L85.1019 106.188L90.6796 110.369L90.5177 119.615C90.4639 122.687 87.9361 125.137 84.8639 125.095Lnan nanL84.8639 125.095C81.7752 125.052 79.309 122.508 79.363 119.419L79.5242 110.216Z" fill="#FF5857"/>
<path fill-rule="evenodd" clip-rule="evenodd" d="M86.7556 107.85L86.7022 118.094C86.6971 119.069 85.9033 119.854 84.9291 119.849C83.9549 119.844 83.1693 119.05 83.1743 118.076L83.2277 107.831L86.7556 107.85Z" fill="#F3403F"/>
<path fill-rule="evenodd" clip-rule="evenodd" d="M84.742 102.24C85.7123 102.153 86.5698 102.868 86.6573 103.839C86.8048 105.474 86.4449 107.115 85.6268 108.538C84.8085 109.962 83.5715 111.098 82.0845 111.794C80.5974 112.489 78.9322 112.71 77.3153 112.425C75.7106 112.143 74.231 111.377 73.0744 110.23C71.513 108.781 70.575 106.781 70.4592 104.653C70.4063 103.681 71.1519 102.849 72.1247 102.796C73.0975 102.743 73.929 103.489 73.9819 104.462C74.0484 105.683 74.5895 106.831 75.4899 107.659L75.5173 107.684L75.5436 107.71C76.1916 108.359 77.0236 108.792 77.9266 108.951C78.8295 109.11 79.7594 108.986 80.5899 108.598C81.4205 108.21 82.1113 107.575 82.5681 106.78C83.025 105.985 83.226 105.069 83.1437 104.156C83.0562 103.185 83.7718 102.328 84.742 102.24Z" fill="#842F00"/>
<path fill-rule="evenodd" clip-rule="evenodd" d="M84.9783 102.235C85.9516 102.277 86.7063 103.101 86.6639 104.074C86.6111 105.288 87.0421 106.474 87.8626 107.37C88.6822 108.266 89.8235 108.8 91.0361 108.855C92.2465 108.903 93.4267 108.47 94.3188 107.65C95.2118 106.831 95.7436 105.69 95.7981 104.478C95.8419 103.505 96.6663 102.752 97.6396 102.796C98.6128 102.839 99.3662 103.664 99.3225 104.637C99.2261 106.78 98.2854 108.798 96.705 110.249C95.1247 111.7 93.0338 112.466 90.8902 112.38L90.8821 112.38L90.8821 112.38C88.7342 112.283 86.7121 111.338 85.2603 109.752C83.8083 108.166 83.0458 106.069 83.1393 103.921C83.1817 102.947 84.0051 102.193 84.9783 102.235Z" fill="#842F00"/>
<path fill-rule="evenodd" clip-rule="evenodd" d="M86.6654 98.3116V106.115H83.1375V98.3116H86.6654Z" fill="#842F00"/>
<path d="M84.9006 100.906C84.9006 100.906 91.7906 97.9592 91.7906 93.7672C91.7906 91.0279 88.6983 88.7866 84.9006 88.7866C81.103 88.7866 78.0315 90.9864 78.0315 93.7672C77.9277 97.8347 84.9006 100.906 84.9006 100.906Z" fill="#282043"/>
<path d="M71.744 87.8733C75.6454 76.501 70.3952 64.5891 59.9775 60.8952C49.5598 57.2012 37.9385 63.8835 34.0578 75.2351C30.1771 86.5867 35.5104 98.8306 45.8866 102.213C56.2628 105.596 67.8218 99.2249 71.744 87.8733Z" fill="#FFF067"/>
<path d="M66.6387 85.922C69.4818 77.621 65.6013 68.8219 58.0474 66.3109C50.4936 63.7999 41.9018 68.5315 39.121 76.8739C36.3402 85.2164 40.1584 94.0777 47.7123 96.5679C55.2661 99.0582 63.8579 94.3059 66.6387 85.922Z" fill="#2D234C"/>
<path d="M125.327 102.255C135.89 98.8306 141.265 86.6282 137.364 75.0899C133.462 63.5516 121.695 56.9938 111.132 60.4387C100.569 63.8836 95.1943 76.086 99.0957 87.6244C102.997 99.1627 114.764 105.637 125.327 102.255Z" fill="#FFF067"/>
<path d="M123.417 95.6138C131.178 93.082 135.142 84.1584 132.257 75.6915C129.373 67.2245 120.719 62.4099 112.978 64.921C105.238 67.432 101.274 76.397 104.138 84.9055C107.002 93.414 115.655 98.1456 123.417 95.6138Z" fill="#2D234C"/>
<path d="M124.102 82.7261C124.995 82.8227 125.897 82.646 126.688 82.2194C127.479 81.7929 128.121 81.1365 128.531 80.3369C128.941 79.5374 129.099 78.6323 128.983 77.7412C128.868 76.8501 128.485 76.0149 127.886 75.346C127.286 74.677 126.497 74.2058 125.624 73.9944C124.751 73.7831 123.834 73.8416 122.994 74.1622C122.155 74.4829 121.433 75.0507 120.923 75.7905C120.413 76.5303 120.139 77.4073 120.138 78.3058C120.102 78.8577 120.176 79.4114 120.357 79.9343C120.537 80.4571 120.82 80.9385 121.19 81.3503C121.559 81.7622 122.007 82.096 122.507 82.3322C123.007 82.5685 123.549 82.7024 124.102 82.7261Z" fill="white"/>
<path d="M59.0846 82.9338C59.9779 83.0304 60.8792 82.8537 61.67 82.4271C62.4608 82.0006 63.1038 81.3441 63.5137 80.5446C63.9236 79.745 64.0814 78.84 63.9661 77.9489C63.8509 77.0578 63.4681 76.2226 62.8682 75.5536C62.2684 74.8847 61.4793 74.4135 60.606 74.2021C59.7327 73.9908 58.8159 74.0493 57.9765 74.3699C57.1372 74.6906 56.4153 75.2583 55.9053 75.9981C55.3954 76.7379 55.1215 77.615 55.1205 78.5135C55.0841 79.0654 55.1583 79.6191 55.3389 80.142C55.5195 80.6648 55.8026 81.1462 56.1718 81.5581C56.5411 81.9699 56.989 82.3037 57.4891 82.5399C57.9893 82.7762 58.5319 82.9101 59.0846 82.9338Z" fill="white"/>
<path d="M88.3293 30.5381C92.0903 33.0743 97.0128 32.9726 100.938 27.3056C107.791 19.7099 106.326 12.7492 102.686 10.1775C99.0463 7.60579 91.8402 8.4469 87.9365 14.0747C84.0328 19.7025 84.7286 27.9878 88.3293 30.5381Z" fill="#FF9A53"/>
<path d="M93.76 42.7222C99.5085 38.8251 99.5708 28.7651 93.8604 19.8851C88.4186 2.41944 75.7104 -0.384127 68.584 4.21543C62.8804 7.89765 57.7678 20.9106 76.7105 30.9235C82.464 39.7921 88.0564 46.4044 93.76 42.7222Z" fill="#FF9A53"/>
<path d="M67.9478 31.4169C67.9905 30.8556 68.1485 30.3089 68.4124 29.8102C68.6763 29.3115 69.0404 28.8711 69.4827 28.5159C69.925 28.1607 70.4365 27.8982 70.9854 27.7441C71.5344 27.59 72.1097 27.5477 72.6762 27.6198L75.6198 28.0556C83.0868 28.7314 90.5987 28.7411 98.0645 28.0846L100.199 27.7918C100.787 27.7051 101.389 27.7477 101.96 27.9166C102.53 28.0855 103.056 28.3764 103.5 28.7686C103.943 29.1609 104.294 29.6448 104.526 30.1857C104.759 30.7266 104.867 31.3112 104.844 31.8977C104.806 32.7816 104.474 33.6279 103.898 34.3058C103.323 34.9837 102.536 35.4553 101.661 35.6478L100.481 35.8896C91.2235 37.2619 81.8076 37.2702 72.5415 35.9143L71.2332 35.6257C70.2917 35.4113 69.453 34.8845 68.8575 34.1336C68.262 33.3827 67.9459 32.4533 67.9624 31.5013L67.9478 31.4169Z" fill="#128E6B"/>
</svg>
