<svg width="198" height="198" viewBox="0 0 198 198" fill="none" xmlns="http://www.w3.org/2000/svg">
<path d="M27.9189 86.5336H170.081V152.681C170.081 156.002 169.021 159.239 166.694 161.609C158.82 169.628 137.004 187.507 99.0001 187.507C60.9966 187.507 39.1805 169.628 31.3065 161.609C28.9796 159.239 27.9189 156.002 27.9189 152.681V86.5336Z" fill="#FF8F0D"/>
<path d="M64.4791 125.867C71.9271 125.867 77.965 119.83 77.965 112.381C77.965 104.933 71.9271 98.8956 64.4791 98.8956C57.031 98.8956 50.9932 104.933 50.9932 112.381C50.9932 119.83 57.031 125.867 64.4791 125.867Z" fill="#A3273D"/>
<path d="M132.178 125.867C139.626 125.867 145.664 119.83 145.664 112.381C145.664 104.933 139.626 98.8956 132.178 98.8956C124.73 98.8956 118.692 104.933 118.692 112.381C118.692 119.83 124.73 125.867 132.178 125.867Z" fill="#A3273D"/>
<path d="M72.626 149.889C77.5611 158.202 86.7852 163.796 97.3499 163.796C107.915 163.796 117.139 158.202 122.074 149.889" stroke="#A3273D" stroke-width="12.3619" stroke-linecap="round"/>
<rect x="88.0791" y="114.348" width="18.5429" height="30.9049" rx="9.27146" fill="#E03C50"/>
<path d="M9.27148 118.984C9.27148 111.303 15.4979 105.077 23.1787 105.077H27.8144V132.891H23.1787C15.4979 132.891 9.27148 126.664 9.27148 118.984Z" fill="#FF8F0D"/>
<path d="M188.52 118.984C188.52 111.303 182.293 105.077 174.612 105.077H169.977V132.891H174.612C182.293 132.891 188.52 126.664 188.52 118.984Z" fill="#FF8F0D"/>
<path d="M27.9189 36.5807C27.9189 29.5707 36.5037 26.1837 41.29 31.3053L68.306 60.2136L93.7653 20.5306C96.8906 15.6592 104.065 15.8271 106.959 20.8393L129.694 60.2136L156.71 31.3053C161.497 26.1837 170.081 29.5707 170.081 36.5807V86.5336H27.9189V36.5807Z" fill="#FFB443"/>
</svg>
