<svg width="198" height="198" viewBox="0 0 198 198" fill="none" xmlns="http://www.w3.org/2000/svg">
<path d="M31.0098 52.5383C31.0098 32.0563 47.6137 15.4524 68.0956 15.4524H129.905C150.387 15.4524 166.991 32.0563 166.991 52.5383V145.253C166.991 165.735 150.387 182.339 129.905 182.339H68.0956C47.6136 182.339 31.0098 165.735 31.0098 145.253V52.5383Z" fill="#6AE160"/>
<path d="M64.4791 110.415C71.9271 110.415 77.965 104.377 77.965 96.929C77.965 89.481 71.9271 83.4431 64.4791 83.4431C57.031 83.4431 50.9932 89.481 50.9932 96.929C50.9932 104.377 57.031 110.415 64.4791 110.415Z" fill="#007094"/>
<path d="M132.178 110.415C139.626 110.415 145.664 104.377 145.664 96.929C145.664 89.481 139.626 83.4431 132.178 83.4431C124.73 83.4431 118.692 89.481 118.692 96.929C118.692 104.377 124.73 110.415 132.178 110.415Z" fill="#007094"/>
<path d="M9.27148 74.1717C9.27148 72.4648 10.6551 71.0812 12.362 71.0812H30.9049V112.803H24.7239C16.1898 112.803 9.27148 105.884 9.27148 97.3503V74.1717Z" fill="#6AE160"/>
<path d="M188.52 74.1717C188.52 72.4648 187.136 71.0812 185.429 71.0812H166.886V112.803H173.067C181.601 112.803 188.52 105.884 188.52 97.3503V74.1717Z" fill="#6AE160"/>
<path d="M65.0049 143.708L132.996 143.708" stroke="#007094" stroke-width="12.3619" stroke-linecap="round"/>
<path d="M55.6289 58.7192L80.3528 72.6264" stroke="#23BF62" stroke-width="18.5429" stroke-linecap="round"/>
<path d="M142.162 58.7192L117.438 72.6264" stroke="#23BF62" stroke-width="18.5429" stroke-linecap="round"/>
<path d="M67.9902 134.436C67.9902 129.316 72.1412 125.165 77.2617 125.165C82.3822 125.165 86.5332 129.316 86.5332 134.436V137.527H67.9902V134.436Z" fill="white"/>
<path d="M111.258 134.436C111.258 129.316 115.409 125.165 120.529 125.165C125.65 125.165 129.801 129.316 129.801 134.436V137.527H111.258V134.436Z" fill="white"/>
</svg>
