<svg width="162" height="225" viewBox="0 0 162 225" fill="none" xmlns="http://www.w3.org/2000/svg">
<path d="M96.6862 112.932C92.4166 121.311 86.7188 128.962 76.0083 133.712L77.1449 142.339C89.2226 137.159 98.686 127.307 103.375 115.031L96.6862 112.932Z" fill="#7A4141"/>
<path d="M124.3 129.34L118.559 120.859C118.559 120.859 92.3292 132.226 85.5677 159.913C85.5677 159.913 66.4636 133.683 89.6187 108.91L80.1177 103.402C68.2851 117.231 65.6767 129.938 66.2159 139.832C60.0104 131.803 52.0303 125.319 42.9004 120.889L34.5505 128.102C34.5505 128.102 63.0683 140.007 66.3616 170.215C68.6202 190.908 64.3215 224.584 64.3215 224.584H97.1234C97.1234 224.467 92.8246 190.864 95.0833 170.23C98.4058 140.007 124.3 129.34 124.3 129.34Z" fill="#7A4141"/>
<path d="M151.434 95.023C159.82 80.9744 155.231 62.7869 141.182 54.4001C139.534 53.4161 137.794 52.5949 135.987 51.9476C139.5 37.8355 130.907 23.5479 116.795 20.0354C113.489 19.2125 110.055 19.0391 106.683 19.5245C102.911 5.47099 88.4617 -2.86435 74.4081 0.90678C65.3708 3.33202 58.2977 10.3686 55.826 19.3934C54.9301 19.3044 54.0304 19.2605 53.1302 19.2621C38.5794 19.2654 26.7863 31.0637 26.7894 45.6144C26.7898 47.7791 27.0571 49.9357 27.5852 52.0351C12.2367 57.7029 4.38904 74.7401 10.0569 90.0885C10.4853 91.2486 10.9859 92.3807 11.5558 93.4782C0.85429 104.003 0.710753 121.21 11.2352 131.911C21.7597 142.613 38.9666 142.756 49.6681 132.232C52.2421 129.7 54.286 126.681 55.6803 123.351V123.686C64.8199 125.406 74.1974 122.262 80.453 115.38C86.6837 123.108 96.6757 126.758 106.421 124.867V124.663C113.074 138.108 129.368 143.613 142.813 136.96C156.258 130.306 161.763 114.013 155.11 100.567C154.122 98.5713 152.892 96.7043 151.449 95.0084L151.434 95.023Z" fill="#139979"/>
<path d="M9.22418 98.6515C4.12392 98.6515 0 93.8426 0 93.8426C0 93.8426 4.13849 89.0483 9.23874 89.0483C14.339 89.0483 18.4629 93.8572 18.4629 93.8572C18.4629 93.8572 14.3099 98.6515 9.22418 98.6515Z" fill="#139979"/>
<path d="M152.279 98.6515C147.179 98.6515 143.055 93.8426 143.055 93.8426C143.055 93.8426 147.193 89.0483 152.293 89.0483C157.394 89.0483 161.518 93.8572 161.518 93.8572C161.518 93.8572 157.379 98.6515 152.279 98.6515Z" fill="#139979"/>
<path d="M51.527 20.2678C47.9277 16.6539 48.4086 10.3441 48.4086 10.3441C48.4086 10.3441 54.7329 9.87781 58.3322 13.4771C61.9315 17.0765 61.5089 23.4154 61.5089 23.4154C61.5089 23.4154 55.1264 23.8817 51.527 20.2678Z" fill="#139979"/>
<path d="M140.097 54.1043C144.468 51.6125 145.794 45.361 145.794 45.361C145.794 45.361 139.834 43.1898 135.39 45.6962C130.945 48.2026 129.692 54.4395 129.692 54.4395C129.692 54.4395 135.652 56.5962 140.097 54.1043Z" fill="#139979"/>
<path d="M96.905 52.9677C91.4258 58.2865 81.9685 57.4415 81.9685 57.4415C81.9685 57.4415 81.4002 47.9695 86.8648 42.6507C92.3293 37.3318 101.801 38.1771 101.801 38.1771C101.801 38.1771 102.384 47.6343 96.905 52.9677Z" fill="#06826D"/>
<path d="M74.624 42.8547C75.7024 47.8383 71.8699 52.8803 71.8699 52.8803C71.8699 52.8803 66.3033 49.8493 65.225 44.8656C64.1466 39.8819 67.9791 34.84 67.9791 34.84C67.9791 34.84 73.4874 37.8855 74.624 42.8547Z" fill="#06826D"/>
<path d="M118.53 93.1724C122.8 89.4419 122.727 82.389 122.727 82.389C122.727 82.389 115.747 81.3981 111.492 85.1286C107.236 88.859 107.295 95.912 107.295 95.912C107.295 95.912 114.26 96.9175 118.53 93.1724Z" fill="#06826D"/>
<path d="M56.9333 86.44C56.9333 91.5402 61.6693 95.7079 61.6693 95.7079C61.6693 95.7079 66.5073 91.613 66.5364 86.5127C66.5655 81.4125 61.8004 77.2449 61.8004 77.2449C61.8004 77.2449 56.9771 81.3397 56.9333 86.44Z" fill="#06826D"/>
<path d="M37.1007 100.866C43.5416 104.961 52.6346 102.207 52.6346 102.207C52.6346 102.207 51.2794 92.808 44.824 88.7132C38.3685 84.6185 29.29 87.3727 29.29 87.3727C29.29 87.3727 30.6598 96.7716 37.1007 100.866Z" fill="#06826D"/>
</svg>
