<svg width="198" height="198" viewBox="0 0 198 198" fill="none" xmlns="http://www.w3.org/2000/svg">
<path d="M27.9189 91.1693H170.081V143.708C170.081 152.242 163.163 159.16 154.629 159.16H43.3714C34.8372 159.16 27.9189 152.242 27.9189 143.708V91.1693Z" fill="#FF8F0D"/>
<path d="M64.4791 125.867C71.9271 125.867 77.965 119.83 77.965 112.381C77.965 104.933 71.9271 98.8956 64.4791 98.8956C57.031 98.8956 50.9932 104.933 50.9932 112.381C50.9932 119.83 57.031 125.867 64.4791 125.867Z" fill="#A3273D"/>
<path d="M132.178 125.867C139.626 125.867 145.664 119.83 145.664 112.381C145.664 104.933 139.626 98.8956 132.178 98.8956C124.73 98.8956 118.692 104.933 118.692 112.381C118.692 119.83 124.73 125.867 132.178 125.867Z" fill="#A3273D"/>
<path d="M27.8145 143.708L98.8956 129.028L169.977 143.708V147.971C169.977 153.873 166.615 159.259 161.314 161.852L105.685 189.062C101.401 191.157 96.3899 191.157 92.1061 189.062L36.4773 161.852C31.1759 159.259 27.8145 153.873 27.8145 147.971V143.708Z" fill="#ADB5FF"/>
<path d="M74.1719 149.889C79.107 158.202 88.3311 163.796 98.8958 163.796C109.46 163.796 118.685 158.202 123.62 149.889" stroke="#A3273D" stroke-width="12.3619" stroke-linecap="round"/>
<path d="M27.8145 91.1694L93.7417 14.5998C96.8458 10.9947 102.439 11.0244 105.505 14.6622L169.977 91.1694H27.8145Z" fill="#E03C50"/>
<rect x="89.624" y="114.348" width="18.5429" height="30.9049" rx="9.27146" fill="#E03C50"/>
<path d="M9.27148 118.984C9.27148 111.303 15.4979 105.077 23.1787 105.077H27.8144V132.891H23.1787C15.4979 132.891 9.27148 126.664 9.27148 118.984Z" fill="#FF8F0D"/>
<path d="M188.52 118.984C188.52 111.303 182.293 105.077 174.612 105.077H169.977V132.891H174.612C182.293 132.891 188.52 126.664 188.52 118.984Z" fill="#FF8F0D"/>
</svg>
