<svg width="198" height="198" viewBox="0 0 198 198" fill="none" xmlns="http://www.w3.org/2000/svg">
<path d="M12.3623 78.8074C12.3623 70.2733 19.2806 63.355 27.8147 63.355H61.8101V94.2598H27.8147C19.2806 94.2598 12.3623 87.3416 12.3623 78.8074Z" fill="#FF8F0D"/>
<path d="M135.981 63.355H169.977C178.511 63.355 185.429 70.2733 185.429 78.8074C185.429 87.3416 178.511 94.2598 169.977 94.2598H135.981V63.355Z" fill="#FF8F0D"/>
<rect x="61.9141" y="63.355" width="74.1717" height="71.0812" fill="#FF8F0D"/>
<path d="M61.8096 134.436H92.7144V168.432C92.7144 176.966 85.7961 183.884 77.262 183.884C68.7279 183.884 61.8096 176.966 61.8096 168.432V134.436Z" fill="#FF8F0D"/>
<path d="M105.076 134.436H135.981V168.432C135.981 176.966 129.063 183.884 120.529 183.884C111.994 183.884 105.076 176.966 105.076 168.432V134.436Z" fill="#FF8F0D"/>
<path d="M77.3662 33.9953C77.3662 22.0475 87.0518 12.3619 98.9996 12.3619C110.947 12.3619 120.633 22.0475 120.633 33.9953C120.633 45.9431 110.947 55.6287 98.9996 55.6287C87.0518 55.6287 77.3662 45.9431 77.3662 33.9953Z" fill="#FF8F0D"/>
<rect x="61.8096" y="111.258" width="30.9049" height="40.1763" fill="#23BF62"/>
<rect x="105.076" y="111.258" width="30.9049" height="40.1763" fill="#23BF62"/>
<rect x="61.8096" y="111.258" width="74.1717" height="23.1786" fill="#23BF62"/>
</svg>
